G75*
%MOIN*%
%OFA0B0*%
%FSLAX24Y24*%
%IPPOS*%
%LPD*%
%AMOC8*
5,1,8,0,0,1.08239X$1,22.5*
%
%ADD10C,0.0000*%
%ADD11R,0.0137X0.0550*%
%ADD12C,0.0540*%
%ADD13R,0.0880X0.0480*%
%ADD14R,0.0866X0.1417*%
%ADD15R,0.0433X0.0394*%
%ADD16R,0.0394X0.0433*%
%ADD17C,0.0531*%
%ADD18C,0.0413*%
%ADD19R,0.0354X0.0585*%
%ADD20R,0.0256X0.0413*%
%ADD21R,0.0390X0.0120*%
%ADD22R,0.0700X0.0700*%
%ADD23C,0.0700*%
%ADD24R,0.0150X0.0430*%
%ADD25R,0.0866X0.0984*%
%ADD26R,0.0787X0.0197*%
%ADD27R,0.0236X0.0197*%
%ADD28R,0.0240X0.0600*%
%ADD29R,0.0315X0.0315*%
%ADD30R,0.0630X0.0709*%
%ADD31R,0.0709X0.0630*%
%ADD32C,0.0100*%
%ADD33C,0.0240*%
%ADD34C,0.0160*%
%ADD35C,0.0240*%
%ADD36C,0.1000*%
%ADD37C,0.0500*%
%ADD38C,0.0320*%
%ADD39C,0.0472*%
%ADD40C,0.0400*%
%ADD41C,0.0080*%
%ADD42C,0.0317*%
%ADD43C,0.0760*%
D10*
X001650Y000650D02*
X023650Y000650D01*
X023710Y000652D01*
X023771Y000657D01*
X023830Y000666D01*
X023889Y000679D01*
X023948Y000695D01*
X024005Y000715D01*
X024060Y000738D01*
X024115Y000765D01*
X024167Y000794D01*
X024218Y000827D01*
X024267Y000863D01*
X024313Y000901D01*
X024357Y000943D01*
X024399Y000987D01*
X024437Y001033D01*
X024473Y001082D01*
X024506Y001133D01*
X024535Y001185D01*
X024562Y001240D01*
X024585Y001295D01*
X024605Y001352D01*
X024621Y001411D01*
X024634Y001470D01*
X024643Y001529D01*
X024648Y001590D01*
X024650Y001650D01*
X024650Y017650D01*
X024648Y017710D01*
X024643Y017771D01*
X024634Y017830D01*
X024621Y017889D01*
X024605Y017948D01*
X024585Y018005D01*
X024562Y018060D01*
X024535Y018115D01*
X024506Y018167D01*
X024473Y018218D01*
X024437Y018267D01*
X024399Y018313D01*
X024357Y018357D01*
X024313Y018399D01*
X024267Y018437D01*
X024218Y018473D01*
X024167Y018506D01*
X024115Y018535D01*
X024060Y018562D01*
X024005Y018585D01*
X023948Y018605D01*
X023889Y018621D01*
X023830Y018634D01*
X023771Y018643D01*
X023710Y018648D01*
X023650Y018650D01*
X001650Y018650D01*
X001590Y018648D01*
X001529Y018643D01*
X001470Y018634D01*
X001411Y018621D01*
X001352Y018605D01*
X001295Y018585D01*
X001240Y018562D01*
X001185Y018535D01*
X001133Y018506D01*
X001082Y018473D01*
X001033Y018437D01*
X000987Y018399D01*
X000943Y018357D01*
X000901Y018313D01*
X000863Y018267D01*
X000827Y018218D01*
X000794Y018167D01*
X000765Y018115D01*
X000738Y018060D01*
X000715Y018005D01*
X000695Y017948D01*
X000679Y017889D01*
X000666Y017830D01*
X000657Y017771D01*
X000652Y017710D01*
X000650Y017650D01*
X000650Y001650D01*
X000652Y001590D01*
X000657Y001529D01*
X000666Y001470D01*
X000679Y001411D01*
X000695Y001352D01*
X000715Y001295D01*
X000738Y001240D01*
X000765Y001185D01*
X000794Y001133D01*
X000827Y001082D01*
X000863Y001033D01*
X000901Y000987D01*
X000943Y000943D01*
X000987Y000901D01*
X001033Y000863D01*
X001082Y000827D01*
X001133Y000794D01*
X001185Y000765D01*
X001240Y000738D01*
X001295Y000715D01*
X001352Y000695D01*
X001411Y000679D01*
X001470Y000666D01*
X001529Y000657D01*
X001590Y000652D01*
X001650Y000650D01*
X001193Y001776D02*
X001195Y001826D01*
X001201Y001876D01*
X001211Y001925D01*
X001225Y001973D01*
X001242Y002020D01*
X001263Y002065D01*
X001288Y002109D01*
X001316Y002150D01*
X001348Y002189D01*
X001382Y002226D01*
X001419Y002260D01*
X001459Y002290D01*
X001501Y002317D01*
X001545Y002341D01*
X001591Y002362D01*
X001638Y002378D01*
X001686Y002391D01*
X001736Y002400D01*
X001785Y002405D01*
X001836Y002406D01*
X001886Y002403D01*
X001935Y002396D01*
X001984Y002385D01*
X002032Y002370D01*
X002078Y002352D01*
X002123Y002330D01*
X002166Y002304D01*
X002207Y002275D01*
X002246Y002243D01*
X002282Y002208D01*
X002314Y002170D01*
X002344Y002130D01*
X002371Y002087D01*
X002394Y002043D01*
X002413Y001997D01*
X002429Y001949D01*
X002441Y001900D01*
X002449Y001851D01*
X002453Y001801D01*
X002453Y001751D01*
X002449Y001701D01*
X002441Y001652D01*
X002429Y001603D01*
X002413Y001555D01*
X002394Y001509D01*
X002371Y001465D01*
X002344Y001422D01*
X002314Y001382D01*
X002282Y001344D01*
X002246Y001309D01*
X002207Y001277D01*
X002166Y001248D01*
X002123Y001222D01*
X002078Y001200D01*
X002032Y001182D01*
X001984Y001167D01*
X001935Y001156D01*
X001886Y001149D01*
X001836Y001146D01*
X001785Y001147D01*
X001736Y001152D01*
X001686Y001161D01*
X001638Y001174D01*
X001591Y001190D01*
X001545Y001211D01*
X001501Y001235D01*
X001459Y001262D01*
X001419Y001292D01*
X001382Y001326D01*
X001348Y001363D01*
X001316Y001402D01*
X001288Y001443D01*
X001263Y001487D01*
X001242Y001532D01*
X001225Y001579D01*
X001211Y001627D01*
X001201Y001676D01*
X001195Y001726D01*
X001193Y001776D01*
X001193Y017524D02*
X001195Y017574D01*
X001201Y017624D01*
X001211Y017673D01*
X001225Y017721D01*
X001242Y017768D01*
X001263Y017813D01*
X001288Y017857D01*
X001316Y017898D01*
X001348Y017937D01*
X001382Y017974D01*
X001419Y018008D01*
X001459Y018038D01*
X001501Y018065D01*
X001545Y018089D01*
X001591Y018110D01*
X001638Y018126D01*
X001686Y018139D01*
X001736Y018148D01*
X001785Y018153D01*
X001836Y018154D01*
X001886Y018151D01*
X001935Y018144D01*
X001984Y018133D01*
X002032Y018118D01*
X002078Y018100D01*
X002123Y018078D01*
X002166Y018052D01*
X002207Y018023D01*
X002246Y017991D01*
X002282Y017956D01*
X002314Y017918D01*
X002344Y017878D01*
X002371Y017835D01*
X002394Y017791D01*
X002413Y017745D01*
X002429Y017697D01*
X002441Y017648D01*
X002449Y017599D01*
X002453Y017549D01*
X002453Y017499D01*
X002449Y017449D01*
X002441Y017400D01*
X002429Y017351D01*
X002413Y017303D01*
X002394Y017257D01*
X002371Y017213D01*
X002344Y017170D01*
X002314Y017130D01*
X002282Y017092D01*
X002246Y017057D01*
X002207Y017025D01*
X002166Y016996D01*
X002123Y016970D01*
X002078Y016948D01*
X002032Y016930D01*
X001984Y016915D01*
X001935Y016904D01*
X001886Y016897D01*
X001836Y016894D01*
X001785Y016895D01*
X001736Y016900D01*
X001686Y016909D01*
X001638Y016922D01*
X001591Y016938D01*
X001545Y016959D01*
X001501Y016983D01*
X001459Y017010D01*
X001419Y017040D01*
X001382Y017074D01*
X001348Y017111D01*
X001316Y017150D01*
X001288Y017191D01*
X001263Y017235D01*
X001242Y017280D01*
X001225Y017327D01*
X001211Y017375D01*
X001201Y017424D01*
X001195Y017474D01*
X001193Y017524D01*
X022847Y017524D02*
X022849Y017574D01*
X022855Y017624D01*
X022865Y017673D01*
X022879Y017721D01*
X022896Y017768D01*
X022917Y017813D01*
X022942Y017857D01*
X022970Y017898D01*
X023002Y017937D01*
X023036Y017974D01*
X023073Y018008D01*
X023113Y018038D01*
X023155Y018065D01*
X023199Y018089D01*
X023245Y018110D01*
X023292Y018126D01*
X023340Y018139D01*
X023390Y018148D01*
X023439Y018153D01*
X023490Y018154D01*
X023540Y018151D01*
X023589Y018144D01*
X023638Y018133D01*
X023686Y018118D01*
X023732Y018100D01*
X023777Y018078D01*
X023820Y018052D01*
X023861Y018023D01*
X023900Y017991D01*
X023936Y017956D01*
X023968Y017918D01*
X023998Y017878D01*
X024025Y017835D01*
X024048Y017791D01*
X024067Y017745D01*
X024083Y017697D01*
X024095Y017648D01*
X024103Y017599D01*
X024107Y017549D01*
X024107Y017499D01*
X024103Y017449D01*
X024095Y017400D01*
X024083Y017351D01*
X024067Y017303D01*
X024048Y017257D01*
X024025Y017213D01*
X023998Y017170D01*
X023968Y017130D01*
X023936Y017092D01*
X023900Y017057D01*
X023861Y017025D01*
X023820Y016996D01*
X023777Y016970D01*
X023732Y016948D01*
X023686Y016930D01*
X023638Y016915D01*
X023589Y016904D01*
X023540Y016897D01*
X023490Y016894D01*
X023439Y016895D01*
X023390Y016900D01*
X023340Y016909D01*
X023292Y016922D01*
X023245Y016938D01*
X023199Y016959D01*
X023155Y016983D01*
X023113Y017010D01*
X023073Y017040D01*
X023036Y017074D01*
X023002Y017111D01*
X022970Y017150D01*
X022942Y017191D01*
X022917Y017235D01*
X022896Y017280D01*
X022879Y017327D01*
X022865Y017375D01*
X022855Y017424D01*
X022849Y017474D01*
X022847Y017524D01*
X022847Y001776D02*
X022849Y001826D01*
X022855Y001876D01*
X022865Y001925D01*
X022879Y001973D01*
X022896Y002020D01*
X022917Y002065D01*
X022942Y002109D01*
X022970Y002150D01*
X023002Y002189D01*
X023036Y002226D01*
X023073Y002260D01*
X023113Y002290D01*
X023155Y002317D01*
X023199Y002341D01*
X023245Y002362D01*
X023292Y002378D01*
X023340Y002391D01*
X023390Y002400D01*
X023439Y002405D01*
X023490Y002406D01*
X023540Y002403D01*
X023589Y002396D01*
X023638Y002385D01*
X023686Y002370D01*
X023732Y002352D01*
X023777Y002330D01*
X023820Y002304D01*
X023861Y002275D01*
X023900Y002243D01*
X023936Y002208D01*
X023968Y002170D01*
X023998Y002130D01*
X024025Y002087D01*
X024048Y002043D01*
X024067Y001997D01*
X024083Y001949D01*
X024095Y001900D01*
X024103Y001851D01*
X024107Y001801D01*
X024107Y001751D01*
X024103Y001701D01*
X024095Y001652D01*
X024083Y001603D01*
X024067Y001555D01*
X024048Y001509D01*
X024025Y001465D01*
X023998Y001422D01*
X023968Y001382D01*
X023936Y001344D01*
X023900Y001309D01*
X023861Y001277D01*
X023820Y001248D01*
X023777Y001222D01*
X023732Y001200D01*
X023686Y001182D01*
X023638Y001167D01*
X023589Y001156D01*
X023540Y001149D01*
X023490Y001146D01*
X023439Y001147D01*
X023390Y001152D01*
X023340Y001161D01*
X023292Y001174D01*
X023245Y001190D01*
X023199Y001211D01*
X023155Y001235D01*
X023113Y001262D01*
X023073Y001292D01*
X023036Y001326D01*
X023002Y001363D01*
X022970Y001402D01*
X022942Y001443D01*
X022917Y001487D01*
X022896Y001532D01*
X022879Y001579D01*
X022865Y001627D01*
X022855Y001676D01*
X022849Y001726D01*
X022847Y001776D01*
D11*
X021057Y013211D03*
X020802Y013211D03*
X020546Y013211D03*
X020290Y013211D03*
X020034Y013211D03*
X019778Y013211D03*
X019522Y013211D03*
X019266Y013211D03*
X019010Y013211D03*
X018754Y013211D03*
X018498Y013211D03*
X018243Y013211D03*
X018243Y016089D03*
X018498Y016089D03*
X018754Y016089D03*
X019010Y016089D03*
X019266Y016089D03*
X019522Y016089D03*
X019778Y016089D03*
X020034Y016089D03*
X020290Y016089D03*
X020546Y016089D03*
X020802Y016089D03*
X021057Y016089D03*
D12*
X004150Y001650D03*
D13*
X021180Y006740D03*
X021180Y007650D03*
X021180Y008560D03*
D14*
X023620Y007650D03*
D15*
X019235Y005650D03*
X018565Y005650D03*
X014985Y008650D03*
X014315Y008650D03*
X016190Y009650D03*
X016860Y009650D03*
X018565Y009775D03*
X019235Y009775D03*
X017485Y014150D03*
X016815Y014150D03*
X015485Y014150D03*
X014815Y014150D03*
X011485Y009400D03*
X010815Y009400D03*
X010815Y008400D03*
X011485Y008400D03*
X007985Y008150D03*
X007315Y008150D03*
X006110Y008150D03*
X005440Y008150D03*
X003110Y008150D03*
X002440Y008150D03*
D16*
X008525Y006485D03*
X008525Y005815D03*
X009400Y011565D03*
X009400Y012235D03*
X009275Y013815D03*
X009275Y014485D03*
X011900Y014485D03*
X011900Y013815D03*
X017525Y013485D03*
X017525Y012815D03*
X021400Y004985D03*
X021400Y004315D03*
D17*
X017650Y009650D03*
X015650Y013150D03*
X016150Y017650D03*
X017150Y017650D03*
X019650Y017650D03*
X020650Y017650D03*
X013150Y017650D03*
X012150Y017650D03*
X011150Y017650D03*
X010150Y017650D03*
X007650Y017650D03*
X006650Y017650D03*
X005650Y017650D03*
X004650Y017650D03*
D18*
X020525Y011044D03*
X020525Y010256D03*
D19*
X008194Y009056D03*
X007604Y009056D03*
X007013Y009056D03*
X006423Y009056D03*
X005832Y009056D03*
X005242Y009056D03*
X004651Y009056D03*
X004060Y009056D03*
X003470Y009056D03*
X003470Y016057D03*
X004060Y016057D03*
X004651Y016057D03*
X005242Y016057D03*
X005832Y016057D03*
X006423Y016057D03*
X007013Y016057D03*
X007604Y016057D03*
X008194Y016057D03*
D20*
X009977Y015467D03*
X010823Y015467D03*
X012602Y015467D03*
X013448Y015467D03*
X013448Y013833D03*
X012602Y013833D03*
X010823Y013833D03*
X009977Y013833D03*
D21*
X012001Y007813D03*
X012001Y007557D03*
X012001Y007302D03*
X012001Y007046D03*
X012001Y006790D03*
X012001Y006534D03*
X012001Y006278D03*
X012001Y006022D03*
X012001Y005766D03*
X012001Y005510D03*
X012001Y005254D03*
X012001Y004998D03*
X012001Y004743D03*
X012001Y004487D03*
X014299Y004487D03*
X014299Y004743D03*
X014299Y004998D03*
X014299Y005254D03*
X014299Y005510D03*
X014299Y005766D03*
X014299Y006022D03*
X014299Y006278D03*
X014299Y006534D03*
X014299Y006790D03*
X014299Y007046D03*
X014299Y007302D03*
X014299Y007557D03*
X014299Y007813D03*
D22*
X012650Y003650D03*
X016650Y003650D03*
X020650Y003650D03*
X008650Y003650D03*
D23*
X007650Y003650D03*
X006650Y003650D03*
X005650Y003650D03*
X005650Y002650D03*
X006650Y002650D03*
X007650Y002650D03*
X008650Y002650D03*
X009650Y002650D03*
X010650Y002650D03*
X011650Y002650D03*
X012650Y002650D03*
X013650Y002650D03*
X014650Y002650D03*
X015650Y002650D03*
X016650Y002650D03*
X017650Y002650D03*
X018650Y002650D03*
X019650Y002650D03*
X020650Y002650D03*
X020650Y001650D03*
X019650Y001650D03*
X018650Y001650D03*
X017650Y001650D03*
X016650Y001650D03*
X015650Y001650D03*
X014650Y001650D03*
X013650Y001650D03*
X012650Y001650D03*
X011650Y001650D03*
X010650Y001650D03*
X009650Y001650D03*
X008650Y001650D03*
X007650Y001650D03*
X006650Y001650D03*
X005650Y001650D03*
X009650Y003650D03*
X010650Y003650D03*
X011650Y003650D03*
X013650Y003650D03*
X014650Y003650D03*
X015650Y003650D03*
X017650Y003650D03*
X018650Y003650D03*
X019650Y003650D03*
D24*
X007525Y005266D03*
X007275Y005266D03*
X007025Y005266D03*
X006775Y005266D03*
X006525Y005266D03*
X006275Y005266D03*
X006025Y005266D03*
X005775Y005266D03*
X005525Y005266D03*
X005275Y005266D03*
X005275Y007534D03*
X005525Y007534D03*
X005775Y007534D03*
X006025Y007534D03*
X006275Y007534D03*
X006525Y007534D03*
X006775Y007534D03*
X007025Y007534D03*
X007275Y007534D03*
X007525Y007534D03*
D25*
X003937Y007054D03*
X001851Y007054D03*
X001851Y003746D03*
X003937Y003746D03*
D26*
X004036Y004770D03*
X004036Y005085D03*
X004036Y005400D03*
X004036Y005715D03*
X004036Y006030D03*
D27*
X020894Y005847D03*
X020894Y005453D03*
X021406Y005650D03*
D28*
X021900Y005730D03*
X022400Y005730D03*
X022900Y005730D03*
X023400Y005730D03*
X023400Y003570D03*
X022900Y003570D03*
X022400Y003570D03*
X021900Y003570D03*
D29*
X017945Y005650D03*
X017355Y005650D03*
X010070Y008400D03*
X009480Y008400D03*
X009480Y009400D03*
X010070Y009400D03*
D30*
X015099Y015275D03*
X016201Y015275D03*
D31*
X018900Y008451D03*
X018900Y007349D03*
D32*
X001120Y001120D02*
X000982Y001310D01*
X000909Y001533D01*
X000900Y001650D01*
X000900Y003734D01*
X001268Y003734D01*
X001268Y003192D01*
X001356Y003104D01*
X002346Y003104D01*
X002434Y003192D01*
X002434Y003734D01*
X003035Y003734D01*
X003123Y003822D01*
X003123Y004522D01*
X004036Y004522D01*
X004449Y004522D01*
X004487Y004532D01*
X004522Y004552D01*
X004550Y004580D01*
X004569Y004614D01*
X004580Y004652D01*
X004580Y004770D01*
X004036Y004770D01*
X004036Y004770D01*
X004036Y004522D01*
X004036Y004770D01*
X004036Y004770D01*
X004580Y004770D01*
X004580Y004888D01*
X004572Y004917D01*
X004580Y004924D01*
X004580Y005063D01*
X004942Y004700D01*
X005233Y004700D01*
X005350Y004817D01*
X005434Y004901D01*
X006412Y004901D01*
X006416Y004905D01*
X006430Y004901D01*
X006525Y004901D01*
X006618Y004901D01*
X005833Y004116D01*
X005749Y004150D01*
X005551Y004150D01*
X005367Y004074D01*
X005226Y003933D01*
X005150Y003749D01*
X005150Y003551D01*
X005226Y003367D01*
X005367Y003226D01*
X005511Y003166D01*
X005350Y003099D01*
X005201Y002950D01*
X005120Y002755D01*
X005120Y002545D01*
X005201Y002350D01*
X005350Y002201D01*
X005516Y002132D01*
X005458Y002113D01*
X005388Y002078D01*
X005324Y002031D01*
X005269Y001976D01*
X005222Y001912D01*
X005187Y001842D01*
X005162Y001767D01*
X005151Y001698D01*
X005602Y001698D01*
X005602Y001602D01*
X005698Y001602D01*
X005698Y001698D01*
X006149Y001698D01*
X006138Y001767D01*
X006113Y001842D01*
X006078Y001912D01*
X006031Y001976D01*
X005976Y002031D01*
X005912Y002078D01*
X005842Y002113D01*
X005822Y002120D01*
X006478Y002120D01*
X006458Y002113D01*
X006388Y002078D01*
X006324Y002031D01*
X006269Y001976D01*
X006222Y001912D01*
X006187Y001842D01*
X006162Y001767D01*
X006151Y001698D01*
X006602Y001698D01*
X006602Y001602D01*
X006698Y001602D01*
X006698Y001698D01*
X007149Y001698D01*
X007138Y001767D01*
X007113Y001842D01*
X007078Y001912D01*
X007031Y001976D01*
X006976Y002031D01*
X006912Y002078D01*
X006842Y002113D01*
X006822Y002120D01*
X007478Y002120D01*
X007458Y002113D01*
X007388Y002078D01*
X007324Y002031D01*
X007269Y001976D01*
X007222Y001912D01*
X007187Y001842D01*
X007162Y001767D01*
X007151Y001698D01*
X007602Y001698D01*
X007602Y001602D01*
X007698Y001602D01*
X007698Y001698D01*
X008149Y001698D01*
X008138Y001767D01*
X008113Y001842D01*
X008078Y001912D01*
X008031Y001976D01*
X007976Y002031D01*
X007912Y002078D01*
X007842Y002113D01*
X007822Y002120D01*
X008478Y002120D01*
X008458Y002113D01*
X008388Y002078D01*
X008324Y002031D01*
X008269Y001976D01*
X008222Y001912D01*
X008187Y001842D01*
X008162Y001767D01*
X008151Y001698D01*
X008602Y001698D01*
X008602Y001602D01*
X008698Y001602D01*
X008698Y001698D01*
X009149Y001698D01*
X009138Y001767D01*
X009113Y001842D01*
X009078Y001912D01*
X009031Y001976D01*
X008976Y002031D01*
X008912Y002078D01*
X008842Y002113D01*
X008822Y002120D01*
X009478Y002120D01*
X009458Y002113D01*
X009388Y002078D01*
X009324Y002031D01*
X009269Y001976D01*
X009222Y001912D01*
X009187Y001842D01*
X009162Y001767D01*
X009151Y001698D01*
X009602Y001698D01*
X009602Y001602D01*
X009698Y001602D01*
X009698Y001698D01*
X010149Y001698D01*
X010138Y001767D01*
X010113Y001842D01*
X010078Y001912D01*
X010031Y001976D01*
X009976Y002031D01*
X009912Y002078D01*
X009842Y002113D01*
X009822Y002120D01*
X010478Y002120D01*
X010458Y002113D01*
X010388Y002078D01*
X010324Y002031D01*
X010269Y001976D01*
X010222Y001912D01*
X010187Y001842D01*
X010162Y001767D01*
X010151Y001698D01*
X010602Y001698D01*
X010602Y001602D01*
X010698Y001602D01*
X010698Y001698D01*
X011149Y001698D01*
X011138Y001767D01*
X011113Y001842D01*
X011078Y001912D01*
X011031Y001976D01*
X010976Y002031D01*
X010912Y002078D01*
X010842Y002113D01*
X010822Y002120D01*
X011478Y002120D01*
X011458Y002113D01*
X011388Y002078D01*
X011324Y002031D01*
X011269Y001976D01*
X011222Y001912D01*
X011187Y001842D01*
X011162Y001767D01*
X011151Y001698D01*
X011602Y001698D01*
X011602Y001602D01*
X011698Y001602D01*
X011698Y001698D01*
X012149Y001698D01*
X012138Y001767D01*
X012113Y001842D01*
X012078Y001912D01*
X012031Y001976D01*
X011976Y002031D01*
X011912Y002078D01*
X011842Y002113D01*
X011822Y002120D01*
X012478Y002120D01*
X012458Y002113D01*
X012388Y002078D01*
X012324Y002031D01*
X012269Y001976D01*
X012222Y001912D01*
X012187Y001842D01*
X012162Y001767D01*
X012151Y001698D01*
X012602Y001698D01*
X012602Y001602D01*
X012698Y001602D01*
X012698Y001698D01*
X013149Y001698D01*
X013138Y001767D01*
X013113Y001842D01*
X013078Y001912D01*
X013031Y001976D01*
X012976Y002031D01*
X012912Y002078D01*
X012842Y002113D01*
X012822Y002120D01*
X013478Y002120D01*
X013458Y002113D01*
X013388Y002078D01*
X013324Y002031D01*
X013269Y001976D01*
X013222Y001912D01*
X013187Y001842D01*
X013162Y001767D01*
X013151Y001698D01*
X013602Y001698D01*
X013602Y001602D01*
X013698Y001602D01*
X013698Y001698D01*
X014149Y001698D01*
X014138Y001767D01*
X014113Y001842D01*
X014078Y001912D01*
X014031Y001976D01*
X013976Y002031D01*
X013912Y002078D01*
X013842Y002113D01*
X013822Y002120D01*
X014478Y002120D01*
X014458Y002113D01*
X014388Y002078D01*
X014324Y002031D01*
X014269Y001976D01*
X014222Y001912D01*
X014187Y001842D01*
X014162Y001767D01*
X014151Y001698D01*
X014602Y001698D01*
X014602Y001602D01*
X014698Y001602D01*
X014698Y001698D01*
X015149Y001698D01*
X015138Y001767D01*
X015113Y001842D01*
X015078Y001912D01*
X015031Y001976D01*
X014976Y002031D01*
X014912Y002078D01*
X014842Y002113D01*
X014822Y002120D01*
X015478Y002120D01*
X015458Y002113D01*
X015388Y002078D01*
X015324Y002031D01*
X015269Y001976D01*
X015222Y001912D01*
X015187Y001842D01*
X015162Y001767D01*
X015151Y001698D01*
X015602Y001698D01*
X015602Y001602D01*
X015698Y001602D01*
X015698Y001698D01*
X016149Y001698D01*
X016138Y001767D01*
X016113Y001842D01*
X016078Y001912D01*
X016031Y001976D01*
X015976Y002031D01*
X015912Y002078D01*
X015842Y002113D01*
X015822Y002120D01*
X016478Y002120D01*
X016458Y002113D01*
X016388Y002078D01*
X016324Y002031D01*
X016269Y001976D01*
X016222Y001912D01*
X016187Y001842D01*
X016162Y001767D01*
X016151Y001698D01*
X016602Y001698D01*
X016602Y001602D01*
X016698Y001602D01*
X016698Y001698D01*
X017149Y001698D01*
X017138Y001767D01*
X017113Y001842D01*
X017078Y001912D01*
X017031Y001976D01*
X016976Y002031D01*
X016912Y002078D01*
X016842Y002113D01*
X016822Y002120D01*
X017478Y002120D01*
X017458Y002113D01*
X017388Y002078D01*
X017324Y002031D01*
X017269Y001976D01*
X017222Y001912D01*
X017187Y001842D01*
X017162Y001767D01*
X017151Y001698D01*
X017602Y001698D01*
X017602Y001602D01*
X017698Y001602D01*
X017698Y001698D01*
X018149Y001698D01*
X018138Y001767D01*
X018113Y001842D01*
X018078Y001912D01*
X018031Y001976D01*
X017976Y002031D01*
X017912Y002078D01*
X017842Y002113D01*
X017822Y002120D01*
X018478Y002120D01*
X018458Y002113D01*
X018388Y002078D01*
X018324Y002031D01*
X018269Y001976D01*
X018222Y001912D01*
X018187Y001842D01*
X018162Y001767D01*
X018151Y001698D01*
X018602Y001698D01*
X018602Y001602D01*
X018698Y001602D01*
X018698Y001698D01*
X019149Y001698D01*
X019138Y001767D01*
X019113Y001842D01*
X019078Y001912D01*
X019031Y001976D01*
X018976Y002031D01*
X018912Y002078D01*
X018842Y002113D01*
X018822Y002120D01*
X019478Y002120D01*
X019458Y002113D01*
X019388Y002078D01*
X019324Y002031D01*
X019269Y001976D01*
X019222Y001912D01*
X019187Y001842D01*
X019162Y001767D01*
X019151Y001698D01*
X019602Y001698D01*
X019602Y001602D01*
X019698Y001602D01*
X019698Y001698D01*
X020149Y001698D01*
X020138Y001767D01*
X020113Y001842D01*
X020078Y001912D01*
X020031Y001976D01*
X019976Y002031D01*
X019912Y002078D01*
X019842Y002113D01*
X019822Y002120D01*
X020478Y002120D01*
X020458Y002113D01*
X020388Y002078D01*
X020324Y002031D01*
X020269Y001976D01*
X020222Y001912D01*
X020187Y001842D01*
X020162Y001767D01*
X020151Y001698D01*
X020602Y001698D01*
X020602Y001602D01*
X020698Y001602D01*
X020698Y001698D01*
X021149Y001698D01*
X021138Y001767D01*
X021113Y001842D01*
X021078Y001912D01*
X021031Y001976D01*
X020976Y002031D01*
X020912Y002078D01*
X020842Y002113D01*
X020822Y002120D01*
X021369Y002120D01*
X021394Y002109D01*
X021424Y002120D01*
X021505Y002120D01*
X021517Y002125D01*
X021893Y002125D01*
X021969Y002120D01*
X021975Y002125D01*
X021983Y002125D01*
X022037Y002179D01*
X022975Y003000D01*
X022983Y003000D01*
X023037Y003054D01*
X023094Y003104D01*
X023095Y003112D01*
X023108Y003125D01*
X023213Y003125D01*
X023218Y003120D01*
X023582Y003120D01*
X023670Y003208D01*
X023670Y003237D01*
X023675Y003242D01*
X023675Y003858D01*
X023670Y003863D01*
X023670Y003932D01*
X023582Y004020D01*
X023218Y004020D01*
X023173Y003975D01*
X023127Y003975D01*
X023082Y004020D01*
X022718Y004020D01*
X022673Y003975D01*
X022627Y003975D01*
X022582Y004020D01*
X022218Y004020D01*
X022173Y003975D01*
X022127Y003975D01*
X022082Y004020D01*
X021730Y004020D01*
X021747Y004037D01*
X021747Y004085D01*
X021911Y004085D01*
X022495Y004670D01*
X022630Y004805D01*
X022630Y005325D01*
X022673Y005325D01*
X022718Y005280D01*
X023082Y005280D01*
X023127Y005325D01*
X023173Y005325D01*
X023218Y005280D01*
X023582Y005280D01*
X023670Y005368D01*
X023670Y005437D01*
X023675Y005442D01*
X023675Y006233D01*
X023050Y006858D01*
X023050Y006879D01*
X023067Y006849D01*
X023095Y006821D01*
X023129Y006802D01*
X023167Y006791D01*
X023570Y006791D01*
X023570Y007600D01*
X023670Y007600D01*
X023670Y006791D01*
X024073Y006791D01*
X024111Y006802D01*
X024145Y006821D01*
X024173Y006849D01*
X024193Y006883D01*
X024203Y006922D01*
X024203Y007600D01*
X023670Y007600D01*
X023670Y007700D01*
X023570Y007700D01*
X023570Y008509D01*
X023167Y008509D01*
X023129Y008498D01*
X023095Y008479D01*
X023067Y008451D01*
X023050Y008421D01*
X023050Y013529D01*
X022951Y013768D01*
X022201Y014518D01*
X022018Y014701D01*
X021779Y014800D01*
X018530Y014800D01*
X017759Y015572D01*
X017630Y015625D01*
X016666Y015625D01*
X016666Y015691D01*
X016658Y015700D01*
X017994Y015700D01*
X018029Y015665D01*
X018087Y015607D01*
X018088Y015607D01*
X018089Y015607D01*
X018171Y015607D01*
X018646Y015607D01*
X018703Y015664D01*
X018754Y015664D01*
X018754Y015716D01*
X018754Y015664D01*
X018843Y015664D01*
X018881Y015675D01*
X018882Y015675D01*
X018884Y015675D01*
X018922Y015664D01*
X019010Y015664D01*
X019010Y016089D01*
X019010Y016089D01*
X018763Y016089D01*
X018763Y016089D01*
X018792Y016089D01*
X019010Y016089D01*
X019010Y016089D01*
X019010Y015664D01*
X019098Y015664D01*
X019128Y015672D01*
X019136Y015664D01*
X019154Y015664D01*
X019160Y015657D01*
X019170Y015657D01*
X019177Y015651D01*
X019251Y015657D01*
X019326Y015657D01*
X019333Y015664D01*
X019336Y015664D01*
X019519Y015664D01*
X019567Y015616D01*
X020109Y015616D01*
X020191Y015615D01*
X020192Y015616D01*
X020193Y015616D01*
X020242Y015664D01*
X020290Y015664D01*
X020378Y015664D01*
X020416Y015675D01*
X020418Y015675D01*
X020419Y015675D01*
X020457Y015664D01*
X020546Y015664D01*
X020634Y015664D01*
X020663Y015672D01*
X020671Y015664D01*
X020689Y015664D01*
X020696Y015657D01*
X021155Y015657D01*
X021162Y015664D01*
X021188Y015664D01*
X021276Y015752D01*
X021276Y016375D01*
X021558Y016375D01*
X021675Y016492D01*
X021675Y018400D01*
X023292Y018400D01*
X022978Y018270D01*
X022731Y018022D01*
X022597Y017699D01*
X022597Y017349D01*
X022731Y017026D01*
X022978Y016778D01*
X023302Y016644D01*
X023652Y016644D01*
X023975Y016778D01*
X024223Y017026D01*
X024357Y017349D01*
X024357Y017699D01*
X024223Y018022D01*
X023975Y018270D01*
X023664Y018399D01*
X023767Y018391D01*
X023990Y018318D01*
X024180Y018180D01*
X024318Y017990D01*
X024391Y017767D01*
X024400Y017650D01*
X024400Y001650D01*
X024391Y001533D01*
X024318Y001310D01*
X024180Y001120D01*
X023990Y000982D01*
X023767Y000909D01*
X023664Y000901D01*
X023975Y001030D01*
X024223Y001278D01*
X024357Y001601D01*
X024357Y001951D01*
X024223Y002274D01*
X023975Y002522D01*
X023652Y002656D01*
X023302Y002656D01*
X022978Y002522D01*
X022731Y002274D01*
X022597Y001951D01*
X022597Y001601D01*
X022731Y001278D01*
X022978Y001030D01*
X023292Y000900D01*
X002008Y000900D01*
X002322Y001030D01*
X002569Y001278D01*
X002703Y001601D01*
X002703Y001951D01*
X002569Y002274D01*
X002322Y002522D01*
X001998Y002656D01*
X001648Y002656D01*
X001325Y002522D01*
X001077Y002274D01*
X000943Y001951D01*
X000943Y001601D01*
X001077Y001278D01*
X001325Y001030D01*
X001636Y000901D01*
X001533Y000909D01*
X001310Y000982D01*
X001120Y001120D01*
X001103Y001143D02*
X001212Y001143D01*
X001224Y001044D02*
X001311Y001044D01*
X001421Y000946D02*
X001529Y000946D01*
X001114Y001241D02*
X001032Y001241D01*
X001052Y001340D02*
X000972Y001340D01*
X000940Y001438D02*
X001011Y001438D01*
X000970Y001537D02*
X000909Y001537D01*
X000901Y001635D02*
X000943Y001635D01*
X000943Y001734D02*
X000900Y001734D01*
X000900Y001832D02*
X000943Y001832D01*
X000943Y001931D02*
X000900Y001931D01*
X000900Y002029D02*
X000976Y002029D01*
X001016Y002128D02*
X000900Y002128D01*
X000900Y002226D02*
X001057Y002226D01*
X001127Y002325D02*
X000900Y002325D01*
X000900Y002423D02*
X001226Y002423D01*
X001324Y002522D02*
X000900Y002522D01*
X000900Y002620D02*
X001562Y002620D01*
X002085Y002620D02*
X005120Y002620D01*
X005120Y002719D02*
X000900Y002719D01*
X000900Y002817D02*
X005146Y002817D01*
X005186Y002916D02*
X000900Y002916D01*
X000900Y003014D02*
X005264Y003014D01*
X005382Y003113D02*
X004441Y003113D01*
X004433Y003104D02*
X004520Y003192D01*
X004520Y004301D01*
X004433Y004389D01*
X003442Y004389D01*
X003354Y004301D01*
X003354Y003192D01*
X003442Y003104D01*
X004433Y003104D01*
X004520Y003211D02*
X005403Y003211D01*
X005283Y003310D02*
X004520Y003310D01*
X004520Y003408D02*
X005209Y003408D01*
X005168Y003507D02*
X004520Y003507D01*
X004520Y003605D02*
X005150Y003605D01*
X005150Y003704D02*
X004520Y003704D01*
X004520Y003802D02*
X005172Y003802D01*
X005213Y003901D02*
X004520Y003901D01*
X004520Y003999D02*
X005292Y003999D01*
X005424Y004098D02*
X004520Y004098D01*
X004520Y004196D02*
X005913Y004196D01*
X006012Y004295D02*
X004520Y004295D01*
X004556Y004590D02*
X006307Y004590D01*
X006209Y004492D02*
X003123Y004492D01*
X003123Y004393D02*
X006110Y004393D01*
X006406Y004689D02*
X004580Y004689D01*
X004580Y004787D02*
X004855Y004787D01*
X004757Y004886D02*
X004580Y004886D01*
X004580Y004984D02*
X004658Y004984D01*
X005025Y004900D02*
X004525Y005400D01*
X004036Y005400D01*
X004036Y005715D02*
X005335Y005715D01*
X005525Y005525D01*
X005525Y005266D01*
X005275Y005266D02*
X005275Y005025D01*
X005150Y004900D01*
X005025Y004900D01*
X005320Y004787D02*
X006504Y004787D01*
X006525Y004901D02*
X006525Y005266D01*
X006525Y004901D01*
X006603Y004886D02*
X005418Y004886D01*
X005775Y005249D02*
X005886Y005178D01*
X005775Y005249D02*
X005775Y005266D01*
X006025Y005266D01*
X005886Y005636D02*
X005900Y005650D01*
X005275Y005400D02*
X005275Y005266D01*
X005757Y006260D02*
X004510Y006260D01*
X004492Y006278D01*
X004005Y006278D01*
X004000Y006304D01*
X004000Y006375D01*
X003981Y006394D01*
X003978Y006411D01*
X004433Y006411D01*
X004520Y006499D01*
X004520Y007608D01*
X004433Y007696D01*
X003442Y007696D01*
X003439Y007693D01*
X003439Y007854D01*
X003476Y007891D01*
X003476Y008409D01*
X003388Y008497D01*
X002831Y008497D01*
X002775Y008441D01*
X002749Y008467D01*
X002715Y008487D01*
X002677Y008497D01*
X002489Y008497D01*
X002489Y008198D01*
X002392Y008198D01*
X002392Y008102D01*
X002074Y008102D01*
X002074Y007933D01*
X002084Y007895D01*
X002104Y007861D01*
X002132Y007833D01*
X002166Y007813D01*
X002204Y007803D01*
X002392Y007803D01*
X002392Y008102D01*
X002489Y008102D01*
X002489Y007803D01*
X002677Y007803D01*
X002715Y007813D01*
X002749Y007833D01*
X002775Y007859D01*
X002831Y007803D01*
X002979Y007803D01*
X002979Y007066D01*
X002434Y007066D01*
X002434Y007608D01*
X002346Y007696D01*
X001356Y007696D01*
X001268Y007608D01*
X001268Y007066D01*
X000900Y007066D01*
X000900Y008556D01*
X003025Y008556D01*
X003143Y008702D01*
X003143Y008701D01*
X003231Y008613D01*
X003709Y008613D01*
X003765Y008669D01*
X003821Y008613D01*
X004300Y008613D01*
X004356Y008669D01*
X004412Y008613D01*
X004890Y008613D01*
X004946Y008669D01*
X005002Y008613D01*
X005481Y008613D01*
X005537Y008669D01*
X005593Y008613D01*
X006071Y008613D01*
X006127Y008669D01*
X006176Y008620D01*
X006062Y008497D01*
X005831Y008497D01*
X005775Y008441D01*
X005749Y008467D01*
X005715Y008487D01*
X005677Y008497D01*
X005489Y008497D01*
X005489Y008198D01*
X005392Y008198D01*
X005392Y008102D01*
X005074Y008102D01*
X005074Y007933D01*
X005084Y007895D01*
X005102Y007863D01*
X005050Y007811D01*
X005050Y007256D01*
X005075Y007231D01*
X005075Y006942D01*
X005192Y006825D01*
X005757Y006260D01*
X005753Y006265D02*
X004505Y006265D01*
X004483Y006462D02*
X005556Y006462D01*
X005457Y006560D02*
X004520Y006560D01*
X004520Y006659D02*
X005359Y006659D01*
X005260Y006757D02*
X004520Y006757D01*
X004520Y006856D02*
X005162Y006856D01*
X005075Y006954D02*
X004520Y006954D01*
X004520Y007053D02*
X005075Y007053D01*
X005075Y007151D02*
X004520Y007151D01*
X004520Y007250D02*
X005057Y007250D01*
X005050Y007348D02*
X004520Y007348D01*
X004520Y007447D02*
X005050Y007447D01*
X005050Y007545D02*
X004520Y007545D01*
X004485Y007644D02*
X005050Y007644D01*
X005050Y007742D02*
X003439Y007742D01*
X003439Y007841D02*
X005079Y007841D01*
X005074Y007939D02*
X003476Y007939D01*
X003476Y008038D02*
X005074Y008038D01*
X005074Y008198D02*
X005392Y008198D01*
X005392Y008497D01*
X005204Y008497D01*
X005166Y008487D01*
X005132Y008467D01*
X005104Y008439D01*
X005084Y008405D01*
X005074Y008367D01*
X005074Y008198D01*
X005074Y008235D02*
X003476Y008235D01*
X003476Y008333D02*
X005074Y008333D01*
X005099Y008432D02*
X003454Y008432D01*
X003476Y008136D02*
X005392Y008136D01*
X005392Y008235D02*
X005489Y008235D01*
X005489Y008333D02*
X005392Y008333D01*
X005392Y008432D02*
X005489Y008432D01*
X005496Y008629D02*
X005577Y008629D01*
X005832Y009056D02*
X005832Y009582D01*
X006900Y010650D01*
X012900Y010650D01*
X013775Y011525D01*
X018150Y011525D01*
X019266Y012641D01*
X019266Y013211D01*
X019010Y013211D02*
X019010Y012760D01*
X018025Y011775D01*
X013650Y011775D01*
X012775Y010900D01*
X006525Y010900D01*
X005242Y009617D01*
X005242Y009056D01*
X004987Y008629D02*
X004906Y008629D01*
X004651Y009056D02*
X004650Y009650D01*
X006150Y011150D01*
X012650Y011150D01*
X013525Y012025D01*
X017900Y012025D01*
X018754Y012879D01*
X018754Y013211D01*
X018498Y013211D02*
X018498Y013223D01*
X018367Y013091D01*
X018243Y013215D01*
X018243Y013211D01*
X018024Y013258D02*
X017872Y013258D01*
X017872Y013206D02*
X017872Y013759D01*
X018032Y013599D01*
X018057Y013589D01*
X018057Y013580D01*
X018024Y013548D01*
X018024Y012873D01*
X018112Y012786D01*
X018294Y012786D01*
X018305Y012781D01*
X018373Y012781D01*
X017817Y012225D01*
X015982Y012225D01*
X016379Y012622D01*
X016420Y012721D01*
X016420Y013880D01*
X016460Y013880D01*
X016537Y013803D01*
X017094Y013803D01*
X017150Y013859D01*
X017206Y013803D01*
X017218Y013803D01*
X017178Y013763D01*
X017178Y013206D01*
X017234Y013150D01*
X017208Y013124D01*
X017188Y013090D01*
X017178Y013052D01*
X017178Y012864D01*
X016420Y012864D01*
X016420Y012766D02*
X017178Y012766D01*
X017178Y012767D02*
X017178Y012579D01*
X017188Y012541D01*
X017208Y012507D01*
X017236Y012479D01*
X017270Y012459D01*
X017308Y012449D01*
X017477Y012449D01*
X017477Y012767D01*
X017573Y012767D01*
X017573Y012449D01*
X017742Y012449D01*
X017780Y012459D01*
X017814Y012479D01*
X017842Y012507D01*
X017862Y012541D01*
X017872Y012579D01*
X017872Y012767D01*
X017573Y012767D01*
X017573Y012864D01*
X017872Y012864D01*
X018033Y012864D01*
X018024Y012963D02*
X017872Y012963D01*
X017872Y013052D02*
X017862Y013090D01*
X017842Y013124D01*
X017816Y013150D01*
X017872Y013206D01*
X017825Y013160D02*
X018024Y013160D01*
X018024Y013061D02*
X017869Y013061D01*
X017872Y013052D02*
X017872Y012864D01*
X017872Y012766D02*
X018358Y012766D01*
X018259Y012667D02*
X017872Y012667D01*
X017869Y012569D02*
X018161Y012569D01*
X018062Y012470D02*
X017799Y012470D01*
X017964Y012372D02*
X016128Y012372D01*
X016227Y012470D02*
X017251Y012470D01*
X017181Y012569D02*
X016325Y012569D01*
X016398Y012667D02*
X017178Y012667D01*
X017178Y012767D02*
X017477Y012767D01*
X017477Y012864D01*
X017178Y012864D01*
X017178Y012963D02*
X016420Y012963D01*
X016420Y013061D02*
X017181Y013061D01*
X017225Y013160D02*
X016420Y013160D01*
X016420Y013258D02*
X017178Y013258D01*
X017178Y013357D02*
X016420Y013357D01*
X016420Y013455D02*
X017178Y013455D01*
X017178Y013554D02*
X016420Y013554D01*
X016420Y013652D02*
X017178Y013652D01*
X017178Y013751D02*
X016420Y013751D01*
X016420Y013849D02*
X016491Y013849D01*
X015880Y013849D02*
X015809Y013849D01*
X015840Y013880D02*
X015880Y013880D01*
X015880Y013505D01*
X015733Y013566D01*
X015567Y013566D01*
X015414Y013502D01*
X015334Y013421D01*
X012130Y013421D01*
X012130Y013449D01*
X012159Y013449D01*
X012247Y013537D01*
X012247Y014094D01*
X012191Y014150D01*
X012247Y014206D01*
X012247Y014763D01*
X012159Y014851D01*
X012100Y014851D01*
X012100Y014942D01*
X012340Y015182D01*
X012402Y015120D01*
X012402Y014832D01*
X012373Y014803D01*
X012332Y014704D01*
X012332Y014596D01*
X012373Y014497D01*
X012402Y014468D01*
X012402Y014180D01*
X012324Y014102D01*
X012324Y013564D01*
X012412Y013476D01*
X012792Y013476D01*
X012880Y013564D01*
X012880Y014102D01*
X012802Y014180D01*
X012802Y014433D01*
X012811Y014442D01*
X012811Y014450D01*
X012816Y014457D01*
X012814Y014481D01*
X012831Y014497D01*
X012872Y014596D01*
X012872Y014704D01*
X012831Y014803D01*
X012802Y014832D01*
X012802Y015120D01*
X012880Y015198D01*
X012880Y015736D01*
X012792Y015824D01*
X012412Y015824D01*
X012324Y015736D01*
X012324Y015725D01*
X012317Y015725D01*
X012200Y015608D01*
X011700Y015108D01*
X011700Y014851D01*
X011641Y014851D01*
X011553Y014763D01*
X011553Y014206D01*
X011609Y014150D01*
X011553Y014094D01*
X011553Y013537D01*
X011641Y013449D01*
X011670Y013449D01*
X011670Y013421D01*
X010485Y013421D01*
X010476Y013425D01*
X009505Y013425D01*
X009505Y013449D01*
X009534Y013449D01*
X009622Y013537D01*
X009622Y014094D01*
X009566Y014150D01*
X009622Y014206D01*
X009622Y014763D01*
X009534Y014851D01*
X009475Y014851D01*
X009475Y014942D01*
X009715Y015182D01*
X009777Y015120D01*
X009777Y014180D01*
X009699Y014102D01*
X009699Y013564D01*
X009787Y013476D01*
X010167Y013476D01*
X010255Y013564D01*
X010255Y014102D01*
X010177Y014180D01*
X010177Y015120D01*
X010255Y015198D01*
X010255Y015736D01*
X010167Y015824D01*
X009787Y015824D01*
X009699Y015736D01*
X009699Y015725D01*
X009692Y015725D01*
X009575Y015608D01*
X009075Y015108D01*
X009075Y014851D01*
X009016Y014851D01*
X008928Y014763D01*
X008928Y014653D01*
X008904Y014653D01*
X008875Y014682D01*
X008776Y014723D01*
X008668Y014723D01*
X008569Y014682D01*
X008493Y014606D01*
X008452Y014507D01*
X008452Y014399D01*
X008493Y014300D01*
X008569Y014224D01*
X008668Y014183D01*
X008776Y014183D01*
X008875Y014224D01*
X008904Y014253D01*
X008928Y014253D01*
X008928Y014206D01*
X008984Y014150D01*
X008928Y014094D01*
X008928Y013537D01*
X009016Y013449D01*
X009045Y013449D01*
X009045Y013425D01*
X008945Y013425D01*
X008798Y013364D01*
X008686Y013252D01*
X007948Y012514D01*
X007932Y012553D01*
X007856Y012629D01*
X007796Y012654D01*
X007803Y015615D01*
X007843Y015615D01*
X007899Y015671D01*
X007955Y015615D01*
X008434Y015615D01*
X008518Y015700D01*
X008968Y015700D01*
X008997Y015671D01*
X009096Y015630D01*
X009204Y015630D01*
X009303Y015671D01*
X009379Y015747D01*
X009420Y015846D01*
X009420Y015954D01*
X009379Y016053D01*
X009303Y016129D01*
X009204Y016170D01*
X009096Y016170D01*
X008997Y016129D01*
X008968Y016100D01*
X008521Y016100D01*
X008521Y016412D01*
X008434Y016500D01*
X007955Y016500D01*
X007899Y016444D01*
X007843Y016500D01*
X007636Y016500D01*
X007350Y016786D01*
X007350Y017362D01*
X007414Y017298D01*
X007567Y017234D01*
X007733Y017234D01*
X007886Y017298D01*
X008002Y017414D01*
X008066Y017567D01*
X008066Y017733D01*
X008007Y017875D01*
X008137Y018005D01*
X009931Y018005D01*
X009879Y017967D01*
X009833Y017921D01*
X009794Y017868D01*
X009765Y017810D01*
X009744Y017747D01*
X009735Y017689D01*
X010111Y017689D01*
X010111Y017611D01*
X010189Y017611D01*
X010189Y017689D01*
X010565Y017689D01*
X010556Y017747D01*
X010535Y017810D01*
X010506Y017868D01*
X010467Y017921D01*
X010421Y017967D01*
X010369Y018005D01*
X010921Y018005D01*
X010914Y018002D01*
X010798Y017886D01*
X010734Y017733D01*
X010734Y017567D01*
X010798Y017414D01*
X010914Y017298D01*
X011067Y017234D01*
X011233Y017234D01*
X011386Y017298D01*
X011502Y017414D01*
X011566Y017567D01*
X011566Y017733D01*
X011502Y017886D01*
X011386Y018002D01*
X011379Y018005D01*
X011921Y018005D01*
X011914Y018002D01*
X011798Y017886D01*
X011734Y017733D01*
X011734Y017567D01*
X011798Y017414D01*
X011914Y017298D01*
X012067Y017234D01*
X012233Y017234D01*
X012386Y017298D01*
X012502Y017414D01*
X012566Y017567D01*
X012566Y017733D01*
X012502Y017886D01*
X012386Y018002D01*
X012379Y018005D01*
X012663Y018005D01*
X012793Y017875D01*
X012734Y017733D01*
X012734Y017567D01*
X012798Y017414D01*
X012914Y017298D01*
X013067Y017234D01*
X013233Y017234D01*
X013386Y017298D01*
X013502Y017414D01*
X013566Y017567D01*
X013566Y017733D01*
X013502Y017886D01*
X013410Y017978D01*
X013379Y018053D01*
X013032Y018400D01*
X015075Y018400D01*
X015075Y017192D01*
X016450Y015817D01*
X016488Y015779D01*
X015824Y015779D01*
X015736Y015691D01*
X015736Y014859D01*
X015824Y014771D01*
X016578Y014771D01*
X016666Y014859D01*
X016666Y014925D01*
X017415Y014925D01*
X017841Y014499D01*
X017818Y014443D01*
X017763Y014497D01*
X017562Y014497D01*
X017554Y014500D01*
X017415Y014500D01*
X017407Y014497D01*
X017206Y014497D01*
X017150Y014441D01*
X017094Y014497D01*
X016537Y014497D01*
X016460Y014420D01*
X015840Y014420D01*
X015763Y014497D01*
X015206Y014497D01*
X015150Y014441D01*
X015124Y014467D01*
X015090Y014487D01*
X015052Y014497D01*
X014864Y014497D01*
X014864Y014198D01*
X014767Y014198D01*
X014767Y014102D01*
X014449Y014102D01*
X014449Y013933D01*
X014459Y013895D01*
X014479Y013861D01*
X014507Y013833D01*
X014541Y013813D01*
X014579Y013803D01*
X014767Y013803D01*
X014767Y014102D01*
X014864Y014102D01*
X014864Y013803D01*
X015052Y013803D01*
X015090Y013813D01*
X015124Y013833D01*
X015150Y013859D01*
X015206Y013803D01*
X015763Y013803D01*
X015840Y013880D01*
X015880Y013751D02*
X013726Y013751D01*
X013726Y013819D02*
X013462Y013819D01*
X013462Y013476D01*
X013596Y013476D01*
X013634Y013487D01*
X013668Y013506D01*
X013696Y013534D01*
X013716Y013568D01*
X013726Y013607D01*
X013726Y013819D01*
X013726Y013847D02*
X013726Y014060D01*
X013716Y014098D01*
X013696Y014132D01*
X013668Y014160D01*
X013634Y014180D01*
X013596Y014190D01*
X013462Y014190D01*
X013462Y013847D01*
X013434Y013847D01*
X013434Y013819D01*
X013170Y013819D01*
X013170Y013607D01*
X013180Y013568D01*
X013200Y013534D01*
X013228Y013506D01*
X013262Y013487D01*
X013301Y013476D01*
X013434Y013476D01*
X013434Y013819D01*
X013462Y013819D01*
X013462Y013847D01*
X013726Y013847D01*
X013726Y013849D02*
X014491Y013849D01*
X014449Y013948D02*
X013726Y013948D01*
X013726Y014046D02*
X014449Y014046D01*
X014449Y014198D02*
X014767Y014198D01*
X014767Y014497D01*
X014579Y014497D01*
X014541Y014487D01*
X014507Y014467D01*
X014479Y014439D01*
X014459Y014405D01*
X014449Y014367D01*
X014449Y014198D01*
X014449Y014243D02*
X012802Y014243D01*
X012802Y014342D02*
X014449Y014342D01*
X014480Y014440D02*
X012809Y014440D01*
X012848Y014539D02*
X017802Y014539D01*
X017703Y014637D02*
X012872Y014637D01*
X012859Y014736D02*
X017605Y014736D01*
X017506Y014834D02*
X016642Y014834D01*
X016480Y014440D02*
X015820Y014440D01*
X015761Y014834D02*
X015537Y014834D01*
X015534Y014829D02*
X015554Y014863D01*
X015564Y014901D01*
X015564Y015225D01*
X015149Y015225D01*
X015149Y015325D01*
X015564Y015325D01*
X015564Y015649D01*
X015554Y015687D01*
X015534Y015721D01*
X015506Y015749D01*
X015472Y015769D01*
X015434Y015779D01*
X015149Y015779D01*
X015149Y015325D01*
X015049Y015325D01*
X015049Y015779D01*
X014764Y015779D01*
X014726Y015769D01*
X014692Y015749D01*
X014664Y015721D01*
X014644Y015687D01*
X014634Y015649D01*
X014634Y015325D01*
X015049Y015325D01*
X015049Y015225D01*
X015149Y015225D01*
X015149Y014771D01*
X015434Y014771D01*
X015472Y014781D01*
X015506Y014801D01*
X015534Y014829D01*
X015564Y014933D02*
X015736Y014933D01*
X015736Y015031D02*
X015564Y015031D01*
X015564Y015130D02*
X015736Y015130D01*
X015736Y015228D02*
X015149Y015228D01*
X015149Y015130D02*
X015049Y015130D01*
X015049Y015225D02*
X015049Y014771D01*
X014764Y014771D01*
X014726Y014781D01*
X014692Y014801D01*
X014664Y014829D01*
X014644Y014863D01*
X014634Y014901D01*
X014634Y015225D01*
X015049Y015225D01*
X015049Y015228D02*
X013723Y015228D01*
X013726Y015240D02*
X013726Y015453D01*
X013462Y015453D01*
X013462Y015110D01*
X013596Y015110D01*
X013634Y015120D01*
X013668Y015140D01*
X013696Y015168D01*
X013716Y015202D01*
X013726Y015240D01*
X013726Y015327D02*
X014634Y015327D01*
X014634Y015425D02*
X013726Y015425D01*
X013726Y015481D02*
X013726Y015693D01*
X013716Y015732D01*
X013696Y015766D01*
X013668Y015794D01*
X013634Y015813D01*
X013596Y015824D01*
X013462Y015824D01*
X013462Y015481D01*
X013434Y015481D01*
X013434Y015453D01*
X013170Y015453D01*
X013170Y015240D01*
X013180Y015202D01*
X013200Y015168D01*
X013228Y015140D01*
X013262Y015120D01*
X013301Y015110D01*
X013434Y015110D01*
X013434Y015453D01*
X013462Y015453D01*
X013462Y015481D01*
X013726Y015481D01*
X013726Y015524D02*
X014634Y015524D01*
X014634Y015622D02*
X013726Y015622D01*
X013719Y015721D02*
X014663Y015721D01*
X015049Y015721D02*
X015149Y015721D01*
X015149Y015622D02*
X015049Y015622D01*
X015049Y015524D02*
X015149Y015524D01*
X015149Y015425D02*
X015049Y015425D01*
X015049Y015327D02*
X015149Y015327D01*
X015149Y015031D02*
X015049Y015031D01*
X015049Y014933D02*
X015149Y014933D01*
X015149Y014834D02*
X015049Y014834D01*
X014661Y014834D02*
X012802Y014834D01*
X012802Y014933D02*
X014634Y014933D01*
X014634Y015031D02*
X012802Y015031D01*
X012811Y015130D02*
X013247Y015130D01*
X013174Y015228D02*
X012880Y015228D01*
X012880Y015327D02*
X013170Y015327D01*
X013170Y015425D02*
X012880Y015425D01*
X012880Y015524D02*
X013170Y015524D01*
X013170Y015481D02*
X013170Y015693D01*
X013180Y015732D01*
X013200Y015766D01*
X013228Y015794D01*
X013262Y015813D01*
X013301Y015824D01*
X013434Y015824D01*
X013434Y015481D01*
X013170Y015481D01*
X013170Y015622D02*
X012880Y015622D01*
X012880Y015721D02*
X013178Y015721D01*
X013283Y015819D02*
X012796Y015819D01*
X012407Y015819D02*
X010988Y015819D01*
X010971Y015824D02*
X010837Y015824D01*
X010837Y015481D01*
X010809Y015481D01*
X010809Y015453D01*
X010545Y015453D01*
X010545Y015240D01*
X010555Y015202D01*
X010575Y015168D01*
X010603Y015140D01*
X010637Y015120D01*
X010676Y015110D01*
X010809Y015110D01*
X010809Y015453D01*
X010837Y015453D01*
X010837Y015110D01*
X010971Y015110D01*
X011009Y015120D01*
X011043Y015140D01*
X011071Y015168D01*
X011091Y015202D01*
X011101Y015240D01*
X011101Y015453D01*
X010837Y015453D01*
X010837Y015481D01*
X011101Y015481D01*
X011101Y015693D01*
X011091Y015732D01*
X011071Y015766D01*
X011043Y015794D01*
X011009Y015813D01*
X010971Y015824D01*
X010837Y015819D02*
X010809Y015819D01*
X010809Y015824D02*
X010676Y015824D01*
X010637Y015813D01*
X010603Y015794D01*
X010575Y015766D01*
X010555Y015732D01*
X010545Y015693D01*
X010545Y015481D01*
X010809Y015481D01*
X010809Y015824D01*
X010809Y015721D02*
X010837Y015721D01*
X010837Y015622D02*
X010809Y015622D01*
X010809Y015524D02*
X010837Y015524D01*
X010837Y015425D02*
X010809Y015425D01*
X010809Y015327D02*
X010837Y015327D01*
X010837Y015228D02*
X010809Y015228D01*
X010809Y015130D02*
X010837Y015130D01*
X011025Y015130D02*
X011722Y015130D01*
X011700Y015031D02*
X010177Y015031D01*
X010177Y014933D02*
X011700Y014933D01*
X011624Y014834D02*
X010177Y014834D01*
X010177Y014736D02*
X011553Y014736D01*
X011553Y014637D02*
X010177Y014637D01*
X010177Y014539D02*
X011553Y014539D01*
X011553Y014440D02*
X010177Y014440D01*
X010177Y014342D02*
X011553Y014342D01*
X011553Y014243D02*
X010177Y014243D01*
X010212Y014145D02*
X010588Y014145D01*
X010575Y014132D02*
X010603Y014160D01*
X010637Y014180D01*
X010676Y014190D01*
X010809Y014190D01*
X010809Y013847D01*
X010809Y013819D01*
X010545Y013819D01*
X010545Y013607D01*
X010555Y013568D01*
X010575Y013534D01*
X010603Y013506D01*
X010637Y013487D01*
X010676Y013476D01*
X010809Y013476D01*
X010809Y013819D01*
X010837Y013819D01*
X010837Y013476D01*
X010971Y013476D01*
X011009Y013487D01*
X011043Y013506D01*
X011071Y013534D01*
X011091Y013568D01*
X011101Y013607D01*
X011101Y013819D01*
X010837Y013819D01*
X010837Y013847D01*
X010809Y013847D01*
X010545Y013847D01*
X010545Y014060D01*
X010555Y014098D01*
X010575Y014132D01*
X010545Y014046D02*
X010255Y014046D01*
X010255Y013948D02*
X010545Y013948D01*
X010545Y013849D02*
X010255Y013849D01*
X010255Y013751D02*
X010545Y013751D01*
X010545Y013652D02*
X010255Y013652D01*
X010244Y013554D02*
X010564Y013554D01*
X010809Y013554D02*
X010837Y013554D01*
X010837Y013652D02*
X010809Y013652D01*
X010809Y013751D02*
X010837Y013751D01*
X010837Y013847D02*
X011101Y013847D01*
X011101Y014060D01*
X011091Y014098D01*
X011071Y014132D01*
X011043Y014160D01*
X011009Y014180D01*
X010971Y014190D01*
X010837Y014190D01*
X010837Y013847D01*
X010837Y013849D02*
X010809Y013849D01*
X010809Y013948D02*
X010837Y013948D01*
X010837Y014046D02*
X010809Y014046D01*
X010809Y014145D02*
X010837Y014145D01*
X011059Y014145D02*
X011604Y014145D01*
X011553Y014046D02*
X011101Y014046D01*
X011101Y013948D02*
X011553Y013948D01*
X011553Y013849D02*
X011101Y013849D01*
X011101Y013751D02*
X011553Y013751D01*
X011553Y013652D02*
X011101Y013652D01*
X011082Y013554D02*
X011553Y013554D01*
X011635Y013455D02*
X009540Y013455D01*
X009622Y013554D02*
X009710Y013554D01*
X009699Y013652D02*
X009622Y013652D01*
X009622Y013751D02*
X009699Y013751D01*
X009699Y013849D02*
X009622Y013849D01*
X009622Y013948D02*
X009699Y013948D01*
X009699Y014046D02*
X009622Y014046D01*
X009571Y014145D02*
X009741Y014145D01*
X009777Y014243D02*
X009622Y014243D01*
X009622Y014342D02*
X009777Y014342D01*
X009777Y014440D02*
X009622Y014440D01*
X009622Y014539D02*
X009777Y014539D01*
X009777Y014637D02*
X009622Y014637D01*
X009622Y014736D02*
X009777Y014736D01*
X009777Y014834D02*
X009551Y014834D01*
X009475Y014933D02*
X009777Y014933D01*
X009777Y015031D02*
X009564Y015031D01*
X009662Y015130D02*
X009767Y015130D01*
X009294Y015327D02*
X007802Y015327D01*
X007802Y015425D02*
X009392Y015425D01*
X009491Y015524D02*
X007803Y015524D01*
X007850Y015622D02*
X007948Y015622D01*
X007802Y015228D02*
X009195Y015228D01*
X009097Y015130D02*
X007802Y015130D01*
X007801Y015031D02*
X009075Y015031D01*
X009075Y014933D02*
X007801Y014933D01*
X007801Y014834D02*
X008999Y014834D01*
X008928Y014736D02*
X007801Y014736D01*
X007801Y014637D02*
X008524Y014637D01*
X008465Y014539D02*
X007800Y014539D01*
X007800Y014440D02*
X008452Y014440D01*
X008476Y014342D02*
X007800Y014342D01*
X007800Y014243D02*
X008550Y014243D01*
X008722Y014453D02*
X009141Y014453D01*
X009275Y014485D01*
X009275Y015025D01*
X009775Y015525D01*
X009919Y015525D01*
X009977Y015467D01*
X009977Y013833D01*
X010396Y013025D02*
X010400Y013021D01*
X010525Y012896D01*
X010064Y012625D02*
X010014Y012575D01*
X009967Y012461D01*
X009967Y012339D01*
X010014Y012225D01*
X010100Y012139D01*
X010214Y012092D01*
X010336Y012092D01*
X010429Y012130D01*
X013347Y012130D01*
X012567Y011350D01*
X009747Y011350D01*
X009747Y011517D01*
X009448Y011517D01*
X009448Y011614D01*
X009747Y011614D01*
X009747Y011802D01*
X009737Y011840D01*
X009717Y011874D01*
X009691Y011900D01*
X009747Y011956D01*
X009747Y012513D01*
X009659Y012601D01*
X009630Y012601D01*
X009630Y012625D01*
X010064Y012625D01*
X010011Y012569D02*
X009692Y012569D01*
X009747Y012470D02*
X009970Y012470D01*
X009967Y012372D02*
X009747Y012372D01*
X009747Y012273D02*
X009994Y012273D01*
X010064Y012175D02*
X009747Y012175D01*
X009747Y012076D02*
X013293Y012076D01*
X013195Y011978D02*
X009747Y011978D01*
X009712Y011879D02*
X013096Y011879D01*
X012998Y011781D02*
X009747Y011781D01*
X009747Y011682D02*
X012899Y011682D01*
X012801Y011584D02*
X009448Y011584D01*
X009352Y011584D02*
X008149Y011584D01*
X008248Y011682D02*
X009053Y011682D01*
X009053Y011614D02*
X009053Y011802D01*
X009063Y011840D01*
X009083Y011874D01*
X009109Y011900D01*
X009053Y011956D01*
X009053Y012487D01*
X007989Y011423D01*
X007916Y011350D01*
X009053Y011350D01*
X009053Y011517D01*
X009352Y011517D01*
X009352Y011614D01*
X009053Y011614D01*
X009053Y011485D02*
X008051Y011485D01*
X007989Y011423D02*
X007989Y011423D01*
X007952Y011387D02*
X009053Y011387D01*
X009053Y011781D02*
X008346Y011781D01*
X008445Y011879D02*
X009088Y011879D01*
X009053Y011978D02*
X008543Y011978D01*
X008642Y012076D02*
X009053Y012076D01*
X009053Y012175D02*
X008740Y012175D01*
X008839Y012273D02*
X009053Y012273D01*
X009053Y012372D02*
X008937Y012372D01*
X009036Y012470D02*
X009053Y012470D01*
X008495Y013061D02*
X007797Y013061D01*
X007797Y012963D02*
X008397Y012963D01*
X008298Y012864D02*
X007797Y012864D01*
X007796Y012766D02*
X008200Y012766D01*
X008101Y012667D02*
X007796Y012667D01*
X007916Y012569D02*
X008003Y012569D01*
X007703Y012400D02*
X007596Y012570D01*
X007604Y016057D01*
X007533Y016320D01*
X007150Y016703D01*
X007150Y017900D01*
X006900Y018150D01*
X006119Y018150D01*
X005650Y017650D01*
X005265Y017494D02*
X005036Y017494D01*
X005035Y017490D02*
X005056Y017553D01*
X005065Y017611D01*
X004689Y017611D01*
X004689Y017689D01*
X005065Y017689D01*
X005056Y017747D01*
X005035Y017810D01*
X005006Y017868D01*
X004967Y017921D01*
X004921Y017967D01*
X004868Y018006D01*
X004810Y018035D01*
X004747Y018056D01*
X004689Y018065D01*
X004689Y017689D01*
X004611Y017689D01*
X004611Y018065D01*
X004553Y018056D01*
X004490Y018035D01*
X004432Y018006D01*
X004379Y017967D01*
X004333Y017921D01*
X004294Y017868D01*
X004265Y017810D01*
X004244Y017747D01*
X004235Y017689D01*
X004611Y017689D01*
X004611Y017611D01*
X004689Y017611D01*
X004689Y017235D01*
X004747Y017244D01*
X004810Y017265D01*
X004868Y017294D01*
X004921Y017333D01*
X004967Y017379D01*
X005006Y017432D01*
X005035Y017490D01*
X005062Y017592D02*
X005234Y017592D01*
X005234Y017567D02*
X005298Y017414D01*
X005414Y017298D01*
X005567Y017234D01*
X005733Y017234D01*
X005886Y017298D01*
X006002Y017414D01*
X006066Y017567D01*
X006066Y017733D01*
X006046Y017780D01*
X006205Y017950D01*
X006362Y017950D01*
X006298Y017886D01*
X006234Y017733D01*
X006234Y017567D01*
X006298Y017414D01*
X006414Y017298D01*
X006450Y017283D01*
X006450Y016620D01*
X006567Y016503D01*
X006571Y016500D01*
X006461Y016500D01*
X006461Y016096D01*
X006384Y016096D01*
X006384Y016500D01*
X006226Y016500D01*
X006188Y016490D01*
X006153Y016470D01*
X006127Y016444D01*
X006071Y016500D01*
X005593Y016500D01*
X005537Y016444D01*
X005481Y016500D01*
X005002Y016500D01*
X004946Y016444D01*
X004890Y016500D01*
X004412Y016500D01*
X004356Y016444D01*
X004300Y016500D01*
X003821Y016500D01*
X003765Y016444D01*
X003739Y016470D01*
X003705Y016490D01*
X003667Y016500D01*
X003508Y016500D01*
X003508Y016096D01*
X003431Y016096D01*
X003431Y016500D01*
X003328Y016500D01*
X003328Y018400D01*
X007768Y018400D01*
X007421Y018053D01*
X007390Y017978D01*
X007350Y017938D01*
X007350Y017983D01*
X007100Y018233D01*
X006983Y018350D01*
X006198Y018350D01*
X006195Y018353D01*
X006115Y018350D01*
X006036Y018350D01*
X006033Y018347D01*
X006029Y018347D01*
X005975Y018289D01*
X005919Y018233D01*
X005919Y018229D01*
X005756Y018056D01*
X005733Y018066D01*
X005567Y018066D01*
X005414Y018002D01*
X005298Y017886D01*
X005234Y017733D01*
X005234Y017567D01*
X005234Y017691D02*
X005065Y017691D01*
X005042Y017789D02*
X005258Y017789D01*
X005300Y017888D02*
X004991Y017888D01*
X004895Y017986D02*
X005398Y017986D01*
X005783Y018085D02*
X003328Y018085D01*
X003328Y018183D02*
X005875Y018183D01*
X005967Y018282D02*
X003328Y018282D01*
X003328Y018380D02*
X007748Y018380D01*
X007650Y018282D02*
X007051Y018282D01*
X007150Y018183D02*
X007551Y018183D01*
X007453Y018085D02*
X007248Y018085D01*
X007347Y017986D02*
X007393Y017986D01*
X008019Y017888D02*
X009809Y017888D01*
X009758Y017789D02*
X008042Y017789D01*
X008066Y017691D02*
X009735Y017691D01*
X009735Y017611D02*
X009744Y017553D01*
X009765Y017490D01*
X009794Y017432D01*
X009833Y017379D01*
X009879Y017333D01*
X009932Y017294D01*
X009990Y017265D01*
X010053Y017244D01*
X010111Y017235D01*
X010111Y017611D01*
X009735Y017611D01*
X009738Y017592D02*
X008066Y017592D01*
X008035Y017494D02*
X009764Y017494D01*
X009821Y017395D02*
X007983Y017395D01*
X007883Y017297D02*
X009929Y017297D01*
X010111Y017297D02*
X010189Y017297D01*
X010189Y017235D02*
X010247Y017244D01*
X010310Y017265D01*
X010368Y017294D01*
X010421Y017333D01*
X010467Y017379D01*
X010506Y017432D01*
X010535Y017490D01*
X010556Y017553D01*
X010565Y017611D01*
X010189Y017611D01*
X010189Y017235D01*
X010189Y017395D02*
X010111Y017395D01*
X010111Y017494D02*
X010189Y017494D01*
X010189Y017592D02*
X010111Y017592D01*
X010371Y017297D02*
X010917Y017297D01*
X010817Y017395D02*
X010479Y017395D01*
X010536Y017494D02*
X010765Y017494D01*
X010734Y017592D02*
X010562Y017592D01*
X010565Y017691D02*
X010734Y017691D01*
X010758Y017789D02*
X010542Y017789D01*
X010491Y017888D02*
X010800Y017888D01*
X010898Y017986D02*
X010395Y017986D01*
X009905Y017986D02*
X008118Y017986D01*
X007417Y017297D02*
X007350Y017297D01*
X007350Y017198D02*
X015075Y017198D01*
X015075Y017297D02*
X013383Y017297D01*
X013483Y017395D02*
X015075Y017395D01*
X015075Y017494D02*
X013535Y017494D01*
X013566Y017592D02*
X015075Y017592D01*
X015075Y017691D02*
X013566Y017691D01*
X013542Y017789D02*
X015075Y017789D01*
X015075Y017888D02*
X013500Y017888D01*
X013407Y017986D02*
X015075Y017986D01*
X015075Y018085D02*
X013347Y018085D01*
X013249Y018183D02*
X015075Y018183D01*
X015075Y018282D02*
X013150Y018282D01*
X013052Y018380D02*
X015075Y018380D01*
X015275Y018380D02*
X016625Y018380D01*
X016625Y018400D02*
X016625Y017442D01*
X017633Y016434D01*
X017691Y016376D01*
X017692Y016376D01*
X017692Y016375D01*
X017774Y016375D01*
X018534Y016370D01*
X018534Y016316D01*
X018533Y016234D01*
X018534Y016233D01*
X018534Y015807D01*
X018170Y015807D01*
X018169Y015900D01*
X016650Y015900D01*
X015275Y017275D01*
X015275Y018400D01*
X016625Y018400D01*
X016625Y018282D02*
X015275Y018282D01*
X015275Y018183D02*
X016625Y018183D01*
X016625Y018085D02*
X015275Y018085D01*
X015275Y017986D02*
X016625Y017986D01*
X016625Y017888D02*
X015275Y017888D01*
X015275Y017789D02*
X016625Y017789D01*
X016625Y017691D02*
X015275Y017691D01*
X015275Y017592D02*
X016625Y017592D01*
X016625Y017494D02*
X015275Y017494D01*
X015275Y017395D02*
X016672Y017395D01*
X016771Y017297D02*
X015275Y017297D01*
X015352Y017198D02*
X016869Y017198D01*
X016968Y017100D02*
X015450Y017100D01*
X015549Y017001D02*
X017066Y017001D01*
X017165Y016903D02*
X015647Y016903D01*
X015746Y016804D02*
X017263Y016804D01*
X017362Y016706D02*
X015844Y016706D01*
X015943Y016607D02*
X017460Y016607D01*
X017559Y016509D02*
X016041Y016509D01*
X016140Y016410D02*
X017657Y016410D01*
X017775Y016575D02*
X016825Y017525D01*
X016825Y018400D01*
X018100Y018400D01*
X018100Y018150D01*
X019561Y016650D01*
X019561Y016428D01*
X019559Y016427D01*
X019559Y015866D01*
X019352Y015866D01*
X019243Y015857D01*
X019243Y016437D01*
X019115Y016566D01*
X019075Y016566D01*
X017775Y016575D01*
X017743Y016607D02*
X019561Y016607D01*
X019561Y016509D02*
X019172Y016509D01*
X019266Y016563D02*
X019266Y016089D01*
X019522Y016089D01*
X019559Y016115D02*
X019243Y016115D01*
X019243Y016213D02*
X019559Y016213D01*
X019559Y016312D02*
X019243Y016312D01*
X019243Y016410D02*
X019559Y016410D01*
X019761Y016410D02*
X020071Y016410D01*
X020071Y016427D02*
X020071Y015861D01*
X020071Y015816D01*
X019761Y015816D01*
X019761Y016649D01*
X019762Y016730D01*
X019761Y016731D01*
X019761Y016733D01*
X019703Y016790D01*
X018650Y017872D01*
X018650Y018400D01*
X020125Y018400D01*
X020125Y016851D01*
X020120Y016475D01*
X020071Y016427D01*
X020120Y016509D02*
X019761Y016509D01*
X019761Y016607D02*
X020122Y016607D01*
X020123Y016706D02*
X019761Y016706D01*
X019690Y016804D02*
X020124Y016804D01*
X020125Y016903D02*
X019594Y016903D01*
X019498Y017001D02*
X020125Y017001D01*
X020125Y017100D02*
X019402Y017100D01*
X019306Y017198D02*
X020125Y017198D01*
X020125Y017297D02*
X019210Y017297D01*
X019114Y017395D02*
X020125Y017395D01*
X020125Y017494D02*
X019018Y017494D01*
X018922Y017592D02*
X020125Y017592D01*
X020125Y017691D02*
X018827Y017691D01*
X018731Y017789D02*
X020125Y017789D01*
X020125Y017888D02*
X018650Y017888D01*
X018650Y017986D02*
X020125Y017986D01*
X020125Y018085D02*
X018650Y018085D01*
X018650Y018183D02*
X020125Y018183D01*
X020125Y018282D02*
X018650Y018282D01*
X018650Y018380D02*
X020125Y018380D01*
X020325Y018380D02*
X021475Y018380D01*
X021475Y018400D02*
X021475Y016575D01*
X021131Y016575D01*
X021072Y016566D01*
X021072Y015857D01*
X020779Y015857D01*
X020779Y016566D01*
X020720Y016575D01*
X020325Y016575D01*
X020325Y018400D01*
X021475Y018400D01*
X021475Y018282D02*
X020325Y018282D01*
X020325Y018183D02*
X021475Y018183D01*
X021475Y018085D02*
X020325Y018085D01*
X020325Y017986D02*
X021475Y017986D01*
X021475Y017888D02*
X020325Y017888D01*
X020325Y017789D02*
X021475Y017789D01*
X021475Y017691D02*
X020325Y017691D01*
X020325Y017592D02*
X021475Y017592D01*
X021475Y017494D02*
X020325Y017494D01*
X020325Y017395D02*
X021475Y017395D01*
X021475Y017297D02*
X020325Y017297D01*
X020325Y017198D02*
X021475Y017198D01*
X021475Y017100D02*
X020325Y017100D01*
X020325Y017001D02*
X021475Y017001D01*
X021475Y016903D02*
X020325Y016903D01*
X020325Y016804D02*
X021475Y016804D01*
X021475Y016706D02*
X020325Y016706D01*
X020325Y016607D02*
X021475Y016607D01*
X021675Y016607D02*
X024400Y016607D01*
X024400Y016509D02*
X021675Y016509D01*
X021593Y016410D02*
X024400Y016410D01*
X024400Y016312D02*
X021276Y016312D01*
X021276Y016213D02*
X024400Y016213D01*
X024400Y016115D02*
X021276Y016115D01*
X021276Y016016D02*
X024400Y016016D01*
X024400Y015918D02*
X021276Y015918D01*
X021276Y015819D02*
X024400Y015819D01*
X024400Y015721D02*
X021244Y015721D01*
X021072Y015918D02*
X020779Y015918D01*
X020779Y016016D02*
X021072Y016016D01*
X021057Y016089D02*
X020941Y016012D01*
X020941Y016734D01*
X020941Y017359D01*
X020650Y017650D01*
X019918Y017382D02*
X019650Y017650D01*
X019918Y017382D02*
X019918Y016757D01*
X019918Y016012D01*
X019778Y016089D01*
X019761Y016115D02*
X020071Y016115D01*
X020034Y016089D02*
X019918Y016012D01*
X020071Y016016D02*
X019761Y016016D01*
X019761Y015918D02*
X020071Y015918D01*
X020071Y015819D02*
X019761Y015819D01*
X019559Y015918D02*
X019243Y015918D01*
X019243Y016016D02*
X019559Y016016D01*
X019761Y016213D02*
X020071Y016213D01*
X020071Y016312D02*
X019761Y016312D01*
X019406Y016563D02*
X019266Y016563D01*
X019406Y016563D02*
X019150Y016775D01*
X018150Y017650D01*
X017150Y017650D01*
X016825Y017691D02*
X018547Y017691D01*
X018451Y017789D02*
X016825Y017789D01*
X016825Y017888D02*
X018356Y017888D01*
X018260Y017986D02*
X016825Y017986D01*
X016825Y018085D02*
X018164Y018085D01*
X018100Y018183D02*
X016825Y018183D01*
X016825Y018282D02*
X018100Y018282D01*
X018100Y018380D02*
X016825Y018380D01*
X016150Y017650D02*
X017650Y016150D01*
X018243Y016150D01*
X018243Y016089D01*
X018498Y016089D01*
X018534Y016115D02*
X016435Y016115D01*
X016337Y016213D02*
X018534Y016213D01*
X018534Y016312D02*
X016238Y016312D01*
X016054Y016213D02*
X008521Y016213D01*
X008521Y016115D02*
X008983Y016115D01*
X009150Y015900D02*
X008281Y015900D01*
X008194Y016057D01*
X008521Y016312D02*
X015956Y016312D01*
X015857Y016410D02*
X008521Y016410D01*
X009317Y016115D02*
X016153Y016115D01*
X016251Y016016D02*
X009394Y016016D01*
X009420Y015918D02*
X016350Y015918D01*
X016448Y015819D02*
X013613Y015819D01*
X013462Y015819D02*
X013434Y015819D01*
X013434Y015721D02*
X013462Y015721D01*
X013462Y015622D02*
X013434Y015622D01*
X013434Y015524D02*
X013462Y015524D01*
X013462Y015425D02*
X013434Y015425D01*
X013434Y015327D02*
X013462Y015327D01*
X013462Y015228D02*
X013434Y015228D01*
X013434Y015130D02*
X013462Y015130D01*
X013650Y015130D02*
X014634Y015130D01*
X014767Y014440D02*
X014864Y014440D01*
X014864Y014342D02*
X014767Y014342D01*
X014767Y014243D02*
X014864Y014243D01*
X014767Y014145D02*
X013684Y014145D01*
X013462Y014145D02*
X013434Y014145D01*
X013434Y014190D02*
X013301Y014190D01*
X013262Y014180D01*
X013228Y014160D01*
X013200Y014132D01*
X013180Y014098D01*
X013170Y014060D01*
X013170Y013847D01*
X013434Y013847D01*
X013434Y014190D01*
X013434Y014046D02*
X013462Y014046D01*
X013462Y013948D02*
X013434Y013948D01*
X013434Y013849D02*
X013462Y013849D01*
X013462Y013751D02*
X013434Y013751D01*
X013434Y013652D02*
X013462Y013652D01*
X013462Y013554D02*
X013434Y013554D01*
X013189Y013554D02*
X012869Y013554D01*
X012880Y013652D02*
X013170Y013652D01*
X013170Y013751D02*
X012880Y013751D01*
X012880Y013849D02*
X013170Y013849D01*
X013170Y013948D02*
X012880Y013948D01*
X012880Y014046D02*
X013170Y014046D01*
X013213Y014145D02*
X012837Y014145D01*
X012602Y013833D02*
X012602Y014516D01*
X012611Y014525D01*
X012602Y014650D01*
X012602Y014516D02*
X012602Y015467D01*
X012544Y015525D01*
X012400Y015525D01*
X011900Y015025D01*
X011900Y014485D01*
X012247Y014440D02*
X012402Y014440D01*
X012402Y014342D02*
X012247Y014342D01*
X012247Y014243D02*
X012402Y014243D01*
X012366Y014145D02*
X012196Y014145D01*
X012247Y014046D02*
X012324Y014046D01*
X012324Y013948D02*
X012247Y013948D01*
X012247Y013849D02*
X012324Y013849D01*
X012324Y013751D02*
X012247Y013751D01*
X012247Y013652D02*
X012324Y013652D01*
X012335Y013554D02*
X012247Y013554D01*
X012165Y013455D02*
X015367Y013455D01*
X015538Y013554D02*
X013707Y013554D01*
X013726Y013652D02*
X015880Y013652D01*
X015880Y013554D02*
X015762Y013554D01*
X015160Y013849D02*
X015140Y013849D01*
X014864Y013849D02*
X014767Y013849D01*
X014767Y013948D02*
X014864Y013948D01*
X014864Y014046D02*
X014767Y014046D01*
X015564Y015327D02*
X015736Y015327D01*
X015736Y015425D02*
X015564Y015425D01*
X015564Y015524D02*
X015736Y015524D01*
X015736Y015622D02*
X015564Y015622D01*
X015534Y015721D02*
X015765Y015721D01*
X016534Y016016D02*
X018534Y016016D01*
X018534Y015918D02*
X016632Y015918D01*
X015759Y016509D02*
X007627Y016509D01*
X007529Y016607D02*
X015660Y016607D01*
X015562Y016706D02*
X007430Y016706D01*
X007350Y016804D02*
X015463Y016804D01*
X015365Y016903D02*
X007350Y016903D01*
X007350Y017001D02*
X015266Y017001D01*
X015168Y017100D02*
X007350Y017100D01*
X006942Y016411D02*
X006650Y016703D01*
X006650Y017650D01*
X006265Y017494D02*
X006035Y017494D01*
X006066Y017592D02*
X006234Y017592D01*
X006234Y017691D02*
X006066Y017691D01*
X006054Y017789D02*
X006258Y017789D01*
X006300Y017888D02*
X006147Y017888D01*
X005983Y017395D02*
X006317Y017395D01*
X006417Y017297D02*
X005883Y017297D01*
X005417Y017297D02*
X004871Y017297D01*
X004979Y017395D02*
X005317Y017395D01*
X004689Y017395D02*
X004611Y017395D01*
X004611Y017297D02*
X004689Y017297D01*
X004611Y017235D02*
X004611Y017611D01*
X004235Y017611D01*
X004244Y017553D01*
X004265Y017490D01*
X004294Y017432D01*
X004333Y017379D01*
X004379Y017333D01*
X004432Y017294D01*
X004490Y017265D01*
X004553Y017244D01*
X004611Y017235D01*
X004429Y017297D02*
X003328Y017297D01*
X003328Y017395D02*
X004321Y017395D01*
X004264Y017494D02*
X003328Y017494D01*
X003328Y017592D02*
X004238Y017592D01*
X004235Y017691D02*
X003328Y017691D01*
X003328Y017789D02*
X004258Y017789D01*
X004309Y017888D02*
X003328Y017888D01*
X003328Y017986D02*
X004405Y017986D01*
X004611Y017986D02*
X004689Y017986D01*
X004689Y017888D02*
X004611Y017888D01*
X004611Y017789D02*
X004689Y017789D01*
X004689Y017691D02*
X004611Y017691D01*
X004611Y017592D02*
X004689Y017592D01*
X004689Y017494D02*
X004611Y017494D01*
X003328Y017198D02*
X006450Y017198D01*
X006450Y017100D02*
X003328Y017100D01*
X003328Y017001D02*
X006450Y017001D01*
X006450Y016903D02*
X003328Y016903D01*
X003328Y016804D02*
X006450Y016804D01*
X006450Y016706D02*
X003328Y016706D01*
X003328Y016607D02*
X006463Y016607D01*
X006562Y016509D02*
X003328Y016509D01*
X003431Y016410D02*
X003508Y016410D01*
X003508Y016312D02*
X003431Y016312D01*
X003431Y016213D02*
X003508Y016213D01*
X003508Y016115D02*
X003431Y016115D01*
X003431Y016019D02*
X003508Y016019D01*
X003508Y015615D01*
X003667Y015615D01*
X003705Y015625D01*
X003739Y015645D01*
X003765Y015671D01*
X003821Y015615D01*
X003860Y015615D01*
X003860Y014991D01*
X004183Y014669D01*
X004183Y014628D01*
X004224Y014529D01*
X004300Y014453D01*
X004399Y014411D01*
X004507Y014411D01*
X004606Y014453D01*
X004682Y014529D01*
X004723Y014628D01*
X004723Y014735D01*
X004682Y014834D01*
X005051Y014834D01*
X005067Y014850D02*
X004950Y014733D01*
X004575Y014358D01*
X004575Y011832D01*
X004546Y011803D01*
X004505Y011704D01*
X004505Y011596D01*
X004546Y011497D01*
X004622Y011421D01*
X004699Y011389D01*
X003328Y010019D01*
X003328Y015615D01*
X003431Y015615D01*
X003431Y016019D01*
X003431Y016016D02*
X003508Y016016D01*
X003508Y015918D02*
X003431Y015918D01*
X003431Y015819D02*
X003508Y015819D01*
X003508Y015721D02*
X003431Y015721D01*
X003431Y015622D02*
X003508Y015622D01*
X003692Y015622D02*
X003814Y015622D01*
X003860Y015524D02*
X003328Y015524D01*
X003328Y015425D02*
X003860Y015425D01*
X003860Y015327D02*
X003328Y015327D01*
X003328Y015228D02*
X003860Y015228D01*
X003860Y015130D02*
X003328Y015130D01*
X003328Y015031D02*
X003860Y015031D01*
X003919Y014933D02*
X003328Y014933D01*
X003328Y014834D02*
X004018Y014834D01*
X004116Y014736D02*
X003328Y014736D01*
X003328Y014637D02*
X004183Y014637D01*
X004220Y014539D02*
X003328Y014539D01*
X003328Y014440D02*
X004331Y014440D01*
X004576Y014440D02*
X004657Y014440D01*
X004686Y014539D02*
X004756Y014539D01*
X004723Y014637D02*
X004854Y014637D01*
X004953Y014736D02*
X004723Y014736D01*
X004682Y014834D02*
X004675Y014842D01*
X004764Y014842D01*
X004878Y014889D01*
X004965Y014975D01*
X005012Y015089D01*
X005012Y015091D01*
X005037Y015029D01*
X005113Y014953D01*
X005212Y014911D01*
X005320Y014911D01*
X005419Y014953D01*
X005495Y015029D01*
X005536Y015128D01*
X005536Y015235D01*
X005495Y015334D01*
X005442Y015388D01*
X005442Y015615D01*
X005481Y015615D01*
X005537Y015671D01*
X005593Y015615D01*
X005631Y015615D01*
X005632Y015542D01*
X005632Y015461D01*
X005633Y015460D01*
X005633Y015458D01*
X005692Y015401D01*
X005749Y015344D01*
X005751Y015344D01*
X005933Y015166D01*
X005933Y015128D01*
X005974Y015029D01*
X006050Y014953D01*
X006149Y014911D01*
X006257Y014911D01*
X006356Y014953D01*
X006432Y015029D01*
X006473Y015128D01*
X006473Y015235D01*
X006432Y015334D01*
X006356Y015410D01*
X006257Y015451D01*
X006213Y015451D01*
X006045Y015615D01*
X006071Y015615D01*
X006127Y015671D01*
X006153Y015645D01*
X006188Y015625D01*
X006226Y015615D01*
X006384Y015615D01*
X006384Y016019D01*
X006461Y016019D01*
X006461Y015615D01*
X006620Y015615D01*
X006658Y015625D01*
X006692Y015645D01*
X006718Y015671D01*
X006774Y015615D01*
X006813Y015615D01*
X006813Y015247D01*
X006461Y014850D01*
X005067Y014850D01*
X005162Y014933D02*
X004922Y014933D01*
X004988Y015031D02*
X005036Y015031D01*
X005266Y015181D02*
X005242Y015214D01*
X005242Y016057D01*
X005488Y015622D02*
X005586Y015622D01*
X005632Y015524D02*
X005442Y015524D01*
X005442Y015425D02*
X005667Y015425D01*
X005768Y015327D02*
X005498Y015327D01*
X005536Y015228D02*
X005869Y015228D01*
X005933Y015130D02*
X005536Y015130D01*
X005496Y015031D02*
X005973Y015031D01*
X006099Y014933D02*
X005371Y014933D01*
X005150Y014650D02*
X006548Y014650D01*
X006579Y014681D01*
X007013Y015171D01*
X007013Y016057D01*
X006942Y016411D01*
X006461Y016410D02*
X006384Y016410D01*
X006384Y016312D02*
X006461Y016312D01*
X006461Y016213D02*
X006384Y016213D01*
X006384Y016115D02*
X006461Y016115D01*
X006461Y016016D02*
X006384Y016016D01*
X006384Y015918D02*
X006461Y015918D01*
X006461Y015819D02*
X006384Y015819D01*
X006384Y015721D02*
X006461Y015721D01*
X006461Y015622D02*
X006384Y015622D01*
X006200Y015622D02*
X006078Y015622D01*
X006139Y015524D02*
X006813Y015524D01*
X006813Y015425D02*
X006321Y015425D01*
X006435Y015327D02*
X006813Y015327D01*
X006797Y015228D02*
X006473Y015228D01*
X006473Y015130D02*
X006709Y015130D01*
X006622Y015031D02*
X006433Y015031D01*
X006535Y014933D02*
X006308Y014933D01*
X006203Y015181D02*
X005832Y015544D01*
X005832Y016057D01*
X006645Y015622D02*
X006767Y015622D01*
X008440Y015622D02*
X009589Y015622D01*
X009688Y015721D02*
X009352Y015721D01*
X009409Y015819D02*
X009782Y015819D01*
X010171Y015819D02*
X010658Y015819D01*
X010553Y015721D02*
X010255Y015721D01*
X010255Y015622D02*
X010545Y015622D01*
X010545Y015524D02*
X010255Y015524D01*
X010255Y015425D02*
X010545Y015425D01*
X010545Y015327D02*
X010255Y015327D01*
X010255Y015228D02*
X010549Y015228D01*
X010622Y015130D02*
X010186Y015130D01*
X011094Y015721D02*
X012313Y015721D01*
X012214Y015622D02*
X011101Y015622D01*
X011101Y015524D02*
X012116Y015524D01*
X012017Y015425D02*
X011101Y015425D01*
X011101Y015327D02*
X011919Y015327D01*
X011820Y015228D02*
X011098Y015228D01*
X012100Y014933D02*
X012402Y014933D01*
X012402Y015031D02*
X012189Y015031D01*
X012287Y015130D02*
X012392Y015130D01*
X012402Y014834D02*
X012176Y014834D01*
X012247Y014736D02*
X012345Y014736D01*
X012332Y014637D02*
X012247Y014637D01*
X012247Y014539D02*
X012356Y014539D01*
X011900Y013146D02*
X012025Y013021D01*
X012702Y011485D02*
X009747Y011485D01*
X009747Y011387D02*
X012604Y011387D01*
X013025Y010400D02*
X013900Y011275D01*
X019025Y011275D01*
X020290Y012540D01*
X020290Y013211D01*
X020546Y013211D02*
X020546Y012421D01*
X019025Y010900D01*
X016150Y010900D01*
X013900Y010900D01*
X013150Y010150D01*
X007650Y010150D01*
X007025Y009525D01*
X007025Y009067D01*
X007013Y009056D01*
X006953Y009066D01*
X006718Y008669D02*
X006662Y008613D01*
X006653Y008613D01*
X006653Y008553D01*
X006656Y008463D01*
X006653Y008459D01*
X006653Y008453D01*
X006619Y008420D01*
X006704Y008420D01*
X006803Y008379D01*
X006879Y008303D01*
X006920Y008204D01*
X006920Y008163D01*
X006949Y008134D01*
X006949Y008409D01*
X007037Y008497D01*
X007594Y008497D01*
X007650Y008441D01*
X007676Y008467D01*
X007710Y008487D01*
X007748Y008497D01*
X007936Y008497D01*
X007936Y008198D01*
X008033Y008198D01*
X008351Y008198D01*
X008351Y008367D01*
X008341Y008405D01*
X008321Y008439D01*
X008293Y008467D01*
X008259Y008487D01*
X008221Y008497D01*
X008033Y008497D01*
X008033Y008198D01*
X008033Y008102D01*
X008319Y008102D01*
X009280Y009063D01*
X009280Y009093D01*
X009260Y009093D01*
X009172Y009180D01*
X009172Y009620D01*
X009253Y009700D01*
X008036Y009700D01*
X007834Y009498D01*
X007843Y009498D01*
X007899Y009442D01*
X007925Y009468D01*
X007959Y009488D01*
X007997Y009498D01*
X008156Y009498D01*
X008156Y009094D01*
X008233Y009094D01*
X008521Y009094D01*
X008521Y009368D01*
X008511Y009406D01*
X008491Y009440D01*
X008464Y009468D01*
X008429Y009488D01*
X008391Y009498D01*
X008233Y009498D01*
X008233Y009094D01*
X008233Y009017D01*
X008521Y009017D01*
X008521Y008743D01*
X008511Y008705D01*
X008491Y008671D01*
X008464Y008643D01*
X008429Y008623D01*
X008391Y008613D01*
X008233Y008613D01*
X008233Y009017D01*
X008156Y009017D01*
X008156Y008613D01*
X007997Y008613D01*
X007959Y008623D01*
X007925Y008643D01*
X007899Y008669D01*
X007843Y008613D01*
X007364Y008613D01*
X007308Y008669D01*
X007252Y008613D01*
X006774Y008613D01*
X006718Y008669D01*
X006677Y008629D02*
X006759Y008629D01*
X006654Y008530D02*
X008747Y008530D01*
X008649Y008432D02*
X008326Y008432D01*
X008351Y008333D02*
X008550Y008333D01*
X008452Y008235D02*
X008351Y008235D01*
X008353Y008136D02*
X008033Y008136D01*
X008033Y008102D02*
X008033Y007816D01*
X007750Y007533D01*
X007750Y007803D01*
X007936Y007803D01*
X007936Y008102D01*
X008033Y008102D01*
X008033Y008038D02*
X007936Y008038D01*
X007936Y007939D02*
X008033Y007939D01*
X008033Y007841D02*
X007936Y007841D01*
X007959Y007742D02*
X007750Y007742D01*
X007750Y007644D02*
X007861Y007644D01*
X007762Y007545D02*
X007750Y007545D01*
X008309Y007151D02*
X008800Y007151D01*
X008846Y007170D02*
X008747Y007129D01*
X008671Y007053D01*
X008630Y006954D01*
X008112Y006954D01*
X008210Y007053D02*
X008671Y007053D01*
X008630Y006954D02*
X008630Y006851D01*
X008266Y006851D01*
X008178Y006763D01*
X008178Y006685D01*
X008082Y006685D01*
X008053Y006714D01*
X007954Y006755D01*
X007912Y006755D01*
X009255Y008097D01*
X009260Y008093D01*
X009699Y008093D01*
X009775Y008168D01*
X009851Y008093D01*
X010290Y008093D01*
X010367Y008170D01*
X010449Y008170D01*
X010449Y008141D01*
X010537Y008053D01*
X011094Y008053D01*
X011150Y008109D01*
X011206Y008053D01*
X011763Y008053D01*
X011851Y008141D01*
X011851Y008659D01*
X011763Y008747D01*
X011715Y008747D01*
X011715Y008804D01*
X011716Y008805D01*
X011716Y008995D01*
X011715Y008996D01*
X011715Y009053D01*
X011763Y009053D01*
X011851Y009141D01*
X011851Y009659D01*
X011810Y009700D01*
X013358Y009700D01*
X013475Y009817D01*
X013475Y009817D01*
X013983Y010325D01*
X014468Y010325D01*
X014497Y010296D01*
X014596Y010255D01*
X014704Y010255D01*
X014803Y010296D01*
X014832Y010325D01*
X015943Y010325D01*
X015921Y010303D01*
X015880Y010204D01*
X015880Y010096D01*
X015921Y009997D01*
X015921Y009997D01*
X015912Y009997D01*
X015824Y009909D01*
X013567Y009909D01*
X013665Y010008D02*
X015917Y010008D01*
X015880Y010106D02*
X013764Y010106D01*
X013862Y010205D02*
X015880Y010205D01*
X015921Y010303D02*
X014810Y010303D01*
X014650Y010525D02*
X013900Y010525D01*
X013275Y009900D01*
X007953Y009900D01*
X007578Y009525D01*
X007578Y009101D01*
X007604Y009056D01*
X007858Y008629D02*
X007950Y008629D01*
X007936Y008432D02*
X008033Y008432D01*
X008033Y008333D02*
X007936Y008333D01*
X007936Y008235D02*
X008033Y008235D01*
X008156Y008629D02*
X008233Y008629D01*
X008233Y008727D02*
X008156Y008727D01*
X008156Y008826D02*
X008233Y008826D01*
X008233Y008924D02*
X008156Y008924D01*
X008233Y009023D02*
X009240Y009023D01*
X009232Y009121D02*
X008521Y009121D01*
X008521Y009220D02*
X009172Y009220D01*
X009172Y009318D02*
X008521Y009318D01*
X008505Y009417D02*
X009172Y009417D01*
X009172Y009515D02*
X007851Y009515D01*
X007950Y009614D02*
X009172Y009614D01*
X009480Y009400D02*
X009480Y008980D01*
X006900Y006400D01*
X005900Y006400D01*
X005275Y007025D01*
X005275Y007534D01*
X005475Y007169D02*
X005662Y007169D01*
X006162Y007169D01*
X006166Y007172D01*
X006180Y007169D01*
X006275Y007169D01*
X006370Y007169D01*
X006384Y007172D01*
X006388Y007169D01*
X006792Y007169D01*
X006755Y007079D01*
X006755Y006971D01*
X006796Y006872D01*
X006872Y006796D01*
X006971Y006755D01*
X006972Y006755D01*
X006817Y006600D01*
X005983Y006600D01*
X005475Y007108D01*
X005475Y007169D01*
X005475Y007151D02*
X006785Y007151D01*
X006755Y007053D02*
X005530Y007053D01*
X005629Y006954D02*
X006762Y006954D01*
X006813Y006856D02*
X005727Y006856D01*
X005826Y006757D02*
X006966Y006757D01*
X006876Y006659D02*
X005924Y006659D01*
X005654Y006363D02*
X004000Y006363D01*
X004036Y006030D02*
X003770Y006030D01*
X002979Y007151D02*
X002434Y007151D01*
X002434Y007250D02*
X002979Y007250D01*
X002979Y007348D02*
X002434Y007348D01*
X002434Y007447D02*
X002979Y007447D01*
X002979Y007545D02*
X002434Y007545D01*
X002398Y007644D02*
X002979Y007644D01*
X002979Y007742D02*
X000900Y007742D01*
X000900Y007644D02*
X001303Y007644D01*
X001268Y007545D02*
X000900Y007545D01*
X000900Y007447D02*
X001268Y007447D01*
X001268Y007348D02*
X000900Y007348D01*
X000900Y007250D02*
X001268Y007250D01*
X001268Y007151D02*
X000900Y007151D01*
X000900Y007841D02*
X002124Y007841D01*
X002074Y007939D02*
X000900Y007939D01*
X000900Y008038D02*
X002074Y008038D01*
X002074Y008198D02*
X002392Y008198D01*
X002392Y008497D01*
X002204Y008497D01*
X002166Y008487D01*
X002132Y008467D01*
X002104Y008439D01*
X002084Y008405D01*
X002074Y008367D01*
X002074Y008198D01*
X002074Y008235D02*
X000900Y008235D01*
X000900Y008333D02*
X002074Y008333D01*
X002099Y008432D02*
X000900Y008432D01*
X000900Y008530D02*
X006093Y008530D01*
X006087Y008629D02*
X006168Y008629D01*
X006423Y009056D02*
X006423Y009548D01*
X007275Y010400D01*
X013025Y010400D01*
X013468Y009811D02*
X015824Y009811D01*
X015824Y009909D02*
X015824Y009391D01*
X015912Y009303D01*
X016469Y009303D01*
X016525Y009359D01*
X016581Y009303D01*
X017138Y009303D01*
X017226Y009391D01*
X017226Y009420D01*
X017250Y009420D01*
X017250Y007951D01*
X016424Y007951D01*
X016332Y008043D01*
X014529Y008043D01*
X014529Y008254D01*
X014531Y008303D01*
X014594Y008303D01*
X014650Y008359D01*
X014676Y008333D01*
X014710Y008313D01*
X014748Y008303D01*
X014936Y008303D01*
X014936Y008602D01*
X015033Y008602D01*
X015033Y008698D01*
X015351Y008698D01*
X015351Y008867D01*
X015341Y008905D01*
X015321Y008939D01*
X015293Y008967D01*
X015259Y008987D01*
X015221Y008997D01*
X015033Y008997D01*
X015033Y008698D01*
X014936Y008698D01*
X014936Y008997D01*
X014748Y008997D01*
X014710Y008987D01*
X014676Y008967D01*
X014650Y008941D01*
X014594Y008997D01*
X014037Y008997D01*
X013949Y008909D01*
X013949Y008391D01*
X014037Y008303D01*
X014069Y008303D01*
X014069Y008263D01*
X014065Y008173D01*
X014069Y008169D01*
X014069Y008023D01*
X014042Y008023D01*
X013954Y007936D01*
X013954Y007879D01*
X013850Y007983D01*
X013850Y008468D01*
X013879Y008497D01*
X013920Y008596D01*
X013920Y008704D01*
X013879Y008803D01*
X013803Y008879D01*
X013704Y008920D01*
X013596Y008920D01*
X013497Y008879D01*
X013421Y008803D01*
X013400Y008752D01*
X013379Y008803D01*
X013303Y008879D01*
X013204Y008920D01*
X013096Y008920D01*
X012997Y008879D01*
X012921Y008803D01*
X012880Y008704D01*
X012880Y008596D01*
X012921Y008497D01*
X012950Y008468D01*
X012950Y007567D01*
X013067Y007450D01*
X013416Y007102D01*
X013720Y007102D01*
X013671Y007053D01*
X013645Y006990D01*
X012872Y006990D01*
X012879Y006997D01*
X012920Y007096D01*
X012920Y007204D01*
X012879Y007303D01*
X012803Y007379D01*
X012704Y007420D01*
X012596Y007420D01*
X012497Y007379D01*
X012421Y007303D01*
X012397Y007246D01*
X012346Y007246D01*
X012346Y007424D01*
X012340Y007430D01*
X012346Y007435D01*
X012346Y007680D01*
X012340Y007685D01*
X012346Y007691D01*
X012346Y007936D01*
X012258Y008023D01*
X011744Y008023D01*
X011734Y008013D01*
X009731Y008013D01*
X008887Y007170D01*
X008846Y007170D01*
X008967Y007250D02*
X008407Y007250D01*
X008506Y007348D02*
X009065Y007348D01*
X009164Y007447D02*
X008604Y007447D01*
X008703Y007545D02*
X009262Y007545D01*
X009361Y007644D02*
X008801Y007644D01*
X008900Y007742D02*
X009459Y007742D01*
X009558Y007841D02*
X008998Y007841D01*
X009097Y007939D02*
X009656Y007939D01*
X009813Y007813D02*
X008900Y006900D01*
X008630Y006856D02*
X008013Y006856D01*
X007915Y006757D02*
X008178Y006757D01*
X007900Y006485D02*
X008525Y006485D01*
X008400Y005650D02*
X008025Y005275D01*
X007534Y005275D01*
X007650Y004650D02*
X006650Y003650D01*
X005650Y003650D02*
X006900Y004900D01*
X008650Y004900D01*
X010284Y006534D01*
X012001Y006534D01*
X012001Y006790D02*
X013790Y006790D01*
X013900Y006900D01*
X013671Y007053D02*
X012902Y007053D01*
X012920Y007151D02*
X013366Y007151D01*
X013268Y007250D02*
X012901Y007250D01*
X012834Y007348D02*
X013169Y007348D01*
X013071Y007447D02*
X012346Y007447D01*
X012346Y007545D02*
X012972Y007545D01*
X012950Y007644D02*
X012346Y007644D01*
X012346Y007742D02*
X012950Y007742D01*
X012950Y007841D02*
X012346Y007841D01*
X012343Y007939D02*
X012950Y007939D01*
X012950Y008038D02*
X009195Y008038D01*
X009275Y008400D02*
X009480Y008400D01*
X009275Y008400D02*
X006775Y005900D01*
X006775Y005266D01*
X006525Y005266D02*
X006525Y005266D01*
X006525Y005266D01*
X006525Y005631D01*
X006505Y005631D01*
X006505Y005880D01*
X006545Y005976D01*
X006545Y006084D01*
X006504Y006183D01*
X006487Y006200D01*
X006792Y006200D01*
X006575Y005983D01*
X006575Y005631D01*
X006525Y005631D01*
X006525Y005266D01*
X006525Y005280D02*
X006525Y005280D01*
X006525Y005378D02*
X006525Y005378D01*
X006525Y005477D02*
X006525Y005477D01*
X006525Y005575D02*
X006525Y005575D01*
X006505Y005674D02*
X006575Y005674D01*
X006575Y005772D02*
X006505Y005772D01*
X006505Y005871D02*
X006575Y005871D01*
X006575Y005969D02*
X006542Y005969D01*
X006545Y006068D02*
X006660Y006068D01*
X006758Y006166D02*
X006511Y006166D01*
X006525Y005181D02*
X006525Y005181D01*
X006525Y005083D02*
X006525Y005083D01*
X006525Y004984D02*
X006525Y004984D01*
X007650Y004650D02*
X008900Y004650D01*
X010528Y006278D01*
X012001Y006278D01*
X012001Y006022D02*
X010772Y006022D01*
X009150Y004400D01*
X008400Y004400D01*
X007650Y003650D01*
X008650Y003650D02*
X009150Y004150D01*
X009400Y004150D01*
X011016Y005766D01*
X012001Y005766D01*
X012001Y005510D02*
X011260Y005510D01*
X009650Y003900D01*
X009650Y003650D01*
X010650Y003650D02*
X010650Y004400D01*
X011504Y005254D01*
X012001Y005254D01*
X012001Y004998D02*
X011748Y004998D01*
X011650Y004900D01*
X011650Y003650D01*
X012091Y003408D02*
X012150Y003408D01*
X012074Y003367D02*
X011933Y003226D01*
X011822Y003180D01*
X012208Y003180D01*
X012150Y003238D01*
X012150Y004062D01*
X012238Y004150D01*
X013062Y004150D01*
X013150Y004062D01*
X013150Y003238D01*
X013092Y003180D01*
X013478Y003180D01*
X013367Y003226D01*
X013226Y003367D01*
X013150Y003551D01*
X013150Y003749D01*
X013226Y003933D01*
X013367Y004074D01*
X013450Y004108D01*
X013450Y004233D01*
X013904Y004687D01*
X013954Y004687D01*
X013954Y004865D01*
X013960Y004870D01*
X013954Y004876D01*
X013954Y005121D01*
X013960Y005126D01*
X013954Y005132D01*
X013954Y005376D01*
X013960Y005382D01*
X013954Y005388D01*
X013954Y005632D01*
X013960Y005638D01*
X013954Y005644D01*
X013954Y005888D01*
X013960Y005894D01*
X013954Y005900D01*
X013954Y006144D01*
X013960Y006150D01*
X013954Y006156D01*
X013954Y006400D01*
X013966Y006412D01*
X013964Y006416D01*
X013954Y006454D01*
X013954Y006534D01*
X014299Y006534D01*
X014644Y006534D01*
X014644Y006590D01*
X015123Y006590D01*
X015163Y006630D01*
X015204Y006630D01*
X015303Y006671D01*
X015379Y006747D01*
X015420Y006846D01*
X015420Y006954D01*
X017298Y006954D01*
X017311Y006923D02*
X017923Y006311D01*
X018070Y006250D01*
X019005Y006250D01*
X019005Y005997D01*
X018956Y005997D01*
X018900Y005941D01*
X018844Y005997D01*
X018287Y005997D01*
X018206Y005916D01*
X018165Y005957D01*
X017726Y005957D01*
X017645Y005877D01*
X017632Y005900D01*
X017604Y005928D01*
X017570Y005947D01*
X017532Y005957D01*
X017383Y005957D01*
X017383Y005679D01*
X017326Y005679D01*
X017326Y005957D01*
X017177Y005957D01*
X017139Y005947D01*
X017105Y005928D01*
X017077Y005900D01*
X017057Y005865D01*
X017047Y005827D01*
X017047Y005679D01*
X017326Y005679D01*
X017326Y005621D01*
X017383Y005621D01*
X017383Y005343D01*
X017532Y005343D01*
X017570Y005353D01*
X017604Y005372D01*
X017632Y005400D01*
X017645Y005423D01*
X017726Y005343D01*
X018165Y005343D01*
X018206Y005384D01*
X018287Y005303D01*
X018844Y005303D01*
X018900Y005359D01*
X018956Y005303D01*
X019513Y005303D01*
X019601Y005391D01*
X019601Y005909D01*
X019513Y005997D01*
X019465Y005997D01*
X019465Y006250D01*
X021230Y006250D01*
X021377Y006311D01*
X021416Y006350D01*
X021682Y006350D01*
X021750Y006418D01*
X021750Y006317D01*
X021867Y006200D01*
X021867Y006200D01*
X021887Y006180D01*
X021718Y006180D01*
X021630Y006092D01*
X021630Y005855D01*
X021586Y005898D01*
X021226Y005898D01*
X021162Y005835D01*
X021162Y006007D01*
X021074Y006095D01*
X020714Y006095D01*
X020665Y006047D01*
X020131Y006047D01*
X020129Y006053D01*
X020053Y006129D01*
X019954Y006170D01*
X019846Y006170D01*
X019747Y006129D01*
X019671Y006053D01*
X019630Y005954D01*
X019630Y005846D01*
X019671Y005747D01*
X019747Y005671D01*
X019846Y005630D01*
X019954Y005630D01*
X019994Y005647D01*
X020659Y005647D01*
X020656Y005644D01*
X020636Y005609D01*
X020626Y005571D01*
X020626Y005453D01*
X020626Y005335D01*
X020636Y005297D01*
X020656Y005263D01*
X020684Y005235D01*
X020718Y005215D01*
X020756Y005205D01*
X020894Y005205D01*
X020894Y005453D01*
X020894Y005453D01*
X020626Y005453D01*
X020894Y005453D01*
X020894Y005453D01*
X020894Y005205D01*
X021032Y005205D01*
X021053Y005210D01*
X021053Y004706D01*
X021109Y004650D01*
X021053Y004594D01*
X021053Y004150D01*
X020433Y004150D01*
X019483Y005100D01*
X019317Y005100D01*
X017483Y005100D01*
X017240Y005343D01*
X017326Y005343D01*
X017326Y005621D01*
X017047Y005621D01*
X017047Y005536D01*
X016105Y006478D01*
X015939Y006478D01*
X014644Y006478D01*
X014644Y006534D01*
X014299Y006534D01*
X014299Y006534D01*
X014299Y006534D01*
X013954Y006534D01*
X013954Y006614D01*
X013959Y006632D01*
X013954Y006630D01*
X013913Y006630D01*
X013873Y006590D01*
X012346Y006590D01*
X012346Y006412D01*
X012340Y006406D01*
X012346Y006400D01*
X012346Y006156D01*
X012340Y006150D01*
X012346Y006144D01*
X012346Y005900D01*
X012340Y005894D01*
X012346Y005888D01*
X012346Y005644D01*
X012340Y005638D01*
X012346Y005632D01*
X012346Y005388D01*
X012340Y005382D01*
X012346Y005376D01*
X012346Y005132D01*
X012340Y005126D01*
X012346Y005121D01*
X012346Y004943D01*
X012640Y004943D01*
X012663Y004920D01*
X012704Y004920D01*
X012803Y004879D01*
X012879Y004803D01*
X012920Y004704D01*
X012920Y004596D01*
X012879Y004497D01*
X012803Y004421D01*
X012704Y004380D01*
X012596Y004380D01*
X012497Y004421D01*
X012421Y004497D01*
X012402Y004543D01*
X012346Y004543D01*
X012346Y004487D01*
X012001Y004487D01*
X012001Y004533D01*
X012001Y004533D01*
X012001Y004487D01*
X012001Y004487D01*
X011850Y004487D01*
X011850Y004487D01*
X012001Y004487D01*
X012001Y004487D01*
X012001Y004487D01*
X012001Y004487D01*
X012001Y004277D01*
X011850Y004277D01*
X011850Y004108D01*
X011933Y004074D01*
X012074Y003933D01*
X012150Y003749D01*
X012150Y003551D01*
X012074Y003367D01*
X012017Y003310D02*
X012150Y003310D01*
X012177Y003211D02*
X011897Y003211D01*
X012132Y003507D02*
X012150Y003507D01*
X012150Y003605D02*
X012150Y003605D01*
X012150Y003704D02*
X012150Y003704D01*
X012150Y003802D02*
X012128Y003802D01*
X012150Y003901D02*
X012087Y003901D01*
X012150Y003999D02*
X012008Y003999D01*
X011876Y004098D02*
X012185Y004098D01*
X012216Y004277D02*
X012001Y004277D01*
X012001Y004487D01*
X012346Y004487D01*
X012346Y004407D01*
X012336Y004369D01*
X012316Y004335D01*
X012288Y004307D01*
X012254Y004287D01*
X012216Y004277D01*
X012267Y004295D02*
X013512Y004295D01*
X013450Y004196D02*
X011850Y004196D01*
X012001Y004295D02*
X012001Y004295D01*
X012001Y004393D02*
X012001Y004393D01*
X012001Y004492D02*
X012001Y004492D01*
X012001Y004743D02*
X012557Y004743D01*
X012650Y004650D01*
X012735Y004393D02*
X013610Y004393D01*
X013709Y004492D02*
X012873Y004492D01*
X012917Y004590D02*
X013807Y004590D01*
X013954Y004689D02*
X012920Y004689D01*
X012885Y004787D02*
X013954Y004787D01*
X013954Y004886D02*
X012787Y004886D01*
X012346Y004984D02*
X013954Y004984D01*
X013954Y005083D02*
X012346Y005083D01*
X012346Y005181D02*
X013954Y005181D01*
X013954Y005280D02*
X012346Y005280D01*
X012345Y005378D02*
X013955Y005378D01*
X013954Y005477D02*
X012346Y005477D01*
X012346Y005575D02*
X013954Y005575D01*
X013954Y005674D02*
X012346Y005674D01*
X012346Y005772D02*
X013954Y005772D01*
X013954Y005871D02*
X012346Y005871D01*
X012346Y005969D02*
X013954Y005969D01*
X013954Y006068D02*
X012346Y006068D01*
X012346Y006166D02*
X013954Y006166D01*
X013954Y006265D02*
X012346Y006265D01*
X012346Y006363D02*
X013954Y006363D01*
X013954Y006462D02*
X012346Y006462D01*
X012346Y006560D02*
X013954Y006560D01*
X014299Y006790D02*
X015040Y006790D01*
X015150Y006900D01*
X015050Y007151D02*
X014637Y007151D01*
X014634Y007164D02*
X014631Y007167D01*
X014644Y007179D01*
X014644Y007424D01*
X014638Y007430D01*
X014644Y007435D01*
X014644Y007583D01*
X016135Y007583D01*
X016171Y007497D01*
X016247Y007421D01*
X016346Y007380D01*
X016454Y007380D01*
X016530Y007411D01*
X017250Y007411D01*
X017250Y007070D01*
X017311Y006923D01*
X017379Y006856D02*
X015420Y006856D01*
X015420Y006954D02*
X015379Y007053D01*
X015303Y007129D01*
X015204Y007170D01*
X015096Y007170D01*
X014997Y007129D01*
X014921Y007053D01*
X014895Y006990D01*
X014644Y006990D01*
X014644Y007046D01*
X014644Y007125D01*
X014634Y007164D01*
X014644Y007250D02*
X017250Y007250D01*
X017250Y007348D02*
X014644Y007348D01*
X014644Y007447D02*
X016222Y007447D01*
X016151Y007545D02*
X014644Y007545D01*
X014299Y007557D02*
X013993Y007557D01*
X013650Y007900D01*
X013650Y008650D01*
X013893Y008530D02*
X013949Y008530D01*
X013949Y008432D02*
X013850Y008432D01*
X013850Y008333D02*
X014007Y008333D01*
X014068Y008235D02*
X013850Y008235D01*
X013850Y008136D02*
X014069Y008136D01*
X014069Y008038D02*
X013850Y008038D01*
X013894Y007939D02*
X013957Y007939D01*
X014529Y008136D02*
X017250Y008136D01*
X017250Y008038D02*
X016338Y008038D01*
X016431Y007681D02*
X016400Y007650D01*
X017250Y007151D02*
X015250Y007151D01*
X015379Y007053D02*
X017257Y007053D01*
X017477Y006757D02*
X015383Y006757D01*
X015273Y006659D02*
X017576Y006659D01*
X017674Y006560D02*
X014644Y006560D01*
X014299Y006278D02*
X016022Y006278D01*
X017400Y004900D01*
X019400Y004900D01*
X020650Y003650D01*
X021288Y003113D02*
X022800Y003113D01*
X022900Y003200D02*
X021900Y002325D01*
X021400Y002325D01*
X021150Y002975D01*
X021825Y003650D01*
X021825Y003775D01*
X023475Y003775D01*
X023475Y003325D01*
X023025Y003325D01*
X022900Y003200D01*
X022911Y003211D02*
X021386Y003211D01*
X021485Y003310D02*
X023010Y003310D01*
X023095Y003113D02*
X024400Y003113D01*
X024400Y003211D02*
X023670Y003211D01*
X023675Y003310D02*
X024400Y003310D01*
X024400Y003408D02*
X023675Y003408D01*
X023675Y003507D02*
X024400Y003507D01*
X024400Y003605D02*
X023675Y003605D01*
X023675Y003704D02*
X024400Y003704D01*
X024400Y003802D02*
X023675Y003802D01*
X023670Y003901D02*
X024400Y003901D01*
X024400Y003999D02*
X023603Y003999D01*
X023475Y003704D02*
X021825Y003704D01*
X021780Y003605D02*
X023475Y003605D01*
X023475Y003507D02*
X021682Y003507D01*
X021583Y003408D02*
X023475Y003408D01*
X022997Y003014D02*
X024400Y003014D01*
X024400Y002916D02*
X022879Y002916D01*
X022766Y002817D02*
X024400Y002817D01*
X024400Y002719D02*
X022653Y002719D01*
X022541Y002620D02*
X023215Y002620D01*
X022978Y002522D02*
X022428Y002522D01*
X022316Y002423D02*
X022879Y002423D01*
X022781Y002325D02*
X022203Y002325D01*
X022091Y002226D02*
X022711Y002226D01*
X022670Y002128D02*
X021985Y002128D01*
X022012Y002423D02*
X021362Y002423D01*
X021324Y002522D02*
X022125Y002522D01*
X022237Y002620D02*
X021287Y002620D01*
X021249Y002719D02*
X022350Y002719D01*
X022462Y002817D02*
X021211Y002817D01*
X021173Y002916D02*
X022575Y002916D01*
X022687Y003014D02*
X021189Y003014D01*
X020978Y002029D02*
X022629Y002029D01*
X022597Y001931D02*
X021064Y001931D01*
X021117Y001832D02*
X022597Y001832D01*
X022597Y001734D02*
X021143Y001734D01*
X021149Y001602D02*
X020698Y001602D01*
X020698Y001151D01*
X020767Y001162D01*
X020842Y001187D01*
X020912Y001222D01*
X020976Y001269D01*
X021031Y001324D01*
X021078Y001388D01*
X021113Y001458D01*
X021138Y001533D01*
X021149Y001602D01*
X021138Y001537D02*
X022624Y001537D01*
X022597Y001635D02*
X020698Y001635D01*
X020602Y001635D02*
X019698Y001635D01*
X019698Y001602D02*
X020149Y001602D01*
X020138Y001533D01*
X020113Y001458D01*
X020078Y001388D01*
X020031Y001324D01*
X019976Y001269D01*
X019912Y001222D01*
X019842Y001187D01*
X019767Y001162D01*
X019698Y001151D01*
X019698Y001602D01*
X019698Y001537D02*
X019602Y001537D01*
X019602Y001602D02*
X019602Y001151D01*
X019533Y001162D01*
X019458Y001187D01*
X019388Y001222D01*
X019324Y001269D01*
X019269Y001324D01*
X019222Y001388D01*
X019187Y001458D01*
X019162Y001533D01*
X019151Y001602D01*
X019602Y001602D01*
X019602Y001635D02*
X018698Y001635D01*
X018698Y001602D02*
X019149Y001602D01*
X019138Y001533D01*
X019113Y001458D01*
X019078Y001388D01*
X019031Y001324D01*
X018976Y001269D01*
X018912Y001222D01*
X018842Y001187D01*
X018767Y001162D01*
X018698Y001151D01*
X018698Y001602D01*
X018698Y001537D02*
X018602Y001537D01*
X018602Y001602D02*
X018602Y001151D01*
X018533Y001162D01*
X018458Y001187D01*
X018388Y001222D01*
X018324Y001269D01*
X018269Y001324D01*
X018222Y001388D01*
X018187Y001458D01*
X018162Y001533D01*
X018151Y001602D01*
X018602Y001602D01*
X018602Y001635D02*
X017698Y001635D01*
X017698Y001602D02*
X018149Y001602D01*
X018138Y001533D01*
X018113Y001458D01*
X018078Y001388D01*
X018031Y001324D01*
X017976Y001269D01*
X017912Y001222D01*
X017842Y001187D01*
X017767Y001162D01*
X017698Y001151D01*
X017698Y001602D01*
X017698Y001537D02*
X017602Y001537D01*
X017602Y001602D02*
X017602Y001151D01*
X017533Y001162D01*
X017458Y001187D01*
X017388Y001222D01*
X017324Y001269D01*
X017269Y001324D01*
X017222Y001388D01*
X017187Y001458D01*
X017162Y001533D01*
X017151Y001602D01*
X017602Y001602D01*
X017602Y001635D02*
X016698Y001635D01*
X016698Y001602D02*
X017149Y001602D01*
X017138Y001533D01*
X017113Y001458D01*
X017078Y001388D01*
X017031Y001324D01*
X016976Y001269D01*
X016912Y001222D01*
X016842Y001187D01*
X016767Y001162D01*
X016698Y001151D01*
X016698Y001602D01*
X016698Y001537D02*
X016602Y001537D01*
X016602Y001602D02*
X016602Y001151D01*
X016533Y001162D01*
X016458Y001187D01*
X016388Y001222D01*
X016324Y001269D01*
X016269Y001324D01*
X016222Y001388D01*
X016187Y001458D01*
X016162Y001533D01*
X016151Y001602D01*
X016602Y001602D01*
X016602Y001635D02*
X015698Y001635D01*
X015698Y001602D02*
X016149Y001602D01*
X016138Y001533D01*
X016113Y001458D01*
X016078Y001388D01*
X016031Y001324D01*
X015976Y001269D01*
X015912Y001222D01*
X015842Y001187D01*
X015767Y001162D01*
X015698Y001151D01*
X015698Y001602D01*
X015698Y001537D02*
X015602Y001537D01*
X015602Y001602D02*
X015602Y001151D01*
X015533Y001162D01*
X015458Y001187D01*
X015388Y001222D01*
X015324Y001269D01*
X015269Y001324D01*
X015222Y001388D01*
X015187Y001458D01*
X015162Y001533D01*
X015151Y001602D01*
X015602Y001602D01*
X015602Y001635D02*
X014698Y001635D01*
X014698Y001602D02*
X015149Y001602D01*
X015138Y001533D01*
X015113Y001458D01*
X015078Y001388D01*
X015031Y001324D01*
X014976Y001269D01*
X014912Y001222D01*
X014842Y001187D01*
X014767Y001162D01*
X014698Y001151D01*
X014698Y001602D01*
X014698Y001537D02*
X014602Y001537D01*
X014602Y001602D02*
X014602Y001151D01*
X014533Y001162D01*
X014458Y001187D01*
X014388Y001222D01*
X014324Y001269D01*
X014269Y001324D01*
X014222Y001388D01*
X014187Y001458D01*
X014162Y001533D01*
X014151Y001602D01*
X014602Y001602D01*
X014602Y001635D02*
X013698Y001635D01*
X013698Y001602D02*
X014149Y001602D01*
X014138Y001533D01*
X014113Y001458D01*
X014078Y001388D01*
X014031Y001324D01*
X013976Y001269D01*
X013912Y001222D01*
X013842Y001187D01*
X013767Y001162D01*
X013698Y001151D01*
X013698Y001602D01*
X013698Y001537D02*
X013602Y001537D01*
X013602Y001602D02*
X013602Y001151D01*
X013533Y001162D01*
X013458Y001187D01*
X013388Y001222D01*
X013324Y001269D01*
X013269Y001324D01*
X013222Y001388D01*
X013187Y001458D01*
X013162Y001533D01*
X013151Y001602D01*
X013602Y001602D01*
X013602Y001635D02*
X012698Y001635D01*
X012698Y001602D02*
X013149Y001602D01*
X013138Y001533D01*
X013113Y001458D01*
X013078Y001388D01*
X013031Y001324D01*
X012976Y001269D01*
X012912Y001222D01*
X012842Y001187D01*
X012767Y001162D01*
X012698Y001151D01*
X012698Y001602D01*
X012698Y001537D02*
X012602Y001537D01*
X012602Y001602D02*
X012602Y001151D01*
X012533Y001162D01*
X012458Y001187D01*
X012388Y001222D01*
X012324Y001269D01*
X012269Y001324D01*
X012222Y001388D01*
X012187Y001458D01*
X012162Y001533D01*
X012151Y001602D01*
X012602Y001602D01*
X012602Y001635D02*
X011698Y001635D01*
X011698Y001602D02*
X012149Y001602D01*
X012138Y001533D01*
X012113Y001458D01*
X012078Y001388D01*
X012031Y001324D01*
X011976Y001269D01*
X011912Y001222D01*
X011842Y001187D01*
X011767Y001162D01*
X011698Y001151D01*
X011698Y001602D01*
X011698Y001537D02*
X011602Y001537D01*
X011602Y001602D02*
X011602Y001151D01*
X011533Y001162D01*
X011458Y001187D01*
X011388Y001222D01*
X011324Y001269D01*
X011269Y001324D01*
X011222Y001388D01*
X011187Y001458D01*
X011162Y001533D01*
X011151Y001602D01*
X011602Y001602D01*
X011602Y001635D02*
X010698Y001635D01*
X010698Y001602D02*
X011149Y001602D01*
X011138Y001533D01*
X011113Y001458D01*
X011078Y001388D01*
X011031Y001324D01*
X010976Y001269D01*
X010912Y001222D01*
X010842Y001187D01*
X010767Y001162D01*
X010698Y001151D01*
X010698Y001602D01*
X010698Y001537D02*
X010602Y001537D01*
X010602Y001602D02*
X010602Y001151D01*
X010533Y001162D01*
X010458Y001187D01*
X010388Y001222D01*
X010324Y001269D01*
X010269Y001324D01*
X010222Y001388D01*
X010187Y001458D01*
X010162Y001533D01*
X010151Y001602D01*
X010602Y001602D01*
X010602Y001635D02*
X009698Y001635D01*
X009698Y001602D02*
X010149Y001602D01*
X010138Y001533D01*
X010113Y001458D01*
X010078Y001388D01*
X010031Y001324D01*
X009976Y001269D01*
X009912Y001222D01*
X009842Y001187D01*
X009767Y001162D01*
X009698Y001151D01*
X009698Y001602D01*
X009698Y001537D02*
X009602Y001537D01*
X009602Y001602D02*
X009602Y001151D01*
X009533Y001162D01*
X009458Y001187D01*
X009388Y001222D01*
X009324Y001269D01*
X009269Y001324D01*
X009222Y001388D01*
X009187Y001458D01*
X009162Y001533D01*
X009151Y001602D01*
X009602Y001602D01*
X009602Y001635D02*
X008698Y001635D01*
X008698Y001602D02*
X009149Y001602D01*
X009138Y001533D01*
X009113Y001458D01*
X009078Y001388D01*
X009031Y001324D01*
X008976Y001269D01*
X008912Y001222D01*
X008842Y001187D01*
X008767Y001162D01*
X008698Y001151D01*
X008698Y001602D01*
X008698Y001537D02*
X008602Y001537D01*
X008602Y001602D02*
X008602Y001151D01*
X008533Y001162D01*
X008458Y001187D01*
X008388Y001222D01*
X008324Y001269D01*
X008269Y001324D01*
X008222Y001388D01*
X008187Y001458D01*
X008162Y001533D01*
X008151Y001602D01*
X008602Y001602D01*
X008602Y001635D02*
X007698Y001635D01*
X007698Y001602D02*
X008149Y001602D01*
X008138Y001533D01*
X008113Y001458D01*
X008078Y001388D01*
X008031Y001324D01*
X007976Y001269D01*
X007912Y001222D01*
X007842Y001187D01*
X007767Y001162D01*
X007698Y001151D01*
X007698Y001602D01*
X007698Y001537D02*
X007602Y001537D01*
X007602Y001602D02*
X007602Y001151D01*
X007533Y001162D01*
X007458Y001187D01*
X007388Y001222D01*
X007324Y001269D01*
X007269Y001324D01*
X007222Y001388D01*
X007187Y001458D01*
X007162Y001533D01*
X007151Y001602D01*
X007602Y001602D01*
X007602Y001635D02*
X006698Y001635D01*
X006698Y001602D02*
X007149Y001602D01*
X007138Y001533D01*
X007113Y001458D01*
X007078Y001388D01*
X007031Y001324D01*
X006976Y001269D01*
X006912Y001222D01*
X006842Y001187D01*
X006767Y001162D01*
X006698Y001151D01*
X006698Y001602D01*
X006698Y001537D02*
X006602Y001537D01*
X006602Y001602D02*
X006602Y001151D01*
X006533Y001162D01*
X006458Y001187D01*
X006388Y001222D01*
X006324Y001269D01*
X006269Y001324D01*
X006222Y001388D01*
X006187Y001458D01*
X006162Y001533D01*
X006151Y001602D01*
X006602Y001602D01*
X006602Y001635D02*
X005698Y001635D01*
X005698Y001602D02*
X006149Y001602D01*
X006138Y001533D01*
X006113Y001458D01*
X006078Y001388D01*
X006031Y001324D01*
X005976Y001269D01*
X005912Y001222D01*
X005842Y001187D01*
X005767Y001162D01*
X005698Y001151D01*
X005698Y001602D01*
X005698Y001537D02*
X005602Y001537D01*
X005602Y001602D02*
X005602Y001151D01*
X005533Y001162D01*
X005458Y001187D01*
X005388Y001222D01*
X005324Y001269D01*
X005269Y001324D01*
X005222Y001388D01*
X005187Y001458D01*
X005162Y001533D01*
X005151Y001602D01*
X005602Y001602D01*
X005602Y001635D02*
X004190Y001635D01*
X004190Y001610D02*
X004190Y001690D01*
X004110Y001690D01*
X004110Y002069D01*
X004052Y002060D01*
X003989Y002039D01*
X003930Y002009D01*
X003876Y001970D01*
X003830Y001924D01*
X003791Y001870D01*
X003761Y001811D01*
X003740Y001748D01*
X003731Y001690D01*
X004110Y001690D01*
X004110Y001610D01*
X003731Y001610D01*
X003740Y001552D01*
X003761Y001489D01*
X003791Y001430D01*
X003830Y001376D01*
X003876Y001330D01*
X003930Y001291D01*
X003989Y001261D01*
X004052Y001240D01*
X004110Y001231D01*
X004110Y001610D01*
X004190Y001610D01*
X004569Y001610D01*
X004560Y001552D01*
X004539Y001489D01*
X004509Y001430D01*
X004470Y001376D01*
X004424Y001330D01*
X004370Y001291D01*
X004311Y001261D01*
X004248Y001240D01*
X004190Y001231D01*
X004190Y001610D01*
X004190Y001537D02*
X004110Y001537D01*
X004110Y001635D02*
X002703Y001635D01*
X002703Y001734D02*
X003738Y001734D01*
X003771Y001832D02*
X002703Y001832D01*
X002703Y001931D02*
X003837Y001931D01*
X003969Y002029D02*
X002671Y002029D01*
X002630Y002128D02*
X005502Y002128D01*
X005324Y002226D02*
X002589Y002226D01*
X002519Y002325D02*
X005226Y002325D01*
X005170Y002423D02*
X002421Y002423D01*
X002322Y002522D02*
X005130Y002522D01*
X005322Y002029D02*
X004331Y002029D01*
X004311Y002039D02*
X004248Y002060D01*
X004190Y002069D01*
X004190Y001690D01*
X004569Y001690D01*
X004560Y001748D01*
X004539Y001811D01*
X004509Y001870D01*
X004470Y001924D01*
X004424Y001970D01*
X004370Y002009D01*
X004311Y002039D01*
X004190Y002029D02*
X004110Y002029D01*
X004110Y001931D02*
X004190Y001931D01*
X004190Y001832D02*
X004110Y001832D01*
X004110Y001734D02*
X004190Y001734D01*
X004463Y001931D02*
X005236Y001931D01*
X005183Y001832D02*
X004529Y001832D01*
X004562Y001734D02*
X005157Y001734D01*
X005162Y001537D02*
X004555Y001537D01*
X004513Y001438D02*
X005197Y001438D01*
X005258Y001340D02*
X004433Y001340D01*
X004250Y001241D02*
X005362Y001241D01*
X005602Y001241D02*
X005698Y001241D01*
X005698Y001340D02*
X005602Y001340D01*
X005602Y001438D02*
X005698Y001438D01*
X005938Y001241D02*
X006362Y001241D01*
X006258Y001340D02*
X006042Y001340D01*
X006103Y001438D02*
X006197Y001438D01*
X006162Y001537D02*
X006138Y001537D01*
X006143Y001734D02*
X006157Y001734D01*
X006183Y001832D02*
X006117Y001832D01*
X006064Y001931D02*
X006236Y001931D01*
X006322Y002029D02*
X005978Y002029D01*
X006602Y001438D02*
X006698Y001438D01*
X006698Y001340D02*
X006602Y001340D01*
X006602Y001241D02*
X006698Y001241D01*
X006938Y001241D02*
X007362Y001241D01*
X007258Y001340D02*
X007042Y001340D01*
X007103Y001438D02*
X007197Y001438D01*
X007162Y001537D02*
X007138Y001537D01*
X007143Y001734D02*
X007157Y001734D01*
X007183Y001832D02*
X007117Y001832D01*
X007064Y001931D02*
X007236Y001931D01*
X007322Y002029D02*
X006978Y002029D01*
X007602Y001438D02*
X007698Y001438D01*
X007698Y001340D02*
X007602Y001340D01*
X007602Y001241D02*
X007698Y001241D01*
X007938Y001241D02*
X008362Y001241D01*
X008258Y001340D02*
X008042Y001340D01*
X008103Y001438D02*
X008197Y001438D01*
X008162Y001537D02*
X008138Y001537D01*
X008143Y001734D02*
X008157Y001734D01*
X008183Y001832D02*
X008117Y001832D01*
X008064Y001931D02*
X008236Y001931D01*
X008322Y002029D02*
X007978Y002029D01*
X008602Y001438D02*
X008698Y001438D01*
X008698Y001340D02*
X008602Y001340D01*
X008602Y001241D02*
X008698Y001241D01*
X008938Y001241D02*
X009362Y001241D01*
X009258Y001340D02*
X009042Y001340D01*
X009103Y001438D02*
X009197Y001438D01*
X009162Y001537D02*
X009138Y001537D01*
X009143Y001734D02*
X009157Y001734D01*
X009183Y001832D02*
X009117Y001832D01*
X009064Y001931D02*
X009236Y001931D01*
X009322Y002029D02*
X008978Y002029D01*
X009602Y001438D02*
X009698Y001438D01*
X009698Y001340D02*
X009602Y001340D01*
X009602Y001241D02*
X009698Y001241D01*
X009938Y001241D02*
X010362Y001241D01*
X010258Y001340D02*
X010042Y001340D01*
X010103Y001438D02*
X010197Y001438D01*
X010162Y001537D02*
X010138Y001537D01*
X010143Y001734D02*
X010157Y001734D01*
X010183Y001832D02*
X010117Y001832D01*
X010064Y001931D02*
X010236Y001931D01*
X010322Y002029D02*
X009978Y002029D01*
X010602Y001438D02*
X010698Y001438D01*
X010698Y001340D02*
X010602Y001340D01*
X010602Y001241D02*
X010698Y001241D01*
X010938Y001241D02*
X011362Y001241D01*
X011258Y001340D02*
X011042Y001340D01*
X011103Y001438D02*
X011197Y001438D01*
X011162Y001537D02*
X011138Y001537D01*
X011143Y001734D02*
X011157Y001734D01*
X011183Y001832D02*
X011117Y001832D01*
X011064Y001931D02*
X011236Y001931D01*
X011322Y002029D02*
X010978Y002029D01*
X011602Y001438D02*
X011698Y001438D01*
X011698Y001340D02*
X011602Y001340D01*
X011602Y001241D02*
X011698Y001241D01*
X011938Y001241D02*
X012362Y001241D01*
X012258Y001340D02*
X012042Y001340D01*
X012103Y001438D02*
X012197Y001438D01*
X012162Y001537D02*
X012138Y001537D01*
X012143Y001734D02*
X012157Y001734D01*
X012183Y001832D02*
X012117Y001832D01*
X012064Y001931D02*
X012236Y001931D01*
X012322Y002029D02*
X011978Y002029D01*
X012602Y001438D02*
X012698Y001438D01*
X012698Y001340D02*
X012602Y001340D01*
X012602Y001241D02*
X012698Y001241D01*
X012938Y001241D02*
X013362Y001241D01*
X013258Y001340D02*
X013042Y001340D01*
X013103Y001438D02*
X013197Y001438D01*
X013162Y001537D02*
X013138Y001537D01*
X013143Y001734D02*
X013157Y001734D01*
X013183Y001832D02*
X013117Y001832D01*
X013064Y001931D02*
X013236Y001931D01*
X013322Y002029D02*
X012978Y002029D01*
X013602Y001438D02*
X013698Y001438D01*
X013698Y001340D02*
X013602Y001340D01*
X013602Y001241D02*
X013698Y001241D01*
X013938Y001241D02*
X014362Y001241D01*
X014258Y001340D02*
X014042Y001340D01*
X014103Y001438D02*
X014197Y001438D01*
X014162Y001537D02*
X014138Y001537D01*
X014143Y001734D02*
X014157Y001734D01*
X014183Y001832D02*
X014117Y001832D01*
X014064Y001931D02*
X014236Y001931D01*
X014322Y002029D02*
X013978Y002029D01*
X014602Y001438D02*
X014698Y001438D01*
X014698Y001340D02*
X014602Y001340D01*
X014602Y001241D02*
X014698Y001241D01*
X014938Y001241D02*
X015362Y001241D01*
X015258Y001340D02*
X015042Y001340D01*
X015103Y001438D02*
X015197Y001438D01*
X015162Y001537D02*
X015138Y001537D01*
X015143Y001734D02*
X015157Y001734D01*
X015183Y001832D02*
X015117Y001832D01*
X015064Y001931D02*
X015236Y001931D01*
X015322Y002029D02*
X014978Y002029D01*
X015602Y001438D02*
X015698Y001438D01*
X015698Y001340D02*
X015602Y001340D01*
X015602Y001241D02*
X015698Y001241D01*
X015938Y001241D02*
X016362Y001241D01*
X016258Y001340D02*
X016042Y001340D01*
X016103Y001438D02*
X016197Y001438D01*
X016162Y001537D02*
X016138Y001537D01*
X016143Y001734D02*
X016157Y001734D01*
X016183Y001832D02*
X016117Y001832D01*
X016064Y001931D02*
X016236Y001931D01*
X016322Y002029D02*
X015978Y002029D01*
X016602Y001438D02*
X016698Y001438D01*
X016698Y001340D02*
X016602Y001340D01*
X016602Y001241D02*
X016698Y001241D01*
X016938Y001241D02*
X017362Y001241D01*
X017258Y001340D02*
X017042Y001340D01*
X017103Y001438D02*
X017197Y001438D01*
X017162Y001537D02*
X017138Y001537D01*
X017143Y001734D02*
X017157Y001734D01*
X017183Y001832D02*
X017117Y001832D01*
X017064Y001931D02*
X017236Y001931D01*
X017322Y002029D02*
X016978Y002029D01*
X017602Y001438D02*
X017698Y001438D01*
X017698Y001340D02*
X017602Y001340D01*
X017602Y001241D02*
X017698Y001241D01*
X017938Y001241D02*
X018362Y001241D01*
X018258Y001340D02*
X018042Y001340D01*
X018103Y001438D02*
X018197Y001438D01*
X018162Y001537D02*
X018138Y001537D01*
X018143Y001734D02*
X018157Y001734D01*
X018183Y001832D02*
X018117Y001832D01*
X018064Y001931D02*
X018236Y001931D01*
X018322Y002029D02*
X017978Y002029D01*
X018602Y001438D02*
X018698Y001438D01*
X018698Y001340D02*
X018602Y001340D01*
X018602Y001241D02*
X018698Y001241D01*
X018938Y001241D02*
X019362Y001241D01*
X019258Y001340D02*
X019042Y001340D01*
X019103Y001438D02*
X019197Y001438D01*
X019162Y001537D02*
X019138Y001537D01*
X019143Y001734D02*
X019157Y001734D01*
X019183Y001832D02*
X019117Y001832D01*
X019064Y001931D02*
X019236Y001931D01*
X019322Y002029D02*
X018978Y002029D01*
X019602Y001438D02*
X019698Y001438D01*
X019698Y001340D02*
X019602Y001340D01*
X019602Y001241D02*
X019698Y001241D01*
X019938Y001241D02*
X020362Y001241D01*
X020388Y001222D02*
X020324Y001269D01*
X020269Y001324D01*
X020222Y001388D01*
X020187Y001458D01*
X020162Y001533D01*
X020151Y001602D01*
X020602Y001602D01*
X020602Y001151D01*
X020533Y001162D01*
X020458Y001187D01*
X020388Y001222D01*
X020258Y001340D02*
X020042Y001340D01*
X020103Y001438D02*
X020197Y001438D01*
X020162Y001537D02*
X020138Y001537D01*
X020143Y001734D02*
X020157Y001734D01*
X020183Y001832D02*
X020117Y001832D01*
X020064Y001931D02*
X020236Y001931D01*
X020322Y002029D02*
X019978Y002029D01*
X020602Y001537D02*
X020698Y001537D01*
X020698Y001438D02*
X020602Y001438D01*
X020602Y001340D02*
X020698Y001340D01*
X020698Y001241D02*
X020602Y001241D01*
X020938Y001241D02*
X022767Y001241D01*
X022705Y001340D02*
X021042Y001340D01*
X021103Y001438D02*
X022664Y001438D01*
X022866Y001143D02*
X002434Y001143D01*
X002533Y001241D02*
X004050Y001241D01*
X004110Y001241D02*
X004190Y001241D01*
X004190Y001340D02*
X004110Y001340D01*
X004110Y001438D02*
X004190Y001438D01*
X003867Y001340D02*
X002595Y001340D01*
X002636Y001438D02*
X003787Y001438D01*
X003745Y001537D02*
X002676Y001537D01*
X002336Y001044D02*
X022964Y001044D01*
X023182Y000946D02*
X002118Y000946D01*
X002354Y003113D02*
X003434Y003113D01*
X003354Y003211D02*
X002434Y003211D01*
X002434Y003310D02*
X003354Y003310D01*
X003354Y003408D02*
X002434Y003408D01*
X002434Y003507D02*
X003354Y003507D01*
X003354Y003605D02*
X002434Y003605D01*
X002434Y003704D02*
X003354Y003704D01*
X003354Y003802D02*
X003103Y003802D01*
X003123Y003901D02*
X003354Y003901D01*
X003354Y003999D02*
X003123Y003999D01*
X003123Y004098D02*
X003354Y004098D01*
X003354Y004196D02*
X003123Y004196D01*
X003123Y004295D02*
X003354Y004295D01*
X004036Y004590D02*
X004036Y004590D01*
X004036Y004689D02*
X004036Y004689D01*
X001347Y003113D02*
X000900Y003113D01*
X000900Y003211D02*
X001268Y003211D01*
X001268Y003310D02*
X000900Y003310D01*
X000900Y003408D02*
X001268Y003408D01*
X001268Y003507D02*
X000900Y003507D01*
X000900Y003605D02*
X001268Y003605D01*
X001268Y003704D02*
X000900Y003704D01*
X002392Y007841D02*
X002489Y007841D01*
X002489Y007939D02*
X002392Y007939D01*
X002392Y008038D02*
X002489Y008038D01*
X002392Y008136D02*
X000900Y008136D01*
X002392Y008235D02*
X002489Y008235D01*
X002489Y008333D02*
X002392Y008333D01*
X002392Y008432D02*
X002489Y008432D01*
X003083Y008629D02*
X003215Y008629D01*
X003369Y009025D02*
X003470Y009056D01*
X003725Y008629D02*
X003806Y008629D01*
X004038Y009007D02*
X004060Y009056D01*
X004315Y008629D02*
X004396Y008629D01*
X003209Y007985D02*
X003110Y008150D01*
X002794Y007841D02*
X002756Y007841D01*
X003328Y010106D02*
X003415Y010106D01*
X003328Y010205D02*
X003514Y010205D01*
X003612Y010303D02*
X003328Y010303D01*
X003328Y010402D02*
X003711Y010402D01*
X003809Y010500D02*
X003328Y010500D01*
X003328Y010599D02*
X003908Y010599D01*
X004006Y010697D02*
X003328Y010697D01*
X003328Y010796D02*
X004105Y010796D01*
X004203Y010894D02*
X003328Y010894D01*
X003328Y010993D02*
X004302Y010993D01*
X004400Y011091D02*
X003328Y011091D01*
X003328Y011190D02*
X004499Y011190D01*
X004597Y011288D02*
X003328Y011288D01*
X003328Y011387D02*
X004696Y011387D01*
X004558Y011485D02*
X003328Y011485D01*
X003328Y011584D02*
X004510Y011584D01*
X004505Y011682D02*
X003328Y011682D01*
X003328Y011781D02*
X004537Y011781D01*
X004575Y011879D02*
X003328Y011879D01*
X003328Y011978D02*
X004575Y011978D01*
X004575Y012076D02*
X003328Y012076D01*
X003328Y012175D02*
X004575Y012175D01*
X004575Y012273D02*
X003328Y012273D01*
X003328Y012372D02*
X004575Y012372D01*
X004575Y012470D02*
X003328Y012470D01*
X003328Y012569D02*
X004575Y012569D01*
X004575Y012667D02*
X003328Y012667D01*
X003328Y012766D02*
X004575Y012766D01*
X004575Y012864D02*
X003328Y012864D01*
X003328Y012963D02*
X004575Y012963D01*
X004575Y013061D02*
X003328Y013061D01*
X003328Y013160D02*
X004575Y013160D01*
X004575Y013258D02*
X003328Y013258D01*
X003328Y013357D02*
X004575Y013357D01*
X004575Y013455D02*
X003328Y013455D01*
X003328Y013554D02*
X004575Y013554D01*
X004575Y013652D02*
X003328Y013652D01*
X003328Y013751D02*
X004575Y013751D01*
X004575Y013849D02*
X003328Y013849D01*
X003328Y013948D02*
X004575Y013948D01*
X004575Y014046D02*
X003328Y014046D01*
X003328Y014145D02*
X004575Y014145D01*
X004575Y014243D02*
X003328Y014243D01*
X003328Y014342D02*
X004575Y014342D01*
X004775Y014275D02*
X005150Y014650D01*
X004775Y014275D02*
X004775Y011650D01*
X007797Y013160D02*
X008594Y013160D01*
X008692Y013258D02*
X007797Y013258D01*
X007798Y013357D02*
X008791Y013357D01*
X008928Y013554D02*
X007798Y013554D01*
X007798Y013652D02*
X008928Y013652D01*
X008928Y013751D02*
X007799Y013751D01*
X007799Y013849D02*
X008928Y013849D01*
X008928Y013948D02*
X007799Y013948D01*
X007799Y014046D02*
X008928Y014046D01*
X008979Y014145D02*
X007799Y014145D01*
X007798Y013455D02*
X009010Y013455D01*
X008928Y014243D02*
X008894Y014243D01*
X011383Y017297D02*
X011917Y017297D01*
X011817Y017395D02*
X011483Y017395D01*
X011535Y017494D02*
X011765Y017494D01*
X011734Y017592D02*
X011566Y017592D01*
X011566Y017691D02*
X011734Y017691D01*
X011758Y017789D02*
X011542Y017789D01*
X011500Y017888D02*
X011800Y017888D01*
X011898Y017986D02*
X011402Y017986D01*
X012383Y017297D02*
X012917Y017297D01*
X012817Y017395D02*
X012483Y017395D01*
X012535Y017494D02*
X012765Y017494D01*
X012734Y017592D02*
X012566Y017592D01*
X012566Y017691D02*
X012734Y017691D01*
X012758Y017789D02*
X012542Y017789D01*
X012500Y017888D02*
X012781Y017888D01*
X012682Y017986D02*
X012402Y017986D01*
X016825Y017592D02*
X018643Y017592D01*
X018739Y017494D02*
X016856Y017494D01*
X016955Y017395D02*
X018835Y017395D01*
X018931Y017297D02*
X017053Y017297D01*
X017152Y017198D02*
X019027Y017198D01*
X019123Y017100D02*
X017250Y017100D01*
X017349Y017001D02*
X019219Y017001D01*
X019315Y016903D02*
X017447Y016903D01*
X017546Y016804D02*
X019411Y016804D01*
X019507Y016706D02*
X017644Y016706D01*
X018170Y015819D02*
X018534Y015819D01*
X018734Y015819D02*
X019028Y015819D01*
X019010Y015819D02*
X019010Y015819D01*
X019010Y015721D02*
X019010Y015721D01*
X019027Y015721D02*
X018734Y015721D01*
X018754Y015716D02*
X018754Y015716D01*
X018734Y015622D02*
X019027Y015622D01*
X019026Y015546D02*
X018734Y015554D01*
X018734Y016315D01*
X019030Y016311D01*
X019026Y015546D01*
X018661Y015622D02*
X019561Y015622D01*
X019028Y015918D02*
X018734Y015918D01*
X018734Y016016D02*
X019029Y016016D01*
X019010Y016016D02*
X019010Y016016D01*
X019010Y015918D02*
X019010Y015918D01*
X019029Y016115D02*
X018734Y016115D01*
X018734Y016213D02*
X019030Y016213D01*
X018962Y016312D02*
X018734Y016312D01*
X018072Y015622D02*
X017637Y015622D01*
X017807Y015524D02*
X024400Y015524D01*
X024400Y015622D02*
X020199Y015622D01*
X020270Y015622D02*
X020569Y015622D01*
X020546Y015664D02*
X020546Y016089D01*
X020546Y016089D01*
X020546Y015664D01*
X020546Y015721D02*
X020546Y015721D01*
X020569Y015721D02*
X020271Y015721D01*
X020290Y015712D02*
X020290Y015712D01*
X020290Y015664D01*
X020290Y015712D01*
X020271Y015819D02*
X020568Y015819D01*
X020546Y015819D02*
X020546Y015819D01*
X020546Y015918D02*
X020546Y015918D01*
X020568Y015918D02*
X020272Y015918D01*
X020272Y016016D02*
X020567Y016016D01*
X020546Y016016D02*
X020546Y016016D01*
X020546Y016089D02*
X020314Y016089D01*
X020314Y016089D01*
X020508Y016089D01*
X020546Y016089D01*
X020546Y016089D01*
X020567Y016115D02*
X020273Y016115D01*
X020273Y016213D02*
X020566Y016213D01*
X020566Y016312D02*
X020274Y016312D01*
X020274Y016315D02*
X020566Y016315D01*
X020570Y015550D01*
X020270Y015558D01*
X020274Y016315D01*
X020779Y016312D02*
X021072Y016312D01*
X021072Y016410D02*
X020779Y016410D01*
X020779Y016509D02*
X021072Y016509D01*
X021072Y016213D02*
X020779Y016213D01*
X020779Y016115D02*
X021072Y016115D01*
X020941Y016012D02*
X020802Y016089D01*
X021675Y016706D02*
X023153Y016706D01*
X022952Y016804D02*
X021675Y016804D01*
X021675Y016903D02*
X022854Y016903D01*
X022755Y017001D02*
X021675Y017001D01*
X021675Y017100D02*
X022700Y017100D01*
X022659Y017198D02*
X021675Y017198D01*
X021675Y017297D02*
X022619Y017297D01*
X022597Y017395D02*
X021675Y017395D01*
X021675Y017494D02*
X022597Y017494D01*
X022597Y017592D02*
X021675Y017592D01*
X021675Y017691D02*
X022597Y017691D01*
X022634Y017789D02*
X021675Y017789D01*
X021675Y017888D02*
X022675Y017888D01*
X022716Y017986D02*
X021675Y017986D01*
X021675Y018085D02*
X022793Y018085D01*
X022891Y018183D02*
X021675Y018183D01*
X021675Y018282D02*
X023006Y018282D01*
X023244Y018380D02*
X021675Y018380D01*
X023709Y018380D02*
X023800Y018380D01*
X023947Y018282D02*
X024041Y018282D01*
X024062Y018183D02*
X024177Y018183D01*
X024161Y018085D02*
X024250Y018085D01*
X024238Y017986D02*
X024320Y017986D01*
X024352Y017888D02*
X024279Y017888D01*
X024319Y017789D02*
X024384Y017789D01*
X024397Y017691D02*
X024357Y017691D01*
X024357Y017592D02*
X024400Y017592D01*
X024400Y017494D02*
X024357Y017494D01*
X024357Y017395D02*
X024400Y017395D01*
X024400Y017297D02*
X024335Y017297D01*
X024294Y017198D02*
X024400Y017198D01*
X024400Y017100D02*
X024253Y017100D01*
X024198Y017001D02*
X024400Y017001D01*
X024400Y016903D02*
X024100Y016903D01*
X024001Y016804D02*
X024400Y016804D01*
X024400Y016706D02*
X023800Y016706D01*
X024400Y015425D02*
X017905Y015425D01*
X018004Y015327D02*
X024400Y015327D01*
X024400Y015228D02*
X018102Y015228D01*
X018201Y015130D02*
X024400Y015130D01*
X024400Y015031D02*
X018299Y015031D01*
X018398Y014933D02*
X024400Y014933D01*
X024400Y014834D02*
X018496Y014834D01*
X018400Y014150D02*
X018367Y014117D01*
X017880Y013751D02*
X017872Y013751D01*
X017872Y013652D02*
X017979Y013652D01*
X018030Y013554D02*
X017872Y013554D01*
X017872Y013455D02*
X018024Y013455D01*
X018024Y013357D02*
X017872Y013357D01*
X018498Y013215D02*
X018498Y013211D01*
X017573Y012766D02*
X017477Y012766D01*
X017477Y012667D02*
X017573Y012667D01*
X017573Y012569D02*
X017477Y012569D01*
X017477Y012470D02*
X017573Y012470D01*
X017865Y012273D02*
X016030Y012273D01*
X017140Y013849D02*
X017160Y013849D01*
X019522Y013211D02*
X019522Y012786D01*
X019466Y012786D01*
X019466Y012598D01*
X019632Y012764D01*
X019632Y012791D01*
X019610Y012786D01*
X019522Y012786D01*
X019522Y013211D01*
X019522Y013211D01*
X019522Y013160D02*
X019522Y013160D01*
X019522Y013061D02*
X019522Y013061D01*
X019522Y012963D02*
X019522Y012963D01*
X019522Y012864D02*
X019522Y012864D01*
X019466Y012766D02*
X019632Y012766D01*
X019535Y012667D02*
X019466Y012667D01*
X019778Y013211D02*
X019778Y013282D01*
X019902Y013406D01*
X020034Y013274D01*
X020034Y013211D01*
X020802Y013211D02*
X020802Y012302D01*
X019025Y010525D01*
X014650Y010525D01*
X014490Y010303D02*
X013961Y010303D01*
X013370Y009712D02*
X015824Y009712D01*
X015824Y009614D02*
X011851Y009614D01*
X011851Y009515D02*
X015824Y009515D01*
X015824Y009417D02*
X011851Y009417D01*
X011851Y009318D02*
X015897Y009318D01*
X016150Y009650D02*
X016150Y010150D01*
X016357Y010325D02*
X019108Y010325D01*
X019225Y010442D01*
X019225Y010442D01*
X020884Y012102D01*
X020884Y012102D01*
X021002Y012219D01*
X021002Y012786D01*
X021188Y012786D01*
X021276Y012873D01*
X021276Y013077D01*
X021328Y013129D01*
X021369Y013228D01*
X021369Y013500D01*
X021381Y013500D01*
X021750Y013131D01*
X021750Y011066D01*
X021341Y010656D01*
X020445Y010656D01*
X020298Y010595D01*
X020186Y010483D01*
X020125Y010336D01*
X020125Y010177D01*
X020186Y010030D01*
X020298Y009917D01*
X020445Y009856D01*
X021378Y009856D01*
X021750Y009484D01*
X021750Y008946D01*
X021686Y008946D01*
X021682Y008950D01*
X020678Y008950D01*
X020590Y008862D01*
X020590Y008258D01*
X020678Y008170D01*
X021682Y008170D01*
X021686Y008174D01*
X021750Y008174D01*
X021750Y007965D01*
X021740Y007982D01*
X021712Y008010D01*
X021678Y008030D01*
X021640Y008040D01*
X021230Y008040D01*
X021230Y007700D01*
X021130Y007700D01*
X021130Y008040D01*
X020720Y008040D01*
X020682Y008030D01*
X020648Y008010D01*
X020620Y007982D01*
X020600Y007948D01*
X020590Y007910D01*
X020590Y007700D01*
X021130Y007700D01*
X021130Y007600D01*
X021230Y007600D01*
X021230Y007260D01*
X021640Y007260D01*
X021678Y007270D01*
X021712Y007290D01*
X021740Y007318D01*
X021750Y007335D01*
X021750Y007062D01*
X021682Y007130D01*
X020678Y007130D01*
X020598Y007050D01*
X019404Y007050D01*
X019404Y007726D01*
X019316Y007814D01*
X018484Y007814D01*
X018396Y007726D01*
X018396Y007050D01*
X018316Y007050D01*
X018050Y007316D01*
X018050Y009529D01*
X018057Y009545D01*
X018199Y009545D01*
X018199Y009516D01*
X018287Y009428D01*
X018844Y009428D01*
X018900Y009484D01*
X018926Y009458D01*
X018960Y009438D01*
X018998Y009428D01*
X019186Y009428D01*
X019186Y009727D01*
X019283Y009727D01*
X019283Y009823D01*
X019601Y009823D01*
X019601Y009992D01*
X019591Y010030D01*
X019571Y010064D01*
X019543Y010092D01*
X019509Y010112D01*
X019471Y010122D01*
X019283Y010122D01*
X019283Y009823D01*
X019186Y009823D01*
X019186Y010122D01*
X018998Y010122D01*
X018960Y010112D01*
X018926Y010092D01*
X018900Y010066D01*
X018844Y010122D01*
X018287Y010122D01*
X018199Y010034D01*
X018199Y010005D01*
X017879Y010005D01*
X017733Y010066D01*
X017567Y010066D01*
X017414Y010002D01*
X017298Y009886D01*
X017295Y009880D01*
X017226Y009880D01*
X017226Y009909D01*
X017321Y009909D01*
X017226Y009909D02*
X017138Y009997D01*
X016581Y009997D01*
X016525Y009941D01*
X016469Y009997D01*
X016379Y009997D01*
X016420Y010096D01*
X016420Y010204D01*
X016379Y010303D01*
X016357Y010325D01*
X016379Y010303D02*
X020125Y010303D01*
X020125Y010205D02*
X016420Y010205D01*
X016420Y010106D02*
X018271Y010106D01*
X018199Y010008D02*
X017873Y010008D01*
X017427Y010008D02*
X016383Y010008D01*
X016379Y009997D02*
X016379Y009997D01*
X016190Y009650D02*
X016150Y009650D01*
X016484Y009318D02*
X016566Y009318D01*
X017153Y009318D02*
X017250Y009318D01*
X017250Y009220D02*
X011851Y009220D01*
X011831Y009121D02*
X017250Y009121D01*
X017250Y009023D02*
X011715Y009023D01*
X011716Y008924D02*
X013964Y008924D01*
X013949Y008826D02*
X013856Y008826D01*
X013910Y008727D02*
X013949Y008727D01*
X013949Y008629D02*
X013920Y008629D01*
X013444Y008826D02*
X013356Y008826D01*
X013150Y008650D02*
X013150Y007650D01*
X013498Y007302D01*
X014299Y007302D01*
X014299Y007046D02*
X014644Y007046D01*
X014299Y007046D01*
X014299Y007046D01*
X014644Y007053D02*
X014921Y007053D01*
X014299Y006022D02*
X015778Y006022D01*
X017150Y004650D01*
X018650Y004650D01*
X019650Y003650D01*
X020288Y004295D02*
X021053Y004295D01*
X021053Y004393D02*
X020190Y004393D01*
X020091Y004492D02*
X021053Y004492D01*
X021053Y004590D02*
X019993Y004590D01*
X019894Y004689D02*
X021071Y004689D01*
X021053Y004787D02*
X019796Y004787D01*
X019697Y004886D02*
X021053Y004886D01*
X021053Y004984D02*
X019599Y004984D01*
X019500Y005083D02*
X021053Y005083D01*
X021053Y005181D02*
X017402Y005181D01*
X017303Y005280D02*
X020646Y005280D01*
X020626Y005378D02*
X019588Y005378D01*
X019601Y005477D02*
X020626Y005477D01*
X020627Y005575D02*
X019601Y005575D01*
X019601Y005674D02*
X019745Y005674D01*
X019661Y005772D02*
X019601Y005772D01*
X019601Y005871D02*
X019630Y005871D01*
X019636Y005969D02*
X019541Y005969D01*
X019465Y006068D02*
X019686Y006068D01*
X019837Y006166D02*
X019465Y006166D01*
X019005Y006166D02*
X016417Y006166D01*
X016515Y006068D02*
X019005Y006068D01*
X018928Y005969D02*
X018872Y005969D01*
X018565Y005650D02*
X017945Y005650D01*
X018259Y005969D02*
X016614Y005969D01*
X016712Y005871D02*
X017060Y005871D01*
X017047Y005772D02*
X016811Y005772D01*
X016909Y005674D02*
X017326Y005674D01*
X017326Y005772D02*
X017383Y005772D01*
X017383Y005871D02*
X017326Y005871D01*
X017326Y005575D02*
X017383Y005575D01*
X017383Y005477D02*
X017326Y005477D01*
X017326Y005378D02*
X017383Y005378D01*
X017610Y005378D02*
X017690Y005378D01*
X018200Y005378D02*
X018212Y005378D01*
X017900Y004400D02*
X018650Y003650D01*
X017650Y003650D02*
X017150Y004150D01*
X016650Y004150D01*
X015290Y005510D01*
X014299Y005510D01*
X014299Y005254D02*
X015046Y005254D01*
X016650Y003650D01*
X016900Y004400D02*
X017900Y004400D01*
X016900Y004400D02*
X015534Y005766D01*
X014299Y005766D01*
X014299Y004998D02*
X014802Y004998D01*
X015650Y004150D01*
X015650Y003650D01*
X014650Y003650D02*
X014650Y004650D01*
X014557Y004743D01*
X014299Y004743D01*
X014299Y004487D02*
X013987Y004487D01*
X013650Y004150D01*
X013650Y003650D01*
X013172Y003802D02*
X013150Y003802D01*
X013150Y003704D02*
X013150Y003704D01*
X013150Y003605D02*
X013150Y003605D01*
X013150Y003507D02*
X013168Y003507D01*
X013150Y003408D02*
X013209Y003408D01*
X013150Y003310D02*
X013283Y003310D01*
X013403Y003211D02*
X013123Y003211D01*
X013150Y003901D02*
X013213Y003901D01*
X013150Y003999D02*
X013292Y003999D01*
X013424Y004098D02*
X013115Y004098D01*
X012565Y004393D02*
X012343Y004393D01*
X012346Y004492D02*
X012427Y004492D01*
X012546Y007046D02*
X012001Y007046D01*
X012346Y007250D02*
X012399Y007250D01*
X012346Y007348D02*
X012466Y007348D01*
X012650Y007150D02*
X012546Y007046D01*
X012001Y007302D02*
X011748Y007302D01*
X011400Y006900D01*
X010807Y007557D02*
X010150Y006900D01*
X010807Y007557D02*
X012001Y007557D01*
X012001Y007813D02*
X009813Y007813D01*
X009807Y008136D02*
X009743Y008136D01*
X010333Y008136D02*
X010454Y008136D01*
X011486Y008900D02*
X011525Y009400D01*
X011485Y009400D01*
X011716Y008826D02*
X012944Y008826D01*
X012890Y008727D02*
X011783Y008727D01*
X011851Y008629D02*
X012880Y008629D01*
X012907Y008530D02*
X011851Y008530D01*
X011851Y008432D02*
X012950Y008432D01*
X012950Y008333D02*
X011851Y008333D01*
X011851Y008235D02*
X012950Y008235D01*
X012950Y008136D02*
X011846Y008136D01*
X012001Y007813D02*
X012063Y007813D01*
X014529Y008235D02*
X017250Y008235D01*
X017250Y008333D02*
X015293Y008333D01*
X015321Y008361D01*
X015341Y008395D01*
X015351Y008433D01*
X015351Y008602D01*
X015033Y008602D01*
X015033Y008303D01*
X015221Y008303D01*
X015259Y008313D01*
X015293Y008333D01*
X015351Y008432D02*
X017250Y008432D01*
X017250Y008530D02*
X015351Y008530D01*
X015351Y008727D02*
X017250Y008727D01*
X017250Y008629D02*
X015033Y008629D01*
X015033Y008727D02*
X014936Y008727D01*
X014936Y008826D02*
X015033Y008826D01*
X015033Y008924D02*
X014936Y008924D01*
X015330Y008924D02*
X017250Y008924D01*
X017250Y008826D02*
X015351Y008826D01*
X015033Y008530D02*
X014936Y008530D01*
X014936Y008432D02*
X015033Y008432D01*
X015033Y008333D02*
X014936Y008333D01*
X014676Y008333D02*
X014624Y008333D01*
X016121Y006462D02*
X017773Y006462D01*
X017871Y006363D02*
X016220Y006363D01*
X016318Y006265D02*
X018035Y006265D01*
X018313Y007053D02*
X018396Y007053D01*
X018396Y007151D02*
X018215Y007151D01*
X018116Y007250D02*
X018396Y007250D01*
X018396Y007348D02*
X018050Y007348D01*
X018050Y007447D02*
X018396Y007447D01*
X018396Y007545D02*
X018050Y007545D01*
X018050Y007644D02*
X018396Y007644D01*
X018412Y007742D02*
X018050Y007742D01*
X018050Y007841D02*
X020590Y007841D01*
X020598Y007939D02*
X018050Y007939D01*
X018050Y008038D02*
X018432Y008038D01*
X018426Y008044D02*
X018454Y008016D01*
X018488Y007996D01*
X018526Y007986D01*
X018850Y007986D01*
X018850Y008401D01*
X018950Y008401D01*
X018950Y007986D01*
X019274Y007986D01*
X019312Y007996D01*
X019346Y008016D01*
X019374Y008044D01*
X019394Y008078D01*
X019404Y008116D01*
X019404Y008401D01*
X018950Y008401D01*
X018950Y008501D01*
X019404Y008501D01*
X019404Y008786D01*
X019394Y008824D01*
X019374Y008858D01*
X019346Y008886D01*
X019312Y008906D01*
X019274Y008916D01*
X018950Y008916D01*
X018950Y008501D01*
X018850Y008501D01*
X018850Y008401D01*
X018396Y008401D01*
X018396Y008116D01*
X018406Y008078D01*
X018426Y008044D01*
X018396Y008136D02*
X018050Y008136D01*
X018050Y008235D02*
X018396Y008235D01*
X018396Y008333D02*
X018050Y008333D01*
X018050Y008432D02*
X018850Y008432D01*
X018850Y008501D02*
X018396Y008501D01*
X018396Y008786D01*
X018406Y008824D01*
X018426Y008858D01*
X018454Y008886D01*
X018488Y008906D01*
X018526Y008916D01*
X018850Y008916D01*
X018850Y008501D01*
X018850Y008530D02*
X018950Y008530D01*
X018950Y008432D02*
X020590Y008432D01*
X020590Y008530D02*
X019404Y008530D01*
X019404Y008629D02*
X020590Y008629D01*
X020590Y008727D02*
X019404Y008727D01*
X019393Y008826D02*
X020590Y008826D01*
X020652Y008924D02*
X018050Y008924D01*
X018050Y008826D02*
X018407Y008826D01*
X018396Y008727D02*
X018050Y008727D01*
X018050Y008629D02*
X018396Y008629D01*
X018396Y008530D02*
X018050Y008530D01*
X018050Y009023D02*
X021750Y009023D01*
X021750Y009121D02*
X018050Y009121D01*
X018050Y009220D02*
X021750Y009220D01*
X021750Y009318D02*
X018050Y009318D01*
X018050Y009417D02*
X021750Y009417D01*
X021719Y009515D02*
X019588Y009515D01*
X019591Y009520D02*
X019601Y009558D01*
X019601Y009727D01*
X019283Y009727D01*
X019283Y009428D01*
X019471Y009428D01*
X019509Y009438D01*
X019543Y009458D01*
X019571Y009486D01*
X019591Y009520D01*
X019601Y009614D02*
X021621Y009614D01*
X021522Y009712D02*
X019601Y009712D01*
X019601Y009909D02*
X020318Y009909D01*
X020208Y010008D02*
X019597Y010008D01*
X019519Y010106D02*
X020154Y010106D01*
X020152Y010402D02*
X019184Y010402D01*
X019283Y010500D02*
X020203Y010500D01*
X020306Y010599D02*
X019381Y010599D01*
X019480Y010697D02*
X020440Y010697D01*
X020421Y010701D02*
X020490Y010687D01*
X020506Y010687D01*
X020506Y011025D01*
X020168Y011025D01*
X020168Y011009D01*
X020182Y010940D01*
X020209Y010875D01*
X020248Y010816D01*
X020298Y010767D01*
X020356Y010728D01*
X020421Y010701D01*
X020506Y010697D02*
X020544Y010697D01*
X020544Y010687D02*
X020560Y010687D01*
X020629Y010701D01*
X020694Y010728D01*
X020752Y010767D01*
X020802Y010816D01*
X020841Y010875D01*
X020868Y010940D01*
X020882Y011009D01*
X020882Y011025D01*
X020544Y011025D01*
X020544Y011063D01*
X020506Y011063D01*
X020506Y011400D01*
X020490Y011400D01*
X020421Y011387D01*
X020356Y011360D01*
X020298Y011321D01*
X020248Y011271D01*
X020209Y011213D01*
X020182Y011148D01*
X020168Y011079D01*
X020168Y011063D01*
X020506Y011063D01*
X020506Y011025D01*
X020544Y011025D01*
X020544Y010687D01*
X020610Y010697D02*
X021381Y010697D01*
X021480Y010796D02*
X020781Y010796D01*
X020849Y010894D02*
X021578Y010894D01*
X021677Y010993D02*
X020879Y010993D01*
X020882Y011063D02*
X020544Y011063D01*
X020544Y011400D01*
X020560Y011400D01*
X020629Y011387D01*
X020694Y011360D01*
X020752Y011321D01*
X020802Y011271D01*
X020841Y011213D01*
X020868Y011148D01*
X020882Y011079D01*
X020882Y011063D01*
X020879Y011091D02*
X021750Y011091D01*
X021750Y011190D02*
X020851Y011190D01*
X020785Y011288D02*
X021750Y011288D01*
X021750Y011387D02*
X020629Y011387D01*
X020544Y011387D02*
X020506Y011387D01*
X020421Y011387D02*
X020169Y011387D01*
X020265Y011288D02*
X020071Y011288D01*
X019972Y011190D02*
X020199Y011190D01*
X020171Y011091D02*
X019874Y011091D01*
X019775Y010993D02*
X020171Y010993D01*
X020201Y010894D02*
X019677Y010894D01*
X019578Y010796D02*
X020269Y010796D01*
X020506Y010796D02*
X020544Y010796D01*
X020544Y010894D02*
X020506Y010894D01*
X020506Y010993D02*
X020544Y010993D01*
X020544Y011091D02*
X020506Y011091D01*
X020506Y011190D02*
X020544Y011190D01*
X020544Y011288D02*
X020506Y011288D01*
X020268Y011485D02*
X021750Y011485D01*
X021750Y011584D02*
X020366Y011584D01*
X020465Y011682D02*
X021750Y011682D01*
X021750Y011781D02*
X020563Y011781D01*
X020662Y011879D02*
X021750Y011879D01*
X021750Y011978D02*
X020760Y011978D01*
X020859Y012076D02*
X021750Y012076D01*
X021750Y012175D02*
X020957Y012175D01*
X021002Y012273D02*
X021750Y012273D01*
X021750Y012372D02*
X021002Y012372D01*
X021002Y012470D02*
X021750Y012470D01*
X021750Y012569D02*
X021002Y012569D01*
X021002Y012667D02*
X021750Y012667D01*
X021750Y012766D02*
X021002Y012766D01*
X021267Y012864D02*
X021750Y012864D01*
X021750Y012963D02*
X021276Y012963D01*
X021276Y013061D02*
X021750Y013061D01*
X021721Y013160D02*
X021341Y013160D01*
X021369Y013258D02*
X021623Y013258D01*
X021524Y013357D02*
X021369Y013357D01*
X021369Y013455D02*
X021426Y013455D01*
X021099Y013281D02*
X021057Y013211D01*
X022279Y014440D02*
X024400Y014440D01*
X024400Y014342D02*
X022378Y014342D01*
X022476Y014243D02*
X024400Y014243D01*
X024400Y014145D02*
X022575Y014145D01*
X022673Y014046D02*
X024400Y014046D01*
X024400Y013948D02*
X022772Y013948D01*
X022870Y013849D02*
X024400Y013849D01*
X024400Y013751D02*
X022958Y013751D01*
X022999Y013652D02*
X024400Y013652D01*
X024400Y013554D02*
X023040Y013554D01*
X023050Y013455D02*
X024400Y013455D01*
X024400Y013357D02*
X023050Y013357D01*
X023050Y013258D02*
X024400Y013258D01*
X024400Y013160D02*
X023050Y013160D01*
X023050Y013061D02*
X024400Y013061D01*
X024400Y012963D02*
X023050Y012963D01*
X023050Y012864D02*
X024400Y012864D01*
X024400Y012766D02*
X023050Y012766D01*
X023050Y012667D02*
X024400Y012667D01*
X024400Y012569D02*
X023050Y012569D01*
X023050Y012470D02*
X024400Y012470D01*
X024400Y012372D02*
X023050Y012372D01*
X023050Y012273D02*
X024400Y012273D01*
X024400Y012175D02*
X023050Y012175D01*
X023050Y012076D02*
X024400Y012076D01*
X024400Y011978D02*
X023050Y011978D01*
X023050Y011879D02*
X024400Y011879D01*
X024400Y011781D02*
X023050Y011781D01*
X023050Y011682D02*
X024400Y011682D01*
X024400Y011584D02*
X023050Y011584D01*
X023050Y011485D02*
X024400Y011485D01*
X024400Y011387D02*
X023050Y011387D01*
X023050Y011288D02*
X024400Y011288D01*
X024400Y011190D02*
X023050Y011190D01*
X023050Y011091D02*
X024400Y011091D01*
X024400Y010993D02*
X023050Y010993D01*
X023050Y010894D02*
X024400Y010894D01*
X024400Y010796D02*
X023050Y010796D01*
X023050Y010697D02*
X024400Y010697D01*
X024400Y010599D02*
X023050Y010599D01*
X023050Y010500D02*
X024400Y010500D01*
X024400Y010402D02*
X023050Y010402D01*
X023050Y010303D02*
X024400Y010303D01*
X024400Y010205D02*
X023050Y010205D01*
X023050Y010106D02*
X024400Y010106D01*
X024400Y010008D02*
X023050Y010008D01*
X023050Y009909D02*
X024400Y009909D01*
X024400Y009811D02*
X023050Y009811D01*
X023050Y009712D02*
X024400Y009712D01*
X024400Y009614D02*
X023050Y009614D01*
X023050Y009515D02*
X024400Y009515D01*
X024400Y009417D02*
X023050Y009417D01*
X023050Y009318D02*
X024400Y009318D01*
X024400Y009220D02*
X023050Y009220D01*
X023050Y009121D02*
X024400Y009121D01*
X024400Y009023D02*
X023050Y009023D01*
X023050Y008924D02*
X024400Y008924D01*
X024400Y008826D02*
X023050Y008826D01*
X023050Y008727D02*
X024400Y008727D01*
X024400Y008629D02*
X023050Y008629D01*
X023050Y008530D02*
X024400Y008530D01*
X024400Y008432D02*
X024184Y008432D01*
X024193Y008417D02*
X024173Y008451D01*
X024145Y008479D01*
X024111Y008498D01*
X024073Y008509D01*
X023670Y008509D01*
X023670Y007700D01*
X024203Y007700D01*
X024203Y008378D01*
X024193Y008417D01*
X024203Y008333D02*
X024400Y008333D01*
X024400Y008235D02*
X024203Y008235D01*
X024203Y008136D02*
X024400Y008136D01*
X024400Y008038D02*
X024203Y008038D01*
X024203Y007939D02*
X024400Y007939D01*
X024400Y007841D02*
X024203Y007841D01*
X024203Y007742D02*
X024400Y007742D01*
X024400Y007644D02*
X023670Y007644D01*
X023670Y007742D02*
X023570Y007742D01*
X023570Y007841D02*
X023670Y007841D01*
X023670Y007939D02*
X023570Y007939D01*
X023570Y008038D02*
X023670Y008038D01*
X023670Y008136D02*
X023570Y008136D01*
X023570Y008235D02*
X023670Y008235D01*
X023670Y008333D02*
X023570Y008333D01*
X023570Y008432D02*
X023670Y008432D01*
X023056Y008432D02*
X023050Y008432D01*
X022400Y008650D02*
X022310Y008560D01*
X021750Y008136D02*
X019404Y008136D01*
X019404Y008235D02*
X020613Y008235D01*
X020590Y008333D02*
X019404Y008333D01*
X019368Y008038D02*
X020711Y008038D01*
X020590Y007742D02*
X019388Y007742D01*
X019404Y007644D02*
X021130Y007644D01*
X021130Y007600D02*
X020590Y007600D01*
X020590Y007390D01*
X020600Y007352D01*
X020620Y007318D01*
X020648Y007290D01*
X020682Y007270D01*
X020720Y007260D01*
X021130Y007260D01*
X021130Y007600D01*
X021130Y007545D02*
X021230Y007545D01*
X021230Y007447D02*
X021130Y007447D01*
X021130Y007348D02*
X021230Y007348D01*
X021230Y007742D02*
X021130Y007742D01*
X021130Y007841D02*
X021230Y007841D01*
X021230Y007939D02*
X021130Y007939D01*
X021130Y008038D02*
X021230Y008038D01*
X021649Y008038D02*
X021750Y008038D01*
X021750Y007250D02*
X019404Y007250D01*
X019404Y007348D02*
X020603Y007348D01*
X020590Y007447D02*
X019404Y007447D01*
X019404Y007545D02*
X020590Y007545D01*
X020600Y007053D02*
X019404Y007053D01*
X019404Y007151D02*
X021750Y007151D01*
X021950Y007150D02*
X022850Y007150D01*
X022850Y006775D01*
X023475Y006150D01*
X023475Y005525D01*
X022325Y005525D01*
X022325Y006025D01*
X021950Y006400D01*
X021950Y007150D01*
X021950Y007053D02*
X022850Y007053D01*
X022850Y006954D02*
X021950Y006954D01*
X021950Y006856D02*
X022850Y006856D01*
X022868Y006757D02*
X021950Y006757D01*
X021950Y006659D02*
X022966Y006659D01*
X023065Y006560D02*
X021950Y006560D01*
X021950Y006462D02*
X023163Y006462D01*
X023262Y006363D02*
X021987Y006363D01*
X022085Y006265D02*
X023360Y006265D01*
X023459Y006166D02*
X022184Y006166D01*
X022282Y006068D02*
X023475Y006068D01*
X023475Y005969D02*
X022325Y005969D01*
X022325Y005871D02*
X023475Y005871D01*
X023475Y005772D02*
X022325Y005772D01*
X022325Y005674D02*
X023475Y005674D01*
X023475Y005575D02*
X022325Y005575D01*
X022630Y005280D02*
X024400Y005280D01*
X024400Y005378D02*
X023670Y005378D01*
X023675Y005477D02*
X024400Y005477D01*
X024400Y005575D02*
X023675Y005575D01*
X023675Y005674D02*
X024400Y005674D01*
X024400Y005772D02*
X023675Y005772D01*
X023675Y005871D02*
X024400Y005871D01*
X024400Y005969D02*
X023675Y005969D01*
X023675Y006068D02*
X024400Y006068D01*
X024400Y006166D02*
X023675Y006166D01*
X023643Y006265D02*
X024400Y006265D01*
X024400Y006363D02*
X023545Y006363D01*
X023446Y006462D02*
X024400Y006462D01*
X024400Y006560D02*
X023348Y006560D01*
X023249Y006659D02*
X024400Y006659D01*
X024400Y006757D02*
X023151Y006757D01*
X023063Y006856D02*
X023052Y006856D01*
X023570Y006856D02*
X023670Y006856D01*
X023670Y006954D02*
X023570Y006954D01*
X023570Y007053D02*
X023670Y007053D01*
X023670Y007151D02*
X023570Y007151D01*
X023570Y007250D02*
X023670Y007250D01*
X023670Y007348D02*
X023570Y007348D01*
X023570Y007447D02*
X023670Y007447D01*
X023670Y007545D02*
X023570Y007545D01*
X024203Y007545D02*
X024400Y007545D01*
X024400Y007447D02*
X024203Y007447D01*
X024203Y007348D02*
X024400Y007348D01*
X024400Y007250D02*
X024203Y007250D01*
X024203Y007151D02*
X024400Y007151D01*
X024400Y007053D02*
X024203Y007053D01*
X024203Y006954D02*
X024400Y006954D01*
X024400Y006856D02*
X024177Y006856D01*
X024400Y005181D02*
X022630Y005181D01*
X022630Y005083D02*
X024400Y005083D01*
X024400Y004984D02*
X022630Y004984D01*
X022630Y004886D02*
X024400Y004886D01*
X024400Y004787D02*
X022612Y004787D01*
X022514Y004689D02*
X024400Y004689D01*
X024400Y004590D02*
X022415Y004590D01*
X022317Y004492D02*
X024400Y004492D01*
X024400Y004393D02*
X022218Y004393D01*
X022120Y004295D02*
X024400Y004295D01*
X024400Y004196D02*
X022021Y004196D01*
X021923Y004098D02*
X024400Y004098D01*
X023197Y003999D02*
X023103Y003999D01*
X022697Y003999D02*
X022603Y003999D01*
X022197Y003999D02*
X022103Y003999D01*
X021053Y004196D02*
X020387Y004196D01*
X021400Y004985D02*
X021406Y004979D01*
X021406Y005650D01*
X021820Y005650D01*
X021900Y005730D01*
X021630Y005871D02*
X021614Y005871D01*
X021630Y005969D02*
X021162Y005969D01*
X021162Y005871D02*
X021198Y005871D01*
X021102Y006068D02*
X021630Y006068D01*
X021704Y006166D02*
X019963Y006166D01*
X020114Y006068D02*
X020686Y006068D01*
X020894Y005847D02*
X019953Y005847D01*
X019900Y005900D01*
X019235Y006610D02*
X019275Y006650D01*
X018950Y008038D02*
X018850Y008038D01*
X018850Y008136D02*
X018950Y008136D01*
X018950Y008235D02*
X018850Y008235D01*
X018850Y008333D02*
X018950Y008333D01*
X018950Y008629D02*
X018850Y008629D01*
X018850Y008727D02*
X018950Y008727D01*
X018950Y008826D02*
X018850Y008826D01*
X019186Y009515D02*
X019283Y009515D01*
X019283Y009614D02*
X019186Y009614D01*
X019186Y009712D02*
X019283Y009712D01*
X019283Y009811D02*
X021424Y009811D01*
X019283Y009909D02*
X019186Y009909D01*
X019186Y010008D02*
X019283Y010008D01*
X019283Y010106D02*
X019186Y010106D01*
X018951Y010106D02*
X018860Y010106D01*
X018200Y009515D02*
X018050Y009515D01*
X017250Y009417D02*
X017226Y009417D01*
X017650Y007900D02*
X017650Y007744D01*
X017047Y005575D02*
X017008Y005575D01*
X020894Y005453D02*
X021162Y005453D01*
X021162Y005351D01*
X021206Y005351D01*
X021206Y005421D01*
X021162Y005465D01*
X021162Y005453D01*
X020894Y005453D01*
X020894Y005453D01*
X020894Y005378D02*
X020894Y005378D01*
X020894Y005280D02*
X020894Y005280D01*
X021162Y005378D02*
X021206Y005378D01*
X021265Y006265D02*
X021803Y006265D01*
X021750Y006363D02*
X021695Y006363D01*
X021180Y006740D02*
X021150Y006710D01*
X021150Y006650D01*
X021400Y006900D01*
X023738Y002620D02*
X024400Y002620D01*
X024400Y002522D02*
X023976Y002522D01*
X024074Y002423D02*
X024400Y002423D01*
X024400Y002325D02*
X024173Y002325D01*
X024243Y002226D02*
X024400Y002226D01*
X024400Y002128D02*
X024284Y002128D01*
X024324Y002029D02*
X024400Y002029D01*
X024400Y001931D02*
X024357Y001931D01*
X024357Y001832D02*
X024400Y001832D01*
X024400Y001734D02*
X024357Y001734D01*
X024357Y001635D02*
X024399Y001635D01*
X024391Y001537D02*
X024330Y001537D01*
X024360Y001438D02*
X024289Y001438D01*
X024328Y001340D02*
X024248Y001340D01*
X024268Y001241D02*
X024186Y001241D01*
X024197Y001143D02*
X024088Y001143D01*
X024076Y001044D02*
X023989Y001044D01*
X023879Y000946D02*
X023771Y000946D01*
X009141Y008924D02*
X008521Y008924D01*
X008521Y008826D02*
X009043Y008826D01*
X008944Y008727D02*
X008517Y008727D01*
X008438Y008629D02*
X008846Y008629D01*
X008233Y009121D02*
X008156Y009121D01*
X008156Y009220D02*
X008233Y009220D01*
X008233Y009318D02*
X008156Y009318D01*
X008156Y009417D02*
X008233Y009417D01*
X007349Y008629D02*
X007268Y008629D01*
X006971Y008432D02*
X006631Y008432D01*
X006849Y008333D02*
X006949Y008333D01*
X006949Y008235D02*
X006907Y008235D01*
X006947Y008136D02*
X006949Y008136D01*
X006775Y008025D02*
X006650Y008150D01*
X006775Y008025D02*
X006775Y007534D01*
X006275Y007534D02*
X006275Y007169D01*
X006275Y007534D01*
X006275Y007534D01*
X006275Y007447D02*
X006275Y007447D01*
X006275Y007348D02*
X006275Y007348D01*
X006275Y007250D02*
X006275Y007250D01*
X004453Y014681D02*
X004060Y015074D01*
X004060Y016057D01*
X021935Y014736D02*
X024400Y014736D01*
X024400Y014637D02*
X022082Y014637D01*
X022181Y014539D02*
X024400Y014539D01*
D33*
X023650Y013650D03*
X023650Y011650D03*
X023650Y009650D03*
X020150Y009150D03*
X020150Y007650D03*
X019900Y005900D03*
X019900Y005150D03*
X017275Y006400D03*
X016400Y007650D03*
X016650Y008650D03*
X016150Y010150D03*
X016150Y010900D03*
X014650Y010525D03*
X014650Y009650D03*
X013650Y008650D03*
X013150Y008650D03*
X012150Y008900D03*
X011111Y008900D03*
X012650Y007150D03*
X013900Y006900D03*
X015150Y006900D03*
X013650Y005650D03*
X013150Y004650D03*
X012650Y004650D03*
X011400Y006900D03*
X010150Y006900D03*
X008900Y006900D03*
X007900Y006485D03*
X007025Y007025D03*
X006150Y006900D03*
X006275Y006030D03*
X005900Y005650D03*
X006150Y004650D03*
X004900Y006650D03*
X004150Y008150D03*
X006650Y008150D03*
X008775Y008775D03*
X008775Y009525D03*
X008650Y011650D03*
X007703Y012400D03*
X008150Y013150D03*
X008722Y014453D03*
X009150Y015900D03*
X010150Y016150D03*
X012602Y014650D03*
X010650Y011650D03*
X006203Y015181D03*
X005266Y015181D03*
X004453Y014681D03*
X003900Y014150D03*
X003900Y012150D03*
X004775Y011650D03*
X001400Y008150D03*
X014650Y017650D03*
X018650Y015150D03*
X019150Y015150D03*
X020150Y015150D03*
X020650Y015150D03*
X023650Y015650D03*
X019525Y012775D03*
X016900Y012806D03*
X016900Y013431D03*
X023650Y004650D03*
D34*
X022400Y004900D02*
X022400Y005730D01*
X022400Y004900D02*
X021815Y004315D01*
X021400Y004315D01*
X019235Y005650D02*
X019235Y006610D01*
X016400Y007650D02*
X016237Y007813D01*
X014299Y007813D01*
X014299Y008258D01*
X014315Y008650D01*
X016860Y009650D02*
X017650Y009650D01*
X017775Y009775D01*
X018565Y009775D01*
X011900Y013146D02*
X011900Y013815D01*
X009525Y013025D02*
X009400Y012900D01*
X009400Y012235D01*
X009275Y013025D02*
X009275Y013815D01*
X010070Y009400D02*
X010815Y009400D01*
X011111Y008900D02*
X011486Y008900D01*
X011485Y009400D02*
X011485Y008400D01*
X010815Y008400D02*
X010070Y008400D01*
X007315Y008150D02*
X007025Y007860D01*
X007025Y007534D01*
X007025Y007025D01*
X006275Y006030D02*
X006275Y005266D01*
X006275Y006030D02*
X004036Y006030D01*
X003770Y006030D02*
X003770Y006280D01*
X003650Y006359D01*
X003406Y006359D01*
X003209Y006525D01*
X003209Y007985D01*
X003470Y009056D02*
X004060Y009056D01*
X006056Y008150D02*
X006423Y008549D01*
X006423Y009056D01*
X006110Y008150D02*
X006056Y008150D01*
X008525Y005815D02*
X008400Y005650D01*
X007534Y005275D02*
X007525Y005266D01*
D35*
X005886Y005178D02*
X005886Y005636D01*
X010275Y012400D02*
X015775Y012400D01*
X016150Y012775D01*
X016150Y014150D01*
X016815Y014150D01*
X017485Y014150D02*
X018333Y014150D01*
X017525Y014110D02*
X017525Y013485D01*
X016150Y014150D02*
X015485Y014150D01*
X019400Y012150D02*
X019902Y012652D01*
X019902Y013406D01*
X021099Y013281D02*
X021099Y014150D01*
X021099Y014280D01*
X017619Y007681D02*
X016431Y007681D01*
X017619Y007681D02*
X017650Y007650D01*
X022400Y007025D02*
X022400Y006230D01*
X022900Y005730D01*
X023400Y005730D01*
X022900Y005730D02*
X022400Y005730D01*
X022400Y003570D02*
X021900Y003570D01*
X022400Y003570D02*
X022900Y003570D01*
X023400Y003570D01*
X013150Y017650D02*
X013150Y017900D01*
X012775Y018275D01*
X008025Y018275D01*
X007650Y017900D01*
X007650Y017650D01*
X004651Y016057D02*
X004651Y015210D01*
X004703Y015150D01*
D36*
X018400Y014150D02*
X021099Y014150D01*
X021650Y014150D01*
X022400Y013400D01*
X022400Y010650D01*
X022400Y009900D01*
X022400Y008650D01*
X022400Y007025D01*
D37*
X021150Y006650D02*
X019275Y006650D01*
X018900Y006650D01*
X018150Y006650D01*
X017650Y007150D01*
X017650Y007650D01*
X017650Y007900D01*
X017650Y009650D01*
X020525Y010256D02*
X022012Y010256D01*
X021525Y010275D02*
X022025Y010775D01*
X021525Y010275D02*
X022150Y009650D01*
X015650Y013150D02*
X015521Y013021D01*
X012025Y013021D01*
X010400Y013021D01*
X010396Y013025D02*
X009525Y013025D01*
X009275Y013025D01*
X009025Y013025D01*
X007650Y011650D01*
X005525Y011650D01*
X003525Y009650D01*
D38*
X003470Y009595D01*
X003470Y009056D01*
X018367Y013091D02*
X018367Y014117D01*
X022012Y010256D02*
X022400Y009900D01*
D39*
X022310Y008560D02*
X021180Y008560D01*
D40*
X018900Y007349D02*
X018900Y006650D01*
X018400Y014150D02*
X018367Y014183D01*
X018333Y014150D01*
X018367Y014183D02*
X018367Y014469D01*
X017560Y015275D01*
X016201Y015275D01*
X017485Y014150D02*
X017525Y014110D01*
D41*
X022025Y010775D02*
X022150Y010650D01*
X022400Y010650D01*
D42*
X019400Y012150D03*
X010275Y012400D03*
X004703Y015150D03*
D43*
X005650Y002650D02*
X006650Y002650D01*
X007650Y002650D01*
X008650Y002650D01*
X009650Y002650D01*
X010650Y002650D01*
X011650Y002650D01*
X012650Y002650D01*
X013650Y002650D01*
X014650Y002650D01*
X015650Y002650D01*
X016650Y002650D01*
X017650Y002650D01*
X018650Y002650D01*
X019650Y002650D01*
X020650Y002650D01*
X021400Y002650D01*
M02*
