G75*
%MOIN*%
%OFA0B0*%
%FSLAX24Y24*%
%IPPOS*%
%LPD*%
%AMOC8*
5,1,8,0,0,1.08239X$1,22.5*
%
%ADD10C,0.0000*%
%ADD11C,0.1260*%
%ADD12R,0.0137X0.0550*%
%ADD13C,0.0540*%
%ADD14R,0.0880X0.0480*%
%ADD15R,0.0866X0.1417*%
%ADD16R,0.0433X0.0394*%
%ADD17R,0.0394X0.0433*%
%ADD18C,0.0531*%
%ADD19C,0.0413*%
%ADD20R,0.0354X0.0585*%
%ADD21R,0.0256X0.0413*%
%ADD22R,0.0390X0.0120*%
%ADD23R,0.0700X0.0700*%
%ADD24C,0.0700*%
%ADD25R,0.0150X0.0430*%
%ADD26R,0.0866X0.0984*%
%ADD27R,0.0787X0.0197*%
%ADD28R,0.0236X0.0197*%
%ADD29R,0.0240X0.0600*%
%ADD30R,0.0315X0.0315*%
%ADD31R,0.0630X0.0709*%
%ADD32R,0.0709X0.0630*%
D10*
X001650Y000650D02*
X023650Y000650D01*
X023710Y000652D01*
X023771Y000657D01*
X023830Y000666D01*
X023889Y000679D01*
X023948Y000695D01*
X024005Y000715D01*
X024060Y000738D01*
X024115Y000765D01*
X024167Y000794D01*
X024218Y000827D01*
X024267Y000863D01*
X024313Y000901D01*
X024357Y000943D01*
X024399Y000987D01*
X024437Y001033D01*
X024473Y001082D01*
X024506Y001133D01*
X024535Y001185D01*
X024562Y001240D01*
X024585Y001295D01*
X024605Y001352D01*
X024621Y001411D01*
X024634Y001470D01*
X024643Y001529D01*
X024648Y001590D01*
X024650Y001650D01*
X024650Y017650D01*
X024648Y017710D01*
X024643Y017771D01*
X024634Y017830D01*
X024621Y017889D01*
X024605Y017948D01*
X024585Y018005D01*
X024562Y018060D01*
X024535Y018115D01*
X024506Y018167D01*
X024473Y018218D01*
X024437Y018267D01*
X024399Y018313D01*
X024357Y018357D01*
X024313Y018399D01*
X024267Y018437D01*
X024218Y018473D01*
X024167Y018506D01*
X024115Y018535D01*
X024060Y018562D01*
X024005Y018585D01*
X023948Y018605D01*
X023889Y018621D01*
X023830Y018634D01*
X023771Y018643D01*
X023710Y018648D01*
X023650Y018650D01*
X001650Y018650D01*
X001590Y018648D01*
X001529Y018643D01*
X001470Y018634D01*
X001411Y018621D01*
X001352Y018605D01*
X001295Y018585D01*
X001240Y018562D01*
X001185Y018535D01*
X001133Y018506D01*
X001082Y018473D01*
X001033Y018437D01*
X000987Y018399D01*
X000943Y018357D01*
X000901Y018313D01*
X000863Y018267D01*
X000827Y018218D01*
X000794Y018167D01*
X000765Y018115D01*
X000738Y018060D01*
X000715Y018005D01*
X000695Y017948D01*
X000679Y017889D01*
X000666Y017830D01*
X000657Y017771D01*
X000652Y017710D01*
X000650Y017650D01*
X000650Y001650D01*
X000652Y001590D01*
X000657Y001529D01*
X000666Y001470D01*
X000679Y001411D01*
X000695Y001352D01*
X000715Y001295D01*
X000738Y001240D01*
X000765Y001185D01*
X000794Y001133D01*
X000827Y001082D01*
X000863Y001033D01*
X000901Y000987D01*
X000943Y000943D01*
X000987Y000901D01*
X001033Y000863D01*
X001082Y000827D01*
X001133Y000794D01*
X001185Y000765D01*
X001240Y000738D01*
X001295Y000715D01*
X001352Y000695D01*
X001411Y000679D01*
X001470Y000666D01*
X001529Y000657D01*
X001590Y000652D01*
X001650Y000650D01*
X001193Y001776D02*
X001195Y001826D01*
X001201Y001876D01*
X001211Y001925D01*
X001225Y001973D01*
X001242Y002020D01*
X001263Y002065D01*
X001288Y002109D01*
X001316Y002150D01*
X001348Y002189D01*
X001382Y002226D01*
X001419Y002260D01*
X001459Y002290D01*
X001501Y002317D01*
X001545Y002341D01*
X001591Y002362D01*
X001638Y002378D01*
X001686Y002391D01*
X001736Y002400D01*
X001785Y002405D01*
X001836Y002406D01*
X001886Y002403D01*
X001935Y002396D01*
X001984Y002385D01*
X002032Y002370D01*
X002078Y002352D01*
X002123Y002330D01*
X002166Y002304D01*
X002207Y002275D01*
X002246Y002243D01*
X002282Y002208D01*
X002314Y002170D01*
X002344Y002130D01*
X002371Y002087D01*
X002394Y002043D01*
X002413Y001997D01*
X002429Y001949D01*
X002441Y001900D01*
X002449Y001851D01*
X002453Y001801D01*
X002453Y001751D01*
X002449Y001701D01*
X002441Y001652D01*
X002429Y001603D01*
X002413Y001555D01*
X002394Y001509D01*
X002371Y001465D01*
X002344Y001422D01*
X002314Y001382D01*
X002282Y001344D01*
X002246Y001309D01*
X002207Y001277D01*
X002166Y001248D01*
X002123Y001222D01*
X002078Y001200D01*
X002032Y001182D01*
X001984Y001167D01*
X001935Y001156D01*
X001886Y001149D01*
X001836Y001146D01*
X001785Y001147D01*
X001736Y001152D01*
X001686Y001161D01*
X001638Y001174D01*
X001591Y001190D01*
X001545Y001211D01*
X001501Y001235D01*
X001459Y001262D01*
X001419Y001292D01*
X001382Y001326D01*
X001348Y001363D01*
X001316Y001402D01*
X001288Y001443D01*
X001263Y001487D01*
X001242Y001532D01*
X001225Y001579D01*
X001211Y001627D01*
X001201Y001676D01*
X001195Y001726D01*
X001193Y001776D01*
X001193Y017524D02*
X001195Y017574D01*
X001201Y017624D01*
X001211Y017673D01*
X001225Y017721D01*
X001242Y017768D01*
X001263Y017813D01*
X001288Y017857D01*
X001316Y017898D01*
X001348Y017937D01*
X001382Y017974D01*
X001419Y018008D01*
X001459Y018038D01*
X001501Y018065D01*
X001545Y018089D01*
X001591Y018110D01*
X001638Y018126D01*
X001686Y018139D01*
X001736Y018148D01*
X001785Y018153D01*
X001836Y018154D01*
X001886Y018151D01*
X001935Y018144D01*
X001984Y018133D01*
X002032Y018118D01*
X002078Y018100D01*
X002123Y018078D01*
X002166Y018052D01*
X002207Y018023D01*
X002246Y017991D01*
X002282Y017956D01*
X002314Y017918D01*
X002344Y017878D01*
X002371Y017835D01*
X002394Y017791D01*
X002413Y017745D01*
X002429Y017697D01*
X002441Y017648D01*
X002449Y017599D01*
X002453Y017549D01*
X002453Y017499D01*
X002449Y017449D01*
X002441Y017400D01*
X002429Y017351D01*
X002413Y017303D01*
X002394Y017257D01*
X002371Y017213D01*
X002344Y017170D01*
X002314Y017130D01*
X002282Y017092D01*
X002246Y017057D01*
X002207Y017025D01*
X002166Y016996D01*
X002123Y016970D01*
X002078Y016948D01*
X002032Y016930D01*
X001984Y016915D01*
X001935Y016904D01*
X001886Y016897D01*
X001836Y016894D01*
X001785Y016895D01*
X001736Y016900D01*
X001686Y016909D01*
X001638Y016922D01*
X001591Y016938D01*
X001545Y016959D01*
X001501Y016983D01*
X001459Y017010D01*
X001419Y017040D01*
X001382Y017074D01*
X001348Y017111D01*
X001316Y017150D01*
X001288Y017191D01*
X001263Y017235D01*
X001242Y017280D01*
X001225Y017327D01*
X001211Y017375D01*
X001201Y017424D01*
X001195Y017474D01*
X001193Y017524D01*
X022847Y017524D02*
X022849Y017574D01*
X022855Y017624D01*
X022865Y017673D01*
X022879Y017721D01*
X022896Y017768D01*
X022917Y017813D01*
X022942Y017857D01*
X022970Y017898D01*
X023002Y017937D01*
X023036Y017974D01*
X023073Y018008D01*
X023113Y018038D01*
X023155Y018065D01*
X023199Y018089D01*
X023245Y018110D01*
X023292Y018126D01*
X023340Y018139D01*
X023390Y018148D01*
X023439Y018153D01*
X023490Y018154D01*
X023540Y018151D01*
X023589Y018144D01*
X023638Y018133D01*
X023686Y018118D01*
X023732Y018100D01*
X023777Y018078D01*
X023820Y018052D01*
X023861Y018023D01*
X023900Y017991D01*
X023936Y017956D01*
X023968Y017918D01*
X023998Y017878D01*
X024025Y017835D01*
X024048Y017791D01*
X024067Y017745D01*
X024083Y017697D01*
X024095Y017648D01*
X024103Y017599D01*
X024107Y017549D01*
X024107Y017499D01*
X024103Y017449D01*
X024095Y017400D01*
X024083Y017351D01*
X024067Y017303D01*
X024048Y017257D01*
X024025Y017213D01*
X023998Y017170D01*
X023968Y017130D01*
X023936Y017092D01*
X023900Y017057D01*
X023861Y017025D01*
X023820Y016996D01*
X023777Y016970D01*
X023732Y016948D01*
X023686Y016930D01*
X023638Y016915D01*
X023589Y016904D01*
X023540Y016897D01*
X023490Y016894D01*
X023439Y016895D01*
X023390Y016900D01*
X023340Y016909D01*
X023292Y016922D01*
X023245Y016938D01*
X023199Y016959D01*
X023155Y016983D01*
X023113Y017010D01*
X023073Y017040D01*
X023036Y017074D01*
X023002Y017111D01*
X022970Y017150D01*
X022942Y017191D01*
X022917Y017235D01*
X022896Y017280D01*
X022879Y017327D01*
X022865Y017375D01*
X022855Y017424D01*
X022849Y017474D01*
X022847Y017524D01*
X022847Y001776D02*
X022849Y001826D01*
X022855Y001876D01*
X022865Y001925D01*
X022879Y001973D01*
X022896Y002020D01*
X022917Y002065D01*
X022942Y002109D01*
X022970Y002150D01*
X023002Y002189D01*
X023036Y002226D01*
X023073Y002260D01*
X023113Y002290D01*
X023155Y002317D01*
X023199Y002341D01*
X023245Y002362D01*
X023292Y002378D01*
X023340Y002391D01*
X023390Y002400D01*
X023439Y002405D01*
X023490Y002406D01*
X023540Y002403D01*
X023589Y002396D01*
X023638Y002385D01*
X023686Y002370D01*
X023732Y002352D01*
X023777Y002330D01*
X023820Y002304D01*
X023861Y002275D01*
X023900Y002243D01*
X023936Y002208D01*
X023968Y002170D01*
X023998Y002130D01*
X024025Y002087D01*
X024048Y002043D01*
X024067Y001997D01*
X024083Y001949D01*
X024095Y001900D01*
X024103Y001851D01*
X024107Y001801D01*
X024107Y001751D01*
X024103Y001701D01*
X024095Y001652D01*
X024083Y001603D01*
X024067Y001555D01*
X024048Y001509D01*
X024025Y001465D01*
X023998Y001422D01*
X023968Y001382D01*
X023936Y001344D01*
X023900Y001309D01*
X023861Y001277D01*
X023820Y001248D01*
X023777Y001222D01*
X023732Y001200D01*
X023686Y001182D01*
X023638Y001167D01*
X023589Y001156D01*
X023540Y001149D01*
X023490Y001146D01*
X023439Y001147D01*
X023390Y001152D01*
X023340Y001161D01*
X023292Y001174D01*
X023245Y001190D01*
X023199Y001211D01*
X023155Y001235D01*
X023113Y001262D01*
X023073Y001292D01*
X023036Y001326D01*
X023002Y001363D01*
X022970Y001402D01*
X022942Y001443D01*
X022917Y001487D01*
X022896Y001532D01*
X022879Y001579D01*
X022865Y001627D01*
X022855Y001676D01*
X022849Y001726D01*
X022847Y001776D01*
D11*
X023477Y001776D03*
X023477Y017524D03*
X001823Y017524D03*
X001823Y001776D03*
D12*
X018243Y013211D03*
X018498Y013211D03*
X018754Y013211D03*
X019010Y013211D03*
X019266Y013211D03*
X019522Y013211D03*
X019778Y013211D03*
X020034Y013211D03*
X020290Y013211D03*
X020546Y013211D03*
X020802Y013211D03*
X021057Y013211D03*
X021057Y016089D03*
X020802Y016089D03*
X020546Y016089D03*
X020290Y016089D03*
X020034Y016089D03*
X019778Y016089D03*
X019522Y016089D03*
X019266Y016089D03*
X019010Y016089D03*
X018754Y016089D03*
X018498Y016089D03*
X018243Y016089D03*
D13*
X004150Y001650D03*
D14*
X021180Y006740D03*
X021180Y007650D03*
X021180Y008560D03*
D15*
X023620Y007650D03*
D16*
X019235Y005650D03*
X018565Y005650D03*
X014985Y008650D03*
X014315Y008650D03*
X016190Y009650D03*
X016860Y009650D03*
X018565Y009775D03*
X019235Y009775D03*
X017485Y014150D03*
X016815Y014150D03*
X015485Y014150D03*
X014815Y014150D03*
X011485Y009400D03*
X010815Y009400D03*
X010815Y008400D03*
X011485Y008400D03*
X007985Y008150D03*
X007315Y008150D03*
X006110Y008150D03*
X005440Y008150D03*
X003110Y008150D03*
X002440Y008150D03*
D17*
X008525Y006485D03*
X008525Y005815D03*
X009400Y011565D03*
X009400Y012235D03*
X009275Y013815D03*
X009275Y014485D03*
X011900Y014485D03*
X011900Y013815D03*
X017525Y013485D03*
X017525Y012815D03*
X021400Y004985D03*
X021400Y004315D03*
D18*
X020650Y017650D03*
X019650Y017650D03*
X017150Y017650D03*
X016150Y017650D03*
X013150Y017650D03*
X012150Y017650D03*
X011150Y017650D03*
X010150Y017650D03*
X007650Y017650D03*
X006650Y017650D03*
X005650Y017650D03*
X004650Y017650D03*
D19*
X020525Y011044D03*
X020525Y010256D03*
D20*
X008194Y009056D03*
X007604Y009056D03*
X007013Y009056D03*
X006423Y009056D03*
X005832Y009056D03*
X005242Y009056D03*
X004651Y009056D03*
X004060Y009056D03*
X003470Y009056D03*
X003470Y016057D03*
X004060Y016057D03*
X004651Y016057D03*
X005242Y016057D03*
X005832Y016057D03*
X006423Y016057D03*
X007013Y016057D03*
X007604Y016057D03*
X008194Y016057D03*
D21*
X009977Y015467D03*
X010823Y015467D03*
X012602Y015467D03*
X013448Y015467D03*
X013448Y013833D03*
X012602Y013833D03*
X010823Y013833D03*
X009977Y013833D03*
D22*
X012001Y007813D03*
X012001Y007557D03*
X012001Y007302D03*
X012001Y007046D03*
X012001Y006790D03*
X012001Y006534D03*
X012001Y006278D03*
X012001Y006022D03*
X012001Y005766D03*
X012001Y005510D03*
X012001Y005254D03*
X012001Y004998D03*
X012001Y004743D03*
X012001Y004487D03*
X014299Y004487D03*
X014299Y004743D03*
X014299Y004998D03*
X014299Y005254D03*
X014299Y005510D03*
X014299Y005766D03*
X014299Y006022D03*
X014299Y006278D03*
X014299Y006534D03*
X014299Y006790D03*
X014299Y007046D03*
X014299Y007302D03*
X014299Y007557D03*
X014299Y007813D03*
D23*
X012650Y003650D03*
X016650Y003650D03*
X020650Y003650D03*
X008650Y003650D03*
D24*
X007650Y003650D03*
X006650Y003650D03*
X005650Y003650D03*
X005650Y002650D03*
X006650Y002650D03*
X007650Y002650D03*
X008650Y002650D03*
X009650Y002650D03*
X010650Y002650D03*
X011650Y002650D03*
X012650Y002650D03*
X013650Y002650D03*
X014650Y002650D03*
X015650Y002650D03*
X016650Y002650D03*
X017650Y002650D03*
X018650Y002650D03*
X019650Y002650D03*
X020650Y002650D03*
X020650Y001650D03*
X019650Y001650D03*
X018650Y001650D03*
X017650Y001650D03*
X016650Y001650D03*
X015650Y001650D03*
X014650Y001650D03*
X013650Y001650D03*
X012650Y001650D03*
X011650Y001650D03*
X010650Y001650D03*
X009650Y001650D03*
X008650Y001650D03*
X007650Y001650D03*
X006650Y001650D03*
X005650Y001650D03*
X009650Y003650D03*
X010650Y003650D03*
X011650Y003650D03*
X013650Y003650D03*
X014650Y003650D03*
X015650Y003650D03*
X017650Y003650D03*
X018650Y003650D03*
X019650Y003650D03*
D25*
X007525Y005266D03*
X007275Y005266D03*
X007025Y005266D03*
X006775Y005266D03*
X006525Y005266D03*
X006275Y005266D03*
X006025Y005266D03*
X005775Y005266D03*
X005525Y005266D03*
X005275Y005266D03*
X005275Y007534D03*
X005525Y007534D03*
X005775Y007534D03*
X006025Y007534D03*
X006275Y007534D03*
X006525Y007534D03*
X006775Y007534D03*
X007025Y007534D03*
X007275Y007534D03*
X007525Y007534D03*
D26*
X003937Y007054D03*
X001851Y007054D03*
X001851Y003746D03*
X003937Y003746D03*
D27*
X004036Y004770D03*
X004036Y005085D03*
X004036Y005400D03*
X004036Y005715D03*
X004036Y006030D03*
D28*
X020894Y005847D03*
X020894Y005453D03*
X021406Y005650D03*
D29*
X021900Y005730D03*
X022400Y005730D03*
X022900Y005730D03*
X023400Y005730D03*
X023400Y003570D03*
X022900Y003570D03*
X022400Y003570D03*
X021900Y003570D03*
D30*
X017945Y005650D03*
X017355Y005650D03*
X010070Y008400D03*
X009480Y008400D03*
X009480Y009400D03*
X010070Y009400D03*
D31*
X015099Y015275D03*
X016201Y015275D03*
D32*
X018900Y008451D03*
X018900Y007349D03*
M02*
