G75*
%MOIN*%
%OFA0B0*%
%FSLAX24Y24*%
%IPPOS*%
%LPD*%
%AMOC8*
5,1,8,0,0,1.08239X$1,22.5*
%
%ADD10C,0.0000*%
%ADD11C,0.0050*%
%ADD12C,0.0040*%
%ADD13C,0.0030*%
%ADD14C,0.0080*%
%ADD15C,0.0020*%
%ADD16R,0.0180X0.0300*%
%ADD17R,0.0300X0.0180*%
%ADD18C,0.0060*%
D10*
X001650Y000650D02*
X023650Y000650D01*
X023710Y000652D01*
X023771Y000657D01*
X023830Y000666D01*
X023889Y000679D01*
X023948Y000695D01*
X024005Y000715D01*
X024060Y000738D01*
X024115Y000765D01*
X024167Y000794D01*
X024218Y000827D01*
X024267Y000863D01*
X024313Y000901D01*
X024357Y000943D01*
X024399Y000987D01*
X024437Y001033D01*
X024473Y001082D01*
X024506Y001133D01*
X024535Y001185D01*
X024562Y001240D01*
X024585Y001295D01*
X024605Y001352D01*
X024621Y001411D01*
X024634Y001470D01*
X024643Y001529D01*
X024648Y001590D01*
X024650Y001650D01*
X024650Y017650D01*
X024648Y017710D01*
X024643Y017771D01*
X024634Y017830D01*
X024621Y017889D01*
X024605Y017948D01*
X024585Y018005D01*
X024562Y018060D01*
X024535Y018115D01*
X024506Y018167D01*
X024473Y018218D01*
X024437Y018267D01*
X024399Y018313D01*
X024357Y018357D01*
X024313Y018399D01*
X024267Y018437D01*
X024218Y018473D01*
X024167Y018506D01*
X024115Y018535D01*
X024060Y018562D01*
X024005Y018585D01*
X023948Y018605D01*
X023889Y018621D01*
X023830Y018634D01*
X023771Y018643D01*
X023710Y018648D01*
X023650Y018650D01*
X001650Y018650D01*
X001590Y018648D01*
X001529Y018643D01*
X001470Y018634D01*
X001411Y018621D01*
X001352Y018605D01*
X001295Y018585D01*
X001240Y018562D01*
X001185Y018535D01*
X001133Y018506D01*
X001082Y018473D01*
X001033Y018437D01*
X000987Y018399D01*
X000943Y018357D01*
X000901Y018313D01*
X000863Y018267D01*
X000827Y018218D01*
X000794Y018167D01*
X000765Y018115D01*
X000738Y018060D01*
X000715Y018005D01*
X000695Y017948D01*
X000679Y017889D01*
X000666Y017830D01*
X000657Y017771D01*
X000652Y017710D01*
X000650Y017650D01*
X000650Y001650D01*
X000652Y001590D01*
X000657Y001529D01*
X000666Y001470D01*
X000679Y001411D01*
X000695Y001352D01*
X000715Y001295D01*
X000738Y001240D01*
X000765Y001185D01*
X000794Y001133D01*
X000827Y001082D01*
X000863Y001033D01*
X000901Y000987D01*
X000943Y000943D01*
X000987Y000901D01*
X001033Y000863D01*
X001082Y000827D01*
X001133Y000794D01*
X001185Y000765D01*
X001240Y000738D01*
X001295Y000715D01*
X001352Y000695D01*
X001411Y000679D01*
X001470Y000666D01*
X001529Y000657D01*
X001590Y000652D01*
X001650Y000650D01*
X001193Y001776D02*
X001195Y001826D01*
X001201Y001876D01*
X001211Y001925D01*
X001225Y001973D01*
X001242Y002020D01*
X001263Y002065D01*
X001288Y002109D01*
X001316Y002150D01*
X001348Y002189D01*
X001382Y002226D01*
X001419Y002260D01*
X001459Y002290D01*
X001501Y002317D01*
X001545Y002341D01*
X001591Y002362D01*
X001638Y002378D01*
X001686Y002391D01*
X001736Y002400D01*
X001785Y002405D01*
X001836Y002406D01*
X001886Y002403D01*
X001935Y002396D01*
X001984Y002385D01*
X002032Y002370D01*
X002078Y002352D01*
X002123Y002330D01*
X002166Y002304D01*
X002207Y002275D01*
X002246Y002243D01*
X002282Y002208D01*
X002314Y002170D01*
X002344Y002130D01*
X002371Y002087D01*
X002394Y002043D01*
X002413Y001997D01*
X002429Y001949D01*
X002441Y001900D01*
X002449Y001851D01*
X002453Y001801D01*
X002453Y001751D01*
X002449Y001701D01*
X002441Y001652D01*
X002429Y001603D01*
X002413Y001555D01*
X002394Y001509D01*
X002371Y001465D01*
X002344Y001422D01*
X002314Y001382D01*
X002282Y001344D01*
X002246Y001309D01*
X002207Y001277D01*
X002166Y001248D01*
X002123Y001222D01*
X002078Y001200D01*
X002032Y001182D01*
X001984Y001167D01*
X001935Y001156D01*
X001886Y001149D01*
X001836Y001146D01*
X001785Y001147D01*
X001736Y001152D01*
X001686Y001161D01*
X001638Y001174D01*
X001591Y001190D01*
X001545Y001211D01*
X001501Y001235D01*
X001459Y001262D01*
X001419Y001292D01*
X001382Y001326D01*
X001348Y001363D01*
X001316Y001402D01*
X001288Y001443D01*
X001263Y001487D01*
X001242Y001532D01*
X001225Y001579D01*
X001211Y001627D01*
X001201Y001676D01*
X001195Y001726D01*
X001193Y001776D01*
X001193Y017524D02*
X001195Y017574D01*
X001201Y017624D01*
X001211Y017673D01*
X001225Y017721D01*
X001242Y017768D01*
X001263Y017813D01*
X001288Y017857D01*
X001316Y017898D01*
X001348Y017937D01*
X001382Y017974D01*
X001419Y018008D01*
X001459Y018038D01*
X001501Y018065D01*
X001545Y018089D01*
X001591Y018110D01*
X001638Y018126D01*
X001686Y018139D01*
X001736Y018148D01*
X001785Y018153D01*
X001836Y018154D01*
X001886Y018151D01*
X001935Y018144D01*
X001984Y018133D01*
X002032Y018118D01*
X002078Y018100D01*
X002123Y018078D01*
X002166Y018052D01*
X002207Y018023D01*
X002246Y017991D01*
X002282Y017956D01*
X002314Y017918D01*
X002344Y017878D01*
X002371Y017835D01*
X002394Y017791D01*
X002413Y017745D01*
X002429Y017697D01*
X002441Y017648D01*
X002449Y017599D01*
X002453Y017549D01*
X002453Y017499D01*
X002449Y017449D01*
X002441Y017400D01*
X002429Y017351D01*
X002413Y017303D01*
X002394Y017257D01*
X002371Y017213D01*
X002344Y017170D01*
X002314Y017130D01*
X002282Y017092D01*
X002246Y017057D01*
X002207Y017025D01*
X002166Y016996D01*
X002123Y016970D01*
X002078Y016948D01*
X002032Y016930D01*
X001984Y016915D01*
X001935Y016904D01*
X001886Y016897D01*
X001836Y016894D01*
X001785Y016895D01*
X001736Y016900D01*
X001686Y016909D01*
X001638Y016922D01*
X001591Y016938D01*
X001545Y016959D01*
X001501Y016983D01*
X001459Y017010D01*
X001419Y017040D01*
X001382Y017074D01*
X001348Y017111D01*
X001316Y017150D01*
X001288Y017191D01*
X001263Y017235D01*
X001242Y017280D01*
X001225Y017327D01*
X001211Y017375D01*
X001201Y017424D01*
X001195Y017474D01*
X001193Y017524D01*
X022847Y017524D02*
X022849Y017574D01*
X022855Y017624D01*
X022865Y017673D01*
X022879Y017721D01*
X022896Y017768D01*
X022917Y017813D01*
X022942Y017857D01*
X022970Y017898D01*
X023002Y017937D01*
X023036Y017974D01*
X023073Y018008D01*
X023113Y018038D01*
X023155Y018065D01*
X023199Y018089D01*
X023245Y018110D01*
X023292Y018126D01*
X023340Y018139D01*
X023390Y018148D01*
X023439Y018153D01*
X023490Y018154D01*
X023540Y018151D01*
X023589Y018144D01*
X023638Y018133D01*
X023686Y018118D01*
X023732Y018100D01*
X023777Y018078D01*
X023820Y018052D01*
X023861Y018023D01*
X023900Y017991D01*
X023936Y017956D01*
X023968Y017918D01*
X023998Y017878D01*
X024025Y017835D01*
X024048Y017791D01*
X024067Y017745D01*
X024083Y017697D01*
X024095Y017648D01*
X024103Y017599D01*
X024107Y017549D01*
X024107Y017499D01*
X024103Y017449D01*
X024095Y017400D01*
X024083Y017351D01*
X024067Y017303D01*
X024048Y017257D01*
X024025Y017213D01*
X023998Y017170D01*
X023968Y017130D01*
X023936Y017092D01*
X023900Y017057D01*
X023861Y017025D01*
X023820Y016996D01*
X023777Y016970D01*
X023732Y016948D01*
X023686Y016930D01*
X023638Y016915D01*
X023589Y016904D01*
X023540Y016897D01*
X023490Y016894D01*
X023439Y016895D01*
X023390Y016900D01*
X023340Y016909D01*
X023292Y016922D01*
X023245Y016938D01*
X023199Y016959D01*
X023155Y016983D01*
X023113Y017010D01*
X023073Y017040D01*
X023036Y017074D01*
X023002Y017111D01*
X022970Y017150D01*
X022942Y017191D01*
X022917Y017235D01*
X022896Y017280D01*
X022879Y017327D01*
X022865Y017375D01*
X022855Y017424D01*
X022849Y017474D01*
X022847Y017524D01*
X022847Y001776D02*
X022849Y001826D01*
X022855Y001876D01*
X022865Y001925D01*
X022879Y001973D01*
X022896Y002020D01*
X022917Y002065D01*
X022942Y002109D01*
X022970Y002150D01*
X023002Y002189D01*
X023036Y002226D01*
X023073Y002260D01*
X023113Y002290D01*
X023155Y002317D01*
X023199Y002341D01*
X023245Y002362D01*
X023292Y002378D01*
X023340Y002391D01*
X023390Y002400D01*
X023439Y002405D01*
X023490Y002406D01*
X023540Y002403D01*
X023589Y002396D01*
X023638Y002385D01*
X023686Y002370D01*
X023732Y002352D01*
X023777Y002330D01*
X023820Y002304D01*
X023861Y002275D01*
X023900Y002243D01*
X023936Y002208D01*
X023968Y002170D01*
X023998Y002130D01*
X024025Y002087D01*
X024048Y002043D01*
X024067Y001997D01*
X024083Y001949D01*
X024095Y001900D01*
X024103Y001851D01*
X024107Y001801D01*
X024107Y001751D01*
X024103Y001701D01*
X024095Y001652D01*
X024083Y001603D01*
X024067Y001555D01*
X024048Y001509D01*
X024025Y001465D01*
X023998Y001422D01*
X023968Y001382D01*
X023936Y001344D01*
X023900Y001309D01*
X023861Y001277D01*
X023820Y001248D01*
X023777Y001222D01*
X023732Y001200D01*
X023686Y001182D01*
X023638Y001167D01*
X023589Y001156D01*
X023540Y001149D01*
X023490Y001146D01*
X023439Y001147D01*
X023390Y001152D01*
X023340Y001161D01*
X023292Y001174D01*
X023245Y001190D01*
X023199Y001211D01*
X023155Y001235D01*
X023113Y001262D01*
X023073Y001292D01*
X023036Y001326D01*
X023002Y001363D01*
X022970Y001402D01*
X022942Y001443D01*
X022917Y001487D01*
X022896Y001532D01*
X022879Y001579D01*
X022865Y001627D01*
X022855Y001676D01*
X022849Y001726D01*
X022847Y001776D01*
D11*
X023580Y003940D02*
X021720Y003940D01*
X021720Y005360D01*
X023580Y005360D01*
X023580Y003940D01*
X021391Y009469D02*
X019895Y009469D01*
X019895Y011831D01*
X021391Y011831D01*
X021650Y016784D02*
X021650Y018280D01*
X018650Y018280D01*
X018650Y016784D01*
X018150Y016784D02*
X018150Y018280D01*
X015150Y018280D01*
X015150Y016784D01*
X014150Y016784D02*
X014150Y018280D01*
X009150Y018280D01*
X009150Y016784D01*
X008650Y016784D02*
X008650Y018280D01*
X003650Y018280D01*
X003650Y016784D01*
X015070Y008832D02*
X015070Y008425D01*
X015070Y007832D02*
X015070Y007425D01*
X015273Y007629D02*
X014866Y007629D01*
D12*
X013705Y012795D02*
X013705Y013255D01*
X013858Y013255D02*
X013551Y013255D01*
X013398Y013179D02*
X013398Y012872D01*
X013321Y012795D01*
X013168Y012795D01*
X013091Y012872D01*
X013091Y013179D01*
X013168Y013255D01*
X013321Y013255D01*
X013398Y013179D01*
X012937Y013179D02*
X012937Y012872D01*
X012861Y012795D01*
X012707Y012795D01*
X012630Y012872D01*
X012630Y013179D01*
X012707Y013255D01*
X012861Y013255D01*
X012937Y013179D01*
X012477Y013179D02*
X012477Y013102D01*
X012400Y013025D01*
X012170Y013025D01*
X012170Y012795D02*
X012400Y012795D01*
X012477Y012872D01*
X012477Y012948D01*
X012400Y013025D01*
X012477Y013179D02*
X012400Y013255D01*
X012170Y013255D01*
X012170Y012795D01*
X011443Y013255D02*
X011137Y013255D01*
X011290Y013255D02*
X011290Y012795D01*
X010983Y012795D02*
X010676Y012795D01*
X010676Y013255D01*
X010983Y013255D01*
X010830Y013025D02*
X010676Y013025D01*
X010523Y012948D02*
X010523Y012872D01*
X010446Y012795D01*
X010293Y012795D01*
X010216Y012872D01*
X010293Y013025D02*
X010446Y013025D01*
X010523Y012948D01*
X010523Y013179D02*
X010446Y013255D01*
X010293Y013255D01*
X010216Y013179D01*
X010216Y013102D01*
X010293Y013025D01*
X010062Y012795D02*
X009755Y012795D01*
X009755Y013255D01*
X010062Y013255D01*
X009909Y013025D02*
X009755Y013025D01*
X009602Y013025D02*
X009525Y012948D01*
X009295Y012948D01*
X009295Y012795D02*
X009295Y013255D01*
X009525Y013255D01*
X009602Y013179D01*
X009602Y013025D01*
X009448Y012948D02*
X009602Y012795D01*
X009632Y016545D02*
X009786Y016545D01*
X009863Y016621D01*
X009863Y016928D01*
X009786Y017005D01*
X009632Y017005D01*
X009556Y016928D01*
X009556Y016621D02*
X009632Y016545D01*
X010016Y016621D02*
X010093Y016545D01*
X010246Y016545D01*
X010323Y016621D01*
X010477Y016545D02*
X010630Y016545D01*
X010553Y016545D02*
X010553Y017005D01*
X010477Y017005D02*
X010630Y017005D01*
X010323Y017005D02*
X010016Y016698D01*
X010016Y016621D01*
X010016Y017005D02*
X010323Y017005D01*
X006380Y016928D02*
X006303Y017005D01*
X006150Y017005D01*
X006073Y016928D01*
X006073Y016852D01*
X006150Y016775D01*
X006303Y016775D01*
X006380Y016698D01*
X006380Y016621D01*
X006303Y016545D01*
X006150Y016545D01*
X006073Y016621D01*
X005920Y016545D02*
X005920Y017005D01*
X005613Y017005D01*
X005459Y017005D02*
X005459Y016545D01*
X005229Y016545D01*
X005152Y016621D01*
X005152Y016775D01*
X005229Y016852D01*
X005459Y016852D01*
X005306Y016852D02*
X005152Y017005D01*
X004999Y017005D02*
X004845Y017005D01*
X004922Y017005D02*
X004922Y016545D01*
X004999Y016545D02*
X004845Y016545D01*
X004692Y016698D02*
X004538Y016545D01*
X004385Y016698D01*
X004385Y017005D01*
X004232Y017005D02*
X003925Y017005D01*
X004232Y017005D02*
X004232Y016545D01*
X004385Y016775D02*
X004692Y016775D01*
X004692Y016698D02*
X004692Y017005D01*
X005613Y016545D02*
X005920Y016545D01*
X005920Y016775D02*
X005766Y016775D01*
X015448Y016630D02*
X015602Y016477D01*
X015525Y016477D02*
X015755Y016477D01*
X015755Y016630D02*
X015755Y016170D01*
X015525Y016170D01*
X015448Y016246D01*
X015448Y016400D01*
X015525Y016477D01*
X021573Y016630D02*
X021880Y016630D01*
X021880Y016170D01*
X023180Y004242D02*
X023240Y004242D01*
X023300Y004182D01*
X023300Y004062D01*
X023240Y004002D01*
X023180Y004002D01*
X023120Y004062D01*
X023120Y004182D01*
X023180Y004242D01*
X023300Y004182D02*
X023360Y004242D01*
X023420Y004242D01*
X023480Y004182D01*
X023480Y004062D01*
X023420Y004002D01*
X023360Y004002D01*
X023300Y004062D01*
X004154Y003901D02*
X004154Y003532D01*
X004155Y003531D02*
X004154Y003518D01*
X004149Y003505D01*
X004142Y003493D01*
X004132Y003483D01*
X004120Y003476D01*
X004107Y003471D01*
X004094Y003470D01*
X004094Y003471D02*
X004094Y003471D01*
X004079Y003473D01*
X004065Y003478D01*
X004053Y003485D01*
X004042Y003496D01*
X004035Y003508D01*
X004030Y003522D01*
X004028Y003537D01*
X004027Y003537D02*
X004027Y003598D01*
X004025Y003615D01*
X004020Y003632D01*
X004012Y003647D01*
X004001Y003660D01*
X003988Y003671D01*
X003973Y003679D01*
X003956Y003684D01*
X003939Y003686D01*
X003928Y003686D01*
X003911Y003684D01*
X003894Y003679D01*
X003879Y003671D01*
X003866Y003660D01*
X003855Y003647D01*
X003847Y003632D01*
X003842Y003615D01*
X003840Y003598D01*
X003840Y003532D01*
X003838Y003518D01*
X003834Y003506D01*
X003827Y003494D01*
X003817Y003484D01*
X003805Y003477D01*
X003793Y003473D01*
X003779Y003471D01*
X003764Y003473D01*
X003750Y003478D01*
X003738Y003485D01*
X003727Y003496D01*
X003720Y003508D01*
X003715Y003522D01*
X003713Y003537D01*
X003713Y003879D01*
X004154Y003901D02*
X002074Y003901D01*
X002074Y003532D01*
X002073Y003531D02*
X002072Y003518D01*
X002067Y003505D01*
X002060Y003494D01*
X002050Y003484D01*
X002039Y003477D01*
X002026Y003472D01*
X002013Y003471D01*
X002013Y003471D01*
X001998Y003473D01*
X001984Y003478D01*
X001972Y003485D01*
X001961Y003496D01*
X001954Y003508D01*
X001949Y003522D01*
X001947Y003537D01*
X001947Y003598D01*
X001946Y003598D02*
X001944Y003615D01*
X001939Y003632D01*
X001931Y003647D01*
X001920Y003660D01*
X001907Y003671D01*
X001892Y003679D01*
X001875Y003684D01*
X001858Y003686D01*
X001847Y003686D01*
X001830Y003684D01*
X001813Y003679D01*
X001798Y003671D01*
X001785Y003660D01*
X001774Y003647D01*
X001766Y003632D01*
X001761Y003615D01*
X001759Y003598D01*
X001759Y003532D01*
X001757Y003518D01*
X001753Y003506D01*
X001746Y003494D01*
X001736Y003484D01*
X001724Y003477D01*
X001712Y003473D01*
X001698Y003471D01*
X001683Y003473D01*
X001669Y003478D01*
X001657Y003485D01*
X001646Y003496D01*
X001639Y003508D01*
X001634Y003522D01*
X001632Y003537D01*
X001632Y003879D01*
X002074Y003901D02*
X000650Y003901D01*
X000650Y006898D01*
X004154Y006898D01*
X004154Y006402D01*
X004152Y006380D01*
X004147Y006358D01*
X004138Y006337D01*
X004127Y006318D01*
X004112Y006301D01*
X004095Y006286D01*
X004076Y006275D01*
X004055Y006266D01*
X004033Y006261D01*
X004011Y006259D01*
X004011Y006258D02*
X003801Y006258D01*
X003713Y006898D02*
X003713Y007268D01*
X003712Y007268D02*
X003714Y007281D01*
X003718Y007294D01*
X003725Y007306D01*
X003735Y007316D01*
X003747Y007323D01*
X003760Y007328D01*
X003773Y007329D01*
X003774Y007329D02*
X003774Y007329D01*
X003789Y007327D01*
X003803Y007322D01*
X003815Y007315D01*
X003826Y007304D01*
X003833Y007292D01*
X003838Y007278D01*
X003840Y007263D01*
X003840Y007202D01*
X003842Y007185D01*
X003847Y007168D01*
X003855Y007153D01*
X003866Y007140D01*
X003879Y007129D01*
X003894Y007121D01*
X003911Y007116D01*
X003928Y007114D01*
X003939Y007114D01*
X003956Y007116D01*
X003973Y007121D01*
X003988Y007129D01*
X004001Y007140D01*
X004012Y007153D01*
X004020Y007168D01*
X004025Y007185D01*
X004027Y007202D01*
X004027Y007268D01*
X004029Y007282D01*
X004033Y007294D01*
X004040Y007306D01*
X004050Y007316D01*
X004062Y007323D01*
X004074Y007327D01*
X004088Y007329D01*
X004103Y007327D01*
X004117Y007322D01*
X004129Y007315D01*
X004140Y007304D01*
X004147Y007292D01*
X004152Y007278D01*
X004154Y007263D01*
X004154Y006893D01*
X002780Y006876D02*
X002780Y006600D01*
X002779Y006588D01*
X002775Y006577D01*
X002768Y006567D01*
X002759Y006559D01*
X002748Y006553D01*
X002736Y006551D01*
X001395Y006462D01*
X001395Y006463D02*
X001377Y006461D01*
X001359Y006456D01*
X001343Y006447D01*
X001328Y006435D01*
X001316Y006421D01*
X001307Y006405D01*
X001301Y006387D01*
X001299Y006369D01*
X001300Y006350D01*
X001305Y006332D01*
X001313Y006316D01*
X001324Y006301D01*
X001338Y006288D01*
X001354Y006279D01*
X001371Y006272D01*
X001390Y006269D01*
X001389Y006269D02*
X002725Y006181D01*
X002739Y006179D01*
X002751Y006173D01*
X002763Y006164D01*
X002771Y006154D01*
X002777Y006141D01*
X002780Y006127D01*
X002779Y006113D01*
X002775Y006100D01*
X002768Y006088D01*
X002758Y006078D01*
X002747Y006070D01*
X002733Y006066D01*
X002719Y006065D01*
X001273Y006131D01*
X001257Y006131D01*
X001235Y006133D01*
X001214Y006138D01*
X001194Y006146D01*
X001176Y006157D01*
X001159Y006171D01*
X001145Y006188D01*
X001134Y006206D01*
X001126Y006226D01*
X001121Y006247D01*
X001119Y006269D01*
X001119Y006876D01*
X001632Y006898D02*
X001632Y007268D01*
X001633Y007268D02*
X001634Y007281D01*
X001639Y007294D01*
X001646Y007305D01*
X001656Y007315D01*
X001667Y007322D01*
X001680Y007327D01*
X001693Y007328D01*
X001693Y007329D02*
X001693Y007329D01*
X001708Y007327D01*
X001722Y007322D01*
X001734Y007315D01*
X001745Y007304D01*
X001752Y007292D01*
X001757Y007278D01*
X001759Y007263D01*
X001759Y007202D01*
X001761Y007185D01*
X001766Y007168D01*
X001774Y007153D01*
X001785Y007140D01*
X001798Y007129D01*
X001813Y007121D01*
X001830Y007116D01*
X001847Y007114D01*
X001858Y007114D01*
X001875Y007116D01*
X001892Y007121D01*
X001907Y007129D01*
X001920Y007140D01*
X001931Y007153D01*
X001939Y007168D01*
X001944Y007185D01*
X001946Y007202D01*
X001947Y007202D02*
X001947Y007268D01*
X001946Y007268D02*
X001948Y007282D01*
X001952Y007294D01*
X001959Y007306D01*
X001969Y007316D01*
X001981Y007323D01*
X001993Y007327D01*
X002007Y007329D01*
X002022Y007327D01*
X002036Y007322D01*
X002048Y007315D01*
X002059Y007304D01*
X002066Y007292D01*
X002071Y007278D01*
X002073Y007263D01*
X002074Y007263D02*
X002074Y006920D01*
X002764Y005828D02*
X001179Y005910D01*
X001180Y005911D02*
X001166Y005910D01*
X001153Y005905D01*
X001142Y005897D01*
X001133Y005887D01*
X001127Y005874D01*
X001124Y005861D01*
X001125Y005847D01*
X001130Y005834D01*
X001138Y005823D01*
X001148Y005814D01*
X001161Y005808D01*
X001174Y005805D01*
X001174Y005806D02*
X002399Y005739D01*
X002423Y005737D01*
X002447Y005732D01*
X002470Y005724D01*
X002491Y005712D01*
X002511Y005697D01*
X002528Y005680D01*
X002543Y005660D01*
X002555Y005639D01*
X002563Y005616D01*
X002568Y005592D01*
X002570Y005568D01*
X002570Y005221D01*
X002571Y005221D02*
X002569Y005197D01*
X002564Y005174D01*
X002556Y005152D01*
X002545Y005131D01*
X002530Y005112D01*
X002514Y005096D01*
X002495Y005081D01*
X002474Y005070D01*
X002452Y005062D01*
X002429Y005057D01*
X002405Y005055D01*
X002377Y005055D01*
X001179Y005000D01*
X001166Y004998D01*
X001153Y004992D01*
X001142Y004983D01*
X001134Y004972D01*
X001129Y004959D01*
X001127Y004945D01*
X001129Y004931D01*
X001134Y004918D01*
X001142Y004907D01*
X001153Y004898D01*
X001166Y004892D01*
X001179Y004890D01*
X001179Y004889D02*
X002752Y004972D01*
X002775Y004974D01*
X002796Y004979D01*
X002817Y004988D01*
X002837Y005000D01*
X002854Y005014D01*
X002868Y005031D01*
X002880Y005051D01*
X002889Y005072D01*
X002894Y005093D01*
X002896Y005116D01*
X002896Y005695D01*
X002894Y005716D01*
X002889Y005736D01*
X002881Y005755D01*
X002871Y005773D01*
X002857Y005789D01*
X002841Y005803D01*
X002823Y005813D01*
X002804Y005821D01*
X002784Y005826D01*
X002763Y005828D01*
X002719Y004735D02*
X001273Y004669D01*
X001257Y004669D01*
X001235Y004667D01*
X001214Y004662D01*
X001194Y004654D01*
X001176Y004643D01*
X001159Y004629D01*
X001145Y004612D01*
X001134Y004594D01*
X001126Y004574D01*
X001121Y004553D01*
X001119Y004531D01*
X001119Y003923D01*
X001395Y004337D02*
X002736Y004249D01*
X002748Y004247D01*
X002759Y004241D01*
X002768Y004233D01*
X002775Y004223D01*
X002779Y004212D01*
X002780Y004200D01*
X002780Y004199D02*
X002780Y003923D01*
X002725Y004619D02*
X001389Y004531D01*
X001390Y004531D02*
X001371Y004528D01*
X001354Y004521D01*
X001338Y004512D01*
X001324Y004499D01*
X001313Y004484D01*
X001305Y004468D01*
X001300Y004450D01*
X001299Y004431D01*
X001301Y004413D01*
X001307Y004395D01*
X001316Y004379D01*
X001328Y004365D01*
X001343Y004353D01*
X001359Y004344D01*
X001377Y004339D01*
X001395Y004337D01*
X002725Y004619D02*
X002739Y004621D01*
X002751Y004627D01*
X002763Y004636D01*
X002771Y004646D01*
X002777Y004659D01*
X002780Y004673D01*
X002779Y004687D01*
X002775Y004700D01*
X002768Y004712D01*
X002758Y004722D01*
X002747Y004730D01*
X002733Y004734D01*
X002719Y004735D01*
X003785Y004542D02*
X004016Y004542D01*
X004038Y004540D01*
X004059Y004535D01*
X004079Y004527D01*
X004097Y004516D01*
X004114Y004502D01*
X004128Y004485D01*
X004139Y004467D01*
X004147Y004447D01*
X004152Y004426D01*
X004154Y004404D01*
X004154Y003901D01*
D13*
X005540Y004352D02*
X005787Y004599D01*
X005787Y004352D01*
X005725Y004290D01*
X005602Y004290D01*
X005540Y004352D01*
X005540Y004599D01*
X005602Y004660D01*
X005725Y004660D01*
X005787Y004599D01*
X006540Y004537D02*
X006663Y004660D01*
X006663Y004290D01*
X006540Y004290D02*
X006787Y004290D01*
X007540Y004290D02*
X007787Y004537D01*
X007787Y004599D01*
X007725Y004660D01*
X007602Y004660D01*
X007540Y004599D01*
X007540Y004290D02*
X007787Y004290D01*
X008540Y004352D02*
X008602Y004290D01*
X008725Y004290D01*
X008787Y004352D01*
X008787Y004413D01*
X008725Y004475D01*
X008663Y004475D01*
X008725Y004475D02*
X008787Y004537D01*
X008787Y004599D01*
X008725Y004660D01*
X008602Y004660D01*
X008540Y004599D01*
X009540Y004475D02*
X009787Y004475D01*
X009725Y004290D02*
X009725Y004660D01*
X009540Y004475D01*
X010540Y004475D02*
X010663Y004537D01*
X010725Y004537D01*
X010787Y004475D01*
X010787Y004352D01*
X010725Y004290D01*
X010602Y004290D01*
X010540Y004352D01*
X010540Y004475D02*
X010540Y004660D01*
X010787Y004660D01*
X015290Y004537D02*
X015413Y004660D01*
X015413Y004290D01*
X015290Y004290D02*
X015537Y004290D01*
X015658Y004352D02*
X015905Y004599D01*
X015905Y004352D01*
X015843Y004290D01*
X015720Y004290D01*
X015658Y004352D01*
X015658Y004599D01*
X015720Y004660D01*
X015843Y004660D01*
X015905Y004599D01*
X016290Y004537D02*
X016413Y004660D01*
X016413Y004290D01*
X016290Y004290D02*
X016537Y004290D01*
X016658Y004290D02*
X016905Y004290D01*
X016782Y004290D02*
X016782Y004660D01*
X016658Y004537D01*
X017290Y004537D02*
X017413Y004660D01*
X017413Y004290D01*
X017290Y004290D02*
X017537Y004290D01*
X017658Y004290D02*
X017905Y004537D01*
X017905Y004599D01*
X017843Y004660D01*
X017720Y004660D01*
X017658Y004599D01*
X017658Y004290D02*
X017905Y004290D01*
X018290Y004290D02*
X018537Y004290D01*
X018413Y004290D02*
X018413Y004660D01*
X018290Y004537D01*
X018658Y004599D02*
X018720Y004660D01*
X018843Y004660D01*
X018905Y004599D01*
X018905Y004537D01*
X018843Y004475D01*
X018905Y004413D01*
X018905Y004352D01*
X018843Y004290D01*
X018720Y004290D01*
X018658Y004352D01*
X018782Y004475D02*
X018843Y004475D01*
X019290Y004537D02*
X019413Y004660D01*
X019413Y004290D01*
X019290Y004290D02*
X019537Y004290D01*
X019658Y004475D02*
X019905Y004475D01*
X019843Y004290D02*
X019843Y004660D01*
X019658Y004475D01*
X020290Y004537D02*
X020413Y004660D01*
X020413Y004290D01*
X020290Y004290D02*
X020537Y004290D01*
X020658Y004352D02*
X020720Y004290D01*
X020843Y004290D01*
X020905Y004352D01*
X020905Y004475D01*
X020843Y004537D01*
X020782Y004537D01*
X020658Y004475D01*
X020658Y004660D01*
X020905Y004660D01*
X021352Y003785D02*
X021290Y003724D01*
X021290Y003662D01*
X021352Y003600D01*
X021475Y003600D01*
X021537Y003538D01*
X021537Y003477D01*
X021475Y003415D01*
X021352Y003415D01*
X021290Y003477D01*
X021537Y003724D02*
X021475Y003785D01*
X021352Y003785D01*
X021290Y002910D02*
X021290Y002663D01*
X021413Y002540D01*
X021537Y002663D01*
X021537Y002910D01*
X021658Y002725D02*
X021905Y002725D01*
X021782Y002602D02*
X021782Y002849D01*
X021537Y001910D02*
X021537Y001663D01*
X021413Y001540D01*
X021290Y001663D01*
X021290Y001910D01*
X021658Y001725D02*
X021905Y001725D01*
D14*
X021700Y006360D02*
X021700Y008940D01*
X023100Y008940D01*
X023100Y006360D01*
X021700Y006360D01*
X021323Y013666D02*
X017977Y013666D01*
X017977Y015634D01*
X021323Y015634D01*
X021323Y013666D01*
X020962Y015350D02*
X020964Y015368D01*
X020970Y015386D01*
X020979Y015402D01*
X020991Y015415D01*
X021006Y015426D01*
X021023Y015434D01*
X021041Y015438D01*
X021059Y015438D01*
X021077Y015434D01*
X021094Y015426D01*
X021109Y015415D01*
X021121Y015402D01*
X021130Y015386D01*
X021136Y015368D01*
X021138Y015350D01*
X021136Y015332D01*
X021130Y015314D01*
X021121Y015298D01*
X021109Y015285D01*
X021094Y015274D01*
X021077Y015266D01*
X021059Y015262D01*
X021041Y015262D01*
X021023Y015266D01*
X021006Y015274D01*
X020991Y015285D01*
X020979Y015298D01*
X020970Y015314D01*
X020964Y015332D01*
X020962Y015350D01*
X008549Y016100D02*
X008549Y009013D01*
X000675Y009013D01*
X000675Y016100D01*
X008549Y016100D01*
X008105Y007170D02*
X004695Y007170D01*
X004695Y005630D01*
X008105Y005630D01*
X008105Y007170D01*
X007709Y006850D02*
X007711Y006873D01*
X007717Y006896D01*
X007726Y006917D01*
X007739Y006937D01*
X007755Y006954D01*
X007773Y006968D01*
X007793Y006979D01*
X007815Y006987D01*
X007838Y006991D01*
X007862Y006991D01*
X007885Y006987D01*
X007907Y006979D01*
X007927Y006968D01*
X007945Y006954D01*
X007961Y006937D01*
X007974Y006917D01*
X007983Y006896D01*
X007989Y006873D01*
X007991Y006850D01*
X007989Y006827D01*
X007983Y006804D01*
X007974Y006783D01*
X007961Y006763D01*
X007945Y006746D01*
X007927Y006732D01*
X007907Y006721D01*
X007885Y006713D01*
X007862Y006709D01*
X007838Y006709D01*
X007815Y006713D01*
X007793Y006721D01*
X007773Y006732D01*
X007755Y006746D01*
X007739Y006763D01*
X007726Y006783D01*
X007717Y006804D01*
X007711Y006827D01*
X007709Y006850D01*
D15*
X008835Y006374D02*
X008975Y006234D01*
X008975Y006421D01*
X009115Y006374D02*
X008835Y006374D01*
X008881Y006144D02*
X008975Y006144D01*
X009022Y006098D01*
X009022Y005958D01*
X009022Y006051D02*
X009115Y006144D01*
X009115Y005958D02*
X008835Y005958D01*
X008835Y006098D01*
X008881Y006144D01*
X009555Y007860D02*
X009742Y007860D01*
X009831Y007860D02*
X010018Y007860D01*
X010108Y007860D02*
X010248Y007860D01*
X010294Y007907D01*
X010294Y008094D01*
X010248Y008140D01*
X010108Y008140D01*
X010108Y007860D01*
X009925Y008000D02*
X009831Y008000D01*
X009831Y008140D02*
X009831Y007860D01*
X009555Y007860D02*
X009555Y008140D01*
X009831Y008140D02*
X010018Y008140D01*
X010384Y008094D02*
X010430Y008140D01*
X010524Y008140D01*
X010571Y008094D01*
X010571Y008047D01*
X010384Y007860D01*
X010571Y007860D01*
X010524Y008860D02*
X010430Y008860D01*
X010384Y008907D01*
X010294Y008907D02*
X010294Y009094D01*
X010248Y009140D01*
X010108Y009140D01*
X010108Y008860D01*
X010248Y008860D01*
X010294Y008907D01*
X010477Y009000D02*
X010524Y009000D01*
X010571Y008953D01*
X010571Y008907D01*
X010524Y008860D01*
X010524Y009000D02*
X010571Y009047D01*
X010571Y009094D01*
X010524Y009140D01*
X010430Y009140D01*
X010384Y009094D01*
X010018Y009140D02*
X009831Y009140D01*
X009831Y008860D01*
X010018Y008860D01*
X009925Y009000D02*
X009831Y009000D01*
X009742Y008860D02*
X009555Y008860D01*
X009555Y009140D01*
X008826Y008365D02*
X008733Y008365D01*
X008686Y008319D01*
X008597Y008319D02*
X008550Y008365D01*
X008457Y008365D01*
X008410Y008319D01*
X008410Y008132D01*
X008457Y008085D01*
X008550Y008085D01*
X008597Y008132D01*
X008686Y008085D02*
X008873Y008272D01*
X008873Y008319D01*
X008826Y008365D01*
X008873Y008085D02*
X008686Y008085D01*
X011833Y008310D02*
X011833Y008590D01*
X011973Y008590D01*
X012019Y008544D01*
X012019Y008450D01*
X011973Y008403D01*
X011833Y008403D01*
X011926Y008403D02*
X012019Y008310D01*
X012109Y008357D02*
X012155Y008310D01*
X012249Y008310D01*
X012296Y008357D01*
X012296Y008403D01*
X012249Y008450D01*
X012109Y008450D01*
X012109Y008357D01*
X012109Y008450D02*
X012202Y008544D01*
X012296Y008590D01*
X012109Y009185D02*
X012109Y009232D01*
X012296Y009419D01*
X012296Y009465D01*
X012109Y009465D01*
X012019Y009419D02*
X012019Y009325D01*
X011973Y009278D01*
X011833Y009278D01*
X011926Y009278D02*
X012019Y009185D01*
X011833Y009185D02*
X011833Y009465D01*
X011973Y009465D01*
X012019Y009419D01*
X014410Y009194D02*
X014410Y009007D01*
X014457Y008960D01*
X014550Y008960D01*
X014597Y009007D01*
X014686Y009007D02*
X014686Y009053D01*
X014733Y009100D01*
X014826Y009100D01*
X014873Y009053D01*
X014873Y009007D01*
X014826Y008960D01*
X014733Y008960D01*
X014686Y009007D01*
X014733Y009100D02*
X014686Y009147D01*
X014686Y009194D01*
X014733Y009240D01*
X014826Y009240D01*
X014873Y009194D01*
X014873Y009147D01*
X014826Y009100D01*
X014597Y009194D02*
X014550Y009240D01*
X014457Y009240D01*
X014410Y009194D01*
X016435Y009960D02*
X016435Y010240D01*
X016575Y010240D01*
X016622Y010194D01*
X016622Y010100D01*
X016575Y010053D01*
X016435Y010053D01*
X016528Y010053D02*
X016622Y009960D01*
X016711Y010007D02*
X016711Y010053D01*
X016758Y010100D01*
X016851Y010100D01*
X016898Y010053D01*
X016898Y010007D01*
X016851Y009960D01*
X016758Y009960D01*
X016711Y010007D01*
X016758Y010100D02*
X016711Y010147D01*
X016711Y010194D01*
X016758Y010240D01*
X016851Y010240D01*
X016898Y010194D01*
X016898Y010147D01*
X016851Y010100D01*
X018535Y010132D02*
X018582Y010085D01*
X018675Y010085D01*
X018722Y010132D01*
X018811Y010132D02*
X018858Y010085D01*
X018951Y010085D01*
X018998Y010132D01*
X018998Y010178D01*
X018951Y010225D01*
X018811Y010225D01*
X018811Y010132D01*
X018811Y010225D02*
X018905Y010319D01*
X018998Y010365D01*
X018722Y010319D02*
X018675Y010365D01*
X018582Y010365D01*
X018535Y010319D01*
X018535Y010132D01*
X017693Y011858D02*
X017506Y011858D01*
X017460Y011904D01*
X017460Y011998D01*
X017506Y012044D01*
X017460Y012134D02*
X017600Y012134D01*
X017553Y012227D01*
X017553Y012274D01*
X017600Y012321D01*
X017693Y012321D01*
X017740Y012274D01*
X017740Y012180D01*
X017693Y012134D01*
X017693Y012044D02*
X017740Y011998D01*
X017740Y011904D01*
X017693Y011858D01*
X017460Y012134D02*
X017460Y012321D01*
X017148Y014460D02*
X016961Y014460D01*
X016872Y014460D02*
X016778Y014553D01*
X016825Y014553D02*
X016685Y014553D01*
X016685Y014460D02*
X016685Y014740D01*
X016825Y014740D01*
X016872Y014694D01*
X016872Y014600D01*
X016825Y014553D01*
X016961Y014647D02*
X017055Y014740D01*
X017055Y014460D01*
X016071Y014535D02*
X015884Y014535D01*
X015977Y014535D02*
X015977Y014815D01*
X015884Y014722D01*
X015794Y014769D02*
X015748Y014815D01*
X015654Y014815D01*
X015608Y014769D01*
X015608Y014582D01*
X015654Y014535D01*
X015748Y014535D01*
X015794Y014582D01*
X015023Y014647D02*
X015023Y014694D01*
X014976Y014740D01*
X014883Y014740D01*
X014836Y014694D01*
X014747Y014694D02*
X014747Y014600D01*
X014700Y014553D01*
X014560Y014553D01*
X014560Y014460D02*
X014560Y014740D01*
X014700Y014740D01*
X014747Y014694D01*
X014653Y014553D02*
X014747Y014460D01*
X014836Y014460D02*
X015023Y014647D01*
X015023Y014460D02*
X014836Y014460D01*
X011815Y014831D02*
X011535Y014831D01*
X011535Y014971D01*
X011581Y015018D01*
X011675Y015018D01*
X011722Y014971D01*
X011722Y014831D01*
X011722Y014925D02*
X011815Y015018D01*
X011815Y015108D02*
X011815Y015294D01*
X011815Y015384D02*
X011628Y015571D01*
X011581Y015571D01*
X011535Y015524D01*
X011535Y015430D01*
X011581Y015384D01*
X011535Y015201D02*
X011815Y015201D01*
X011815Y015384D02*
X011815Y015571D01*
X011535Y015201D02*
X011628Y015108D01*
X008993Y015108D02*
X008993Y015294D01*
X008993Y015384D02*
X008993Y015571D01*
X008993Y015477D02*
X008713Y015477D01*
X008806Y015384D01*
X008713Y015201D02*
X008993Y015201D01*
X008993Y015018D02*
X008900Y014925D01*
X008900Y014971D02*
X008900Y014831D01*
X008993Y014831D02*
X008713Y014831D01*
X008713Y014971D01*
X008760Y015018D01*
X008853Y015018D01*
X008900Y014971D01*
X008806Y015108D02*
X008713Y015201D01*
X009835Y011821D02*
X009881Y011821D01*
X010068Y011634D01*
X010115Y011634D01*
X010068Y011544D02*
X010115Y011498D01*
X010115Y011404D01*
X010068Y011358D01*
X009881Y011358D01*
X009835Y011404D01*
X009835Y011498D01*
X009881Y011544D01*
X009835Y011634D02*
X009835Y011821D01*
X005023Y008365D02*
X004836Y008365D01*
X004836Y008225D01*
X004930Y008272D01*
X004976Y008272D01*
X005023Y008225D01*
X005023Y008132D01*
X004976Y008085D01*
X004883Y008085D01*
X004836Y008132D01*
X004747Y008085D02*
X004653Y008178D01*
X004700Y008178D02*
X004560Y008178D01*
X004560Y008085D02*
X004560Y008365D01*
X004700Y008365D01*
X004747Y008319D01*
X004747Y008225D01*
X004700Y008178D01*
X002071Y008075D02*
X001884Y008075D01*
X002024Y008215D01*
X002024Y007935D01*
X001794Y007982D02*
X001748Y007935D01*
X001654Y007935D01*
X001608Y007982D01*
X001608Y008169D01*
X001654Y008215D01*
X001748Y008215D01*
X001794Y008169D01*
X017305Y005390D02*
X017305Y005110D01*
X017492Y005110D01*
X017581Y005110D02*
X017581Y005390D01*
X017768Y005390D01*
X017858Y005390D02*
X017858Y005110D01*
X017998Y005110D01*
X018044Y005157D01*
X018044Y005344D01*
X017998Y005390D01*
X017858Y005390D01*
X017675Y005250D02*
X017581Y005250D01*
X017581Y005110D02*
X017768Y005110D01*
X018134Y005110D02*
X018321Y005110D01*
X018227Y005110D02*
X018227Y005390D01*
X018134Y005297D01*
X018685Y005365D02*
X018685Y005085D01*
X018685Y005178D02*
X018825Y005178D01*
X018872Y005225D01*
X018872Y005319D01*
X018825Y005365D01*
X018685Y005365D01*
X018778Y005178D02*
X018872Y005085D01*
X018961Y005132D02*
X019008Y005085D01*
X019101Y005085D01*
X019148Y005132D01*
X019148Y005178D01*
X019101Y005225D01*
X019055Y005225D01*
X019101Y005225D02*
X019148Y005272D01*
X019148Y005319D01*
X019101Y005365D01*
X019008Y005365D01*
X018961Y005319D01*
X020335Y005165D02*
X020335Y004885D01*
X020335Y004978D02*
X020475Y004978D01*
X020522Y005025D01*
X020522Y005119D01*
X020475Y005165D01*
X020335Y005165D01*
X020428Y004978D02*
X020522Y004885D01*
X020611Y004885D02*
X020798Y004885D01*
X020705Y004885D02*
X020705Y005165D01*
X020611Y005072D01*
X020887Y005119D02*
X020934Y005165D01*
X021028Y005165D01*
X021074Y005119D01*
X021074Y005072D01*
X021028Y005025D01*
X021074Y004978D01*
X021074Y004932D01*
X021028Y004885D01*
X020934Y004885D01*
X020887Y004932D01*
X020981Y005025D02*
X021028Y005025D01*
X023220Y005140D02*
X023222Y005163D01*
X023228Y005185D01*
X023237Y005207D01*
X023250Y005226D01*
X023265Y005243D01*
X023283Y005257D01*
X023304Y005268D01*
X023326Y005276D01*
X023348Y005280D01*
X023372Y005280D01*
X023394Y005276D01*
X023416Y005268D01*
X023437Y005257D01*
X023455Y005243D01*
X023470Y005226D01*
X023483Y005207D01*
X023492Y005185D01*
X023498Y005163D01*
X023500Y005140D01*
X023498Y005117D01*
X023492Y005095D01*
X023483Y005073D01*
X023470Y005054D01*
X023455Y005037D01*
X023437Y005023D01*
X023416Y005012D01*
X023394Y005004D01*
X023372Y005000D01*
X023348Y005000D01*
X023326Y005004D01*
X023304Y005012D01*
X023283Y005023D01*
X023265Y005037D01*
X023250Y005054D01*
X023237Y005073D01*
X023228Y005095D01*
X023222Y005117D01*
X023220Y005140D01*
X018440Y007457D02*
X018440Y007550D01*
X018393Y007597D01*
X018393Y007686D02*
X018440Y007733D01*
X018440Y007826D01*
X018393Y007873D01*
X018347Y007873D01*
X018300Y007826D01*
X018300Y007780D01*
X018300Y007826D02*
X018253Y007873D01*
X018206Y007873D01*
X018160Y007826D01*
X018160Y007733D01*
X018206Y007686D01*
X018206Y007597D02*
X018160Y007550D01*
X018160Y007457D01*
X018206Y007410D01*
X018393Y007410D01*
X018440Y007457D01*
D16*
X018900Y005650D03*
X016525Y009650D03*
X011150Y009400D03*
X011150Y008400D03*
X005775Y008150D03*
X015150Y014150D03*
X017150Y014150D03*
D17*
X011900Y014150D03*
X009275Y014150D03*
X008525Y006150D03*
X021400Y004650D03*
D18*
X020900Y004150D02*
X020400Y004150D01*
X020150Y003900D01*
X020150Y001400D01*
X019900Y001150D01*
X019400Y001150D01*
X019150Y001400D01*
X019150Y003900D01*
X018900Y004150D01*
X018400Y004150D01*
X018150Y003900D01*
X018150Y001400D01*
X017900Y001150D01*
X017400Y001150D01*
X017150Y001400D01*
X016900Y001150D01*
X016400Y001150D01*
X016150Y001400D01*
X016150Y003900D01*
X015900Y004150D01*
X015400Y004150D01*
X015150Y003900D01*
X015150Y001400D01*
X014900Y001150D01*
X014400Y001150D01*
X014150Y001400D01*
X014150Y003900D01*
X013900Y004150D01*
X013400Y004150D01*
X013150Y003900D01*
X013150Y001400D01*
X013400Y001150D01*
X013900Y001150D01*
X014150Y001400D01*
X013150Y001400D02*
X012900Y001150D01*
X012400Y001150D01*
X012150Y001400D01*
X012150Y003900D01*
X011900Y004150D01*
X011400Y004150D01*
X011150Y003900D01*
X011150Y001400D01*
X010900Y001150D01*
X010400Y001150D01*
X010150Y001400D01*
X010150Y003900D01*
X009900Y004150D01*
X009400Y004150D01*
X009150Y003900D01*
X009150Y001400D01*
X008900Y001150D01*
X008400Y001150D01*
X008150Y001400D01*
X008150Y003900D01*
X007900Y004150D01*
X007400Y004150D01*
X007150Y003900D01*
X007150Y001400D01*
X006900Y001150D01*
X006400Y001150D01*
X006150Y001400D01*
X006150Y003900D01*
X005900Y004150D01*
X005400Y004150D01*
X005150Y003900D01*
X005150Y001400D01*
X005400Y001150D01*
X005900Y001150D01*
X006150Y001400D01*
X007150Y001400D02*
X007400Y001150D01*
X007900Y001150D01*
X008150Y001400D01*
X009150Y001400D02*
X009150Y003900D01*
X008900Y004150D01*
X008400Y004150D01*
X008150Y003900D01*
X007150Y003900D02*
X006900Y004150D01*
X006400Y004150D01*
X006150Y003900D01*
X009150Y001400D02*
X009400Y001150D01*
X009900Y001150D01*
X010150Y001400D01*
X011150Y001400D02*
X011400Y001150D01*
X011900Y001150D01*
X012150Y001400D01*
X013150Y001400D02*
X013150Y003900D01*
X012900Y004150D01*
X012400Y004150D01*
X012150Y003900D01*
X012251Y004392D02*
X014049Y004392D01*
X014400Y004150D02*
X014900Y004150D01*
X015150Y003900D01*
X014400Y004150D02*
X014150Y003900D01*
X016150Y003900D02*
X016400Y004150D01*
X016900Y004150D01*
X017150Y003900D01*
X017150Y001400D01*
X017150Y003900D01*
X017400Y004150D01*
X017900Y004150D01*
X018150Y003900D01*
X019150Y003900D02*
X019400Y004150D01*
X019900Y004150D01*
X020150Y003900D01*
X020900Y004150D02*
X021150Y003900D01*
X021150Y001400D01*
X020900Y001150D01*
X020400Y001150D01*
X020150Y001400D01*
X019150Y001400D02*
X018900Y001150D01*
X018400Y001150D01*
X018150Y001400D01*
X016150Y001400D02*
X015900Y001150D01*
X015400Y001150D01*
X015150Y001400D01*
X011150Y003900D02*
X010900Y004150D01*
X010400Y004150D01*
X010150Y003900D01*
X012490Y007558D02*
X012492Y007584D01*
X012498Y007610D01*
X012507Y007634D01*
X012520Y007657D01*
X012536Y007678D01*
X012555Y007696D01*
X012576Y007712D01*
X012600Y007724D01*
X012624Y007732D01*
X012650Y007737D01*
X012677Y007738D01*
X012703Y007735D01*
X012728Y007728D01*
X012752Y007718D01*
X012775Y007704D01*
X012795Y007688D01*
X012812Y007668D01*
X012827Y007646D01*
X012838Y007622D01*
X012846Y007597D01*
X012850Y007571D01*
X012850Y007545D01*
X012846Y007519D01*
X012838Y007494D01*
X012827Y007470D01*
X012812Y007448D01*
X012795Y007428D01*
X012775Y007412D01*
X012752Y007398D01*
X012728Y007388D01*
X012703Y007381D01*
X012677Y007378D01*
X012650Y007379D01*
X012624Y007384D01*
X012600Y007392D01*
X012576Y007404D01*
X012555Y007420D01*
X012536Y007438D01*
X012520Y007459D01*
X012507Y007482D01*
X012498Y007506D01*
X012492Y007532D01*
X012490Y007558D01*
X012251Y007908D02*
X014049Y007908D01*
X020983Y005670D02*
X020983Y005630D01*
X021081Y005965D02*
X021317Y005965D01*
X021317Y005827D01*
X021317Y005473D02*
X021317Y005335D01*
X021081Y005335D01*
M02*
