G75*
%MOIN*%
%OFA0B0*%
%FSLAX24Y24*%
%IPPOS*%
%LPD*%
%AMOC8*
5,1,8,0,0,1.08239X$1,22.5*
%
%ADD10C,0.0000*%
%ADD11C,0.0540*%
%ADD12C,0.0531*%
%ADD13C,0.0413*%
%ADD14R,0.0700X0.0700*%
%ADD15C,0.0700*%
%ADD16R,0.0394X0.0433*%
%ADD17R,0.0591X0.0512*%
%ADD18C,0.0100*%
%ADD19C,0.0240*%
%ADD20C,0.0160*%
%ADD21C,0.0317*%
%ADD22C,0.0500*%
%ADD23C,0.0240*%
%ADD24C,0.0760*%
D10*
X001650Y000650D02*
X023650Y000650D01*
X023710Y000652D01*
X023771Y000657D01*
X023830Y000666D01*
X023889Y000679D01*
X023948Y000695D01*
X024005Y000715D01*
X024060Y000738D01*
X024115Y000765D01*
X024167Y000794D01*
X024218Y000827D01*
X024267Y000863D01*
X024313Y000901D01*
X024357Y000943D01*
X024399Y000987D01*
X024437Y001033D01*
X024473Y001082D01*
X024506Y001133D01*
X024535Y001185D01*
X024562Y001240D01*
X024585Y001295D01*
X024605Y001352D01*
X024621Y001411D01*
X024634Y001470D01*
X024643Y001529D01*
X024648Y001590D01*
X024650Y001650D01*
X024650Y017650D01*
X024648Y017710D01*
X024643Y017771D01*
X024634Y017830D01*
X024621Y017889D01*
X024605Y017948D01*
X024585Y018005D01*
X024562Y018060D01*
X024535Y018115D01*
X024506Y018167D01*
X024473Y018218D01*
X024437Y018267D01*
X024399Y018313D01*
X024357Y018357D01*
X024313Y018399D01*
X024267Y018437D01*
X024218Y018473D01*
X024167Y018506D01*
X024115Y018535D01*
X024060Y018562D01*
X024005Y018585D01*
X023948Y018605D01*
X023889Y018621D01*
X023830Y018634D01*
X023771Y018643D01*
X023710Y018648D01*
X023650Y018650D01*
X001650Y018650D01*
X001590Y018648D01*
X001529Y018643D01*
X001470Y018634D01*
X001411Y018621D01*
X001352Y018605D01*
X001295Y018585D01*
X001240Y018562D01*
X001185Y018535D01*
X001133Y018506D01*
X001082Y018473D01*
X001033Y018437D01*
X000987Y018399D01*
X000943Y018357D01*
X000901Y018313D01*
X000863Y018267D01*
X000827Y018218D01*
X000794Y018167D01*
X000765Y018115D01*
X000738Y018060D01*
X000715Y018005D01*
X000695Y017948D01*
X000679Y017889D01*
X000666Y017830D01*
X000657Y017771D01*
X000652Y017710D01*
X000650Y017650D01*
X000650Y001650D01*
X000652Y001590D01*
X000657Y001529D01*
X000666Y001470D01*
X000679Y001411D01*
X000695Y001352D01*
X000715Y001295D01*
X000738Y001240D01*
X000765Y001185D01*
X000794Y001133D01*
X000827Y001082D01*
X000863Y001033D01*
X000901Y000987D01*
X000943Y000943D01*
X000987Y000901D01*
X001033Y000863D01*
X001082Y000827D01*
X001133Y000794D01*
X001185Y000765D01*
X001240Y000738D01*
X001295Y000715D01*
X001352Y000695D01*
X001411Y000679D01*
X001470Y000666D01*
X001529Y000657D01*
X001590Y000652D01*
X001650Y000650D01*
X001193Y001776D02*
X001195Y001826D01*
X001201Y001876D01*
X001211Y001925D01*
X001225Y001973D01*
X001242Y002020D01*
X001263Y002065D01*
X001288Y002109D01*
X001316Y002150D01*
X001348Y002189D01*
X001382Y002226D01*
X001419Y002260D01*
X001459Y002290D01*
X001501Y002317D01*
X001545Y002341D01*
X001591Y002362D01*
X001638Y002378D01*
X001686Y002391D01*
X001736Y002400D01*
X001785Y002405D01*
X001836Y002406D01*
X001886Y002403D01*
X001935Y002396D01*
X001984Y002385D01*
X002032Y002370D01*
X002078Y002352D01*
X002123Y002330D01*
X002166Y002304D01*
X002207Y002275D01*
X002246Y002243D01*
X002282Y002208D01*
X002314Y002170D01*
X002344Y002130D01*
X002371Y002087D01*
X002394Y002043D01*
X002413Y001997D01*
X002429Y001949D01*
X002441Y001900D01*
X002449Y001851D01*
X002453Y001801D01*
X002453Y001751D01*
X002449Y001701D01*
X002441Y001652D01*
X002429Y001603D01*
X002413Y001555D01*
X002394Y001509D01*
X002371Y001465D01*
X002344Y001422D01*
X002314Y001382D01*
X002282Y001344D01*
X002246Y001309D01*
X002207Y001277D01*
X002166Y001248D01*
X002123Y001222D01*
X002078Y001200D01*
X002032Y001182D01*
X001984Y001167D01*
X001935Y001156D01*
X001886Y001149D01*
X001836Y001146D01*
X001785Y001147D01*
X001736Y001152D01*
X001686Y001161D01*
X001638Y001174D01*
X001591Y001190D01*
X001545Y001211D01*
X001501Y001235D01*
X001459Y001262D01*
X001419Y001292D01*
X001382Y001326D01*
X001348Y001363D01*
X001316Y001402D01*
X001288Y001443D01*
X001263Y001487D01*
X001242Y001532D01*
X001225Y001579D01*
X001211Y001627D01*
X001201Y001676D01*
X001195Y001726D01*
X001193Y001776D01*
X001193Y017524D02*
X001195Y017574D01*
X001201Y017624D01*
X001211Y017673D01*
X001225Y017721D01*
X001242Y017768D01*
X001263Y017813D01*
X001288Y017857D01*
X001316Y017898D01*
X001348Y017937D01*
X001382Y017974D01*
X001419Y018008D01*
X001459Y018038D01*
X001501Y018065D01*
X001545Y018089D01*
X001591Y018110D01*
X001638Y018126D01*
X001686Y018139D01*
X001736Y018148D01*
X001785Y018153D01*
X001836Y018154D01*
X001886Y018151D01*
X001935Y018144D01*
X001984Y018133D01*
X002032Y018118D01*
X002078Y018100D01*
X002123Y018078D01*
X002166Y018052D01*
X002207Y018023D01*
X002246Y017991D01*
X002282Y017956D01*
X002314Y017918D01*
X002344Y017878D01*
X002371Y017835D01*
X002394Y017791D01*
X002413Y017745D01*
X002429Y017697D01*
X002441Y017648D01*
X002449Y017599D01*
X002453Y017549D01*
X002453Y017499D01*
X002449Y017449D01*
X002441Y017400D01*
X002429Y017351D01*
X002413Y017303D01*
X002394Y017257D01*
X002371Y017213D01*
X002344Y017170D01*
X002314Y017130D01*
X002282Y017092D01*
X002246Y017057D01*
X002207Y017025D01*
X002166Y016996D01*
X002123Y016970D01*
X002078Y016948D01*
X002032Y016930D01*
X001984Y016915D01*
X001935Y016904D01*
X001886Y016897D01*
X001836Y016894D01*
X001785Y016895D01*
X001736Y016900D01*
X001686Y016909D01*
X001638Y016922D01*
X001591Y016938D01*
X001545Y016959D01*
X001501Y016983D01*
X001459Y017010D01*
X001419Y017040D01*
X001382Y017074D01*
X001348Y017111D01*
X001316Y017150D01*
X001288Y017191D01*
X001263Y017235D01*
X001242Y017280D01*
X001225Y017327D01*
X001211Y017375D01*
X001201Y017424D01*
X001195Y017474D01*
X001193Y017524D01*
X022847Y017524D02*
X022849Y017574D01*
X022855Y017624D01*
X022865Y017673D01*
X022879Y017721D01*
X022896Y017768D01*
X022917Y017813D01*
X022942Y017857D01*
X022970Y017898D01*
X023002Y017937D01*
X023036Y017974D01*
X023073Y018008D01*
X023113Y018038D01*
X023155Y018065D01*
X023199Y018089D01*
X023245Y018110D01*
X023292Y018126D01*
X023340Y018139D01*
X023390Y018148D01*
X023439Y018153D01*
X023490Y018154D01*
X023540Y018151D01*
X023589Y018144D01*
X023638Y018133D01*
X023686Y018118D01*
X023732Y018100D01*
X023777Y018078D01*
X023820Y018052D01*
X023861Y018023D01*
X023900Y017991D01*
X023936Y017956D01*
X023968Y017918D01*
X023998Y017878D01*
X024025Y017835D01*
X024048Y017791D01*
X024067Y017745D01*
X024083Y017697D01*
X024095Y017648D01*
X024103Y017599D01*
X024107Y017549D01*
X024107Y017499D01*
X024103Y017449D01*
X024095Y017400D01*
X024083Y017351D01*
X024067Y017303D01*
X024048Y017257D01*
X024025Y017213D01*
X023998Y017170D01*
X023968Y017130D01*
X023936Y017092D01*
X023900Y017057D01*
X023861Y017025D01*
X023820Y016996D01*
X023777Y016970D01*
X023732Y016948D01*
X023686Y016930D01*
X023638Y016915D01*
X023589Y016904D01*
X023540Y016897D01*
X023490Y016894D01*
X023439Y016895D01*
X023390Y016900D01*
X023340Y016909D01*
X023292Y016922D01*
X023245Y016938D01*
X023199Y016959D01*
X023155Y016983D01*
X023113Y017010D01*
X023073Y017040D01*
X023036Y017074D01*
X023002Y017111D01*
X022970Y017150D01*
X022942Y017191D01*
X022917Y017235D01*
X022896Y017280D01*
X022879Y017327D01*
X022865Y017375D01*
X022855Y017424D01*
X022849Y017474D01*
X022847Y017524D01*
X022847Y001776D02*
X022849Y001826D01*
X022855Y001876D01*
X022865Y001925D01*
X022879Y001973D01*
X022896Y002020D01*
X022917Y002065D01*
X022942Y002109D01*
X022970Y002150D01*
X023002Y002189D01*
X023036Y002226D01*
X023073Y002260D01*
X023113Y002290D01*
X023155Y002317D01*
X023199Y002341D01*
X023245Y002362D01*
X023292Y002378D01*
X023340Y002391D01*
X023390Y002400D01*
X023439Y002405D01*
X023490Y002406D01*
X023540Y002403D01*
X023589Y002396D01*
X023638Y002385D01*
X023686Y002370D01*
X023732Y002352D01*
X023777Y002330D01*
X023820Y002304D01*
X023861Y002275D01*
X023900Y002243D01*
X023936Y002208D01*
X023968Y002170D01*
X023998Y002130D01*
X024025Y002087D01*
X024048Y002043D01*
X024067Y001997D01*
X024083Y001949D01*
X024095Y001900D01*
X024103Y001851D01*
X024107Y001801D01*
X024107Y001751D01*
X024103Y001701D01*
X024095Y001652D01*
X024083Y001603D01*
X024067Y001555D01*
X024048Y001509D01*
X024025Y001465D01*
X023998Y001422D01*
X023968Y001382D01*
X023936Y001344D01*
X023900Y001309D01*
X023861Y001277D01*
X023820Y001248D01*
X023777Y001222D01*
X023732Y001200D01*
X023686Y001182D01*
X023638Y001167D01*
X023589Y001156D01*
X023540Y001149D01*
X023490Y001146D01*
X023439Y001147D01*
X023390Y001152D01*
X023340Y001161D01*
X023292Y001174D01*
X023245Y001190D01*
X023199Y001211D01*
X023155Y001235D01*
X023113Y001262D01*
X023073Y001292D01*
X023036Y001326D01*
X023002Y001363D01*
X022970Y001402D01*
X022942Y001443D01*
X022917Y001487D01*
X022896Y001532D01*
X022879Y001579D01*
X022865Y001627D01*
X022855Y001676D01*
X022849Y001726D01*
X022847Y001776D01*
D11*
X004150Y001650D03*
D12*
X017650Y009650D03*
X015650Y013150D03*
X016150Y017650D03*
X017150Y017650D03*
X019650Y017650D03*
X020650Y017650D03*
X013150Y017650D03*
X012150Y017650D03*
X011150Y017650D03*
X010150Y017650D03*
X007650Y017650D03*
X006650Y017650D03*
X005650Y017650D03*
X004650Y017650D03*
D13*
X020525Y011044D03*
X020525Y010256D03*
D14*
X020650Y003650D03*
X016650Y003650D03*
X012650Y003650D03*
X008650Y003650D03*
D15*
X007650Y003650D03*
X006650Y003650D03*
X005650Y003650D03*
X005650Y002650D03*
X006650Y002650D03*
X007650Y002650D03*
X008650Y002650D03*
X009650Y002650D03*
X010650Y002650D03*
X011650Y002650D03*
X012650Y002650D03*
X013650Y002650D03*
X014650Y002650D03*
X015650Y002650D03*
X016650Y002650D03*
X017650Y002650D03*
X018650Y002650D03*
X019650Y002650D03*
X020650Y002650D03*
X020650Y001650D03*
X019650Y001650D03*
X018650Y001650D03*
X017650Y001650D03*
X016650Y001650D03*
X015650Y001650D03*
X014650Y001650D03*
X013650Y001650D03*
X012650Y001650D03*
X011650Y001650D03*
X010650Y001650D03*
X009650Y001650D03*
X008650Y001650D03*
X007650Y001650D03*
X006650Y001650D03*
X005650Y001650D03*
X009650Y003650D03*
X010650Y003650D03*
X011650Y003650D03*
X013650Y003650D03*
X014650Y003650D03*
X015650Y003650D03*
X017650Y003650D03*
X018650Y003650D03*
X019650Y003650D03*
D16*
X012150Y015565D03*
X012150Y016235D03*
X011150Y016235D03*
X011150Y015565D03*
D17*
X010650Y007569D03*
X010650Y006900D03*
X010650Y006231D03*
X009400Y006231D03*
X009400Y006900D03*
X009400Y007569D03*
X011900Y007569D03*
X011900Y006900D03*
X011900Y006231D03*
X013150Y006231D03*
X013150Y006900D03*
X013150Y007569D03*
X014400Y007569D03*
X014400Y006900D03*
X014400Y006231D03*
X015650Y006231D03*
X015650Y006900D03*
X015650Y007569D03*
D18*
X001120Y001120D02*
X000982Y001310D01*
X000909Y001533D01*
X000900Y001650D01*
X000900Y008556D01*
X003025Y008556D01*
X003328Y008931D01*
X003328Y018400D01*
X015100Y018400D01*
X015100Y017254D01*
X016475Y015879D01*
X016504Y015850D01*
X021671Y015850D01*
X021700Y015879D01*
X021700Y018400D01*
X023292Y018400D01*
X022978Y018270D01*
X022731Y018022D01*
X022597Y017699D01*
X022597Y017349D01*
X022731Y017026D01*
X022978Y016778D01*
X023302Y016644D01*
X023652Y016644D01*
X023975Y016778D01*
X024223Y017026D01*
X024357Y017349D01*
X024357Y017699D01*
X024223Y018022D01*
X023975Y018270D01*
X023664Y018399D01*
X023767Y018391D01*
X023990Y018318D01*
X024180Y018180D01*
X024318Y017990D01*
X024391Y017767D01*
X024400Y017650D01*
X024400Y001650D01*
X024391Y001533D01*
X024318Y001310D01*
X024180Y001120D01*
X023990Y000982D01*
X023767Y000909D01*
X023664Y000901D01*
X023975Y001030D01*
X024223Y001278D01*
X024357Y001601D01*
X024357Y001951D01*
X024223Y002274D01*
X023975Y002522D01*
X023652Y002656D01*
X023302Y002656D01*
X022978Y002522D01*
X022731Y002274D01*
X022597Y001951D01*
X022597Y001601D01*
X022731Y001278D01*
X022978Y001030D01*
X023292Y000900D01*
X002008Y000900D01*
X002322Y001030D01*
X002569Y001278D01*
X002703Y001601D01*
X002703Y001951D01*
X002569Y002274D01*
X002322Y002522D01*
X001998Y002656D01*
X001648Y002656D01*
X001325Y002522D01*
X001077Y002274D01*
X000943Y001951D01*
X000943Y001601D01*
X001077Y001278D01*
X001325Y001030D01*
X001636Y000901D01*
X001533Y000909D01*
X001310Y000982D01*
X001120Y001120D01*
X001103Y001143D02*
X001212Y001143D01*
X001224Y001044D02*
X001311Y001044D01*
X001421Y000946D02*
X001529Y000946D01*
X001114Y001241D02*
X001032Y001241D01*
X001052Y001340D02*
X000972Y001340D01*
X000940Y001438D02*
X001011Y001438D01*
X000970Y001537D02*
X000909Y001537D01*
X000901Y001635D02*
X000943Y001635D01*
X000943Y001734D02*
X000900Y001734D01*
X000900Y001832D02*
X000943Y001832D01*
X000943Y001931D02*
X000900Y001931D01*
X000900Y002029D02*
X000976Y002029D01*
X001016Y002128D02*
X000900Y002128D01*
X000900Y002226D02*
X001057Y002226D01*
X001127Y002325D02*
X000900Y002325D01*
X000900Y002423D02*
X001226Y002423D01*
X001324Y002522D02*
X000900Y002522D01*
X000900Y002620D02*
X001562Y002620D01*
X002085Y002620D02*
X005120Y002620D01*
X005120Y002545D02*
X005201Y002350D01*
X005350Y002201D01*
X005516Y002132D01*
X005458Y002113D01*
X005388Y002078D01*
X005324Y002031D01*
X005269Y001976D01*
X005222Y001912D01*
X005187Y001842D01*
X005162Y001767D01*
X005151Y001698D01*
X005602Y001698D01*
X005602Y001602D01*
X005698Y001602D01*
X005698Y001698D01*
X006149Y001698D01*
X006138Y001767D01*
X006113Y001842D01*
X006078Y001912D01*
X006031Y001976D01*
X005976Y002031D01*
X005912Y002078D01*
X005842Y002113D01*
X005822Y002120D01*
X006478Y002120D01*
X006458Y002113D01*
X006388Y002078D01*
X006324Y002031D01*
X006269Y001976D01*
X006222Y001912D01*
X006187Y001842D01*
X006162Y001767D01*
X006151Y001698D01*
X006602Y001698D01*
X006602Y001602D01*
X006698Y001602D01*
X006698Y001698D01*
X007149Y001698D01*
X007138Y001767D01*
X007113Y001842D01*
X007078Y001912D01*
X007031Y001976D01*
X006976Y002031D01*
X006912Y002078D01*
X006842Y002113D01*
X006822Y002120D01*
X007478Y002120D01*
X007458Y002113D01*
X007388Y002078D01*
X007324Y002031D01*
X007269Y001976D01*
X007222Y001912D01*
X007187Y001842D01*
X007162Y001767D01*
X007151Y001698D01*
X007602Y001698D01*
X007602Y001602D01*
X007698Y001602D01*
X007698Y001698D01*
X008149Y001698D01*
X008138Y001767D01*
X008113Y001842D01*
X008078Y001912D01*
X008031Y001976D01*
X007976Y002031D01*
X007912Y002078D01*
X007842Y002113D01*
X007822Y002120D01*
X008478Y002120D01*
X008458Y002113D01*
X008388Y002078D01*
X008324Y002031D01*
X008269Y001976D01*
X008222Y001912D01*
X008187Y001842D01*
X008162Y001767D01*
X008151Y001698D01*
X008602Y001698D01*
X008602Y001602D01*
X008698Y001602D01*
X008698Y001698D01*
X009149Y001698D01*
X009138Y001767D01*
X009113Y001842D01*
X009078Y001912D01*
X009031Y001976D01*
X008976Y002031D01*
X008912Y002078D01*
X008842Y002113D01*
X008822Y002120D01*
X009478Y002120D01*
X009458Y002113D01*
X009388Y002078D01*
X009324Y002031D01*
X009269Y001976D01*
X009222Y001912D01*
X009187Y001842D01*
X009162Y001767D01*
X009151Y001698D01*
X009602Y001698D01*
X009602Y001602D01*
X009698Y001602D01*
X009698Y001698D01*
X010149Y001698D01*
X010138Y001767D01*
X010113Y001842D01*
X010078Y001912D01*
X010031Y001976D01*
X009976Y002031D01*
X009912Y002078D01*
X009842Y002113D01*
X009822Y002120D01*
X010478Y002120D01*
X010458Y002113D01*
X010388Y002078D01*
X010324Y002031D01*
X010269Y001976D01*
X010222Y001912D01*
X010187Y001842D01*
X010162Y001767D01*
X010151Y001698D01*
X010602Y001698D01*
X010602Y001602D01*
X010698Y001602D01*
X010698Y001698D01*
X011149Y001698D01*
X011138Y001767D01*
X011113Y001842D01*
X011078Y001912D01*
X011031Y001976D01*
X010976Y002031D01*
X010912Y002078D01*
X010842Y002113D01*
X010822Y002120D01*
X011478Y002120D01*
X011458Y002113D01*
X011388Y002078D01*
X011324Y002031D01*
X011269Y001976D01*
X011222Y001912D01*
X011187Y001842D01*
X011162Y001767D01*
X011151Y001698D01*
X011602Y001698D01*
X011602Y001602D01*
X011698Y001602D01*
X011698Y001698D01*
X012149Y001698D01*
X012138Y001767D01*
X012113Y001842D01*
X012078Y001912D01*
X012031Y001976D01*
X011976Y002031D01*
X011912Y002078D01*
X011842Y002113D01*
X011822Y002120D01*
X012478Y002120D01*
X012458Y002113D01*
X012388Y002078D01*
X012324Y002031D01*
X012269Y001976D01*
X012222Y001912D01*
X012187Y001842D01*
X012162Y001767D01*
X012151Y001698D01*
X012602Y001698D01*
X012602Y001602D01*
X012698Y001602D01*
X012698Y001698D01*
X013149Y001698D01*
X013138Y001767D01*
X013113Y001842D01*
X013078Y001912D01*
X013031Y001976D01*
X012976Y002031D01*
X012912Y002078D01*
X012842Y002113D01*
X012822Y002120D01*
X013478Y002120D01*
X013458Y002113D01*
X013388Y002078D01*
X013324Y002031D01*
X013269Y001976D01*
X013222Y001912D01*
X013187Y001842D01*
X013162Y001767D01*
X013151Y001698D01*
X013602Y001698D01*
X013602Y001602D01*
X013698Y001602D01*
X013698Y001698D01*
X014149Y001698D01*
X014138Y001767D01*
X014113Y001842D01*
X014078Y001912D01*
X014031Y001976D01*
X013976Y002031D01*
X013912Y002078D01*
X013842Y002113D01*
X013822Y002120D01*
X014478Y002120D01*
X014458Y002113D01*
X014388Y002078D01*
X014324Y002031D01*
X014269Y001976D01*
X014222Y001912D01*
X014187Y001842D01*
X014162Y001767D01*
X014151Y001698D01*
X014602Y001698D01*
X014602Y001602D01*
X014698Y001602D01*
X014698Y001698D01*
X015149Y001698D01*
X015138Y001767D01*
X015113Y001842D01*
X015078Y001912D01*
X015031Y001976D01*
X014976Y002031D01*
X014912Y002078D01*
X014842Y002113D01*
X014822Y002120D01*
X015478Y002120D01*
X015458Y002113D01*
X015388Y002078D01*
X015324Y002031D01*
X015269Y001976D01*
X015222Y001912D01*
X015187Y001842D01*
X015162Y001767D01*
X015151Y001698D01*
X015602Y001698D01*
X015602Y001602D01*
X015698Y001602D01*
X015698Y001698D01*
X016149Y001698D01*
X016138Y001767D01*
X016113Y001842D01*
X016078Y001912D01*
X016031Y001976D01*
X015976Y002031D01*
X015912Y002078D01*
X015842Y002113D01*
X015822Y002120D01*
X016478Y002120D01*
X016458Y002113D01*
X016388Y002078D01*
X016324Y002031D01*
X016269Y001976D01*
X016222Y001912D01*
X016187Y001842D01*
X016162Y001767D01*
X016151Y001698D01*
X016602Y001698D01*
X016602Y001602D01*
X016698Y001602D01*
X016698Y001698D01*
X017149Y001698D01*
X017138Y001767D01*
X017113Y001842D01*
X017078Y001912D01*
X017031Y001976D01*
X016976Y002031D01*
X016912Y002078D01*
X016842Y002113D01*
X016822Y002120D01*
X017478Y002120D01*
X017458Y002113D01*
X017388Y002078D01*
X017324Y002031D01*
X017269Y001976D01*
X017222Y001912D01*
X017187Y001842D01*
X017162Y001767D01*
X017151Y001698D01*
X017602Y001698D01*
X017602Y001602D01*
X017698Y001602D01*
X017698Y001698D01*
X018149Y001698D01*
X018138Y001767D01*
X018113Y001842D01*
X018078Y001912D01*
X018031Y001976D01*
X017976Y002031D01*
X017912Y002078D01*
X017842Y002113D01*
X017822Y002120D01*
X018478Y002120D01*
X018458Y002113D01*
X018388Y002078D01*
X018324Y002031D01*
X018269Y001976D01*
X018222Y001912D01*
X018187Y001842D01*
X018162Y001767D01*
X018151Y001698D01*
X018602Y001698D01*
X018602Y001602D01*
X018698Y001602D01*
X018698Y001698D01*
X019149Y001698D01*
X019138Y001767D01*
X019113Y001842D01*
X019078Y001912D01*
X019031Y001976D01*
X018976Y002031D01*
X018912Y002078D01*
X018842Y002113D01*
X018822Y002120D01*
X019478Y002120D01*
X019458Y002113D01*
X019388Y002078D01*
X019324Y002031D01*
X019269Y001976D01*
X019222Y001912D01*
X019187Y001842D01*
X019162Y001767D01*
X019151Y001698D01*
X019602Y001698D01*
X019602Y001602D01*
X019698Y001602D01*
X019698Y001698D01*
X020149Y001698D01*
X020138Y001767D01*
X020113Y001842D01*
X020078Y001912D01*
X020031Y001976D01*
X019976Y002031D01*
X019912Y002078D01*
X019842Y002113D01*
X019822Y002120D01*
X020478Y002120D01*
X020458Y002113D01*
X020388Y002078D01*
X020324Y002031D01*
X020269Y001976D01*
X020222Y001912D01*
X020187Y001842D01*
X020162Y001767D01*
X020151Y001698D01*
X020602Y001698D01*
X020602Y001602D01*
X020698Y001602D01*
X020698Y001698D01*
X021149Y001698D01*
X021138Y001767D01*
X021113Y001842D01*
X021078Y001912D01*
X021031Y001976D01*
X020976Y002031D01*
X020912Y002078D01*
X020842Y002113D01*
X020784Y002132D01*
X020950Y002201D01*
X021099Y002350D01*
X021180Y002545D01*
X021180Y002755D01*
X021099Y002950D01*
X020950Y003099D01*
X020828Y003150D01*
X021062Y003150D01*
X021150Y003238D01*
X021150Y004062D01*
X021062Y004150D01*
X020238Y004150D01*
X020150Y004062D01*
X020150Y003238D01*
X020208Y003180D01*
X019822Y003180D01*
X019933Y003226D01*
X020074Y003367D01*
X020150Y003551D01*
X020150Y003749D01*
X020074Y003933D01*
X019933Y004074D01*
X019749Y004150D01*
X019551Y004150D01*
X019367Y004074D01*
X019226Y003933D01*
X019150Y003749D01*
X019074Y003933D01*
X018933Y004074D01*
X018749Y004150D01*
X018551Y004150D01*
X018367Y004074D01*
X018226Y003933D01*
X018150Y003749D01*
X018074Y003933D01*
X017933Y004074D01*
X017749Y004150D01*
X017551Y004150D01*
X017367Y004074D01*
X017226Y003933D01*
X017150Y003749D01*
X017150Y003551D01*
X017226Y003367D01*
X017367Y003226D01*
X017478Y003180D01*
X017092Y003180D01*
X017150Y003238D01*
X017150Y004062D01*
X017062Y004150D01*
X016238Y004150D01*
X016150Y004062D01*
X016150Y003238D01*
X016208Y003180D01*
X015822Y003180D01*
X015933Y003226D01*
X016074Y003367D01*
X016150Y003551D01*
X016150Y003749D01*
X016074Y003933D01*
X015933Y004074D01*
X015749Y004150D01*
X015551Y004150D01*
X015367Y004074D01*
X015226Y003933D01*
X015150Y003749D01*
X015074Y003933D01*
X014933Y004074D01*
X014749Y004150D01*
X014551Y004150D01*
X014367Y004074D01*
X014226Y003933D01*
X014150Y003749D01*
X014074Y003933D01*
X013933Y004074D01*
X013749Y004150D01*
X013551Y004150D01*
X013367Y004074D01*
X013226Y003933D01*
X013150Y003749D01*
X013150Y003551D01*
X013226Y003367D01*
X013367Y003226D01*
X013478Y003180D01*
X013092Y003180D01*
X013150Y003238D01*
X013150Y004062D01*
X013062Y004150D01*
X012850Y004150D01*
X012850Y004468D01*
X012879Y004497D01*
X012920Y004596D01*
X012920Y004704D01*
X012879Y004803D01*
X012803Y004879D01*
X012704Y004920D01*
X012596Y004920D01*
X012497Y004879D01*
X012421Y004803D01*
X012380Y004704D01*
X012380Y004596D01*
X012421Y004497D01*
X012450Y004468D01*
X012450Y004150D01*
X012238Y004150D01*
X012150Y004062D01*
X012150Y003238D01*
X012208Y003180D01*
X011822Y003180D01*
X011933Y003226D01*
X012074Y003367D01*
X012150Y003551D01*
X012150Y003749D01*
X012074Y003933D01*
X011933Y004074D01*
X011749Y004150D01*
X011551Y004150D01*
X011367Y004074D01*
X011226Y003933D01*
X011150Y003749D01*
X011074Y003933D01*
X010933Y004074D01*
X010749Y004150D01*
X010551Y004150D01*
X010367Y004074D01*
X010226Y003933D01*
X010150Y003749D01*
X010074Y003933D01*
X009933Y004074D01*
X009749Y004150D01*
X009551Y004150D01*
X009367Y004074D01*
X009226Y003933D01*
X009150Y003749D01*
X009150Y003551D01*
X009226Y003367D01*
X009367Y003226D01*
X009478Y003180D01*
X009092Y003180D01*
X009150Y003238D01*
X009150Y004062D01*
X009062Y004150D01*
X008238Y004150D01*
X008150Y004062D01*
X008150Y003238D01*
X008208Y003180D01*
X007822Y003180D01*
X007933Y003226D01*
X008074Y003367D01*
X008150Y003551D01*
X008150Y003749D01*
X008074Y003933D01*
X007933Y004074D01*
X007749Y004150D01*
X007551Y004150D01*
X007367Y004074D01*
X007226Y003933D01*
X007150Y003749D01*
X007074Y003933D01*
X006933Y004074D01*
X006749Y004150D01*
X006551Y004150D01*
X006367Y004074D01*
X006226Y003933D01*
X006150Y003749D01*
X006074Y003933D01*
X005933Y004074D01*
X005749Y004150D01*
X005551Y004150D01*
X005367Y004074D01*
X005226Y003933D01*
X005150Y003749D01*
X005150Y003551D01*
X005226Y003367D01*
X005367Y003226D01*
X005511Y003166D01*
X005350Y003099D01*
X005201Y002950D01*
X005120Y002755D01*
X005120Y002545D01*
X005130Y002522D02*
X002322Y002522D01*
X002421Y002423D02*
X005170Y002423D01*
X005226Y002325D02*
X002519Y002325D01*
X002589Y002226D02*
X005324Y002226D01*
X005322Y002029D02*
X004331Y002029D01*
X004311Y002039D02*
X004248Y002060D01*
X004190Y002069D01*
X004190Y001690D01*
X004110Y001690D01*
X004110Y002069D01*
X004052Y002060D01*
X003989Y002039D01*
X003930Y002009D01*
X003876Y001970D01*
X003830Y001924D01*
X003791Y001870D01*
X003761Y001811D01*
X003740Y001748D01*
X003731Y001690D01*
X004110Y001690D01*
X004110Y001610D01*
X003731Y001610D01*
X003740Y001552D01*
X003761Y001489D01*
X003791Y001430D01*
X003830Y001376D01*
X003876Y001330D01*
X003930Y001291D01*
X003989Y001261D01*
X004052Y001240D01*
X004110Y001231D01*
X004110Y001610D01*
X004190Y001610D01*
X004190Y001690D01*
X004569Y001690D01*
X004560Y001748D01*
X004539Y001811D01*
X004509Y001870D01*
X004470Y001924D01*
X004424Y001970D01*
X004370Y002009D01*
X004311Y002039D01*
X004190Y002029D02*
X004110Y002029D01*
X004110Y001931D02*
X004190Y001931D01*
X004190Y001832D02*
X004110Y001832D01*
X004110Y001734D02*
X004190Y001734D01*
X004190Y001635D02*
X005602Y001635D01*
X005602Y001602D02*
X005151Y001602D01*
X005162Y001533D01*
X005187Y001458D01*
X005222Y001388D01*
X005269Y001324D01*
X005324Y001269D01*
X005388Y001222D01*
X005458Y001187D01*
X005533Y001162D01*
X005602Y001151D01*
X005602Y001602D01*
X005602Y001537D02*
X005698Y001537D01*
X005698Y001602D02*
X005698Y001151D01*
X005767Y001162D01*
X005842Y001187D01*
X005912Y001222D01*
X005976Y001269D01*
X006031Y001324D01*
X006078Y001388D01*
X006113Y001458D01*
X006138Y001533D01*
X006149Y001602D01*
X005698Y001602D01*
X005698Y001635D02*
X006602Y001635D01*
X006602Y001602D02*
X006151Y001602D01*
X006162Y001533D01*
X006187Y001458D01*
X006222Y001388D01*
X006269Y001324D01*
X006324Y001269D01*
X006388Y001222D01*
X006458Y001187D01*
X006533Y001162D01*
X006602Y001151D01*
X006602Y001602D01*
X006602Y001537D02*
X006698Y001537D01*
X006698Y001602D02*
X006698Y001151D01*
X006767Y001162D01*
X006842Y001187D01*
X006912Y001222D01*
X006976Y001269D01*
X007031Y001324D01*
X007078Y001388D01*
X007113Y001458D01*
X007138Y001533D01*
X007149Y001602D01*
X006698Y001602D01*
X006698Y001635D02*
X007602Y001635D01*
X007602Y001602D02*
X007151Y001602D01*
X007162Y001533D01*
X007187Y001458D01*
X007222Y001388D01*
X007269Y001324D01*
X007324Y001269D01*
X007388Y001222D01*
X007458Y001187D01*
X007533Y001162D01*
X007602Y001151D01*
X007602Y001602D01*
X007602Y001537D02*
X007698Y001537D01*
X007698Y001602D02*
X007698Y001151D01*
X007767Y001162D01*
X007842Y001187D01*
X007912Y001222D01*
X007976Y001269D01*
X008031Y001324D01*
X008078Y001388D01*
X008113Y001458D01*
X008138Y001533D01*
X008149Y001602D01*
X007698Y001602D01*
X007698Y001635D02*
X008602Y001635D01*
X008602Y001602D02*
X008151Y001602D01*
X008162Y001533D01*
X008187Y001458D01*
X008222Y001388D01*
X008269Y001324D01*
X008324Y001269D01*
X008388Y001222D01*
X008458Y001187D01*
X008533Y001162D01*
X008602Y001151D01*
X008602Y001602D01*
X008602Y001537D02*
X008698Y001537D01*
X008698Y001602D02*
X008698Y001151D01*
X008767Y001162D01*
X008842Y001187D01*
X008912Y001222D01*
X008976Y001269D01*
X009031Y001324D01*
X009078Y001388D01*
X009113Y001458D01*
X009138Y001533D01*
X009149Y001602D01*
X008698Y001602D01*
X008698Y001635D02*
X009602Y001635D01*
X009602Y001602D02*
X009151Y001602D01*
X009162Y001533D01*
X009187Y001458D01*
X009222Y001388D01*
X009269Y001324D01*
X009324Y001269D01*
X009388Y001222D01*
X009458Y001187D01*
X009533Y001162D01*
X009602Y001151D01*
X009602Y001602D01*
X009602Y001537D02*
X009698Y001537D01*
X009698Y001602D02*
X009698Y001151D01*
X009767Y001162D01*
X009842Y001187D01*
X009912Y001222D01*
X009976Y001269D01*
X010031Y001324D01*
X010078Y001388D01*
X010113Y001458D01*
X010138Y001533D01*
X010149Y001602D01*
X009698Y001602D01*
X009698Y001635D02*
X010602Y001635D01*
X010602Y001602D02*
X010151Y001602D01*
X010162Y001533D01*
X010187Y001458D01*
X010222Y001388D01*
X010269Y001324D01*
X010324Y001269D01*
X010388Y001222D01*
X010458Y001187D01*
X010533Y001162D01*
X010602Y001151D01*
X010602Y001602D01*
X010602Y001537D02*
X010698Y001537D01*
X010698Y001602D02*
X010698Y001151D01*
X010767Y001162D01*
X010842Y001187D01*
X010912Y001222D01*
X010976Y001269D01*
X011031Y001324D01*
X011078Y001388D01*
X011113Y001458D01*
X011138Y001533D01*
X011149Y001602D01*
X010698Y001602D01*
X010698Y001635D02*
X011602Y001635D01*
X011602Y001602D02*
X011151Y001602D01*
X011162Y001533D01*
X011187Y001458D01*
X011222Y001388D01*
X011269Y001324D01*
X011324Y001269D01*
X011388Y001222D01*
X011458Y001187D01*
X011533Y001162D01*
X011602Y001151D01*
X011602Y001602D01*
X011602Y001537D02*
X011698Y001537D01*
X011698Y001602D02*
X011698Y001151D01*
X011767Y001162D01*
X011842Y001187D01*
X011912Y001222D01*
X011976Y001269D01*
X012031Y001324D01*
X012078Y001388D01*
X012113Y001458D01*
X012138Y001533D01*
X012149Y001602D01*
X011698Y001602D01*
X011698Y001635D02*
X012602Y001635D01*
X012602Y001602D02*
X012151Y001602D01*
X012162Y001533D01*
X012187Y001458D01*
X012222Y001388D01*
X012269Y001324D01*
X012324Y001269D01*
X012388Y001222D01*
X012458Y001187D01*
X012533Y001162D01*
X012602Y001151D01*
X012602Y001602D01*
X012602Y001537D02*
X012698Y001537D01*
X012698Y001602D02*
X012698Y001151D01*
X012767Y001162D01*
X012842Y001187D01*
X012912Y001222D01*
X012976Y001269D01*
X013031Y001324D01*
X013078Y001388D01*
X013113Y001458D01*
X013138Y001533D01*
X013149Y001602D01*
X012698Y001602D01*
X012698Y001635D02*
X013602Y001635D01*
X013602Y001602D02*
X013151Y001602D01*
X013162Y001533D01*
X013187Y001458D01*
X013222Y001388D01*
X013269Y001324D01*
X013324Y001269D01*
X013388Y001222D01*
X013458Y001187D01*
X013533Y001162D01*
X013602Y001151D01*
X013602Y001602D01*
X013602Y001537D02*
X013698Y001537D01*
X013698Y001602D02*
X013698Y001151D01*
X013767Y001162D01*
X013842Y001187D01*
X013912Y001222D01*
X013976Y001269D01*
X014031Y001324D01*
X014078Y001388D01*
X014113Y001458D01*
X014138Y001533D01*
X014149Y001602D01*
X013698Y001602D01*
X013698Y001635D02*
X014602Y001635D01*
X014602Y001602D02*
X014151Y001602D01*
X014162Y001533D01*
X014187Y001458D01*
X014222Y001388D01*
X014269Y001324D01*
X014324Y001269D01*
X014388Y001222D01*
X014458Y001187D01*
X014533Y001162D01*
X014602Y001151D01*
X014602Y001602D01*
X014602Y001537D02*
X014698Y001537D01*
X014698Y001602D02*
X014698Y001151D01*
X014767Y001162D01*
X014842Y001187D01*
X014912Y001222D01*
X014976Y001269D01*
X015031Y001324D01*
X015078Y001388D01*
X015113Y001458D01*
X015138Y001533D01*
X015149Y001602D01*
X014698Y001602D01*
X014698Y001635D02*
X015602Y001635D01*
X015602Y001602D02*
X015151Y001602D01*
X015162Y001533D01*
X015187Y001458D01*
X015222Y001388D01*
X015269Y001324D01*
X015324Y001269D01*
X015388Y001222D01*
X015458Y001187D01*
X015533Y001162D01*
X015602Y001151D01*
X015602Y001602D01*
X015602Y001537D02*
X015698Y001537D01*
X015698Y001602D02*
X015698Y001151D01*
X015767Y001162D01*
X015842Y001187D01*
X015912Y001222D01*
X015976Y001269D01*
X016031Y001324D01*
X016078Y001388D01*
X016113Y001458D01*
X016138Y001533D01*
X016149Y001602D01*
X015698Y001602D01*
X015698Y001635D02*
X016602Y001635D01*
X016602Y001602D02*
X016151Y001602D01*
X016162Y001533D01*
X016187Y001458D01*
X016222Y001388D01*
X016269Y001324D01*
X016324Y001269D01*
X016388Y001222D01*
X016458Y001187D01*
X016533Y001162D01*
X016602Y001151D01*
X016602Y001602D01*
X016602Y001537D02*
X016698Y001537D01*
X016698Y001602D02*
X016698Y001151D01*
X016767Y001162D01*
X016842Y001187D01*
X016912Y001222D01*
X016976Y001269D01*
X017031Y001324D01*
X017078Y001388D01*
X017113Y001458D01*
X017138Y001533D01*
X017149Y001602D01*
X016698Y001602D01*
X016698Y001635D02*
X017602Y001635D01*
X017602Y001602D02*
X017151Y001602D01*
X017162Y001533D01*
X017187Y001458D01*
X017222Y001388D01*
X017269Y001324D01*
X017324Y001269D01*
X017388Y001222D01*
X017458Y001187D01*
X017533Y001162D01*
X017602Y001151D01*
X017602Y001602D01*
X017602Y001537D02*
X017698Y001537D01*
X017698Y001602D02*
X017698Y001151D01*
X017767Y001162D01*
X017842Y001187D01*
X017912Y001222D01*
X017976Y001269D01*
X018031Y001324D01*
X018078Y001388D01*
X018113Y001458D01*
X018138Y001533D01*
X018149Y001602D01*
X017698Y001602D01*
X017698Y001635D02*
X018602Y001635D01*
X018602Y001602D02*
X018151Y001602D01*
X018162Y001533D01*
X018187Y001458D01*
X018222Y001388D01*
X018269Y001324D01*
X018324Y001269D01*
X018388Y001222D01*
X018458Y001187D01*
X018533Y001162D01*
X018602Y001151D01*
X018602Y001602D01*
X018602Y001537D02*
X018698Y001537D01*
X018698Y001602D02*
X018698Y001151D01*
X018767Y001162D01*
X018842Y001187D01*
X018912Y001222D01*
X018976Y001269D01*
X019031Y001324D01*
X019078Y001388D01*
X019113Y001458D01*
X019138Y001533D01*
X019149Y001602D01*
X018698Y001602D01*
X018698Y001635D02*
X019602Y001635D01*
X019602Y001602D02*
X019151Y001602D01*
X019162Y001533D01*
X019187Y001458D01*
X019222Y001388D01*
X019269Y001324D01*
X019324Y001269D01*
X019388Y001222D01*
X019458Y001187D01*
X019533Y001162D01*
X019602Y001151D01*
X019602Y001602D01*
X019602Y001537D02*
X019698Y001537D01*
X019698Y001602D02*
X019698Y001151D01*
X019767Y001162D01*
X019842Y001187D01*
X019912Y001222D01*
X019976Y001269D01*
X020031Y001324D01*
X020078Y001388D01*
X020113Y001458D01*
X020138Y001533D01*
X020149Y001602D01*
X019698Y001602D01*
X019698Y001635D02*
X020602Y001635D01*
X020602Y001602D02*
X020151Y001602D01*
X020162Y001533D01*
X020187Y001458D01*
X020222Y001388D01*
X020269Y001324D01*
X020324Y001269D01*
X020388Y001222D01*
X020458Y001187D01*
X020533Y001162D01*
X020602Y001151D01*
X020602Y001602D01*
X020602Y001537D02*
X020698Y001537D01*
X020698Y001602D02*
X020698Y001151D01*
X020767Y001162D01*
X020842Y001187D01*
X020912Y001222D01*
X020976Y001269D01*
X021031Y001324D01*
X021078Y001388D01*
X021113Y001458D01*
X021138Y001533D01*
X021149Y001602D01*
X020698Y001602D01*
X020698Y001635D02*
X022597Y001635D01*
X022597Y001734D02*
X021143Y001734D01*
X021117Y001832D02*
X022597Y001832D01*
X022597Y001931D02*
X021064Y001931D01*
X020978Y002029D02*
X022629Y002029D01*
X022670Y002128D02*
X020798Y002128D01*
X020976Y002226D02*
X022711Y002226D01*
X022781Y002325D02*
X021074Y002325D01*
X021130Y002423D02*
X022879Y002423D01*
X022978Y002522D02*
X021170Y002522D01*
X021180Y002620D02*
X023215Y002620D01*
X023738Y002620D02*
X024400Y002620D01*
X024400Y002522D02*
X023976Y002522D01*
X024074Y002423D02*
X024400Y002423D01*
X024400Y002325D02*
X024173Y002325D01*
X024243Y002226D02*
X024400Y002226D01*
X024400Y002128D02*
X024284Y002128D01*
X024324Y002029D02*
X024400Y002029D01*
X024400Y001931D02*
X024357Y001931D01*
X024357Y001832D02*
X024400Y001832D01*
X024400Y001734D02*
X024357Y001734D01*
X024357Y001635D02*
X024399Y001635D01*
X024391Y001537D02*
X024330Y001537D01*
X024360Y001438D02*
X024289Y001438D01*
X024328Y001340D02*
X024248Y001340D01*
X024268Y001241D02*
X024186Y001241D01*
X024197Y001143D02*
X024088Y001143D01*
X024076Y001044D02*
X023989Y001044D01*
X023879Y000946D02*
X023771Y000946D01*
X023182Y000946D02*
X002118Y000946D01*
X002336Y001044D02*
X022964Y001044D01*
X022866Y001143D02*
X002434Y001143D01*
X002533Y001241D02*
X004050Y001241D01*
X004110Y001241D02*
X004190Y001241D01*
X004190Y001231D02*
X004248Y001240D01*
X004311Y001261D01*
X004370Y001291D01*
X004424Y001330D01*
X004470Y001376D01*
X004509Y001430D01*
X004539Y001489D01*
X004560Y001552D01*
X004569Y001610D01*
X004190Y001610D01*
X004190Y001231D01*
X004250Y001241D02*
X005362Y001241D01*
X005258Y001340D02*
X004433Y001340D01*
X004513Y001438D02*
X005197Y001438D01*
X005162Y001537D02*
X004555Y001537D01*
X004562Y001734D02*
X005157Y001734D01*
X005183Y001832D02*
X004529Y001832D01*
X004463Y001931D02*
X005236Y001931D01*
X005502Y002128D02*
X002630Y002128D01*
X002671Y002029D02*
X003969Y002029D01*
X003837Y001931D02*
X002703Y001931D01*
X002703Y001832D02*
X003771Y001832D01*
X003738Y001734D02*
X002703Y001734D01*
X002703Y001635D02*
X004110Y001635D01*
X004110Y001537D02*
X004190Y001537D01*
X004190Y001438D02*
X004110Y001438D01*
X004110Y001340D02*
X004190Y001340D01*
X003867Y001340D02*
X002595Y001340D01*
X002636Y001438D02*
X003787Y001438D01*
X003745Y001537D02*
X002676Y001537D01*
X000900Y002719D02*
X005120Y002719D01*
X005146Y002817D02*
X000900Y002817D01*
X000900Y002916D02*
X005186Y002916D01*
X005264Y003014D02*
X000900Y003014D01*
X000900Y003113D02*
X005382Y003113D01*
X005403Y003211D02*
X000900Y003211D01*
X000900Y003310D02*
X005283Y003310D01*
X005209Y003408D02*
X000900Y003408D01*
X000900Y003507D02*
X005168Y003507D01*
X005150Y003605D02*
X000900Y003605D01*
X000900Y003704D02*
X005150Y003704D01*
X005172Y003802D02*
X000900Y003802D01*
X000900Y003901D02*
X005213Y003901D01*
X005292Y003999D02*
X000900Y003999D01*
X000900Y004098D02*
X005424Y004098D01*
X005876Y004098D02*
X006424Y004098D01*
X006292Y003999D02*
X006008Y003999D01*
X006087Y003901D02*
X006213Y003901D01*
X006172Y003802D02*
X006128Y003802D01*
X006150Y003749D02*
X006150Y003551D01*
X006074Y003367D01*
X005933Y003226D01*
X005822Y003180D01*
X006478Y003180D01*
X006367Y003226D01*
X006226Y003367D01*
X006150Y003551D01*
X006150Y003749D01*
X006150Y003704D02*
X006150Y003704D01*
X006150Y003605D02*
X006150Y003605D01*
X006132Y003507D02*
X006168Y003507D01*
X006209Y003408D02*
X006091Y003408D01*
X006017Y003310D02*
X006283Y003310D01*
X006403Y003211D02*
X005897Y003211D01*
X006822Y003180D02*
X006933Y003226D01*
X007074Y003367D01*
X007150Y003551D01*
X007150Y003749D01*
X007150Y003551D01*
X007226Y003367D01*
X007367Y003226D01*
X007478Y003180D01*
X006822Y003180D01*
X006897Y003211D02*
X007403Y003211D01*
X007283Y003310D02*
X007017Y003310D01*
X007091Y003408D02*
X007209Y003408D01*
X007168Y003507D02*
X007132Y003507D01*
X007150Y003605D02*
X007150Y003605D01*
X007150Y003704D02*
X007150Y003704D01*
X007128Y003802D02*
X007172Y003802D01*
X007213Y003901D02*
X007087Y003901D01*
X007008Y003999D02*
X007292Y003999D01*
X007424Y004098D02*
X006876Y004098D01*
X007876Y004098D02*
X008185Y004098D01*
X008150Y003999D02*
X008008Y003999D01*
X008087Y003901D02*
X008150Y003901D01*
X008150Y003802D02*
X008128Y003802D01*
X008150Y003704D02*
X008150Y003704D01*
X008150Y003605D02*
X008150Y003605D01*
X008150Y003507D02*
X008132Y003507D01*
X008150Y003408D02*
X008091Y003408D01*
X008150Y003310D02*
X008017Y003310D01*
X007897Y003211D02*
X008177Y003211D01*
X009123Y003211D02*
X009403Y003211D01*
X009283Y003310D02*
X009150Y003310D01*
X009150Y003408D02*
X009209Y003408D01*
X009168Y003507D02*
X009150Y003507D01*
X009150Y003605D02*
X009150Y003605D01*
X009150Y003704D02*
X009150Y003704D01*
X009150Y003802D02*
X009172Y003802D01*
X009150Y003901D02*
X009213Y003901D01*
X009150Y003999D02*
X009292Y003999D01*
X009424Y004098D02*
X009115Y004098D01*
X009876Y004098D02*
X010424Y004098D01*
X010292Y003999D02*
X010008Y003999D01*
X010087Y003901D02*
X010213Y003901D01*
X010172Y003802D02*
X010128Y003802D01*
X010150Y003749D02*
X010150Y003551D01*
X010074Y003367D01*
X009933Y003226D01*
X009822Y003180D01*
X010478Y003180D01*
X010367Y003226D01*
X010226Y003367D01*
X010150Y003551D01*
X010150Y003749D01*
X010150Y003704D02*
X010150Y003704D01*
X010150Y003605D02*
X010150Y003605D01*
X010132Y003507D02*
X010168Y003507D01*
X010209Y003408D02*
X010091Y003408D01*
X010017Y003310D02*
X010283Y003310D01*
X010403Y003211D02*
X009897Y003211D01*
X010822Y003180D02*
X010933Y003226D01*
X011074Y003367D01*
X011150Y003551D01*
X011150Y003749D01*
X011150Y003551D01*
X011226Y003367D01*
X011367Y003226D01*
X011478Y003180D01*
X010822Y003180D01*
X010897Y003211D02*
X011403Y003211D01*
X011283Y003310D02*
X011017Y003310D01*
X011091Y003408D02*
X011209Y003408D01*
X011168Y003507D02*
X011132Y003507D01*
X011150Y003605D02*
X011150Y003605D01*
X011150Y003704D02*
X011150Y003704D01*
X011128Y003802D02*
X011172Y003802D01*
X011213Y003901D02*
X011087Y003901D01*
X011008Y003999D02*
X011292Y003999D01*
X011424Y004098D02*
X010876Y004098D01*
X011876Y004098D02*
X012185Y004098D01*
X012150Y003999D02*
X012008Y003999D01*
X012087Y003901D02*
X012150Y003901D01*
X012150Y003802D02*
X012128Y003802D01*
X012150Y003704D02*
X012150Y003704D01*
X012150Y003605D02*
X012150Y003605D01*
X012150Y003507D02*
X012132Y003507D01*
X012150Y003408D02*
X012091Y003408D01*
X012150Y003310D02*
X012017Y003310D01*
X011897Y003211D02*
X012177Y003211D01*
X012650Y003650D02*
X012650Y004650D01*
X012513Y004886D02*
X000900Y004886D01*
X000900Y004984D02*
X024400Y004984D01*
X024400Y004886D02*
X012787Y004886D01*
X012885Y004787D02*
X024400Y004787D01*
X024400Y004689D02*
X012920Y004689D01*
X012917Y004590D02*
X024400Y004590D01*
X024400Y004492D02*
X012873Y004492D01*
X012850Y004393D02*
X024400Y004393D01*
X024400Y004295D02*
X012850Y004295D01*
X012850Y004196D02*
X024400Y004196D01*
X024400Y004098D02*
X021115Y004098D01*
X021150Y003999D02*
X024400Y003999D01*
X024400Y003901D02*
X021150Y003901D01*
X021150Y003802D02*
X024400Y003802D01*
X024400Y003704D02*
X021150Y003704D01*
X021150Y003605D02*
X024400Y003605D01*
X024400Y003507D02*
X021150Y003507D01*
X021150Y003408D02*
X024400Y003408D01*
X024400Y003310D02*
X021150Y003310D01*
X021123Y003211D02*
X024400Y003211D01*
X024400Y003113D02*
X020918Y003113D01*
X021036Y003014D02*
X024400Y003014D01*
X024400Y002916D02*
X021114Y002916D01*
X021154Y002817D02*
X024400Y002817D01*
X024400Y002719D02*
X021180Y002719D01*
X020322Y002029D02*
X019978Y002029D01*
X020064Y001931D02*
X020236Y001931D01*
X020183Y001832D02*
X020117Y001832D01*
X020143Y001734D02*
X020157Y001734D01*
X020138Y001537D02*
X020162Y001537D01*
X020197Y001438D02*
X020103Y001438D01*
X020042Y001340D02*
X020258Y001340D01*
X020362Y001241D02*
X019938Y001241D01*
X019698Y001241D02*
X019602Y001241D01*
X019602Y001340D02*
X019698Y001340D01*
X019698Y001438D02*
X019602Y001438D01*
X019362Y001241D02*
X018938Y001241D01*
X019042Y001340D02*
X019258Y001340D01*
X019197Y001438D02*
X019103Y001438D01*
X019138Y001537D02*
X019162Y001537D01*
X019143Y001734D02*
X019157Y001734D01*
X019183Y001832D02*
X019117Y001832D01*
X019064Y001931D02*
X019236Y001931D01*
X019322Y002029D02*
X018978Y002029D01*
X018322Y002029D02*
X017978Y002029D01*
X018064Y001931D02*
X018236Y001931D01*
X018183Y001832D02*
X018117Y001832D01*
X018143Y001734D02*
X018157Y001734D01*
X018138Y001537D02*
X018162Y001537D01*
X018197Y001438D02*
X018103Y001438D01*
X018042Y001340D02*
X018258Y001340D01*
X018362Y001241D02*
X017938Y001241D01*
X017698Y001241D02*
X017602Y001241D01*
X017602Y001340D02*
X017698Y001340D01*
X017698Y001438D02*
X017602Y001438D01*
X017362Y001241D02*
X016938Y001241D01*
X017042Y001340D02*
X017258Y001340D01*
X017197Y001438D02*
X017103Y001438D01*
X017138Y001537D02*
X017162Y001537D01*
X017143Y001734D02*
X017157Y001734D01*
X017183Y001832D02*
X017117Y001832D01*
X017064Y001931D02*
X017236Y001931D01*
X017322Y002029D02*
X016978Y002029D01*
X016322Y002029D02*
X015978Y002029D01*
X016064Y001931D02*
X016236Y001931D01*
X016183Y001832D02*
X016117Y001832D01*
X016143Y001734D02*
X016157Y001734D01*
X016138Y001537D02*
X016162Y001537D01*
X016197Y001438D02*
X016103Y001438D01*
X016042Y001340D02*
X016258Y001340D01*
X016362Y001241D02*
X015938Y001241D01*
X015698Y001241D02*
X015602Y001241D01*
X015602Y001340D02*
X015698Y001340D01*
X015698Y001438D02*
X015602Y001438D01*
X015362Y001241D02*
X014938Y001241D01*
X015042Y001340D02*
X015258Y001340D01*
X015197Y001438D02*
X015103Y001438D01*
X015138Y001537D02*
X015162Y001537D01*
X015143Y001734D02*
X015157Y001734D01*
X015183Y001832D02*
X015117Y001832D01*
X015064Y001931D02*
X015236Y001931D01*
X015322Y002029D02*
X014978Y002029D01*
X014698Y001438D02*
X014602Y001438D01*
X014602Y001340D02*
X014698Y001340D01*
X014698Y001241D02*
X014602Y001241D01*
X014362Y001241D02*
X013938Y001241D01*
X014042Y001340D02*
X014258Y001340D01*
X014197Y001438D02*
X014103Y001438D01*
X014138Y001537D02*
X014162Y001537D01*
X014143Y001734D02*
X014157Y001734D01*
X014183Y001832D02*
X014117Y001832D01*
X014064Y001931D02*
X014236Y001931D01*
X014322Y002029D02*
X013978Y002029D01*
X013698Y001438D02*
X013602Y001438D01*
X013602Y001340D02*
X013698Y001340D01*
X013698Y001241D02*
X013602Y001241D01*
X013362Y001241D02*
X012938Y001241D01*
X013042Y001340D02*
X013258Y001340D01*
X013197Y001438D02*
X013103Y001438D01*
X013138Y001537D02*
X013162Y001537D01*
X013143Y001734D02*
X013157Y001734D01*
X013183Y001832D02*
X013117Y001832D01*
X013064Y001931D02*
X013236Y001931D01*
X013322Y002029D02*
X012978Y002029D01*
X012698Y001438D02*
X012602Y001438D01*
X012602Y001340D02*
X012698Y001340D01*
X012698Y001241D02*
X012602Y001241D01*
X012362Y001241D02*
X011938Y001241D01*
X012042Y001340D02*
X012258Y001340D01*
X012197Y001438D02*
X012103Y001438D01*
X012138Y001537D02*
X012162Y001537D01*
X012143Y001734D02*
X012157Y001734D01*
X012183Y001832D02*
X012117Y001832D01*
X012064Y001931D02*
X012236Y001931D01*
X012322Y002029D02*
X011978Y002029D01*
X011698Y001438D02*
X011602Y001438D01*
X011602Y001340D02*
X011698Y001340D01*
X011698Y001241D02*
X011602Y001241D01*
X011362Y001241D02*
X010938Y001241D01*
X011042Y001340D02*
X011258Y001340D01*
X011197Y001438D02*
X011103Y001438D01*
X011138Y001537D02*
X011162Y001537D01*
X011143Y001734D02*
X011157Y001734D01*
X011183Y001832D02*
X011117Y001832D01*
X011064Y001931D02*
X011236Y001931D01*
X011322Y002029D02*
X010978Y002029D01*
X010322Y002029D02*
X009978Y002029D01*
X010064Y001931D02*
X010236Y001931D01*
X010183Y001832D02*
X010117Y001832D01*
X010143Y001734D02*
X010157Y001734D01*
X010138Y001537D02*
X010162Y001537D01*
X010197Y001438D02*
X010103Y001438D01*
X010042Y001340D02*
X010258Y001340D01*
X010362Y001241D02*
X009938Y001241D01*
X009698Y001241D02*
X009602Y001241D01*
X009602Y001340D02*
X009698Y001340D01*
X009698Y001438D02*
X009602Y001438D01*
X009362Y001241D02*
X008938Y001241D01*
X009042Y001340D02*
X009258Y001340D01*
X009197Y001438D02*
X009103Y001438D01*
X009138Y001537D02*
X009162Y001537D01*
X009143Y001734D02*
X009157Y001734D01*
X009183Y001832D02*
X009117Y001832D01*
X009064Y001931D02*
X009236Y001931D01*
X009322Y002029D02*
X008978Y002029D01*
X008322Y002029D02*
X007978Y002029D01*
X008064Y001931D02*
X008236Y001931D01*
X008183Y001832D02*
X008117Y001832D01*
X008143Y001734D02*
X008157Y001734D01*
X008138Y001537D02*
X008162Y001537D01*
X008197Y001438D02*
X008103Y001438D01*
X008042Y001340D02*
X008258Y001340D01*
X008362Y001241D02*
X007938Y001241D01*
X007698Y001241D02*
X007602Y001241D01*
X007602Y001340D02*
X007698Y001340D01*
X007698Y001438D02*
X007602Y001438D01*
X007362Y001241D02*
X006938Y001241D01*
X007042Y001340D02*
X007258Y001340D01*
X007197Y001438D02*
X007103Y001438D01*
X007138Y001537D02*
X007162Y001537D01*
X007143Y001734D02*
X007157Y001734D01*
X007183Y001832D02*
X007117Y001832D01*
X007064Y001931D02*
X007236Y001931D01*
X007322Y002029D02*
X006978Y002029D01*
X006698Y001438D02*
X006602Y001438D01*
X006602Y001340D02*
X006698Y001340D01*
X006698Y001241D02*
X006602Y001241D01*
X006362Y001241D02*
X005938Y001241D01*
X006042Y001340D02*
X006258Y001340D01*
X006197Y001438D02*
X006103Y001438D01*
X006138Y001537D02*
X006162Y001537D01*
X006143Y001734D02*
X006157Y001734D01*
X006183Y001832D02*
X006117Y001832D01*
X006064Y001931D02*
X006236Y001931D01*
X006322Y002029D02*
X005978Y002029D01*
X005698Y001438D02*
X005602Y001438D01*
X005602Y001340D02*
X005698Y001340D01*
X005698Y001241D02*
X005602Y001241D01*
X008602Y001241D02*
X008698Y001241D01*
X008698Y001340D02*
X008602Y001340D01*
X008602Y001438D02*
X008698Y001438D01*
X010602Y001438D02*
X010698Y001438D01*
X010698Y001340D02*
X010602Y001340D01*
X010602Y001241D02*
X010698Y001241D01*
X013123Y003211D02*
X013403Y003211D01*
X013283Y003310D02*
X013150Y003310D01*
X013150Y003408D02*
X013209Y003408D01*
X013168Y003507D02*
X013150Y003507D01*
X013150Y003605D02*
X013150Y003605D01*
X013150Y003704D02*
X013150Y003704D01*
X013150Y003802D02*
X013172Y003802D01*
X013150Y003901D02*
X013213Y003901D01*
X013150Y003999D02*
X013292Y003999D01*
X013424Y004098D02*
X013115Y004098D01*
X012450Y004196D02*
X000900Y004196D01*
X000900Y004295D02*
X012450Y004295D01*
X012450Y004393D02*
X000900Y004393D01*
X000900Y004492D02*
X012427Y004492D01*
X012383Y004590D02*
X000900Y004590D01*
X000900Y004689D02*
X012380Y004689D01*
X012415Y004787D02*
X000900Y004787D01*
X000900Y005083D02*
X024400Y005083D01*
X024400Y005181D02*
X000900Y005181D01*
X000900Y005280D02*
X024400Y005280D01*
X024400Y005378D02*
X000900Y005378D01*
X000900Y005477D02*
X005692Y005477D01*
X005671Y005497D02*
X005747Y005421D01*
X005846Y005380D01*
X005954Y005380D01*
X006053Y005421D01*
X006129Y005497D01*
X006170Y005596D01*
X006170Y005704D01*
X006131Y005797D01*
X006221Y005760D01*
X006329Y005760D01*
X006425Y005800D01*
X008125Y005800D01*
X008630Y006305D01*
X008630Y007430D01*
X008955Y007754D01*
X008955Y007251D01*
X008971Y007235D01*
X008955Y007218D01*
X008955Y007170D01*
X008954Y007170D01*
X008846Y007170D01*
X008747Y007129D01*
X008671Y007053D01*
X008630Y006954D01*
X008630Y006954D01*
X008630Y006846D01*
X008671Y006747D01*
X008747Y006671D01*
X008846Y006630D01*
X008954Y006630D01*
X008955Y006630D01*
X008955Y006582D01*
X008975Y006562D01*
X008965Y006545D01*
X008955Y006506D01*
X008955Y006281D01*
X009236Y006281D01*
X009317Y006200D01*
X009350Y006200D01*
X009350Y006181D01*
X008955Y006181D01*
X008955Y005955D01*
X008965Y005917D01*
X008985Y005883D01*
X009013Y005855D01*
X009047Y005835D01*
X009085Y005825D01*
X009350Y005825D01*
X009350Y006181D01*
X009450Y006181D01*
X009450Y006200D01*
X009483Y006200D01*
X009564Y006281D01*
X009845Y006281D01*
X009845Y006506D01*
X009835Y006545D01*
X009825Y006562D01*
X009845Y006582D01*
X009845Y007218D01*
X009829Y007235D01*
X009845Y007251D01*
X009845Y007339D01*
X010205Y007339D01*
X010205Y007251D01*
X010221Y007235D01*
X010205Y007218D01*
X010205Y007170D01*
X010204Y007170D01*
X010096Y007170D01*
X009997Y007129D01*
X009921Y007053D01*
X009880Y006954D01*
X009845Y006954D01*
X009880Y006954D02*
X009880Y006846D01*
X009921Y006747D01*
X009997Y006671D01*
X010096Y006630D01*
X010204Y006630D01*
X010205Y006630D01*
X010205Y006582D01*
X010225Y006562D01*
X010215Y006545D01*
X010205Y006506D01*
X010205Y006281D01*
X010486Y006281D01*
X010567Y006200D01*
X010600Y006200D01*
X010600Y006181D01*
X010205Y006181D01*
X010205Y005955D01*
X010215Y005917D01*
X010235Y005883D01*
X010263Y005855D01*
X010297Y005835D01*
X010335Y005825D01*
X010600Y005825D01*
X010600Y006181D01*
X010700Y006181D01*
X010700Y006200D01*
X010733Y006200D01*
X010814Y006281D01*
X011095Y006281D01*
X011095Y006506D01*
X011085Y006545D01*
X011075Y006562D01*
X011095Y006582D01*
X011095Y007218D01*
X011079Y007235D01*
X011095Y007251D01*
X011095Y007339D01*
X011455Y007339D01*
X011455Y007251D01*
X011471Y007235D01*
X011455Y007218D01*
X011455Y007170D01*
X011454Y007170D01*
X011346Y007170D01*
X011247Y007129D01*
X011171Y007053D01*
X011130Y006954D01*
X011095Y006954D01*
X011130Y006954D02*
X011130Y006846D01*
X011171Y006747D01*
X011247Y006671D01*
X011346Y006630D01*
X011454Y006630D01*
X011455Y006630D01*
X011455Y006582D01*
X011475Y006562D01*
X011465Y006545D01*
X011455Y006506D01*
X011455Y006281D01*
X011736Y006281D01*
X011817Y006200D01*
X011850Y006200D01*
X011850Y006181D01*
X011455Y006181D01*
X011455Y005955D01*
X011465Y005917D01*
X011485Y005883D01*
X011513Y005855D01*
X011547Y005835D01*
X011585Y005825D01*
X011850Y005825D01*
X011850Y006181D01*
X011950Y006181D01*
X011950Y006200D01*
X011983Y006200D01*
X012064Y006281D01*
X012345Y006281D01*
X012345Y006506D01*
X012335Y006545D01*
X012325Y006562D01*
X012345Y006582D01*
X012345Y007218D01*
X012329Y007235D01*
X012345Y007251D01*
X012345Y007339D01*
X012457Y007339D01*
X012421Y007303D01*
X012380Y007204D01*
X012380Y007096D01*
X012421Y006997D01*
X012497Y006921D01*
X012596Y006880D01*
X012637Y006880D01*
X012692Y006825D01*
X012705Y006825D01*
X012705Y006582D01*
X012725Y006562D01*
X012715Y006545D01*
X012705Y006506D01*
X012705Y006281D01*
X012986Y006281D01*
X013067Y006200D01*
X013100Y006200D01*
X013100Y006181D01*
X012705Y006181D01*
X012705Y005955D01*
X012715Y005917D01*
X012735Y005883D01*
X012763Y005855D01*
X012797Y005835D01*
X012835Y005825D01*
X013100Y005825D01*
X013100Y006181D01*
X013200Y006181D01*
X013200Y006200D01*
X013233Y006200D01*
X013314Y006281D01*
X013595Y006281D01*
X013595Y006506D01*
X013585Y006545D01*
X013575Y006562D01*
X013595Y006582D01*
X013595Y007218D01*
X013579Y007235D01*
X013595Y007251D01*
X013595Y007339D01*
X013955Y007339D01*
X013955Y007251D01*
X013971Y007235D01*
X013955Y007218D01*
X013955Y007170D01*
X013954Y007170D01*
X013846Y007170D01*
X013747Y007129D01*
X013671Y007053D01*
X013630Y006954D01*
X013595Y006954D01*
X013630Y006954D02*
X013630Y006846D01*
X013671Y006747D01*
X013747Y006671D01*
X013846Y006630D01*
X013954Y006630D01*
X013955Y006630D01*
X013955Y006582D01*
X013975Y006562D01*
X013965Y006545D01*
X013955Y006506D01*
X013955Y006281D01*
X014236Y006281D01*
X014317Y006200D01*
X014350Y006200D01*
X014350Y006181D01*
X013955Y006181D01*
X013955Y005955D01*
X013965Y005917D01*
X013985Y005883D01*
X014013Y005855D01*
X014047Y005835D01*
X014085Y005825D01*
X014350Y005825D01*
X014350Y006181D01*
X014450Y006181D01*
X014450Y006200D01*
X014483Y006200D01*
X014564Y006281D01*
X014845Y006281D01*
X014845Y006506D01*
X014835Y006545D01*
X014825Y006562D01*
X014845Y006582D01*
X014845Y007218D01*
X014829Y007235D01*
X014845Y007251D01*
X014845Y007339D01*
X015205Y007339D01*
X015205Y007251D01*
X015221Y007235D01*
X015205Y007218D01*
X015205Y007170D01*
X015204Y007170D01*
X015096Y007170D01*
X014997Y007129D01*
X014921Y007053D01*
X014880Y006954D01*
X014845Y006954D01*
X014880Y006954D02*
X014880Y006846D01*
X014921Y006747D01*
X014997Y006671D01*
X015096Y006630D01*
X015204Y006630D01*
X015205Y006630D01*
X015205Y006582D01*
X015225Y006562D01*
X015215Y006545D01*
X015205Y006506D01*
X015205Y006281D01*
X015486Y006281D01*
X015567Y006200D01*
X015600Y006200D01*
X015600Y006181D01*
X015205Y006181D01*
X015205Y005955D01*
X015215Y005917D01*
X015235Y005883D01*
X015263Y005855D01*
X015297Y005835D01*
X015335Y005825D01*
X015600Y005825D01*
X015600Y006181D01*
X015700Y006181D01*
X015700Y006200D01*
X015733Y006200D01*
X015814Y006281D01*
X016095Y006281D01*
X016095Y006506D01*
X016085Y006545D01*
X016075Y006562D01*
X016095Y006582D01*
X016095Y007218D01*
X016079Y007235D01*
X016095Y007251D01*
X016095Y007339D01*
X016415Y007339D01*
X016456Y007381D01*
X016553Y007421D01*
X016629Y007497D01*
X016670Y007596D01*
X016670Y007704D01*
X016629Y007803D01*
X016553Y007879D01*
X016454Y007920D01*
X016346Y007920D01*
X016247Y007879D01*
X016171Y007803D01*
X016170Y007799D01*
X016095Y007799D01*
X016095Y007887D01*
X016033Y007950D01*
X017567Y007950D01*
X019630Y005887D01*
X019630Y005846D01*
X019671Y005747D01*
X019747Y005671D01*
X019846Y005630D01*
X019954Y005630D01*
X020053Y005671D01*
X020129Y005747D01*
X020170Y005846D01*
X020170Y005954D01*
X020129Y006053D01*
X020053Y006129D01*
X019954Y006170D01*
X019913Y006170D01*
X017733Y008350D01*
X013233Y008350D01*
X013203Y008380D01*
X013204Y008380D01*
X013303Y008421D01*
X013379Y008497D01*
X013400Y008548D01*
X013421Y008497D01*
X013497Y008421D01*
X013596Y008380D01*
X013704Y008380D01*
X013803Y008421D01*
X013879Y008497D01*
X013920Y008596D01*
X013920Y008704D01*
X013879Y008803D01*
X013850Y008832D01*
X013850Y010733D01*
X009350Y015233D01*
X009350Y015718D01*
X009379Y015747D01*
X009420Y015846D01*
X009420Y015954D01*
X009379Y016053D01*
X009350Y016082D01*
X009350Y016567D01*
X009733Y016950D01*
X010920Y016950D01*
X010920Y016601D01*
X010891Y016601D01*
X010803Y016513D01*
X010803Y015956D01*
X010859Y015900D01*
X010803Y015844D01*
X010803Y015287D01*
X010891Y015199D01*
X011409Y015199D01*
X011497Y015287D01*
X011497Y015335D01*
X011803Y015335D01*
X011803Y015287D01*
X011891Y015199D01*
X012409Y015199D01*
X012497Y015287D01*
X012497Y015335D01*
X012899Y015335D01*
X012923Y015311D01*
X012923Y015311D01*
X015282Y012953D01*
X015298Y012914D01*
X015414Y012798D01*
X015453Y012782D01*
X017250Y010984D01*
X017250Y009771D01*
X017234Y009733D01*
X017234Y009567D01*
X017298Y009414D01*
X017414Y009298D01*
X017567Y009234D01*
X017733Y009234D01*
X017886Y009298D01*
X018002Y009414D01*
X018066Y009567D01*
X018066Y009733D01*
X018050Y009771D01*
X018050Y010875D01*
X018605Y010875D01*
X018752Y010936D01*
X018864Y011048D01*
X019739Y011923D01*
X019800Y012070D01*
X019800Y012230D01*
X019739Y012377D01*
X019627Y012489D01*
X019480Y012550D01*
X019320Y012550D01*
X019173Y012489D01*
X018359Y011675D01*
X017691Y011675D01*
X016018Y013347D01*
X016002Y013386D01*
X015886Y013502D01*
X015847Y013518D01*
X013550Y015816D01*
X013550Y017529D01*
X013566Y017567D01*
X013566Y017733D01*
X013502Y017886D01*
X013386Y018002D01*
X013233Y018066D01*
X013067Y018066D01*
X012914Y018002D01*
X012798Y017886D01*
X012734Y017733D01*
X012734Y017567D01*
X012750Y017529D01*
X012750Y015795D01*
X012497Y015795D01*
X012497Y015844D01*
X012441Y015900D01*
X012497Y015956D01*
X012497Y016513D01*
X012409Y016601D01*
X012380Y016601D01*
X012380Y017295D01*
X012386Y017298D01*
X012502Y017414D01*
X012566Y017567D01*
X012566Y017733D01*
X012502Y017886D01*
X012386Y018002D01*
X012291Y018041D01*
X012100Y018233D01*
X011983Y018350D01*
X009317Y018350D01*
X009200Y018233D01*
X009200Y018233D01*
X008620Y017653D01*
X008503Y017536D01*
X008503Y015350D01*
X006416Y015350D01*
X006356Y015410D01*
X006257Y015451D01*
X006149Y015451D01*
X006050Y015410D01*
X005974Y015334D01*
X005933Y015235D01*
X005933Y015128D01*
X005945Y015100D01*
X005608Y015100D01*
X005536Y015172D01*
X005536Y015235D01*
X005495Y015334D01*
X005419Y015410D01*
X005320Y015451D01*
X005212Y015451D01*
X005113Y015410D01*
X005037Y015334D01*
X005003Y015252D01*
X004991Y015262D01*
X004965Y015325D01*
X004878Y015411D01*
X004764Y015458D01*
X004642Y015458D01*
X004528Y015411D01*
X004442Y015325D01*
X004395Y015211D01*
X004395Y015089D01*
X004442Y014975D01*
X004465Y014951D01*
X004399Y014951D01*
X004300Y014910D01*
X004224Y014834D01*
X003328Y014834D01*
X003328Y014736D02*
X004183Y014736D01*
X004183Y014735D02*
X004183Y014628D01*
X004224Y014529D01*
X004300Y014453D01*
X004325Y014442D01*
X004700Y014067D01*
X004817Y013950D01*
X007942Y013950D01*
X010067Y011825D01*
X011192Y011825D01*
X012450Y010567D01*
X012450Y008567D01*
X013042Y007975D01*
X012793Y007975D01*
X012705Y007887D01*
X012705Y007799D01*
X012345Y007799D01*
X012345Y007887D01*
X012257Y007975D01*
X011543Y007975D01*
X011455Y007887D01*
X011455Y007799D01*
X011095Y007799D01*
X011095Y007887D01*
X011007Y007975D01*
X010293Y007975D01*
X010205Y007887D01*
X010205Y007799D01*
X009845Y007799D01*
X009845Y007887D01*
X009757Y007975D01*
X009175Y007975D01*
X009870Y008670D01*
X010960Y008670D01*
X011057Y008630D01*
X011164Y008630D01*
X011264Y008671D01*
X011340Y008747D01*
X011381Y008846D01*
X011381Y008954D01*
X011340Y009053D01*
X011264Y009129D01*
X011164Y009170D01*
X011057Y009170D01*
X010960Y009130D01*
X009680Y009130D01*
X008305Y007755D01*
X008170Y007620D01*
X008170Y006495D01*
X008170Y006538D01*
X008129Y006638D01*
X008053Y006714D01*
X007954Y006755D01*
X007936Y006755D01*
X007903Y006794D01*
X007903Y012218D01*
X007932Y012247D01*
X007973Y012346D01*
X007973Y012454D01*
X007932Y012553D01*
X007856Y012629D01*
X007757Y012670D01*
X007649Y012670D01*
X007550Y012629D01*
X007474Y012553D01*
X007433Y012454D01*
X007433Y012346D01*
X007474Y012247D01*
X007503Y012218D01*
X007503Y006731D01*
X007496Y006658D01*
X007503Y006650D01*
X007503Y006639D01*
X007555Y006587D01*
X007630Y006497D01*
X007630Y006431D01*
X007671Y006332D01*
X007743Y006260D01*
X006425Y006260D01*
X006362Y006286D01*
X006495Y006420D01*
X006745Y006420D01*
X007081Y006756D01*
X007178Y006796D01*
X007254Y006872D01*
X007295Y006971D01*
X007295Y007079D01*
X007254Y007178D01*
X007178Y007254D01*
X007079Y007295D01*
X006971Y007295D01*
X006872Y007254D01*
X006796Y007178D01*
X006756Y007081D01*
X006555Y006880D01*
X006305Y006880D01*
X006170Y006745D01*
X005670Y006245D01*
X005670Y005800D01*
X005630Y005704D01*
X005630Y005596D01*
X005671Y005497D01*
X005639Y005575D02*
X000900Y005575D01*
X000900Y005674D02*
X005630Y005674D01*
X005658Y005772D02*
X000900Y005772D01*
X000900Y005871D02*
X005670Y005871D01*
X005670Y005969D02*
X000900Y005969D01*
X000900Y006068D02*
X005670Y006068D01*
X005670Y006166D02*
X000900Y006166D01*
X000900Y006265D02*
X005689Y006265D01*
X005788Y006363D02*
X000900Y006363D01*
X000900Y006462D02*
X005886Y006462D01*
X005985Y006560D02*
X000900Y006560D01*
X000900Y006659D02*
X006083Y006659D01*
X006182Y006757D02*
X000900Y006757D01*
X000900Y006856D02*
X006280Y006856D01*
X006629Y006954D02*
X000900Y006954D01*
X000900Y007053D02*
X006727Y007053D01*
X006785Y007151D02*
X000900Y007151D01*
X000900Y007250D02*
X006868Y007250D01*
X007182Y007250D02*
X007503Y007250D01*
X007503Y007348D02*
X000900Y007348D01*
X000900Y007447D02*
X007503Y007447D01*
X007503Y007545D02*
X000900Y007545D01*
X000900Y007644D02*
X007503Y007644D01*
X007503Y007742D02*
X000900Y007742D01*
X000900Y007841D02*
X007503Y007841D01*
X007503Y007939D02*
X006821Y007939D01*
X006803Y007921D02*
X006879Y007997D01*
X006920Y008096D01*
X006920Y008204D01*
X006879Y008303D01*
X006803Y008379D01*
X006704Y008420D01*
X006663Y008420D01*
X004975Y010108D01*
X004975Y011468D01*
X005004Y011497D01*
X005045Y011596D01*
X005045Y011704D01*
X005004Y011803D01*
X004928Y011879D01*
X004829Y011920D01*
X004721Y011920D01*
X004622Y011879D01*
X004546Y011803D01*
X004505Y011704D01*
X004505Y011596D01*
X004546Y011497D01*
X004575Y011468D01*
X004575Y009942D01*
X006380Y008137D01*
X006380Y008096D01*
X006421Y007997D01*
X006497Y007921D01*
X006596Y007880D01*
X006704Y007880D01*
X006803Y007921D01*
X006896Y008038D02*
X007503Y008038D01*
X007503Y008136D02*
X006920Y008136D01*
X006907Y008235D02*
X007503Y008235D01*
X007503Y008333D02*
X006849Y008333D01*
X006651Y008432D02*
X007503Y008432D01*
X007503Y008530D02*
X006553Y008530D01*
X006454Y008629D02*
X007503Y008629D01*
X007503Y008727D02*
X006356Y008727D01*
X006257Y008826D02*
X007503Y008826D01*
X007503Y008924D02*
X006159Y008924D01*
X006060Y009023D02*
X007503Y009023D01*
X007503Y009121D02*
X005962Y009121D01*
X005863Y009220D02*
X007503Y009220D01*
X007503Y009318D02*
X005765Y009318D01*
X005666Y009417D02*
X007503Y009417D01*
X007503Y009515D02*
X005568Y009515D01*
X005469Y009614D02*
X007503Y009614D01*
X007503Y009712D02*
X005371Y009712D01*
X005272Y009811D02*
X007503Y009811D01*
X007503Y009909D02*
X005174Y009909D01*
X005075Y010008D02*
X007503Y010008D01*
X007503Y010106D02*
X004977Y010106D01*
X004975Y010205D02*
X007503Y010205D01*
X007503Y010303D02*
X004975Y010303D01*
X004975Y010402D02*
X007503Y010402D01*
X007503Y010500D02*
X004975Y010500D01*
X004975Y010599D02*
X007503Y010599D01*
X007503Y010697D02*
X004975Y010697D01*
X004975Y010796D02*
X007503Y010796D01*
X007503Y010894D02*
X004975Y010894D01*
X004975Y010993D02*
X007503Y010993D01*
X007503Y011091D02*
X004975Y011091D01*
X004975Y011190D02*
X007503Y011190D01*
X007503Y011288D02*
X004975Y011288D01*
X004975Y011387D02*
X007503Y011387D01*
X007503Y011485D02*
X004992Y011485D01*
X005040Y011584D02*
X007503Y011584D01*
X007503Y011682D02*
X005045Y011682D01*
X005013Y011781D02*
X007503Y011781D01*
X007503Y011879D02*
X004928Y011879D01*
X004775Y011650D02*
X004775Y010025D01*
X006650Y008150D01*
X006404Y008038D02*
X000900Y008038D01*
X000900Y008136D02*
X006380Y008136D01*
X006283Y008235D02*
X000900Y008235D01*
X000900Y008333D02*
X006184Y008333D01*
X006086Y008432D02*
X000900Y008432D01*
X000900Y008530D02*
X005987Y008530D01*
X005889Y008629D02*
X003083Y008629D01*
X003163Y008727D02*
X005790Y008727D01*
X005692Y008826D02*
X003242Y008826D01*
X003322Y008924D02*
X005593Y008924D01*
X005495Y009023D02*
X003328Y009023D01*
X003328Y009121D02*
X005396Y009121D01*
X005298Y009220D02*
X003328Y009220D01*
X003328Y009318D02*
X005199Y009318D01*
X005101Y009417D02*
X003328Y009417D01*
X003328Y009515D02*
X005002Y009515D01*
X004904Y009614D02*
X003328Y009614D01*
X003328Y009712D02*
X004805Y009712D01*
X004707Y009811D02*
X003328Y009811D01*
X003328Y009909D02*
X004608Y009909D01*
X004575Y010008D02*
X003328Y010008D01*
X003328Y010106D02*
X004575Y010106D01*
X004575Y010205D02*
X003328Y010205D01*
X003328Y010303D02*
X004575Y010303D01*
X004575Y010402D02*
X003328Y010402D01*
X003328Y010500D02*
X004575Y010500D01*
X004575Y010599D02*
X003328Y010599D01*
X003328Y010697D02*
X004575Y010697D01*
X004575Y010796D02*
X003328Y010796D01*
X003328Y010894D02*
X004575Y010894D01*
X004575Y010993D02*
X003328Y010993D01*
X003328Y011091D02*
X004575Y011091D01*
X004575Y011190D02*
X003328Y011190D01*
X003328Y011288D02*
X004575Y011288D01*
X004575Y011387D02*
X003328Y011387D01*
X003328Y011485D02*
X004558Y011485D01*
X004510Y011584D02*
X003328Y011584D01*
X003328Y011682D02*
X004505Y011682D01*
X004537Y011781D02*
X003328Y011781D01*
X003328Y011879D02*
X004622Y011879D01*
X003328Y011978D02*
X007503Y011978D01*
X007503Y012076D02*
X003328Y012076D01*
X003328Y012175D02*
X007503Y012175D01*
X007463Y012273D02*
X003328Y012273D01*
X003328Y012372D02*
X007433Y012372D01*
X007440Y012470D02*
X003328Y012470D01*
X003328Y012569D02*
X007490Y012569D01*
X007642Y012667D02*
X003328Y012667D01*
X003328Y012766D02*
X009127Y012766D01*
X009028Y012864D02*
X003328Y012864D01*
X003328Y012963D02*
X008930Y012963D01*
X008831Y013061D02*
X003328Y013061D01*
X003328Y013160D02*
X008733Y013160D01*
X008634Y013258D02*
X003328Y013258D01*
X003328Y013357D02*
X008536Y013357D01*
X008437Y013455D02*
X003328Y013455D01*
X003328Y013554D02*
X008339Y013554D01*
X008240Y013652D02*
X003328Y013652D01*
X003328Y013751D02*
X008142Y013751D01*
X008043Y013849D02*
X003328Y013849D01*
X003328Y013948D02*
X007945Y013948D01*
X008025Y014150D02*
X010150Y012025D01*
X011275Y012025D01*
X012650Y010650D01*
X012650Y008650D01*
X013150Y008150D01*
X017650Y008150D01*
X019900Y005900D01*
X020139Y005772D02*
X024400Y005772D01*
X024400Y005674D02*
X020055Y005674D01*
X020170Y005871D02*
X024400Y005871D01*
X024400Y005969D02*
X020164Y005969D01*
X020114Y006068D02*
X024400Y006068D01*
X024400Y006166D02*
X019963Y006166D01*
X019818Y006265D02*
X024400Y006265D01*
X024400Y006363D02*
X019720Y006363D01*
X019621Y006462D02*
X024400Y006462D01*
X024400Y006560D02*
X019523Y006560D01*
X019424Y006659D02*
X024400Y006659D01*
X024400Y006757D02*
X019326Y006757D01*
X019227Y006856D02*
X024400Y006856D01*
X024400Y006954D02*
X019129Y006954D01*
X019030Y007053D02*
X024400Y007053D01*
X024400Y007151D02*
X018932Y007151D01*
X018833Y007250D02*
X024400Y007250D01*
X024400Y007348D02*
X018735Y007348D01*
X018636Y007447D02*
X024400Y007447D01*
X024400Y007545D02*
X018538Y007545D01*
X018439Y007644D02*
X024400Y007644D01*
X024400Y007742D02*
X018341Y007742D01*
X018242Y007841D02*
X024400Y007841D01*
X024400Y007939D02*
X018144Y007939D01*
X018045Y008038D02*
X024400Y008038D01*
X024400Y008136D02*
X017947Y008136D01*
X017848Y008235D02*
X024400Y008235D01*
X024400Y008333D02*
X017750Y008333D01*
X017578Y007939D02*
X016044Y007939D01*
X016095Y007841D02*
X016209Y007841D01*
X016591Y007841D02*
X017677Y007841D01*
X017775Y007742D02*
X016654Y007742D01*
X016670Y007644D02*
X017874Y007644D01*
X017972Y007545D02*
X016649Y007545D01*
X016578Y007447D02*
X018071Y007447D01*
X018169Y007348D02*
X016423Y007348D01*
X016094Y007250D02*
X018268Y007250D01*
X018366Y007151D02*
X016095Y007151D01*
X016095Y007053D02*
X018465Y007053D01*
X018563Y006954D02*
X016095Y006954D01*
X016095Y006856D02*
X018662Y006856D01*
X018760Y006757D02*
X016095Y006757D01*
X016095Y006659D02*
X018859Y006659D01*
X018957Y006560D02*
X016076Y006560D01*
X016095Y006462D02*
X019056Y006462D01*
X019154Y006363D02*
X016095Y006363D01*
X016095Y006181D02*
X015700Y006181D01*
X015700Y005825D01*
X015965Y005825D01*
X016003Y005835D01*
X016037Y005855D01*
X016065Y005883D01*
X016085Y005917D01*
X016095Y005955D01*
X016095Y006181D01*
X016095Y006166D02*
X019351Y006166D01*
X019253Y006265D02*
X015797Y006265D01*
X015700Y006166D02*
X015600Y006166D01*
X015600Y006068D02*
X015700Y006068D01*
X015700Y005969D02*
X015600Y005969D01*
X015600Y005871D02*
X015700Y005871D01*
X015247Y005871D02*
X014803Y005871D01*
X014815Y005883D02*
X014835Y005917D01*
X014845Y005955D01*
X014845Y006181D01*
X014450Y006181D01*
X014450Y005825D01*
X014715Y005825D01*
X014753Y005835D01*
X014787Y005855D01*
X014815Y005883D01*
X014845Y005969D02*
X015205Y005969D01*
X015205Y006068D02*
X014845Y006068D01*
X014845Y006166D02*
X015205Y006166D01*
X015205Y006363D02*
X014845Y006363D01*
X014845Y006462D02*
X015205Y006462D01*
X015224Y006560D02*
X014826Y006560D01*
X014845Y006659D02*
X015027Y006659D01*
X014917Y006757D02*
X014845Y006757D01*
X014845Y006856D02*
X014880Y006856D01*
X014845Y007053D02*
X014921Y007053D01*
X014845Y007151D02*
X015050Y007151D01*
X015206Y007250D02*
X014844Y007250D01*
X015150Y006900D02*
X015650Y006900D01*
X015650Y006400D01*
X015503Y006265D02*
X014547Y006265D01*
X014450Y006166D02*
X014350Y006166D01*
X014350Y006068D02*
X014450Y006068D01*
X014450Y005969D02*
X014350Y005969D01*
X014350Y005871D02*
X014450Y005871D01*
X014253Y006265D02*
X013297Y006265D01*
X013200Y006181D02*
X013595Y006181D01*
X013595Y005955D01*
X013585Y005917D01*
X013565Y005883D01*
X013537Y005855D01*
X013503Y005835D01*
X013465Y005825D01*
X013200Y005825D01*
X013200Y006181D01*
X013200Y006166D02*
X013100Y006166D01*
X013100Y006068D02*
X013200Y006068D01*
X013200Y005969D02*
X013100Y005969D01*
X013100Y005871D02*
X013200Y005871D01*
X013553Y005871D02*
X013997Y005871D01*
X013955Y005969D02*
X013595Y005969D01*
X013595Y006068D02*
X013955Y006068D01*
X013955Y006166D02*
X013595Y006166D01*
X013595Y006363D02*
X013955Y006363D01*
X013955Y006462D02*
X013595Y006462D01*
X013576Y006560D02*
X013974Y006560D01*
X013777Y006659D02*
X013595Y006659D01*
X013595Y006757D02*
X013667Y006757D01*
X013630Y006856D02*
X013595Y006856D01*
X013595Y007053D02*
X013671Y007053D01*
X013595Y007151D02*
X013800Y007151D01*
X013956Y007250D02*
X013594Y007250D01*
X013900Y006900D02*
X014400Y006900D01*
X014400Y006400D01*
X013150Y006400D02*
X013150Y006900D01*
X013025Y007025D01*
X012775Y007025D01*
X012650Y007150D01*
X012399Y007250D02*
X012344Y007250D01*
X012345Y007151D02*
X012380Y007151D01*
X012398Y007053D02*
X012345Y007053D01*
X012345Y006954D02*
X012464Y006954D01*
X012345Y006856D02*
X012662Y006856D01*
X012705Y006757D02*
X012345Y006757D01*
X012345Y006659D02*
X012705Y006659D01*
X012724Y006560D02*
X012326Y006560D01*
X012345Y006462D02*
X012705Y006462D01*
X012705Y006363D02*
X012345Y006363D01*
X012345Y006181D02*
X011950Y006181D01*
X011950Y005825D01*
X012215Y005825D01*
X012253Y005835D01*
X012287Y005855D01*
X012315Y005883D01*
X012335Y005917D01*
X012345Y005955D01*
X012345Y006181D01*
X012345Y006166D02*
X012705Y006166D01*
X012705Y006068D02*
X012345Y006068D01*
X012345Y005969D02*
X012705Y005969D01*
X012747Y005871D02*
X012303Y005871D01*
X011950Y005871D02*
X011850Y005871D01*
X011850Y005969D02*
X011950Y005969D01*
X011950Y006068D02*
X011850Y006068D01*
X011850Y006166D02*
X011950Y006166D01*
X012047Y006265D02*
X013003Y006265D01*
X011900Y006400D02*
X011900Y006900D01*
X011400Y006900D01*
X011300Y007151D02*
X011095Y007151D01*
X011095Y007053D02*
X011171Y007053D01*
X011130Y006856D02*
X011095Y006856D01*
X011095Y006757D02*
X011167Y006757D01*
X011095Y006659D02*
X011277Y006659D01*
X011474Y006560D02*
X011076Y006560D01*
X011095Y006462D02*
X011455Y006462D01*
X011455Y006363D02*
X011095Y006363D01*
X011095Y006181D02*
X010700Y006181D01*
X010700Y005825D01*
X010965Y005825D01*
X011003Y005835D01*
X011037Y005855D01*
X011065Y005883D01*
X011085Y005917D01*
X011095Y005955D01*
X011095Y006181D01*
X011095Y006166D02*
X011455Y006166D01*
X011455Y006068D02*
X011095Y006068D01*
X011095Y005969D02*
X011455Y005969D01*
X011497Y005871D02*
X011053Y005871D01*
X010700Y005871D02*
X010600Y005871D01*
X010600Y005969D02*
X010700Y005969D01*
X010700Y006068D02*
X010600Y006068D01*
X010600Y006166D02*
X010700Y006166D01*
X010797Y006265D02*
X011753Y006265D01*
X011456Y007250D02*
X011094Y007250D01*
X010650Y006900D02*
X010150Y006900D01*
X010050Y007151D02*
X009845Y007151D01*
X009845Y007053D02*
X009921Y007053D01*
X009880Y006856D02*
X009845Y006856D01*
X009845Y006757D02*
X009917Y006757D01*
X009845Y006659D02*
X010027Y006659D01*
X010224Y006560D02*
X009826Y006560D01*
X009845Y006462D02*
X010205Y006462D01*
X010205Y006363D02*
X009845Y006363D01*
X009845Y006181D02*
X009450Y006181D01*
X009450Y005825D01*
X009715Y005825D01*
X009753Y005835D01*
X009787Y005855D01*
X009815Y005883D01*
X009835Y005917D01*
X009845Y005955D01*
X009845Y006181D01*
X009845Y006166D02*
X010205Y006166D01*
X010205Y006068D02*
X009845Y006068D01*
X009845Y005969D02*
X010205Y005969D01*
X010247Y005871D02*
X009803Y005871D01*
X009450Y005871D02*
X009350Y005871D01*
X009350Y005969D02*
X009450Y005969D01*
X009450Y006068D02*
X009350Y006068D01*
X009350Y006166D02*
X009450Y006166D01*
X009547Y006265D02*
X010503Y006265D01*
X010650Y006400D02*
X010650Y006900D01*
X010206Y007250D02*
X009844Y007250D01*
X009400Y006900D02*
X008900Y006900D01*
X008800Y007151D02*
X008630Y007151D01*
X008630Y007053D02*
X008671Y007053D01*
X008630Y007250D02*
X008956Y007250D01*
X008955Y007348D02*
X008630Y007348D01*
X008647Y007447D02*
X008955Y007447D01*
X008955Y007545D02*
X008745Y007545D01*
X008844Y007644D02*
X008955Y007644D01*
X008942Y007742D02*
X008955Y007742D01*
X009238Y008038D02*
X012980Y008038D01*
X012881Y008136D02*
X009336Y008136D01*
X009435Y008235D02*
X012783Y008235D01*
X012684Y008333D02*
X009533Y008333D01*
X009632Y008432D02*
X012586Y008432D01*
X012487Y008530D02*
X009730Y008530D01*
X009829Y008629D02*
X012450Y008629D01*
X012450Y008727D02*
X011319Y008727D01*
X011372Y008826D02*
X012450Y008826D01*
X012450Y008924D02*
X011381Y008924D01*
X011352Y009023D02*
X012450Y009023D01*
X012450Y009121D02*
X011271Y009121D01*
X012450Y009220D02*
X007903Y009220D01*
X007903Y009318D02*
X012450Y009318D01*
X012450Y009417D02*
X007903Y009417D01*
X007903Y009515D02*
X012450Y009515D01*
X012450Y009614D02*
X007903Y009614D01*
X007903Y009712D02*
X012450Y009712D01*
X012450Y009811D02*
X007903Y009811D01*
X007903Y009909D02*
X012450Y009909D01*
X012450Y010008D02*
X007903Y010008D01*
X007903Y010106D02*
X012450Y010106D01*
X012450Y010205D02*
X007903Y010205D01*
X007903Y010303D02*
X012450Y010303D01*
X012450Y010402D02*
X007903Y010402D01*
X007903Y010500D02*
X012450Y010500D01*
X012419Y010599D02*
X007903Y010599D01*
X007903Y010697D02*
X012320Y010697D01*
X012222Y010796D02*
X007903Y010796D01*
X007903Y010894D02*
X012123Y010894D01*
X012025Y010993D02*
X007903Y010993D01*
X007903Y011091D02*
X011926Y011091D01*
X011828Y011190D02*
X007903Y011190D01*
X007903Y011288D02*
X011729Y011288D01*
X011631Y011387D02*
X007903Y011387D01*
X007903Y011485D02*
X011532Y011485D01*
X011434Y011584D02*
X007903Y011584D01*
X007903Y011682D02*
X011335Y011682D01*
X011237Y011781D02*
X007903Y011781D01*
X007903Y011879D02*
X010013Y011879D01*
X009915Y011978D02*
X007903Y011978D01*
X007903Y012076D02*
X009816Y012076D01*
X009718Y012175D02*
X007903Y012175D01*
X007943Y012273D02*
X009619Y012273D01*
X009521Y012372D02*
X007973Y012372D01*
X007966Y012470D02*
X009422Y012470D01*
X009324Y012569D02*
X007916Y012569D01*
X007764Y012667D02*
X009225Y012667D01*
X007703Y012400D02*
X007703Y006722D01*
X007900Y006485D01*
X008170Y006495D02*
X008170Y006495D01*
X008161Y006560D02*
X008170Y006560D01*
X008170Y006659D02*
X008108Y006659D01*
X008170Y006757D02*
X007934Y006757D01*
X007903Y006856D02*
X008170Y006856D01*
X008170Y006954D02*
X007903Y006954D01*
X007903Y007053D02*
X008170Y007053D01*
X008170Y007151D02*
X007903Y007151D01*
X007903Y007250D02*
X008170Y007250D01*
X008170Y007348D02*
X007903Y007348D01*
X007903Y007447D02*
X008170Y007447D01*
X008170Y007545D02*
X007903Y007545D01*
X007903Y007644D02*
X008193Y007644D01*
X008292Y007742D02*
X007903Y007742D01*
X007903Y007841D02*
X008390Y007841D01*
X008489Y007939D02*
X007903Y007939D01*
X007903Y008038D02*
X008587Y008038D01*
X008686Y008136D02*
X007903Y008136D01*
X007903Y008235D02*
X008784Y008235D01*
X008883Y008333D02*
X007903Y008333D01*
X007903Y008432D02*
X008981Y008432D01*
X009080Y008530D02*
X007903Y008530D01*
X007903Y008629D02*
X009178Y008629D01*
X009277Y008727D02*
X007903Y008727D01*
X007903Y008826D02*
X009375Y008826D01*
X009474Y008924D02*
X007903Y008924D01*
X007903Y009023D02*
X009572Y009023D01*
X009671Y009121D02*
X007903Y009121D01*
X006479Y007939D02*
X000900Y007939D01*
X006142Y005772D02*
X006192Y005772D01*
X006170Y005674D02*
X019745Y005674D01*
X019661Y005772D02*
X006358Y005772D01*
X006161Y005575D02*
X024400Y005575D01*
X024400Y005477D02*
X006108Y005477D01*
X006414Y006265D02*
X007738Y006265D01*
X007658Y006363D02*
X006438Y006363D01*
X006787Y006462D02*
X007630Y006462D01*
X007578Y006560D02*
X006885Y006560D01*
X006984Y006659D02*
X007496Y006659D01*
X007503Y006757D02*
X007084Y006757D01*
X007237Y006856D02*
X007503Y006856D01*
X007503Y006954D02*
X007288Y006954D01*
X007295Y007053D02*
X007503Y007053D01*
X007503Y007151D02*
X007265Y007151D01*
X008630Y006856D02*
X008630Y006856D01*
X008630Y006757D02*
X008667Y006757D01*
X008630Y006659D02*
X008777Y006659D01*
X008630Y006560D02*
X008974Y006560D01*
X008955Y006462D02*
X008630Y006462D01*
X008630Y006363D02*
X008955Y006363D01*
X008955Y006166D02*
X008491Y006166D01*
X008393Y006068D02*
X008955Y006068D01*
X008955Y005969D02*
X008294Y005969D01*
X008196Y005871D02*
X008997Y005871D01*
X009253Y006265D02*
X008590Y006265D01*
X009400Y006400D02*
X009400Y006900D01*
X009845Y007841D02*
X010205Y007841D01*
X010256Y007939D02*
X009794Y007939D01*
X011044Y007939D02*
X011506Y007939D01*
X011455Y007841D02*
X011095Y007841D01*
X012294Y007939D02*
X012756Y007939D01*
X012705Y007841D02*
X012345Y007841D01*
X013313Y008432D02*
X013487Y008432D01*
X013407Y008530D02*
X013393Y008530D01*
X013150Y008650D02*
X013150Y010650D01*
X008703Y015150D01*
X008703Y017453D01*
X009400Y018150D01*
X011900Y018150D01*
X012150Y017900D01*
X012150Y017650D01*
X012535Y017494D02*
X012750Y017494D01*
X012750Y017395D02*
X012483Y017395D01*
X012383Y017297D02*
X012750Y017297D01*
X012750Y017198D02*
X012380Y017198D01*
X012380Y017100D02*
X012750Y017100D01*
X012750Y017001D02*
X012380Y017001D01*
X012380Y016903D02*
X012750Y016903D01*
X012750Y016804D02*
X012380Y016804D01*
X012380Y016706D02*
X012750Y016706D01*
X012750Y016607D02*
X012380Y016607D01*
X012497Y016509D02*
X012750Y016509D01*
X012750Y016410D02*
X012497Y016410D01*
X012497Y016312D02*
X012750Y016312D01*
X012750Y016213D02*
X012497Y016213D01*
X012497Y016115D02*
X012750Y016115D01*
X012750Y016016D02*
X012497Y016016D01*
X012458Y015918D02*
X012750Y015918D01*
X012750Y015819D02*
X012497Y015819D01*
X012497Y015327D02*
X012908Y015327D01*
X013006Y015228D02*
X012438Y015228D01*
X012548Y014920D02*
X012449Y014879D01*
X012373Y014803D01*
X012332Y014704D01*
X012332Y014596D01*
X012373Y014497D01*
X012449Y014421D01*
X012548Y014380D01*
X012592Y014380D01*
X014450Y012566D01*
X014450Y010707D01*
X014421Y010678D01*
X014380Y010579D01*
X014380Y010471D01*
X014421Y010372D01*
X014497Y010296D01*
X014596Y010255D01*
X014704Y010255D01*
X014803Y010296D01*
X014879Y010372D01*
X014920Y010471D01*
X014920Y010579D01*
X014879Y010678D01*
X014850Y010707D01*
X014850Y012569D01*
X014851Y012570D01*
X014850Y012651D01*
X014850Y012733D01*
X014849Y012734D01*
X014849Y012735D01*
X014791Y012792D01*
X014733Y012850D01*
X014731Y012850D01*
X012872Y014666D01*
X012872Y014704D01*
X012831Y014803D01*
X012755Y014879D01*
X012655Y014920D01*
X012548Y014920D01*
X012404Y014834D02*
X009749Y014834D01*
X009847Y014736D02*
X012345Y014736D01*
X012332Y014637D02*
X009946Y014637D01*
X010044Y014539D02*
X012356Y014539D01*
X012430Y014440D02*
X010143Y014440D01*
X010241Y014342D02*
X012631Y014342D01*
X012732Y014243D02*
X010340Y014243D01*
X010438Y014145D02*
X012833Y014145D01*
X012934Y014046D02*
X010537Y014046D01*
X010635Y013948D02*
X013035Y013948D01*
X013136Y013849D02*
X010734Y013849D01*
X010832Y013751D02*
X013237Y013751D01*
X013338Y013652D02*
X010931Y013652D01*
X011029Y013554D02*
X013438Y013554D01*
X013539Y013455D02*
X011128Y013455D01*
X011226Y013357D02*
X013640Y013357D01*
X013741Y013258D02*
X011325Y013258D01*
X011423Y013160D02*
X013842Y013160D01*
X013943Y013061D02*
X011522Y013061D01*
X011620Y012963D02*
X014044Y012963D01*
X014145Y012864D02*
X011719Y012864D01*
X011817Y012766D02*
X014245Y012766D01*
X014346Y012667D02*
X011916Y012667D01*
X012014Y012569D02*
X014447Y012569D01*
X014450Y012470D02*
X012113Y012470D01*
X012211Y012372D02*
X014450Y012372D01*
X014450Y012273D02*
X012310Y012273D01*
X012408Y012175D02*
X014450Y012175D01*
X014450Y012076D02*
X012507Y012076D01*
X012605Y011978D02*
X014450Y011978D01*
X014450Y011879D02*
X012704Y011879D01*
X012802Y011781D02*
X014450Y011781D01*
X014450Y011682D02*
X012901Y011682D01*
X012999Y011584D02*
X014450Y011584D01*
X014450Y011485D02*
X013098Y011485D01*
X013196Y011387D02*
X014450Y011387D01*
X014450Y011288D02*
X013295Y011288D01*
X013393Y011190D02*
X014450Y011190D01*
X014450Y011091D02*
X013492Y011091D01*
X013590Y010993D02*
X014450Y010993D01*
X014450Y010894D02*
X013689Y010894D01*
X013787Y010796D02*
X014450Y010796D01*
X014440Y010697D02*
X013850Y010697D01*
X013850Y010599D02*
X014388Y010599D01*
X014380Y010500D02*
X013850Y010500D01*
X013850Y010402D02*
X014409Y010402D01*
X014490Y010303D02*
X013850Y010303D01*
X013850Y010205D02*
X015880Y010205D01*
X015880Y010204D02*
X015880Y010096D01*
X015921Y009997D01*
X015997Y009921D01*
X016096Y009880D01*
X016204Y009880D01*
X016303Y009921D01*
X016379Y009997D01*
X016420Y010096D01*
X016420Y010204D01*
X016379Y010303D01*
X016350Y010332D01*
X016350Y010718D01*
X016379Y010747D01*
X016420Y010846D01*
X016420Y010954D01*
X016379Y011053D01*
X016303Y011129D01*
X016204Y011170D01*
X016096Y011170D01*
X015997Y011129D01*
X015921Y011053D01*
X015880Y010954D01*
X015880Y010846D01*
X015921Y010747D01*
X015950Y010718D01*
X015950Y010332D01*
X015921Y010303D01*
X015880Y010204D01*
X015880Y010106D02*
X013850Y010106D01*
X013850Y010008D02*
X015917Y010008D01*
X016026Y009909D02*
X013850Y009909D01*
X013850Y009811D02*
X017250Y009811D01*
X017250Y009909D02*
X016274Y009909D01*
X016383Y010008D02*
X017250Y010008D01*
X017250Y010106D02*
X016420Y010106D01*
X016420Y010205D02*
X017250Y010205D01*
X017250Y010303D02*
X016379Y010303D01*
X016350Y010402D02*
X017250Y010402D01*
X017250Y010500D02*
X016350Y010500D01*
X016350Y010599D02*
X017250Y010599D01*
X017250Y010697D02*
X016350Y010697D01*
X016399Y010796D02*
X017250Y010796D01*
X017250Y010894D02*
X016420Y010894D01*
X016404Y010993D02*
X017242Y010993D01*
X017143Y011091D02*
X016341Y011091D01*
X016150Y010900D02*
X016150Y010150D01*
X015921Y010303D02*
X014810Y010303D01*
X014891Y010402D02*
X015950Y010402D01*
X015950Y010500D02*
X014920Y010500D01*
X014912Y010599D02*
X015950Y010599D01*
X015950Y010697D02*
X014860Y010697D01*
X014850Y010796D02*
X015901Y010796D01*
X015880Y010894D02*
X014850Y010894D01*
X014850Y010993D02*
X015896Y010993D01*
X015959Y011091D02*
X014850Y011091D01*
X014850Y011190D02*
X017045Y011190D01*
X016946Y011288D02*
X014850Y011288D01*
X014850Y011387D02*
X016848Y011387D01*
X016749Y011485D02*
X014850Y011485D01*
X014850Y011584D02*
X016651Y011584D01*
X016552Y011682D02*
X014850Y011682D01*
X014850Y011781D02*
X016454Y011781D01*
X016355Y011879D02*
X014850Y011879D01*
X014850Y011978D02*
X016257Y011978D01*
X016158Y012076D02*
X014850Y012076D01*
X014850Y012175D02*
X016060Y012175D01*
X015961Y012273D02*
X014850Y012273D01*
X014850Y012372D02*
X015863Y012372D01*
X015764Y012470D02*
X014850Y012470D01*
X014850Y012569D02*
X015666Y012569D01*
X015567Y012667D02*
X014850Y012667D01*
X014818Y012766D02*
X015469Y012766D01*
X015348Y012864D02*
X014717Y012864D01*
X014616Y012963D02*
X015272Y012963D01*
X015173Y013061D02*
X014515Y013061D01*
X014414Y013160D02*
X015075Y013160D01*
X014976Y013258D02*
X014314Y013258D01*
X014213Y013357D02*
X014878Y013357D01*
X014779Y013455D02*
X014112Y013455D01*
X014011Y013554D02*
X014681Y013554D01*
X014582Y013652D02*
X013910Y013652D01*
X013809Y013751D02*
X014484Y013751D01*
X014385Y013849D02*
X013708Y013849D01*
X013607Y013948D02*
X014287Y013948D01*
X014188Y014046D02*
X013507Y014046D01*
X013406Y014145D02*
X014090Y014145D01*
X013991Y014243D02*
X013305Y014243D01*
X013204Y014342D02*
X013893Y014342D01*
X013794Y014440D02*
X013103Y014440D01*
X013002Y014539D02*
X013696Y014539D01*
X013597Y014637D02*
X012901Y014637D01*
X012859Y014736D02*
X013499Y014736D01*
X013400Y014834D02*
X012800Y014834D01*
X012602Y014650D02*
X014650Y012650D01*
X014650Y010525D01*
X013650Y010650D02*
X009150Y015150D01*
X009150Y015900D01*
X009150Y016650D01*
X009650Y017150D01*
X011119Y017150D01*
X011150Y017650D01*
X010862Y017950D02*
X010798Y017886D01*
X010734Y017733D01*
X010734Y017567D01*
X010798Y017414D01*
X010862Y017350D01*
X010438Y017350D01*
X010467Y017379D01*
X010506Y017432D01*
X010535Y017490D01*
X010556Y017553D01*
X010565Y017611D01*
X010189Y017611D01*
X010189Y017689D01*
X010565Y017689D01*
X010556Y017747D01*
X010535Y017810D01*
X010506Y017868D01*
X010467Y017921D01*
X010438Y017950D01*
X010862Y017950D01*
X010800Y017888D02*
X010491Y017888D01*
X010542Y017789D02*
X010758Y017789D01*
X010734Y017691D02*
X010565Y017691D01*
X010562Y017592D02*
X010734Y017592D01*
X010765Y017494D02*
X010536Y017494D01*
X010479Y017395D02*
X010817Y017395D01*
X010920Y016903D02*
X009685Y016903D01*
X009587Y016804D02*
X010920Y016804D01*
X010920Y016706D02*
X009488Y016706D01*
X009390Y016607D02*
X010920Y016607D01*
X010803Y016509D02*
X009350Y016509D01*
X009350Y016410D02*
X010803Y016410D01*
X010803Y016312D02*
X009350Y016312D01*
X009350Y016213D02*
X010803Y016213D01*
X010803Y016115D02*
X009350Y016115D01*
X009394Y016016D02*
X010803Y016016D01*
X010842Y015918D02*
X009420Y015918D01*
X009409Y015819D02*
X010803Y015819D01*
X010803Y015721D02*
X009352Y015721D01*
X009350Y015622D02*
X010803Y015622D01*
X010803Y015524D02*
X009350Y015524D01*
X009350Y015425D02*
X010803Y015425D01*
X010803Y015327D02*
X009350Y015327D01*
X009355Y015228D02*
X010862Y015228D01*
X011438Y015228D02*
X011862Y015228D01*
X011803Y015327D02*
X011497Y015327D01*
X013105Y015130D02*
X009453Y015130D01*
X009552Y015031D02*
X013203Y015031D01*
X013302Y014933D02*
X009650Y014933D01*
X008703Y015150D02*
X006235Y015150D01*
X006203Y015181D01*
X006086Y015425D02*
X005384Y015425D01*
X005498Y015327D02*
X005971Y015327D01*
X005933Y015228D02*
X005536Y015228D01*
X005578Y015130D02*
X005933Y015130D01*
X005525Y014900D02*
X005266Y015159D01*
X005266Y015181D01*
X005149Y015425D02*
X004845Y015425D01*
X004963Y015327D02*
X005034Y015327D01*
X004561Y015425D02*
X003328Y015425D01*
X003328Y015327D02*
X004444Y015327D01*
X004402Y015228D02*
X003328Y015228D01*
X003328Y015130D02*
X004395Y015130D01*
X004419Y015031D02*
X003328Y015031D01*
X003328Y014933D02*
X004354Y014933D01*
X004224Y014834D02*
X004183Y014735D01*
X004183Y014637D02*
X003328Y014637D01*
X003328Y014539D02*
X004220Y014539D01*
X004327Y014440D02*
X003328Y014440D01*
X003328Y014342D02*
X004426Y014342D01*
X004524Y014243D02*
X003328Y014243D01*
X003328Y014145D02*
X004623Y014145D01*
X004700Y014067D02*
X004700Y014067D01*
X004721Y014046D02*
X003328Y014046D01*
X004453Y014597D02*
X004900Y014150D01*
X008025Y014150D01*
X008722Y014453D02*
X008275Y014900D01*
X005525Y014900D01*
X006321Y015425D02*
X008503Y015425D01*
X008503Y015524D02*
X003328Y015524D01*
X003328Y015622D02*
X008503Y015622D01*
X008503Y015721D02*
X003328Y015721D01*
X003328Y015819D02*
X008503Y015819D01*
X008503Y015918D02*
X003328Y015918D01*
X003328Y016016D02*
X008503Y016016D01*
X008503Y016115D02*
X003328Y016115D01*
X003328Y016213D02*
X008503Y016213D01*
X008503Y016312D02*
X003328Y016312D01*
X003328Y016410D02*
X008503Y016410D01*
X008503Y016509D02*
X003328Y016509D01*
X003328Y016607D02*
X008503Y016607D01*
X008503Y016706D02*
X003328Y016706D01*
X003328Y016804D02*
X008503Y016804D01*
X008503Y016903D02*
X003328Y016903D01*
X003328Y017001D02*
X008503Y017001D01*
X008503Y017100D02*
X003328Y017100D01*
X003328Y017198D02*
X008503Y017198D01*
X008503Y017297D02*
X007883Y017297D01*
X007886Y017298D02*
X008002Y017414D01*
X008066Y017567D01*
X008066Y017733D01*
X008002Y017886D01*
X007886Y018002D01*
X007733Y018066D01*
X007567Y018066D01*
X007414Y018002D01*
X007298Y017886D01*
X007234Y017733D01*
X007234Y017567D01*
X007298Y017414D01*
X007414Y017298D01*
X007567Y017234D01*
X007733Y017234D01*
X007886Y017298D01*
X007983Y017395D02*
X008503Y017395D01*
X008503Y017494D02*
X008035Y017494D01*
X008066Y017592D02*
X008559Y017592D01*
X008620Y017653D02*
X008620Y017653D01*
X008658Y017691D02*
X008066Y017691D01*
X008042Y017789D02*
X008756Y017789D01*
X008855Y017888D02*
X008000Y017888D01*
X007902Y017986D02*
X008953Y017986D01*
X009052Y018085D02*
X003328Y018085D01*
X003328Y018183D02*
X009150Y018183D01*
X009249Y018282D02*
X003328Y018282D01*
X003328Y018380D02*
X015100Y018380D01*
X015100Y018282D02*
X012051Y018282D01*
X012150Y018183D02*
X015100Y018183D01*
X015100Y018085D02*
X012248Y018085D01*
X012402Y017986D02*
X012898Y017986D01*
X012800Y017888D02*
X012500Y017888D01*
X012542Y017789D02*
X012758Y017789D01*
X012734Y017691D02*
X012566Y017691D01*
X012566Y017592D02*
X012734Y017592D01*
X013402Y017986D02*
X015100Y017986D01*
X015100Y017888D02*
X013500Y017888D01*
X013542Y017789D02*
X015100Y017789D01*
X015100Y017691D02*
X013566Y017691D01*
X013566Y017592D02*
X015100Y017592D01*
X015100Y017494D02*
X013550Y017494D01*
X013550Y017395D02*
X015100Y017395D01*
X015100Y017297D02*
X013550Y017297D01*
X013550Y017198D02*
X015156Y017198D01*
X015255Y017100D02*
X013550Y017100D01*
X013550Y017001D02*
X015353Y017001D01*
X015452Y016903D02*
X013550Y016903D01*
X013550Y016804D02*
X015550Y016804D01*
X015649Y016706D02*
X013550Y016706D01*
X013550Y016607D02*
X015747Y016607D01*
X015846Y016509D02*
X013550Y016509D01*
X013550Y016410D02*
X015944Y016410D01*
X016043Y016312D02*
X013550Y016312D01*
X013550Y016213D02*
X016141Y016213D01*
X016240Y016115D02*
X013550Y016115D01*
X013550Y016016D02*
X016338Y016016D01*
X016437Y015918D02*
X013550Y015918D01*
X013550Y015819D02*
X024400Y015819D01*
X024400Y015721D02*
X013645Y015721D01*
X013744Y015622D02*
X024400Y015622D01*
X024400Y015524D02*
X013842Y015524D01*
X013941Y015425D02*
X024400Y015425D01*
X024400Y015327D02*
X014039Y015327D01*
X014138Y015228D02*
X024400Y015228D01*
X024400Y015130D02*
X014236Y015130D01*
X014335Y015031D02*
X024400Y015031D01*
X024400Y014933D02*
X014433Y014933D01*
X014532Y014834D02*
X024400Y014834D01*
X024400Y014736D02*
X014630Y014736D01*
X014729Y014637D02*
X024400Y014637D01*
X024400Y014539D02*
X014827Y014539D01*
X014926Y014440D02*
X024400Y014440D01*
X024400Y014342D02*
X015024Y014342D01*
X015123Y014243D02*
X024400Y014243D01*
X024400Y014145D02*
X015221Y014145D01*
X015320Y014046D02*
X024400Y014046D01*
X024400Y013948D02*
X015418Y013948D01*
X015517Y013849D02*
X024400Y013849D01*
X024400Y013751D02*
X015615Y013751D01*
X015714Y013652D02*
X024400Y013652D01*
X024400Y013554D02*
X015812Y013554D01*
X015933Y013455D02*
X024400Y013455D01*
X024400Y013357D02*
X016014Y013357D01*
X016108Y013258D02*
X024400Y013258D01*
X024400Y013160D02*
X016206Y013160D01*
X016305Y013061D02*
X024400Y013061D01*
X024400Y012963D02*
X016403Y012963D01*
X016502Y012864D02*
X024400Y012864D01*
X024400Y012766D02*
X016600Y012766D01*
X016699Y012667D02*
X024400Y012667D01*
X024400Y012569D02*
X016797Y012569D01*
X016896Y012470D02*
X019154Y012470D01*
X019056Y012372D02*
X016994Y012372D01*
X017093Y012273D02*
X018957Y012273D01*
X018859Y012175D02*
X017191Y012175D01*
X017290Y012076D02*
X018760Y012076D01*
X018662Y011978D02*
X017388Y011978D01*
X017487Y011879D02*
X018563Y011879D01*
X018465Y011781D02*
X017585Y011781D01*
X017684Y011682D02*
X018366Y011682D01*
X018907Y011091D02*
X020171Y011091D01*
X020168Y011079D02*
X020168Y011063D01*
X020506Y011063D01*
X020506Y011400D01*
X020490Y011400D01*
X020421Y011387D01*
X020356Y011360D01*
X020298Y011321D01*
X020248Y011271D01*
X020209Y011213D01*
X020182Y011148D01*
X020168Y011079D01*
X020168Y011025D02*
X020168Y011009D01*
X020182Y010940D01*
X020209Y010875D01*
X020248Y010816D01*
X020298Y010767D01*
X020356Y010728D01*
X020421Y010701D01*
X020490Y010687D01*
X020506Y010687D01*
X020506Y011025D01*
X020168Y011025D01*
X020171Y010993D02*
X018808Y010993D01*
X018650Y010894D02*
X020201Y010894D01*
X020269Y010796D02*
X018050Y010796D01*
X018050Y010697D02*
X020440Y010697D01*
X020506Y010697D02*
X020544Y010697D01*
X020544Y010687D02*
X020560Y010687D01*
X020629Y010701D01*
X020694Y010728D01*
X020752Y010767D01*
X020802Y010816D01*
X020841Y010875D01*
X020868Y010940D01*
X020882Y011009D01*
X020882Y011025D01*
X020544Y011025D01*
X020544Y011063D01*
X020506Y011063D01*
X020506Y011025D01*
X020544Y011025D01*
X020544Y010687D01*
X020610Y010697D02*
X024400Y010697D01*
X024400Y010599D02*
X020631Y010599D01*
X020596Y010613D02*
X020454Y010613D01*
X020323Y010559D01*
X020223Y010458D01*
X020168Y010327D01*
X020168Y010185D01*
X020223Y010054D01*
X020323Y009954D01*
X020454Y009900D01*
X020596Y009900D01*
X020727Y009954D01*
X020827Y010054D01*
X020882Y010185D01*
X020882Y010327D01*
X020827Y010458D01*
X020727Y010559D01*
X020596Y010613D01*
X020419Y010599D02*
X018050Y010599D01*
X018050Y010500D02*
X020264Y010500D01*
X020199Y010402D02*
X018050Y010402D01*
X018050Y010303D02*
X020168Y010303D01*
X020168Y010205D02*
X018050Y010205D01*
X018050Y010106D02*
X020201Y010106D01*
X020269Y010008D02*
X018050Y010008D01*
X018050Y009909D02*
X020431Y009909D01*
X020619Y009909D02*
X024400Y009909D01*
X024400Y009811D02*
X018050Y009811D01*
X018066Y009712D02*
X024400Y009712D01*
X024400Y009614D02*
X018066Y009614D01*
X018044Y009515D02*
X024400Y009515D01*
X024400Y009417D02*
X018003Y009417D01*
X017906Y009318D02*
X024400Y009318D01*
X024400Y009220D02*
X013850Y009220D01*
X013850Y009318D02*
X017394Y009318D01*
X017297Y009417D02*
X013850Y009417D01*
X013850Y009515D02*
X017256Y009515D01*
X017234Y009614D02*
X013850Y009614D01*
X013850Y009712D02*
X017234Y009712D01*
X019005Y011190D02*
X020199Y011190D01*
X020265Y011288D02*
X019104Y011288D01*
X019202Y011387D02*
X020421Y011387D01*
X020506Y011387D02*
X020544Y011387D01*
X020544Y011400D02*
X020544Y011063D01*
X020882Y011063D01*
X020882Y011079D01*
X020868Y011148D01*
X020841Y011213D01*
X020802Y011271D01*
X020752Y011321D01*
X020694Y011360D01*
X020629Y011387D01*
X020560Y011400D01*
X020544Y011400D01*
X020629Y011387D02*
X024400Y011387D01*
X024400Y011485D02*
X019301Y011485D01*
X019399Y011584D02*
X024400Y011584D01*
X024400Y011682D02*
X019498Y011682D01*
X019596Y011781D02*
X024400Y011781D01*
X024400Y011879D02*
X019695Y011879D01*
X019762Y011978D02*
X024400Y011978D01*
X024400Y012076D02*
X019800Y012076D01*
X019800Y012175D02*
X024400Y012175D01*
X024400Y012273D02*
X019782Y012273D01*
X019741Y012372D02*
X024400Y012372D01*
X024400Y012470D02*
X019646Y012470D01*
X020506Y011288D02*
X020544Y011288D01*
X020544Y011190D02*
X020506Y011190D01*
X020506Y011091D02*
X020544Y011091D01*
X020544Y010993D02*
X020506Y010993D01*
X020506Y010894D02*
X020544Y010894D01*
X020544Y010796D02*
X020506Y010796D01*
X020781Y010796D02*
X024400Y010796D01*
X024400Y010894D02*
X020849Y010894D01*
X020879Y010993D02*
X024400Y010993D01*
X024400Y011091D02*
X020879Y011091D01*
X020851Y011190D02*
X024400Y011190D01*
X024400Y011288D02*
X020785Y011288D01*
X020786Y010500D02*
X024400Y010500D01*
X024400Y010402D02*
X020851Y010402D01*
X020882Y010303D02*
X024400Y010303D01*
X024400Y010205D02*
X020882Y010205D01*
X020849Y010106D02*
X024400Y010106D01*
X024400Y010008D02*
X020781Y010008D01*
X024400Y009121D02*
X013850Y009121D01*
X013850Y009023D02*
X024400Y009023D01*
X024400Y008924D02*
X013850Y008924D01*
X013856Y008826D02*
X024400Y008826D01*
X024400Y008727D02*
X013910Y008727D01*
X013920Y008629D02*
X024400Y008629D01*
X024400Y008530D02*
X013893Y008530D01*
X013813Y008432D02*
X024400Y008432D01*
X019630Y005871D02*
X016053Y005871D01*
X016095Y005969D02*
X019548Y005969D01*
X019450Y006068D02*
X016095Y006068D01*
X016185Y004098D02*
X015876Y004098D01*
X016008Y003999D02*
X016150Y003999D01*
X016150Y003901D02*
X016087Y003901D01*
X016128Y003802D02*
X016150Y003802D01*
X016150Y003704D02*
X016150Y003704D01*
X016150Y003605D02*
X016150Y003605D01*
X016150Y003507D02*
X016132Y003507D01*
X016150Y003408D02*
X016091Y003408D01*
X016150Y003310D02*
X016017Y003310D01*
X015897Y003211D02*
X016177Y003211D01*
X015478Y003180D02*
X014822Y003180D01*
X014933Y003226D01*
X015074Y003367D01*
X015150Y003551D01*
X015150Y003749D01*
X015150Y003551D01*
X015226Y003367D01*
X015367Y003226D01*
X015478Y003180D01*
X015403Y003211D02*
X014897Y003211D01*
X015017Y003310D02*
X015283Y003310D01*
X015209Y003408D02*
X015091Y003408D01*
X015132Y003507D02*
X015168Y003507D01*
X015150Y003605D02*
X015150Y003605D01*
X015150Y003704D02*
X015150Y003704D01*
X015128Y003802D02*
X015172Y003802D01*
X015213Y003901D02*
X015087Y003901D01*
X015008Y003999D02*
X015292Y003999D01*
X015424Y004098D02*
X014876Y004098D01*
X014424Y004098D02*
X013876Y004098D01*
X014008Y003999D02*
X014292Y003999D01*
X014213Y003901D02*
X014087Y003901D01*
X014128Y003802D02*
X014172Y003802D01*
X014150Y003749D02*
X014150Y003551D01*
X014074Y003367D01*
X013933Y003226D01*
X013822Y003180D01*
X014478Y003180D01*
X014367Y003226D01*
X014226Y003367D01*
X014150Y003551D01*
X014150Y003749D01*
X014150Y003704D02*
X014150Y003704D01*
X014150Y003605D02*
X014150Y003605D01*
X014132Y003507D02*
X014168Y003507D01*
X014209Y003408D02*
X014091Y003408D01*
X014017Y003310D02*
X014283Y003310D01*
X014403Y003211D02*
X013897Y003211D01*
X016602Y001438D02*
X016698Y001438D01*
X016698Y001340D02*
X016602Y001340D01*
X016602Y001241D02*
X016698Y001241D01*
X018602Y001241D02*
X018698Y001241D01*
X018698Y001340D02*
X018602Y001340D01*
X018602Y001438D02*
X018698Y001438D01*
X020602Y001438D02*
X020698Y001438D01*
X020698Y001340D02*
X020602Y001340D01*
X020602Y001241D02*
X020698Y001241D01*
X020938Y001241D02*
X022767Y001241D01*
X022705Y001340D02*
X021042Y001340D01*
X021103Y001438D02*
X022664Y001438D01*
X022624Y001537D02*
X021138Y001537D01*
X020177Y003211D02*
X019897Y003211D01*
X020017Y003310D02*
X020150Y003310D01*
X020150Y003408D02*
X020091Y003408D01*
X020132Y003507D02*
X020150Y003507D01*
X020150Y003605D02*
X020150Y003605D01*
X020150Y003704D02*
X020150Y003704D01*
X020150Y003802D02*
X020128Y003802D01*
X020150Y003901D02*
X020087Y003901D01*
X020150Y003999D02*
X020008Y003999D01*
X019876Y004098D02*
X020185Y004098D01*
X019424Y004098D02*
X018876Y004098D01*
X019008Y003999D02*
X019292Y003999D01*
X019213Y003901D02*
X019087Y003901D01*
X019128Y003802D02*
X019172Y003802D01*
X019150Y003749D02*
X019150Y003551D01*
X019074Y003367D01*
X018933Y003226D01*
X018822Y003180D01*
X019478Y003180D01*
X019367Y003226D01*
X019226Y003367D01*
X019150Y003551D01*
X019150Y003749D01*
X019150Y003704D02*
X019150Y003704D01*
X019150Y003605D02*
X019150Y003605D01*
X019132Y003507D02*
X019168Y003507D01*
X019209Y003408D02*
X019091Y003408D01*
X019017Y003310D02*
X019283Y003310D01*
X019403Y003211D02*
X018897Y003211D01*
X018478Y003180D02*
X017822Y003180D01*
X017933Y003226D01*
X018074Y003367D01*
X018150Y003551D01*
X018150Y003749D01*
X018150Y003551D01*
X018226Y003367D01*
X018367Y003226D01*
X018478Y003180D01*
X018403Y003211D02*
X017897Y003211D01*
X018017Y003310D02*
X018283Y003310D01*
X018209Y003408D02*
X018091Y003408D01*
X018132Y003507D02*
X018168Y003507D01*
X018150Y003605D02*
X018150Y003605D01*
X018150Y003704D02*
X018150Y003704D01*
X018128Y003802D02*
X018172Y003802D01*
X018213Y003901D02*
X018087Y003901D01*
X018008Y003999D02*
X018292Y003999D01*
X018424Y004098D02*
X017876Y004098D01*
X017424Y004098D02*
X017115Y004098D01*
X017150Y003999D02*
X017292Y003999D01*
X017213Y003901D02*
X017150Y003901D01*
X017150Y003802D02*
X017172Y003802D01*
X017150Y003704D02*
X017150Y003704D01*
X017150Y003605D02*
X017150Y003605D01*
X017150Y003507D02*
X017168Y003507D01*
X017150Y003408D02*
X017209Y003408D01*
X017150Y003310D02*
X017283Y003310D01*
X017403Y003211D02*
X017123Y003211D01*
X013650Y008650D02*
X013650Y010650D01*
X008903Y016010D02*
X008903Y017370D01*
X009483Y017950D01*
X009862Y017950D01*
X009833Y017921D01*
X009794Y017868D01*
X009765Y017810D01*
X009744Y017747D01*
X009735Y017689D01*
X010111Y017689D01*
X010111Y017611D01*
X009735Y017611D01*
X009744Y017553D01*
X009765Y017490D01*
X009794Y017432D01*
X009833Y017379D01*
X009862Y017350D01*
X009567Y017350D01*
X009450Y017233D01*
X008950Y016733D01*
X008950Y016082D01*
X008921Y016053D01*
X008903Y016010D01*
X008903Y016016D02*
X008906Y016016D01*
X008903Y016115D02*
X008950Y016115D01*
X008950Y016213D02*
X008903Y016213D01*
X008903Y016312D02*
X008950Y016312D01*
X008950Y016410D02*
X008903Y016410D01*
X008903Y016509D02*
X008950Y016509D01*
X008950Y016607D02*
X008903Y016607D01*
X008903Y016706D02*
X008950Y016706D01*
X008903Y016804D02*
X009021Y016804D01*
X009120Y016903D02*
X008903Y016903D01*
X008903Y017001D02*
X009218Y017001D01*
X009317Y017100D02*
X008903Y017100D01*
X008903Y017198D02*
X009415Y017198D01*
X009514Y017297D02*
X008903Y017297D01*
X008928Y017395D02*
X009821Y017395D01*
X009764Y017494D02*
X009026Y017494D01*
X009125Y017592D02*
X009738Y017592D01*
X009735Y017691D02*
X009223Y017691D01*
X009322Y017789D02*
X009758Y017789D01*
X009809Y017888D02*
X009420Y017888D01*
X007398Y017986D02*
X006902Y017986D01*
X006886Y018002D02*
X006733Y018066D01*
X006567Y018066D01*
X006414Y018002D01*
X006298Y017886D01*
X006234Y017733D01*
X006234Y017567D01*
X006298Y017414D01*
X006414Y017298D01*
X006567Y017234D01*
X006733Y017234D01*
X006886Y017298D01*
X007002Y017414D01*
X007066Y017567D01*
X007066Y017733D01*
X007002Y017886D01*
X006886Y018002D01*
X007000Y017888D02*
X007300Y017888D01*
X007258Y017789D02*
X007042Y017789D01*
X007066Y017691D02*
X007234Y017691D01*
X007234Y017592D02*
X007066Y017592D01*
X007035Y017494D02*
X007265Y017494D01*
X007317Y017395D02*
X006983Y017395D01*
X006883Y017297D02*
X007417Y017297D01*
X006417Y017297D02*
X005883Y017297D01*
X005886Y017298D02*
X006002Y017414D01*
X006066Y017567D01*
X006066Y017733D01*
X006002Y017886D01*
X005886Y018002D01*
X005733Y018066D01*
X005567Y018066D01*
X005414Y018002D01*
X005298Y017886D01*
X005234Y017733D01*
X005234Y017567D01*
X005298Y017414D01*
X005414Y017298D01*
X005567Y017234D01*
X005733Y017234D01*
X005886Y017298D01*
X005983Y017395D02*
X006317Y017395D01*
X006265Y017494D02*
X006035Y017494D01*
X006066Y017592D02*
X006234Y017592D01*
X006234Y017691D02*
X006066Y017691D01*
X006042Y017789D02*
X006258Y017789D01*
X006300Y017888D02*
X006000Y017888D01*
X005902Y017986D02*
X006398Y017986D01*
X005398Y017986D02*
X004895Y017986D01*
X004921Y017967D02*
X004868Y018006D01*
X004810Y018035D01*
X004747Y018056D01*
X004689Y018065D01*
X004689Y017689D01*
X005065Y017689D01*
X005056Y017747D01*
X005035Y017810D01*
X005006Y017868D01*
X004967Y017921D01*
X004921Y017967D01*
X004991Y017888D02*
X005300Y017888D01*
X005258Y017789D02*
X005042Y017789D01*
X005065Y017691D02*
X005234Y017691D01*
X005234Y017592D02*
X005062Y017592D01*
X005065Y017611D02*
X004689Y017611D01*
X004689Y017689D01*
X004611Y017689D01*
X004611Y018065D01*
X004553Y018056D01*
X004490Y018035D01*
X004432Y018006D01*
X004379Y017967D01*
X004333Y017921D01*
X004294Y017868D01*
X004265Y017810D01*
X004244Y017747D01*
X004235Y017689D01*
X004611Y017689D01*
X004611Y017611D01*
X004689Y017611D01*
X004689Y017235D01*
X004747Y017244D01*
X004810Y017265D01*
X004868Y017294D01*
X004921Y017333D01*
X004967Y017379D01*
X005006Y017432D01*
X005035Y017490D01*
X005056Y017553D01*
X005065Y017611D01*
X005036Y017494D02*
X005265Y017494D01*
X005317Y017395D02*
X004979Y017395D01*
X004871Y017297D02*
X005417Y017297D01*
X004689Y017297D02*
X004611Y017297D01*
X004611Y017235D02*
X004611Y017611D01*
X004235Y017611D01*
X004244Y017553D01*
X004265Y017490D01*
X004294Y017432D01*
X004333Y017379D01*
X004379Y017333D01*
X004432Y017294D01*
X004490Y017265D01*
X004553Y017244D01*
X004611Y017235D01*
X004611Y017395D02*
X004689Y017395D01*
X004689Y017494D02*
X004611Y017494D01*
X004611Y017592D02*
X004689Y017592D01*
X004689Y017691D02*
X004611Y017691D01*
X004611Y017789D02*
X004689Y017789D01*
X004689Y017888D02*
X004611Y017888D01*
X004611Y017986D02*
X004689Y017986D01*
X004405Y017986D02*
X003328Y017986D01*
X003328Y017888D02*
X004309Y017888D01*
X004258Y017789D02*
X003328Y017789D01*
X003328Y017691D02*
X004235Y017691D01*
X004238Y017592D02*
X003328Y017592D01*
X003328Y017494D02*
X004264Y017494D01*
X004321Y017395D02*
X003328Y017395D01*
X003328Y017297D02*
X004429Y017297D01*
X004453Y014681D02*
X004453Y014597D01*
X021700Y015918D02*
X024400Y015918D01*
X024400Y016016D02*
X021700Y016016D01*
X021700Y016115D02*
X024400Y016115D01*
X024400Y016213D02*
X021700Y016213D01*
X021700Y016312D02*
X024400Y016312D01*
X024400Y016410D02*
X021700Y016410D01*
X021700Y016509D02*
X024400Y016509D01*
X024400Y016607D02*
X021700Y016607D01*
X021700Y016706D02*
X023153Y016706D01*
X022952Y016804D02*
X021700Y016804D01*
X021700Y016903D02*
X022854Y016903D01*
X022755Y017001D02*
X021700Y017001D01*
X021700Y017100D02*
X022700Y017100D01*
X022659Y017198D02*
X021700Y017198D01*
X021700Y017297D02*
X022619Y017297D01*
X022597Y017395D02*
X021700Y017395D01*
X021700Y017494D02*
X022597Y017494D01*
X022597Y017592D02*
X021700Y017592D01*
X021700Y017691D02*
X022597Y017691D01*
X022634Y017789D02*
X021700Y017789D01*
X021700Y017888D02*
X022675Y017888D01*
X022716Y017986D02*
X021700Y017986D01*
X021700Y018085D02*
X022793Y018085D01*
X022891Y018183D02*
X021700Y018183D01*
X021700Y018282D02*
X023006Y018282D01*
X023244Y018380D02*
X021700Y018380D01*
X023709Y018380D02*
X023800Y018380D01*
X023947Y018282D02*
X024041Y018282D01*
X024062Y018183D02*
X024177Y018183D01*
X024161Y018085D02*
X024250Y018085D01*
X024238Y017986D02*
X024320Y017986D01*
X024352Y017888D02*
X024279Y017888D01*
X024319Y017789D02*
X024384Y017789D01*
X024397Y017691D02*
X024357Y017691D01*
X024357Y017592D02*
X024400Y017592D01*
X024400Y017494D02*
X024357Y017494D01*
X024357Y017395D02*
X024400Y017395D01*
X024400Y017297D02*
X024335Y017297D01*
X024294Y017198D02*
X024400Y017198D01*
X024400Y017100D02*
X024253Y017100D01*
X024198Y017001D02*
X024400Y017001D01*
X024400Y016903D02*
X024100Y016903D01*
X024001Y016804D02*
X024400Y016804D01*
X024400Y016706D02*
X023800Y016706D01*
D19*
X023650Y015650D03*
X023650Y013650D03*
X023650Y011650D03*
X023650Y009650D03*
X020150Y009150D03*
X020150Y007650D03*
X019900Y005900D03*
X019900Y005150D03*
X017275Y006400D03*
X016400Y007650D03*
X016650Y008650D03*
X016150Y010150D03*
X016150Y010900D03*
X014650Y010525D03*
X014650Y009650D03*
X013650Y008650D03*
X013150Y008650D03*
X012150Y008900D03*
X011111Y008900D03*
X012650Y007150D03*
X013900Y006900D03*
X015150Y006900D03*
X013650Y005650D03*
X013150Y004650D03*
X012650Y004650D03*
X011400Y006900D03*
X010150Y006900D03*
X008900Y006900D03*
X007900Y006485D03*
X007025Y007025D03*
X006150Y006900D03*
X006275Y006030D03*
X005900Y005650D03*
X006150Y004650D03*
X004900Y006650D03*
X004150Y008150D03*
X006650Y008150D03*
X008775Y008775D03*
X008775Y009525D03*
X008650Y011650D03*
X007703Y012400D03*
X008150Y013150D03*
X008722Y014453D03*
X009150Y015900D03*
X010150Y016150D03*
X012602Y014650D03*
X010650Y011650D03*
X006203Y015181D03*
X005266Y015181D03*
X004453Y014681D03*
X003900Y014150D03*
X003900Y012150D03*
X004775Y011650D03*
X001400Y008150D03*
X014650Y017650D03*
X018650Y015150D03*
X019150Y015150D03*
X020150Y015150D03*
X020650Y015150D03*
X019525Y012775D03*
X016900Y012806D03*
X016900Y013431D03*
X023650Y004650D03*
D20*
X016400Y007650D02*
X016319Y007569D01*
X015650Y007569D01*
X014400Y007569D01*
X013150Y007569D01*
X011900Y007569D01*
X010650Y007569D01*
X009400Y007569D01*
X008400Y007525D02*
X008400Y006400D01*
X008030Y006030D01*
X006275Y006030D01*
X005900Y006150D02*
X005900Y005650D01*
X005900Y006150D02*
X006400Y006650D01*
X006650Y006650D01*
X007025Y007025D01*
X008400Y007525D02*
X009775Y008900D01*
X011111Y008900D01*
X011150Y015565D02*
X012150Y015565D01*
X013097Y015565D01*
X013150Y015900D01*
X012150Y016235D02*
X012150Y017650D01*
X011150Y017650D02*
X011150Y016235D01*
D21*
X010275Y012400D03*
X004703Y015150D03*
X019400Y012150D03*
D22*
X018525Y011275D01*
X017650Y011275D01*
X017650Y011150D01*
X017650Y009650D01*
X017650Y011150D02*
X015650Y013150D01*
X013150Y015650D01*
X013150Y015900D01*
X013150Y017650D01*
D23*
X008150Y014525D02*
X010275Y012400D01*
X008150Y014525D02*
X005453Y014525D01*
X004703Y015150D01*
D24*
X005650Y002650D02*
X020650Y002650D01*
M02*
