%
M48
M72
T01C0.0120
T02C0.0197
T03C0.0276
T04C0.0354
T05C0.0360
T06C0.0394
T07C0.1260
%
T01
X6150Y4650
X5900Y5650
X6275Y6030
X6150Y6900
X7025Y7025
X7900Y6485
X8900Y6900
X10150Y6900
X11400Y6900
X12650Y7150
X13900Y6900
X15150Y6900
X16400Y7650
X16650Y8650
X16150Y10150
X16150Y10900
X14650Y10525
X14650Y9650
X13650Y8650
X13150Y8650
X12150Y8900
X11111Y8900
X8775Y8775
X8775Y9525
X6650Y8150
X4900Y6650
X4150Y8150
X1400Y8150
X4775Y11650
X3900Y12150
X3900Y14150
X4453Y14681
X5266Y15181
X6203Y15181
X8722Y14453
X8150Y13150
X7703Y12400
X8650Y11650
X10650Y11650
X12602Y14650
X10150Y16150
X9150Y15900
X14650Y17650
X18650Y15150
X19150Y15150
X20150Y15150
X20650Y15150
X23650Y15650
X23650Y13650
X23650Y11650
X23650Y9650
X20150Y9150
X20150Y7650
X19900Y5900
X19900Y5150
X17275Y6400
X13650Y5650
X13150Y4650
X12650Y4650
X16900Y12806
X16900Y13431
X19525Y12775
X23650Y4650
T02
X19400Y12150
X10275Y12400
X4703Y15150
T03
X20525Y11044
X20525Y10256
T04
X17650Y9650
X15650Y13150
X16150Y17650
X17150Y17650
X19650Y17650
X20650Y17650
X13150Y17650
X12150Y17650
X11150Y17650
X10150Y17650
X7650Y17650
X6650Y17650
X5650Y17650
X4650Y17650
T05
X4150Y1650
T06
X5650Y1650
X6650Y1650
X7650Y1650
X8650Y1650
X9650Y1650
X10650Y1650
X11650Y1650
X12650Y1650
X13650Y1650
X14650Y1650
X15650Y1650
X16650Y1650
X17650Y1650
X18650Y1650
X19650Y1650
X20650Y1650
X20650Y2650
X19650Y2650
X18650Y2650
X17650Y2650
X16650Y2650
X15650Y2650
X14650Y2650
X13650Y2650
X12650Y2650
X11650Y2650
X10650Y2650
X9650Y2650
X8650Y2650
X7650Y2650
X6650Y2650
X5650Y2650
X5650Y3650
X6650Y3650
X7650Y3650
X8650Y3650
X9650Y3650
X10650Y3650
X11650Y3650
X12650Y3650
X13650Y3650
X14650Y3650
X15650Y3650
X16650Y3650
X17650Y3650
X18650Y3650
X19650Y3650
X20650Y3650
T07
X1823Y1776
X1823Y17524
X23477Y17524
X23477Y1776
M30
